0
SECTION
2
HEADER
9
$INSUNITS
70
4
0
ENDSEC
0
SECTION
2
TABLES
0
TABLE
2
LTYPE
0
LTYPE
72
65
70
0
2
CONTINUOUS
3
______
73
0
40
0
0
LTYPE
72
65
70
0
2
DASHED
3
_ _ _ 
73
2
40
7.5
49
5
49
-2.5
0
LTYPE
72
65
70
0
2
DOTTED
3
. . . 
73
2
40
1.5
49
0.5
49
-1
0
ENDTAB
0
TABLE
2
LAYER
0
ENDTAB
0
ENDSEC
0
SECTION
2
ENTITIES
0
LINE
8
0
6
CONTINUOUS
10
140.475
20
-159.525
11
178.525
21
-159.525
0
LINE
8
0
6
CONTINUOUS
10
140.475
20
-159.525
11
140.475
21
-83.475
0
LINE
8
0
6
CONTINUOUS
10
140.475
20
-83.475
11
178.475
21
-83.475
0
LINE
8
0
6
CONTINUOUS
10
178.525
20
-159.525
11
178.525
21
-153.525
0
LINE
8
0
6
CONTINUOUS
10
178.525
20
-153.525
11
197.525
21
-153.525
0
LINE
8
0
6
CONTINUOUS
10
197.475
20
-77.475
11
178.475
21
-77.475
0
LINE
8
0
6
CONTINUOUS
10
178.475
20
-77.475
11
178.475
21
-83.475
0
LINE
8
0
6
CONTINUOUS
10
216.525
20
-76.475
11
216.525
21
-73.475
0
LINE
8
0
6
CONTINUOUS
10
216.525
20
-73.475
11
197.475
21
-73.475
0
LINE
8
0
6
CONTINUOUS
10
197.475
20
-73.475
11
197.475
21
-77.475
0
LINE
8
0
6
CONTINUOUS
10
235.525
20
-78.475
11
235.525
21
-76.475
0
LINE
8
0
6
CONTINUOUS
10
235.525
20
-76.475
11
216.525
21
-76.475
0
LINE
8
0
6
CONTINUOUS
10
254.525
20
-78.4873301
11
254.525
21
-78.475
0
LINE
8
0
6
CONTINUOUS
10
254.525
20
-78.475
11
235.525
21
-78.475
0
LINE
8
0
6
CONTINUOUS
10
210.71
20
-155.4775
11
210.71
21
-174.5275
0
LINE
8
0
6
CONTINUOUS
10
250.1589849
20
-177.3861292
11
265.7638314
21
-188.3127603
0
LINE
8
0
6
CONTINUOUS
10
265.7638314
20
-188.3127603
11
276.6904625
21
-172.7079138
0
LINE
8
0
6
CONTINUOUS
10
276.6904625
20
-172.7079138
11
274.1
21
-170.8940524
0
LINE
8
0
6
CONTINUOUS
10
274.1
20
-170.8940524
11
274.1
21
-78.5
0
LINE
8
0
6
CONTINUOUS
10
197.525
20
-153.525
11
210.71
21
-155.4775
0
LINE
8
0
6
CONTINUOUS
10
210.71
20
-174.5275
11
230.6275703
21
-174.8252134
0
LINE
8
0
6
CONTINUOUS
10
230.6275703
20
-174.8252134
11
250.1589849
21
-177.3861292
0
LINE
8
0
6
CONTINUOUS
10
274.1
20
-78.5
11
254.525
21
-78.4873301
0
LINE
8
0
6
CONTINUOUS
10
142
20
-159
11
158
21
-159
0
LINE
8
0
6
CONTINUOUS
10
159
20
-158
11
159
21
-142
0
LINE
8
0
6
CONTINUOUS
10
158
20
-141
11
142
21
-141
0
LINE
8
0
6
CONTINUOUS
10
141
20
-142
11
141
21
-158
0
LINE
8
0
6
CONTINUOUS
10
142
20
-140
11
158
21
-140
0
LINE
8
0
6
CONTINUOUS
10
159
20
-139
11
159
21
-123
0
LINE
8
0
6
CONTINUOUS
10
158
20
-122
11
142
21
-122
0
LINE
8
0
6
CONTINUOUS
10
141
20
-123
11
141
21
-139
0
LINE
8
0
6
CONTINUOUS
10
142
20
-121
11
158
21
-121
0
LINE
8
0
6
CONTINUOUS
10
159
20
-120
11
159
21
-104
0
LINE
8
0
6
CONTINUOUS
10
158
20
-103
11
142
21
-103
0
LINE
8
0
6
CONTINUOUS
10
141
20
-104
11
141
21
-120
0
LINE
8
0
6
CONTINUOUS
10
142
20
-102
11
158
21
-102
0
LINE
8
0
6
CONTINUOUS
10
159
20
-101
11
159
21
-85
0
LINE
8
0
6
CONTINUOUS
10
158
20
-84
11
142
21
-84
0
LINE
8
0
6
CONTINUOUS
10
141
20
-85
11
141
21
-101
0
LINE
8
0
6
CONTINUOUS
10
161
20
-159
11
177
21
-159
0
LINE
8
0
6
CONTINUOUS
10
178
20
-158
11
178
21
-142
0
LINE
8
0
6
CONTINUOUS
10
177
20
-141
11
161
21
-141
0
LINE
8
0
6
CONTINUOUS
10
160
20
-142
11
160
21
-158
0
LINE
8
0
6
CONTINUOUS
10
161
20
-140
11
177
21
-140
0
LINE
8
0
6
CONTINUOUS
10
178
20
-139
11
178
21
-123
0
LINE
8
0
6
CONTINUOUS
10
177
20
-122
11
161
21
-122
0
LINE
8
0
6
CONTINUOUS
10
160
20
-123
11
160
21
-139
0
LINE
8
0
6
CONTINUOUS
10
161
20
-121
11
177
21
-121
0
LINE
8
0
6
CONTINUOUS
10
178
20
-120
11
178
21
-104
0
LINE
8
0
6
CONTINUOUS
10
177
20
-103
11
161
21
-103
0
LINE
8
0
6
CONTINUOUS
10
160
20
-104
11
160
21
-120
0
LINE
8
0
6
CONTINUOUS
10
161
20
-102
11
177
21
-102
0
LINE
8
0
6
CONTINUOUS
10
178
20
-101
11
178
21
-85
0
LINE
8
0
6
CONTINUOUS
10
177
20
-84
11
161
21
-84
0
LINE
8
0
6
CONTINUOUS
10
160
20
-85
11
160
21
-101
0
LINE
8
0
6
CONTINUOUS
10
180
20
-153
11
196
21
-153
0
LINE
8
0
6
CONTINUOUS
10
197
20
-152
11
197
21
-136
0
LINE
8
0
6
CONTINUOUS
10
196
20
-135
11
180
21
-135
0
LINE
8
0
6
CONTINUOUS
10
179
20
-136
11
179
21
-152
0
LINE
8
0
6
CONTINUOUS
10
180
20
-134
11
196
21
-134
0
LINE
8
0
6
CONTINUOUS
10
197
20
-133
11
197
21
-117
0
LINE
8
0
6
CONTINUOUS
10
196
20
-116
11
180
21
-116
0
LINE
8
0
6
CONTINUOUS
10
179
20
-117
11
179
21
-133
0
LINE
8
0
6
CONTINUOUS
10
180
20
-115
11
196
21
-115
0
LINE
8
0
6
CONTINUOUS
10
197
20
-114
11
197
21
-98
0
LINE
8
0
6
CONTINUOUS
10
196
20
-97
11
180
21
-97
0
LINE
8
0
6
CONTINUOUS
10
179
20
-98
11
179
21
-114
0
LINE
8
0
6
CONTINUOUS
10
180
20
-96
11
196
21
-96
0
LINE
8
0
6
CONTINUOUS
10
197
20
-95
11
197
21
-79
0
LINE
8
0
6
CONTINUOUS
10
196
20
-78
11
180
21
-78
0
LINE
8
0
6
CONTINUOUS
10
179
20
-79
11
179
21
-95
0
LINE
8
0
6
CONTINUOUS
10
199
20
-149
11
215
21
-149
0
LINE
8
0
6
CONTINUOUS
10
216
20
-148
11
216
21
-132
0
LINE
8
0
6
CONTINUOUS
10
215
20
-131
11
199
21
-131
0
LINE
8
0
6
CONTINUOUS
10
198
20
-132
11
198
21
-148
0
LINE
8
0
6
CONTINUOUS
10
199
20
-130
11
215
21
-130
0
LINE
8
0
6
CONTINUOUS
10
216
20
-129
11
216
21
-113
0
LINE
8
0
6
CONTINUOUS
10
215
20
-112
11
199
21
-112
0
LINE
8
0
6
CONTINUOUS
10
198
20
-113
11
198
21
-129
0
LINE
8
0
6
CONTINUOUS
10
199
20
-111
11
215
21
-111
0
LINE
8
0
6
CONTINUOUS
10
216
20
-110
11
216
21
-94
0
LINE
8
0
6
CONTINUOUS
10
215
20
-93
11
199
21
-93
0
LINE
8
0
6
CONTINUOUS
10
198
20
-94
11
198
21
-110
0
LINE
8
0
6
CONTINUOUS
10
199
20
-92
11
215
21
-92
0
LINE
8
0
6
CONTINUOUS
10
216
20
-91
11
216
21
-75
0
LINE
8
0
6
CONTINUOUS
10
215
20
-74
11
199
21
-74
0
LINE
8
0
6
CONTINUOUS
10
198
20
-75
11
198
21
-91
0
LINE
8
0
6
CONTINUOUS
10
218
20
-152
11
234
21
-152
0
LINE
8
0
6
CONTINUOUS
10
235
20
-151
11
235
21
-135
0
LINE
8
0
6
CONTINUOUS
10
234
20
-134
11
218
21
-134
0
LINE
8
0
6
CONTINUOUS
10
217
20
-135
11
217
21
-151
0
LINE
8
0
6
CONTINUOUS
10
218
20
-133
11
234
21
-133
0
LINE
8
0
6
CONTINUOUS
10
235
20
-132
11
235
21
-116
0
LINE
8
0
6
CONTINUOUS
10
234
20
-115
11
218
21
-115
0
LINE
8
0
6
CONTINUOUS
10
217
20
-116
11
217
21
-132
0
LINE
8
0
6
CONTINUOUS
10
218
20
-114
11
234
21
-114
0
LINE
8
0
6
CONTINUOUS
10
235
20
-113
11
235
21
-97
0
LINE
8
0
6
CONTINUOUS
10
234
20
-96
11
218
21
-96
0
LINE
8
0
6
CONTINUOUS
10
217
20
-97
11
217
21
-113
0
LINE
8
0
6
CONTINUOUS
10
218
20
-95
11
234
21
-95
0
LINE
8
0
6
CONTINUOUS
10
235
20
-94
11
235
21
-78
0
LINE
8
0
6
CONTINUOUS
10
234
20
-77
11
218
21
-77
0
LINE
8
0
6
CONTINUOUS
10
217
20
-78
11
217
21
-94
0
LINE
8
0
6
CONTINUOUS
10
237
20
-154
11
253
21
-154
0
LINE
8
0
6
CONTINUOUS
10
254
20
-153
11
254
21
-137
0
LINE
8
0
6
CONTINUOUS
10
253
20
-136
11
237
21
-136
0
LINE
8
0
6
CONTINUOUS
10
236
20
-137
11
236
21
-153
0
LINE
8
0
6
CONTINUOUS
10
237
20
-135
11
253
21
-135
0
LINE
8
0
6
CONTINUOUS
10
254
20
-134
11
254
21
-118
0
LINE
8
0
6
CONTINUOUS
10
253
20
-117
11
237
21
-117
0
LINE
8
0
6
CONTINUOUS
10
236
20
-118
11
236
21
-134
0
LINE
8
0
6
CONTINUOUS
10
237
20
-116
11
253
21
-116
0
LINE
8
0
6
CONTINUOUS
10
254
20
-115
11
254
21
-99
0
LINE
8
0
6
CONTINUOUS
10
253
20
-98
11
237
21
-98
0
LINE
8
0
6
CONTINUOUS
10
236
20
-99
11
236
21
-115
0
LINE
8
0
6
CONTINUOUS
10
237
20
-97
11
253
21
-97
0
LINE
8
0
6
CONTINUOUS
10
254
20
-96
11
254
21
-80
0
LINE
8
0
6
CONTINUOUS
10
253
20
-79
11
237
21
-79
0
LINE
8
0
6
CONTINUOUS
10
236
20
-80
11
236
21
-96
0
LINE
8
0
6
CONTINUOUS
10
212.235
20
-174.0025
11
228.235
21
-174.0025
0
LINE
8
0
6
CONTINUOUS
10
229.235
20
-173.0025
11
229.235
21
-157.0025
0
LINE
8
0
6
CONTINUOUS
10
228.235
20
-156.0025
11
212.235
21
-156.0025
0
LINE
8
0
6
CONTINUOUS
10
211.235
20
-157.0025
11
211.235
21
-173.0025
0
LINE
8
0
6
CONTINUOUS
10
232.2051846
20
-174.4899775
11
248.0859231
21
-176.439887
0
LINE
8
0
6
CONTINUOUS
10
249.2003386
20
-175.5692101
11
251.1502481
21
-159.6884716
0
LINE
8
0
6
CONTINUOUS
10
250.2795712
20
-158.5740561
11
234.3988327
21
-156.6241466
0
LINE
8
0
6
CONTINUOUS
10
233.2844172
20
-157.4948235
11
231.3345077
21
-173.375562
0
LINE
8
0
6
CONTINUOUS
10
251.7093194
20
-177.8307784
11
264.8157522
21
-187.0080014
0
LINE
8
0
6
CONTINUOUS
10
266.2084806
20
-186.7624258
11
275.3857036
21
-173.655993
0
LINE
8
0
6
CONTINUOUS
10
275.140128
20
-172.2632646
11
262.0336952
21
-163.0860416
0
LINE
8
0
6
CONTINUOUS
10
260.6409668
20
-163.3316172
11
251.4637438
21
-176.43805
0
ARC
8
0
6
CONTINUOUS
10
248.2077924
20
-175.4473408
40
1
50
263.0000028
51
353.0000028
0
ARC
8
0
6
CONTINUOUS
10
250.1577019
20
-159.5666023
40
1
50
353.0000028
51
83.0000028
0
ARC
8
0
6
CONTINUOUS
10
234.2769634
20
-157.6166928
40
1
50
83.0000028
51
173.0000028
0
ARC
8
0
6
CONTINUOUS
10
232.3270539
20
-173.4974313
40
1
50
173.0000028
51
263.0000028
0
ARC
8
0
6
CONTINUOUS
10
158
20
-158
40
1
50
270
51
0
0
ARC
8
0
6
CONTINUOUS
10
158
20
-142
40
1
50
0
51
90
0
ARC
8
0
6
CONTINUOUS
10
142
20
-142
40
1
50
90
51
180
0
ARC
8
0
6
CONTINUOUS
10
142
20
-158
40
1
50
180
51
270
0
ARC
8
0
6
CONTINUOUS
10
158
20
-139
40
1
50
270
51
0
0
ARC
8
0
6
CONTINUOUS
10
158
20
-123
40
1
50
0
51
90
0
ARC
8
0
6
CONTINUOUS
10
142
20
-123
40
1
50
90
51
180
0
ARC
8
0
6
CONTINUOUS
10
142
20
-139
40
1
50
180
51
270
0
ARC
8
0
6
CONTINUOUS
10
158
20
-120
40
1
50
270
51
0
0
ARC
8
0
6
CONTINUOUS
10
158
20
-104
40
1
50
0
51
90
0
ARC
8
0
6
CONTINUOUS
10
142
20
-104
40
1
50
90
51
180
0
ARC
8
0
6
CONTINUOUS
10
142
20
-120
40
1
50
180
51
270
0
ARC
8
0
6
CONTINUOUS
10
158
20
-101
40
1
50
270
51
0
0
ARC
8
0
6
CONTINUOUS
10
158
20
-85
40
1
50
0
51
90
0
ARC
8
0
6
CONTINUOUS
10
142
20
-85
40
1
50
90
51
180
0
ARC
8
0
6
CONTINUOUS
10
142
20
-101
40
1
50
180
51
270
0
ARC
8
0
6
CONTINUOUS
10
177
20
-158
40
1
50
270
51
0
0
ARC
8
0
6
CONTINUOUS
10
177
20
-142
40
1
50
0
51
90
0
ARC
8
0
6
CONTINUOUS
10
161
20
-142
40
1
50
90
51
180
0
ARC
8
0
6
CONTINUOUS
10
161
20
-158
40
1
50
180
51
270
0
ARC
8
0
6
CONTINUOUS
10
177
20
-139
40
1
50
270
51
0
0
ARC
8
0
6
CONTINUOUS
10
177
20
-123
40
1
50
0
51
90
0
ARC
8
0
6
CONTINUOUS
10
161
20
-123
40
1
50
90
51
180
0
ARC
8
0
6
CONTINUOUS
10
161
20
-139
40
1
50
180
51
270
0
ARC
8
0
6
CONTINUOUS
10
177
20
-120
40
1
50
270
51
0
0
ARC
8
0
6
CONTINUOUS
10
177
20
-104
40
1
50
0
51
90
0
ARC
8
0
6
CONTINUOUS
10
161
20
-104
40
1
50
90
51
180
0
ARC
8
0
6
CONTINUOUS
10
161
20
-120
40
1
50
180
51
270
0
ARC
8
0
6
CONTINUOUS
10
177
20
-101
40
1
50
270
51
0
0
ARC
8
0
6
CONTINUOUS
10
177
20
-85
40
1
50
0
51
90
0
ARC
8
0
6
CONTINUOUS
10
161
20
-85
40
1
50
90
51
180
0
ARC
8
0
6
CONTINUOUS
10
161
20
-101
40
1
50
180
51
270
0
ARC
8
0
6
CONTINUOUS
10
196
20
-152
40
1
50
270
51
0
0
ARC
8
0
6
CONTINUOUS
10
196
20
-136
40
1
50
0
51
90
0
ARC
8
0
6
CONTINUOUS
10
180
20
-136
40
1
50
90
51
180
0
ARC
8
0
6
CONTINUOUS
10
180
20
-152
40
1
50
180
51
270
0
ARC
8
0
6
CONTINUOUS
10
196
20
-133
40
1
50
270
51
0
0
ARC
8
0
6
CONTINUOUS
10
196
20
-117
40
1
50
0
51
90
0
ARC
8
0
6
CONTINUOUS
10
180
20
-117
40
1
50
90
51
180
0
ARC
8
0
6
CONTINUOUS
10
180
20
-133
40
1
50
180
51
270
0
ARC
8
0
6
CONTINUOUS
10
196
20
-114
40
1
50
270
51
0
0
ARC
8
0
6
CONTINUOUS
10
196
20
-98
40
1
50
0
51
90
0
ARC
8
0
6
CONTINUOUS
10
180
20
-98
40
1
50
90
51
180
0
ARC
8
0
6
CONTINUOUS
10
180
20
-114
40
1
50
180
51
270
0
ARC
8
0
6
CONTINUOUS
10
196
20
-95
40
1
50
270
51
0
0
ARC
8
0
6
CONTINUOUS
10
196
20
-79
40
1
50
0
51
90
0
ARC
8
0
6
CONTINUOUS
10
180
20
-79
40
1
50
90
51
180
0
ARC
8
0
6
CONTINUOUS
10
180
20
-95
40
1
50
180
51
270
0
ARC
8
0
6
CONTINUOUS
10
215
20
-148
40
1
50
270
51
0
0
ARC
8
0
6
CONTINUOUS
10
215
20
-132
40
1
50
0
51
90
0
ARC
8
0
6
CONTINUOUS
10
199
20
-132
40
1
50
90
51
180
0
ARC
8
0
6
CONTINUOUS
10
199
20
-148
40
1
50
180
51
270
0
ARC
8
0
6
CONTINUOUS
10
215
20
-129
40
1
50
270
51
0
0
ARC
8
0
6
CONTINUOUS
10
215
20
-113
40
1
50
0
51
90
0
ARC
8
0
6
CONTINUOUS
10
199
20
-113
40
1
50
90
51
180
0
ARC
8
0
6
CONTINUOUS
10
199
20
-129
40
1
50
180
51
270
0
ARC
8
0
6
CONTINUOUS
10
215
20
-110
40
1
50
270
51
0
0
ARC
8
0
6
CONTINUOUS
10
215
20
-94
40
1
50
0
51
90
0
ARC
8
0
6
CONTINUOUS
10
199
20
-94
40
1
50
90
51
180
0
ARC
8
0
6
CONTINUOUS
10
199
20
-110
40
1
50
180
51
270
0
ARC
8
0
6
CONTINUOUS
10
215
20
-91
40
1
50
270
51
0
0
ARC
8
0
6
CONTINUOUS
10
215
20
-75
40
1
50
0
51
90
0
ARC
8
0
6
CONTINUOUS
10
199
20
-75
40
1
50
90
51
180
0
ARC
8
0
6
CONTINUOUS
10
199
20
-91
40
1
50
180
51
270
0
ARC
8
0
6
CONTINUOUS
10
234
20
-151
40
1
50
270
51
0
0
ARC
8
0
6
CONTINUOUS
10
234
20
-135
40
1
50
0
51
90
0
ARC
8
0
6
CONTINUOUS
10
218
20
-135
40
1
50
90
51
180
0
ARC
8
0
6
CONTINUOUS
10
218
20
-151
40
1
50
180
51
270
0
ARC
8
0
6
CONTINUOUS
10
234
20
-132
40
1
50
270
51
0
0
ARC
8
0
6
CONTINUOUS
10
234
20
-116
40
1
50
0
51
90
0
ARC
8
0
6
CONTINUOUS
10
218
20
-116
40
1
50
90
51
180
0
ARC
8
0
6
CONTINUOUS
10
218
20
-132
40
1
50
180
51
270
0
ARC
8
0
6
CONTINUOUS
10
234
20
-113
40
1
50
270
51
0
0
ARC
8
0
6
CONTINUOUS
10
234
20
-97
40
1
50
0
51
90
0
ARC
8
0
6
CONTINUOUS
10
218
20
-97
40
1
50
90
51
180
0
ARC
8
0
6
CONTINUOUS
10
218
20
-113
40
1
50
180
51
270
0
ARC
8
0
6
CONTINUOUS
10
234
20
-94
40
1
50
270
51
0
0
ARC
8
0
6
CONTINUOUS
10
234
20
-78
40
1
50
0
51
90
0
ARC
8
0
6
CONTINUOUS
10
218
20
-78
40
1
50
90
51
180
0
ARC
8
0
6
CONTINUOUS
10
218
20
-94
40
1
50
180
51
270
0
ARC
8
0
6
CONTINUOUS
10
253
20
-153
40
1
50
270
51
0
0
ARC
8
0
6
CONTINUOUS
10
253
20
-137
40
1
50
0
51
90
0
ARC
8
0
6
CONTINUOUS
10
237
20
-137
40
1
50
90
51
180
0
ARC
8
0
6
CONTINUOUS
10
237
20
-153
40
1
50
180
51
270
0
ARC
8
0
6
CONTINUOUS
10
253
20
-134
40
1
50
270
51
0
0
ARC
8
0
6
CONTINUOUS
10
253
20
-118
40
1
50
0
51
90
0
ARC
8
0
6
CONTINUOUS
10
237
20
-118
40
1
50
90
51
180
0
ARC
8
0
6
CONTINUOUS
10
237
20
-134
40
1
50
180
51
270
0
ARC
8
0
6
CONTINUOUS
10
253
20
-115
40
1
50
270
51
0
0
ARC
8
0
6
CONTINUOUS
10
253
20
-99
40
1
50
0
51
90
0
ARC
8
0
6
CONTINUOUS
10
237
20
-99
40
1
50
90
51
180
0
ARC
8
0
6
CONTINUOUS
10
237
20
-115
40
1
50
180
51
270
0
ARC
8
0
6
CONTINUOUS
10
253
20
-96
40
1
50
270
51
0
0
ARC
8
0
6
CONTINUOUS
10
253
20
-80
40
1
50
0
51
90
0
ARC
8
0
6
CONTINUOUS
10
237
20
-80
40
1
50
90
51
180
0
ARC
8
0
6
CONTINUOUS
10
237
20
-96
40
1
50
180
51
270
0
ARC
8
0
6
CONTINUOUS
10
228.235
20
-173.0025
40
1
50
270
51
0
0
ARC
8
0
6
CONTINUOUS
10
228.235
20
-157.0025
40
1
50
0
51
90
0
ARC
8
0
6
CONTINUOUS
10
212.235
20
-157.0025
40
1
50
90
51
180
0
ARC
8
0
6
CONTINUOUS
10
212.235
20
-173.0025
40
1
50
180
51
270
0
ARC
8
0
6
CONTINUOUS
10
265.3893286
20
-186.1888494
40
1
50
235.0000003
51
325.0000003
0
ARC
8
0
6
CONTINUOUS
10
274.5665516
20
-173.0824166
40
1
50
325.0000003
51
55.0000003
0
ARC
8
0
6
CONTINUOUS
10
261.4601188
20
-163.9051936
40
1
50
55.0000003
51
145.0000003
0
ARC
8
0
6
CONTINUOUS
10
252.2828958
20
-177.0116264
40
1
50
145.0000003
51
235.0000003
0
LINE
8
0
6
CONTINUOUS
10
256.21
20
-111.5
11
273.99
21
-111.5
0
LINE
8
0
6
CONTINUOUS
10
273.99
20
-111.5
11
273.99
21
-78.5
0
LINE
8
0
6
CONTINUOUS
10
273.99
20
-78.5
11
256.21
21
-78.5
0
LINE
8
0
6
CONTINUOUS
10
256.21
20
-78.5
11
256.21
21
-111.5
0
LINE
8
0
6
CONTINUOUS
10
260.63
20
-85.15
11
269.57
21
-85.15
0
LINE
8
0
6
CONTINUOUS
10
269.57
20
-85.15
11
269.57
21
-77.8
0
LINE
8
0
6
CONTINUOUS
10
269.57
20
-77.8
11
260.63
21
-77.8
0
LINE
8
0
6
CONTINUOUS
10
260.63
20
-77.8
11
260.63
21
-85.15
0
CIRCLE
8
0
6
CONTINUOUS
10
159.5
20
-102.5
40
2.15
0
CIRCLE
8
0
6
CONTINUOUS
10
235.5
20
-96.5
40
2.15
0
CIRCLE
8
0
6
CONTINUOUS
10
159.5
20
-140.5
40
2.15
0
CIRCLE
8
0
6
CONTINUOUS
10
255.2243563
20
-161.4620308
40
2.15
0
CIRCLE
8
0
6
CONTINUOUS
10
216.5
20
-132
40
2.15
0
ENDSEC
0
EOF