%TF.GenerationSoftware,KiCad,Pcbnew,9.0.6*%
%TF.CreationDate,2026-01-10T00:21:17+01:00*%
%TF.ProjectId,shoedler54,73686f65-646c-4657-9235-342e6b696361,v1.0.0*%
%TF.SameCoordinates,Original*%
%TF.FileFunction,Legend,Top*%
%TF.FilePolarity,Positive*%
%FSLAX46Y46*%
G04 Gerber Fmt 4.6, Leading zero omitted, Abs format (unit mm)*
G04 Created by KiCad (PCBNEW 9.0.6) date 2026-01-10 00:21:17*
%MOMM*%
%LPD*%
G01*
G04 APERTURE LIST*
%ADD10C,0.187500*%
%ADD11C,0.300000*%
%ADD12C,0.150000*%
%ADD13C,0.100000*%
%ADD14C,0.120000*%
G04 APERTURE END LIST*
D10*
G36*
X262830000Y-159916041D02*
G01*
X262060512Y-159916041D01*
X262060512Y-159806926D01*
X262162667Y-159806926D01*
X262162667Y-159804117D01*
X262129657Y-159796204D01*
X262101990Y-159782477D01*
X262078709Y-159762901D01*
X262061057Y-159738351D01*
X262050295Y-159709581D01*
X262046530Y-159675401D01*
X262049937Y-159642937D01*
X262059763Y-159614815D01*
X262075961Y-159590099D01*
X262109862Y-159560459D01*
X262155645Y-159539724D01*
X262155645Y-159538319D01*
X262123689Y-159528777D01*
X262097448Y-159514108D01*
X262075961Y-159494295D01*
X262059913Y-159469942D01*
X262050015Y-159441165D01*
X262046530Y-159406795D01*
X262052869Y-159360034D01*
X262071109Y-159321308D01*
X262101789Y-159288642D01*
X262140813Y-159264811D01*
X262187939Y-159249875D01*
X262245221Y-159244556D01*
X262830000Y-159244556D01*
X262830000Y-159362037D01*
X262243817Y-159362037D01*
X262201103Y-159368035D01*
X262170361Y-159384446D01*
X262150082Y-159410580D01*
X262143066Y-159445996D01*
X262149865Y-159480220D01*
X262169689Y-159506140D01*
X262199815Y-159522526D01*
X262242412Y-159528550D01*
X262830000Y-159528550D01*
X262830000Y-159632048D01*
X262243817Y-159632048D01*
X262201103Y-159638045D01*
X262170361Y-159654457D01*
X262150015Y-159680394D01*
X262143066Y-159714602D01*
X262149930Y-159750035D01*
X262169689Y-159776151D01*
X262199815Y-159792537D01*
X262242412Y-159798560D01*
X262830000Y-159798560D01*
X262830000Y-159916041D01*
G37*
G36*
X262830000Y-158574598D02*
G01*
X262690109Y-158574598D01*
X262690109Y-158577407D01*
X262734497Y-158590378D01*
X262771576Y-158613837D01*
X262802705Y-158648726D01*
X262824714Y-158690763D01*
X262838861Y-158743093D01*
X262843982Y-158808217D01*
X262839407Y-158867273D01*
X262826459Y-158917478D01*
X262805829Y-158960374D01*
X262777548Y-158997138D01*
X262742144Y-159027439D01*
X262701994Y-159049070D01*
X262656163Y-159062402D01*
X262603342Y-159067053D01*
X262556698Y-159063292D01*
X262515516Y-159052462D01*
X262478839Y-159034874D01*
X262446076Y-159010734D01*
X262418448Y-158981092D01*
X262395614Y-158945359D01*
X262379160Y-158906077D01*
X262369020Y-158862506D01*
X262365511Y-158813834D01*
X262365511Y-158799851D01*
X262463452Y-158799851D01*
X262467820Y-158839389D01*
X262480236Y-158872237D01*
X262500516Y-158899869D01*
X262527393Y-158920921D01*
X262559750Y-158933796D01*
X262599190Y-158938337D01*
X262640111Y-158933313D01*
X262673318Y-158919073D01*
X262700612Y-158895655D01*
X262720448Y-158865164D01*
X262733091Y-158826510D01*
X262737676Y-158777442D01*
X262732184Y-158717399D01*
X262716942Y-158669277D01*
X262692918Y-158630591D01*
X262659752Y-158600449D01*
X262619873Y-158582343D01*
X262571163Y-158576003D01*
X262463452Y-158576003D01*
X262463452Y-158799851D01*
X262365511Y-158799851D01*
X262365511Y-158576003D01*
X262305366Y-158576003D01*
X262257796Y-158580957D01*
X262221635Y-158594489D01*
X262194175Y-158615728D01*
X262173869Y-158645380D01*
X262160585Y-158685593D01*
X262155645Y-158739645D01*
X262158973Y-158787611D01*
X262168137Y-158826211D01*
X262182267Y-158857187D01*
X262202870Y-158882875D01*
X262227198Y-158898294D01*
X262256395Y-158904754D01*
X262256395Y-159030661D01*
X262213004Y-159022791D01*
X262174029Y-159006410D01*
X262138543Y-158981189D01*
X262106003Y-158946031D01*
X262081017Y-158906079D01*
X262062471Y-158859242D01*
X262050705Y-158804270D01*
X262046530Y-158739645D01*
X262051366Y-158669254D01*
X262064810Y-158611402D01*
X262085732Y-158563890D01*
X262113696Y-158524956D01*
X262149647Y-158492874D01*
X262191946Y-158469702D01*
X262241859Y-158455217D01*
X262301153Y-158450095D01*
X262830000Y-158450095D01*
X262830000Y-158574598D01*
G37*
G36*
X262830000Y-157736784D02*
G01*
X262683087Y-157736784D01*
X262683087Y-157738189D01*
X262730624Y-157750164D01*
X262769471Y-157771966D01*
X262801301Y-157803951D01*
X262824407Y-157843271D01*
X262838856Y-157890213D01*
X262843982Y-157946650D01*
X262838871Y-158002748D01*
X262824232Y-158051205D01*
X262800453Y-158093490D01*
X262767046Y-158130626D01*
X262726871Y-158159933D01*
X262679690Y-158181465D01*
X262624164Y-158195052D01*
X262558585Y-158199869D01*
X262333332Y-158199869D01*
X262266973Y-158195074D01*
X262210999Y-158181575D01*
X262163647Y-158160244D01*
X262123527Y-158131297D01*
X262090182Y-158094517D01*
X262066381Y-158052281D01*
X262051679Y-158003508D01*
X262046530Y-157946650D01*
X262050395Y-157904640D01*
X262155645Y-157904640D01*
X262160721Y-157956273D01*
X262174757Y-157996995D01*
X262196922Y-158029204D01*
X262227571Y-158052590D01*
X262271490Y-158068091D01*
X262333332Y-158073961D01*
X262557180Y-158073961D01*
X262618059Y-158068140D01*
X262661857Y-158052676D01*
X262692918Y-158029204D01*
X262715470Y-157996943D01*
X262729720Y-157956220D01*
X262734867Y-157904640D01*
X262729033Y-157854561D01*
X262712611Y-157814277D01*
X262685896Y-157781542D01*
X262650738Y-157757504D01*
X262606372Y-157742284D01*
X262550219Y-157736784D01*
X262340354Y-157736784D01*
X262284159Y-157742286D01*
X262239775Y-157757506D01*
X262204616Y-157781542D01*
X262177901Y-157814277D01*
X262161479Y-157854561D01*
X262155645Y-157904640D01*
X262050395Y-157904640D01*
X262051719Y-157890253D01*
X262066391Y-157843047D01*
X262089944Y-157803218D01*
X262122159Y-157770579D01*
X262160832Y-157748130D01*
X262207424Y-157735380D01*
X262207424Y-157733975D01*
X262032547Y-157736784D01*
X261808698Y-157736784D01*
X261808698Y-157610877D01*
X262830000Y-157610877D01*
X262830000Y-157736784D01*
G37*
G36*
X262477435Y-157241704D02*
G01*
X262550219Y-157241704D01*
X262605108Y-157235813D01*
X262649322Y-157219303D01*
X262685225Y-157192733D01*
X262712354Y-157157317D01*
X262728991Y-157114641D01*
X262734867Y-157062613D01*
X262731522Y-157016664D01*
X262722190Y-156978691D01*
X262707573Y-156947269D01*
X262686683Y-156920312D01*
X262662424Y-156902263D01*
X262634117Y-156891948D01*
X262634117Y-156766041D01*
X262680227Y-156776731D01*
X262720521Y-156795661D01*
X262756023Y-156823029D01*
X262787318Y-156859769D01*
X262817999Y-156916391D01*
X262837192Y-156983219D01*
X262843982Y-157062613D01*
X262838465Y-157129568D01*
X262822719Y-157187360D01*
X262797354Y-157237625D01*
X262762161Y-157281577D01*
X262718832Y-157317019D01*
X262667819Y-157342836D01*
X262607608Y-157359056D01*
X262536175Y-157364802D01*
X262354337Y-157364802D01*
X262282903Y-157359055D01*
X262222703Y-157342834D01*
X262171712Y-157317017D01*
X262128412Y-157281577D01*
X262093190Y-157237621D01*
X262067807Y-157187355D01*
X262052050Y-157129564D01*
X262046530Y-157062613D01*
X262150088Y-157062613D01*
X262156121Y-157117422D01*
X262172903Y-157160623D01*
X262199792Y-157194870D01*
X262235603Y-157219954D01*
X262281489Y-157235907D01*
X262340354Y-157241704D01*
X262379494Y-157241704D01*
X262379494Y-156883583D01*
X262340354Y-156883583D01*
X262281494Y-156889386D01*
X262235608Y-156905359D01*
X262199792Y-156930478D01*
X262172902Y-156964687D01*
X262156121Y-157007847D01*
X262150088Y-157062613D01*
X262046530Y-157062613D01*
X262050819Y-157002903D01*
X262063118Y-156950365D01*
X262082922Y-156903855D01*
X262110608Y-156861765D01*
X262144485Y-156826767D01*
X262185076Y-156798220D01*
X262230287Y-156777650D01*
X262281636Y-156764883D01*
X262340354Y-156760423D01*
X262477435Y-156760423D01*
X262477435Y-157241704D01*
G37*
G36*
X262830000Y-155634647D02*
G01*
X262060512Y-155760554D01*
X262060512Y-155651439D01*
X262603342Y-155573098D01*
X262671242Y-155564672D01*
X262732058Y-155559054D01*
X262671242Y-155552826D01*
X262603342Y-155543667D01*
X262060512Y-155447130D01*
X262060512Y-155321222D01*
X262603342Y-155224685D01*
X262671242Y-155214244D01*
X262732058Y-155207894D01*
X262671242Y-155200933D01*
X262603342Y-155192506D01*
X262060512Y-155111418D01*
X262060512Y-155007859D01*
X262830000Y-155139384D01*
X262830000Y-155277869D01*
X262298344Y-155366041D01*
X262215118Y-155376543D01*
X262147280Y-155384176D01*
X262215118Y-155391198D01*
X262298344Y-155403777D01*
X262830000Y-155496100D01*
X262830000Y-155634647D01*
G37*
G36*
X262830000Y-154845743D02*
G01*
X262715266Y-154845743D01*
X262715266Y-154572984D01*
X262175245Y-154572984D01*
X262175245Y-154817777D01*
X262060512Y-154817777D01*
X262060512Y-154447077D01*
X262715266Y-154447077D01*
X262715266Y-154188241D01*
X262830000Y-154188241D01*
X262830000Y-154845743D01*
G37*
G36*
X261922027Y-154524014D02*
G01*
X261915682Y-154566494D01*
X261898274Y-154596737D01*
X261870816Y-154616434D01*
X261833916Y-154623299D01*
X261795633Y-154616393D01*
X261767421Y-154596737D01*
X261749454Y-154566430D01*
X261742936Y-154524014D01*
X261749454Y-154481597D01*
X261767421Y-154451290D01*
X261795638Y-154431587D01*
X261833916Y-154424668D01*
X261870811Y-154431547D01*
X261898274Y-154451290D01*
X261915682Y-154481533D01*
X261922027Y-154524014D01*
G37*
G36*
X262830000Y-153628803D02*
G01*
X262823408Y-153690012D01*
X262804821Y-153740039D01*
X262774740Y-153781332D01*
X262734659Y-153812686D01*
X262686272Y-153831888D01*
X262627156Y-153838668D01*
X262175245Y-153838668D01*
X262175245Y-154059708D01*
X262060512Y-154059708D01*
X262060512Y-153838668D01*
X261843686Y-153838668D01*
X261843686Y-153712761D01*
X262060512Y-153712761D01*
X262060512Y-153397993D01*
X262175245Y-153397993D01*
X262175245Y-153712761D01*
X262627156Y-153712761D01*
X262663251Y-153706764D01*
X262690781Y-153689680D01*
X262708958Y-153663380D01*
X262715266Y-153628803D01*
X262715266Y-153404954D01*
X262830000Y-153404954D01*
X262830000Y-153628803D01*
G37*
G36*
X262830000Y-153157536D02*
G01*
X261808698Y-153157536D01*
X261808698Y-153031629D01*
X262207424Y-153031629D01*
X262207424Y-153030225D01*
X262158765Y-153018416D01*
X262119764Y-152997447D01*
X262088539Y-152967271D01*
X262065970Y-152929692D01*
X262051669Y-152883343D01*
X262046530Y-152825976D01*
X262051368Y-152768730D01*
X262065128Y-152719821D01*
X262087239Y-152677726D01*
X262117909Y-152641329D01*
X262155418Y-152612185D01*
X262199427Y-152590892D01*
X262251200Y-152577499D01*
X262312388Y-152572758D01*
X262830000Y-152572758D01*
X262830000Y-152698665D01*
X262333332Y-152698665D01*
X262277155Y-152704143D01*
X262233587Y-152719182D01*
X262199792Y-152742751D01*
X262174195Y-152774820D01*
X262158472Y-152813995D01*
X262152897Y-152862369D01*
X262158715Y-152912469D01*
X262175126Y-152953019D01*
X262201868Y-152986200D01*
X262237094Y-153010503D01*
X262282301Y-153025994D01*
X262340354Y-153031629D01*
X262830000Y-153031629D01*
X262830000Y-153157536D01*
G37*
G36*
X262477435Y-151367175D02*
G01*
X262550219Y-151367175D01*
X262605108Y-151361284D01*
X262649322Y-151344774D01*
X262685225Y-151318204D01*
X262712354Y-151282788D01*
X262728991Y-151240112D01*
X262734867Y-151188084D01*
X262731522Y-151142135D01*
X262722190Y-151104162D01*
X262707573Y-151072740D01*
X262686683Y-151045783D01*
X262662424Y-151027734D01*
X262634117Y-151017419D01*
X262634117Y-150891512D01*
X262680227Y-150902202D01*
X262720521Y-150921133D01*
X262756023Y-150948500D01*
X262787318Y-150985240D01*
X262817999Y-151041862D01*
X262837192Y-151108690D01*
X262843982Y-151188084D01*
X262838465Y-151255039D01*
X262822719Y-151312831D01*
X262797354Y-151363096D01*
X262762161Y-151407048D01*
X262718832Y-151442490D01*
X262667819Y-151468307D01*
X262607608Y-151484527D01*
X262536175Y-151490273D01*
X262354337Y-151490273D01*
X262282903Y-151484526D01*
X262222703Y-151468305D01*
X262171712Y-151442488D01*
X262128412Y-151407048D01*
X262093190Y-151363092D01*
X262067807Y-151312826D01*
X262052050Y-151255035D01*
X262046530Y-151188084D01*
X262150088Y-151188084D01*
X262156121Y-151242893D01*
X262172903Y-151286094D01*
X262199792Y-151320341D01*
X262235603Y-151345425D01*
X262281489Y-151361378D01*
X262340354Y-151367175D01*
X262379494Y-151367175D01*
X262379494Y-151009054D01*
X262340354Y-151009054D01*
X262281494Y-151014857D01*
X262235608Y-151030830D01*
X262199792Y-151055949D01*
X262172902Y-151090158D01*
X262156121Y-151133318D01*
X262150088Y-151188084D01*
X262046530Y-151188084D01*
X262050819Y-151128374D01*
X262063118Y-151075836D01*
X262082922Y-151029326D01*
X262110608Y-150987236D01*
X262144485Y-150952238D01*
X262185076Y-150923691D01*
X262230287Y-150903121D01*
X262281636Y-150890354D01*
X262340354Y-150885894D01*
X262477435Y-150885894D01*
X262477435Y-151367175D01*
G37*
G36*
X262830000Y-150611915D02*
G01*
X262060512Y-150611915D01*
X262060512Y-150486008D01*
X262207424Y-150486008D01*
X262207424Y-150483199D01*
X262160576Y-150471537D01*
X262121931Y-150450636D01*
X262089944Y-150420245D01*
X262066628Y-150382539D01*
X262051849Y-150335765D01*
X262046530Y-150277547D01*
X262051527Y-150217994D01*
X262065578Y-150168410D01*
X262087899Y-150126922D01*
X262118581Y-150092166D01*
X262156124Y-150065011D01*
X262201653Y-150044762D01*
X262256789Y-150031792D01*
X262323562Y-150027137D01*
X262389324Y-150027137D01*
X262389324Y-150153044D01*
X262323562Y-150153044D01*
X262268844Y-150158284D01*
X262227828Y-150172449D01*
X262197270Y-150194301D01*
X262175130Y-150224186D01*
X262160889Y-150263959D01*
X262155645Y-150316687D01*
X262161474Y-150369688D01*
X262177574Y-150410748D01*
X262203211Y-150442655D01*
X262237449Y-150465716D01*
X262282146Y-150480564D01*
X262340354Y-150486008D01*
X262830000Y-150486008D01*
X262830000Y-150611915D01*
G37*
G36*
X262887214Y-149224984D02*
G01*
X262935980Y-149238871D01*
X262977857Y-149261183D01*
X263013975Y-149292149D01*
X263042750Y-149329951D01*
X263063826Y-149374390D01*
X263077107Y-149426752D01*
X263081814Y-149488703D01*
X263081814Y-149704125D01*
X262967081Y-149704125D01*
X262967081Y-149487299D01*
X262962597Y-149444943D01*
X262950076Y-149411071D01*
X262930017Y-149383801D01*
X262903161Y-149363209D01*
X262870391Y-149350512D01*
X262830000Y-149346004D01*
X262760024Y-149346004D01*
X262634117Y-149343196D01*
X262634117Y-149347409D01*
X262676913Y-149359941D01*
X262711628Y-149381676D01*
X262739752Y-149413171D01*
X262759765Y-149451160D01*
X262772348Y-149496309D01*
X262776816Y-149550252D01*
X262771701Y-149608720D01*
X262757168Y-149658434D01*
X262733795Y-149701039D01*
X262701284Y-149737709D01*
X262661827Y-149766659D01*
X262615160Y-149787985D01*
X262559886Y-149801483D01*
X262494227Y-149806280D01*
X262331927Y-149806280D01*
X262266339Y-149801505D01*
X262210817Y-149788037D01*
X262163661Y-149766710D01*
X262123527Y-149737709D01*
X262090318Y-149700946D01*
X262066505Y-149658306D01*
X262051726Y-149608626D01*
X262046530Y-149550252D01*
X262049831Y-149512456D01*
X262155645Y-149512456D01*
X262161253Y-149563681D01*
X262176860Y-149604141D01*
X262201868Y-149636287D01*
X262235089Y-149660190D01*
X262275883Y-149675066D01*
X262326371Y-149680373D01*
X262501249Y-149680373D01*
X262551737Y-149675066D01*
X262592531Y-149660190D01*
X262625751Y-149636287D01*
X262650723Y-149604146D01*
X262666312Y-149563686D01*
X262671913Y-149512456D01*
X262666079Y-149462376D01*
X262649658Y-149422093D01*
X262622943Y-149389357D01*
X262587785Y-149365319D01*
X262543418Y-149350100D01*
X262487266Y-149344600D01*
X262340354Y-149344600D01*
X262284159Y-149350101D01*
X262239775Y-149365322D01*
X262204616Y-149389357D01*
X262177901Y-149422093D01*
X262161479Y-149462376D01*
X262155645Y-149512456D01*
X262049831Y-149512456D01*
X262051229Y-149496448D01*
X262064503Y-149451305D01*
X262085730Y-149413171D01*
X262115093Y-149381603D01*
X262150545Y-149359880D01*
X262193442Y-149347409D01*
X262193442Y-149344600D01*
X262060512Y-149344600D01*
X262060512Y-149220097D01*
X262830000Y-149220097D01*
X262887214Y-149224984D01*
G37*
G36*
X262605731Y-148373940D02*
G01*
X262666284Y-148389976D01*
X262717202Y-148415391D01*
X262760085Y-148450122D01*
X262794768Y-148493330D01*
X262819919Y-148543480D01*
X262835635Y-148601914D01*
X262841174Y-148670429D01*
X262835634Y-148738976D01*
X262819917Y-148797431D01*
X262794766Y-148847589D01*
X262760085Y-148890797D01*
X262717206Y-148925499D01*
X262666290Y-148950895D01*
X262605735Y-148966921D01*
X262533428Y-148972618D01*
X262357145Y-148972618D01*
X262284002Y-148966932D01*
X262223121Y-148950985D01*
X262172288Y-148925808D01*
X262129816Y-148891530D01*
X262095504Y-148848693D01*
X262070534Y-148798587D01*
X262054874Y-148739792D01*
X262049338Y-148670429D01*
X262161263Y-148670429D01*
X262166817Y-148722684D01*
X262182386Y-148764849D01*
X262207424Y-148799145D01*
X262241147Y-148824572D01*
X262285330Y-148840783D01*
X262343162Y-148846711D01*
X262547411Y-148846711D01*
X262605201Y-148840785D01*
X262649366Y-148824575D01*
X262683087Y-148799145D01*
X262708126Y-148764849D01*
X262723695Y-148722684D01*
X262729249Y-148670429D01*
X262723649Y-148617280D01*
X262708041Y-148574953D01*
X262683087Y-148541041D01*
X262649421Y-148515999D01*
X262605258Y-148500002D01*
X262547411Y-148494146D01*
X262343162Y-148494146D01*
X262285273Y-148500003D01*
X262241092Y-148516002D01*
X262207424Y-148541041D01*
X262182471Y-148574953D01*
X262166863Y-148617280D01*
X262161263Y-148670429D01*
X262049338Y-148670429D01*
X262054873Y-148601099D01*
X262070531Y-148542324D01*
X262095501Y-148492225D01*
X262129816Y-148449389D01*
X262172292Y-148415082D01*
X262223127Y-148389887D01*
X262284006Y-148373929D01*
X262357145Y-148368239D01*
X262533428Y-148368239D01*
X262605731Y-148373940D01*
G37*
G36*
X262887214Y-147546547D02*
G01*
X262935980Y-147560434D01*
X262977857Y-147582746D01*
X263013975Y-147613712D01*
X263042750Y-147651514D01*
X263063826Y-147695953D01*
X263077107Y-147748315D01*
X263081814Y-147810266D01*
X263081814Y-148025689D01*
X262967081Y-148025689D01*
X262967081Y-147808862D01*
X262962597Y-147766506D01*
X262950076Y-147732634D01*
X262930017Y-147705364D01*
X262903161Y-147684772D01*
X262870391Y-147672075D01*
X262830000Y-147667568D01*
X262760024Y-147667568D01*
X262634117Y-147664759D01*
X262634117Y-147668972D01*
X262676913Y-147681504D01*
X262711628Y-147703239D01*
X262739752Y-147734734D01*
X262759765Y-147772723D01*
X262772348Y-147817872D01*
X262776816Y-147871816D01*
X262771701Y-147930283D01*
X262757168Y-147979997D01*
X262733795Y-148022603D01*
X262701284Y-148059272D01*
X262661827Y-148088222D01*
X262615160Y-148109548D01*
X262559886Y-148123046D01*
X262494227Y-148127843D01*
X262331927Y-148127843D01*
X262266339Y-148123068D01*
X262210817Y-148109600D01*
X262163661Y-148088273D01*
X262123527Y-148059272D01*
X262090318Y-148022510D01*
X262066505Y-147979870D01*
X262051726Y-147930189D01*
X262046530Y-147871816D01*
X262049831Y-147834019D01*
X262155645Y-147834019D01*
X262161253Y-147885244D01*
X262176860Y-147925704D01*
X262201868Y-147957850D01*
X262235089Y-147981753D01*
X262275883Y-147996629D01*
X262326371Y-148001936D01*
X262501249Y-148001936D01*
X262551737Y-147996629D01*
X262592531Y-147981753D01*
X262625751Y-147957850D01*
X262650723Y-147925709D01*
X262666312Y-147885249D01*
X262671913Y-147834019D01*
X262666079Y-147783939D01*
X262649658Y-147743656D01*
X262622943Y-147710921D01*
X262587785Y-147686883D01*
X262543418Y-147671663D01*
X262487266Y-147666163D01*
X262340354Y-147666163D01*
X262284159Y-147671665D01*
X262239775Y-147686885D01*
X262204616Y-147710921D01*
X262177901Y-147743656D01*
X262161479Y-147783939D01*
X262155645Y-147834019D01*
X262049831Y-147834019D01*
X262051229Y-147818011D01*
X262064503Y-147772868D01*
X262085730Y-147734734D01*
X262115093Y-147703166D01*
X262150545Y-147681443D01*
X262193442Y-147668972D01*
X262193442Y-147666163D01*
X262060512Y-147666163D01*
X262060512Y-147541660D01*
X262830000Y-147541660D01*
X262887214Y-147546547D01*
G37*
G36*
X262477435Y-147171083D02*
G01*
X262550219Y-147171083D01*
X262605108Y-147165192D01*
X262649322Y-147148682D01*
X262685225Y-147122112D01*
X262712354Y-147086695D01*
X262728991Y-147044020D01*
X262734867Y-146991992D01*
X262731522Y-146946043D01*
X262722190Y-146908070D01*
X262707573Y-146876648D01*
X262686683Y-146849690D01*
X262662424Y-146831642D01*
X262634117Y-146821327D01*
X262634117Y-146695420D01*
X262680227Y-146706110D01*
X262720521Y-146725040D01*
X262756023Y-146752408D01*
X262787318Y-146789148D01*
X262817999Y-146845770D01*
X262837192Y-146912598D01*
X262843982Y-146991992D01*
X262838465Y-147058947D01*
X262822719Y-147116739D01*
X262797354Y-147167004D01*
X262762161Y-147210956D01*
X262718832Y-147246398D01*
X262667819Y-147272215D01*
X262607608Y-147288435D01*
X262536175Y-147294181D01*
X262354337Y-147294181D01*
X262282903Y-147288434D01*
X262222703Y-147272213D01*
X262171712Y-147246396D01*
X262128412Y-147210956D01*
X262093190Y-147167000D01*
X262067807Y-147116734D01*
X262052050Y-147058943D01*
X262046530Y-146991992D01*
X262150088Y-146991992D01*
X262156121Y-147046801D01*
X262172903Y-147090001D01*
X262199792Y-147124249D01*
X262235603Y-147149332D01*
X262281489Y-147165286D01*
X262340354Y-147171083D01*
X262379494Y-147171083D01*
X262379494Y-146812962D01*
X262340354Y-146812962D01*
X262281494Y-146818765D01*
X262235608Y-146834738D01*
X262199792Y-146859856D01*
X262172902Y-146894066D01*
X262156121Y-146937226D01*
X262150088Y-146991992D01*
X262046530Y-146991992D01*
X262050819Y-146932281D01*
X262063118Y-146879744D01*
X262082922Y-146833234D01*
X262110608Y-146791144D01*
X262144485Y-146756146D01*
X262185076Y-146727599D01*
X262230287Y-146707029D01*
X262281636Y-146694261D01*
X262340354Y-146689802D01*
X262477435Y-146689802D01*
X262477435Y-147171083D01*
G37*
G36*
X262830000Y-146443789D02*
G01*
X262060512Y-146443789D01*
X262060512Y-146317882D01*
X262207424Y-146317882D01*
X262207424Y-146316477D01*
X262158765Y-146304668D01*
X262119764Y-146283699D01*
X262088539Y-146253524D01*
X262065970Y-146215944D01*
X262051669Y-146169595D01*
X262046530Y-146112229D01*
X262051368Y-146054982D01*
X262065128Y-146006074D01*
X262087239Y-145963978D01*
X262117909Y-145927581D01*
X262155418Y-145898437D01*
X262199427Y-145877144D01*
X262251200Y-145863752D01*
X262312388Y-145859010D01*
X262830000Y-145859010D01*
X262830000Y-145984918D01*
X262334736Y-145984918D01*
X262277600Y-145990426D01*
X262233613Y-146005493D01*
X262199792Y-146029003D01*
X262174195Y-146061072D01*
X262158472Y-146100247D01*
X262152897Y-146148621D01*
X262158715Y-146198721D01*
X262175126Y-146239272D01*
X262201868Y-146272452D01*
X262237094Y-146296755D01*
X262282301Y-146312246D01*
X262340354Y-146317882D01*
X262830000Y-146317882D01*
X262830000Y-146443789D01*
G37*
G36*
X262843982Y-145313555D02*
G01*
X262840330Y-145346826D01*
X262829999Y-145374151D01*
X262813208Y-145396842D01*
X262790976Y-145414137D01*
X262764784Y-145424621D01*
X262733463Y-145428288D01*
X262700224Y-145424583D01*
X262672657Y-145414052D01*
X262649504Y-145396842D01*
X262631887Y-145374046D01*
X262621119Y-145346722D01*
X262617325Y-145313555D01*
X262621118Y-145280430D01*
X262631887Y-145253147D01*
X262649504Y-145230390D01*
X262672661Y-145213145D01*
X262700229Y-145202594D01*
X262733463Y-145198883D01*
X262764780Y-145202556D01*
X262790972Y-145213059D01*
X262813208Y-145230390D01*
X262829999Y-145253042D01*
X262840330Y-145280327D01*
X262843982Y-145313555D01*
G37*
G36*
X262830000Y-144824092D02*
G01*
X262434082Y-144551334D01*
X262060512Y-144807301D01*
X262060512Y-144659045D01*
X262298344Y-144506516D01*
X262331927Y-144487648D01*
X262361297Y-144472932D01*
X262331927Y-144459682D01*
X262298344Y-144440814D01*
X262060512Y-144288285D01*
X262060512Y-144139968D01*
X262435486Y-144395996D01*
X262830000Y-144124581D01*
X262830000Y-144272897D01*
X262578185Y-144438005D01*
X262542526Y-144456873D01*
X262509614Y-144472932D01*
X262542526Y-144489052D01*
X262578185Y-144510729D01*
X262830000Y-144675837D01*
X262830000Y-144824092D01*
G37*
G36*
X263081814Y-143805844D02*
G01*
X262782433Y-143692515D01*
X262060512Y-143979317D01*
X262060512Y-143843579D01*
X262536175Y-143661741D01*
X262594977Y-143640736D01*
X262648100Y-143626753D01*
X262594977Y-143612770D01*
X262536175Y-143593169D01*
X262060512Y-143423909D01*
X262060512Y-143290980D01*
X263081814Y-143674319D01*
X263081814Y-143805844D01*
G37*
G36*
X262830000Y-143089724D02*
G01*
X262704092Y-143089724D01*
X262175245Y-142658818D01*
X262175245Y-143078550D01*
X262060512Y-143078550D01*
X262060512Y-142517524D01*
X262186420Y-142517524D01*
X262715266Y-142956795D01*
X262715266Y-142502137D01*
X262830000Y-142502137D01*
X262830000Y-143089724D01*
G37*
D11*
G36*
X257817698Y-158910569D02*
G01*
X257894054Y-158933665D01*
X257959821Y-158970978D01*
X258016750Y-159023181D01*
X258061451Y-159085991D01*
X258094426Y-159160115D01*
X258115304Y-159247719D01*
X258122721Y-159351535D01*
X258122721Y-159680988D01*
X257904460Y-159680988D01*
X257904460Y-159355748D01*
X257898381Y-159296122D01*
X257881606Y-159249536D01*
X257855092Y-159213049D01*
X257819374Y-159185608D01*
X257775745Y-159168684D01*
X257721919Y-159162674D01*
X257652676Y-159162674D01*
X257472150Y-159158461D01*
X257532641Y-159187601D01*
X257582206Y-159225590D01*
X257622267Y-159272858D01*
X257651360Y-159327591D01*
X257669418Y-159390932D01*
X257675757Y-159464833D01*
X257667845Y-159551101D01*
X257645247Y-159625094D01*
X257608627Y-159689183D01*
X257557238Y-159745010D01*
X257495492Y-159788835D01*
X257422704Y-159821155D01*
X257336766Y-159841610D01*
X257235020Y-159848874D01*
X257010531Y-159848874D01*
X256909968Y-159841654D01*
X256824520Y-159821265D01*
X256751667Y-159788951D01*
X256689412Y-159745010D01*
X256637496Y-159689114D01*
X256600546Y-159624999D01*
X256577765Y-159551032D01*
X256569795Y-159464833D01*
X256576143Y-159390937D01*
X256580202Y-159376722D01*
X256796482Y-159376722D01*
X256803522Y-159441471D01*
X256823039Y-159492176D01*
X256854185Y-159532061D01*
X256895761Y-159561370D01*
X256948248Y-159579876D01*
X257014744Y-159586557D01*
X257232914Y-159586557D01*
X257299409Y-159579876D01*
X257351897Y-159561370D01*
X257393473Y-159532061D01*
X257424619Y-159492176D01*
X257444136Y-159441471D01*
X257451175Y-159376722D01*
X257443945Y-159312120D01*
X257423784Y-159261038D01*
X257391366Y-159220376D01*
X257348334Y-159190526D01*
X257293822Y-159171620D01*
X257224579Y-159164781D01*
X257023079Y-159164781D01*
X256953836Y-159171620D01*
X256899323Y-159190526D01*
X256856291Y-159220376D01*
X256823874Y-159261038D01*
X256803713Y-159312120D01*
X256796482Y-159376722D01*
X256580202Y-159376722D01*
X256594231Y-159327597D01*
X256623375Y-159272858D01*
X256663470Y-159225728D01*
X256713652Y-159187715D01*
X256775508Y-159158461D01*
X256590769Y-159158461D01*
X256590769Y-158902464D01*
X257728238Y-158902464D01*
X257817698Y-158910569D01*
G37*
G36*
X257745000Y-158581712D02*
G01*
X257507870Y-158581712D01*
X257507870Y-158187137D01*
X256827898Y-158187137D01*
X256827898Y-158539672D01*
X256590769Y-158539672D01*
X256590769Y-157924821D01*
X257507870Y-157924821D01*
X257507870Y-157570180D01*
X257745000Y-157570180D01*
X257745000Y-158581712D01*
G37*
G36*
X256397695Y-158073839D02*
G01*
X256392697Y-158125483D01*
X256378818Y-158166684D01*
X256356845Y-158199685D01*
X256326854Y-158225056D01*
X256290746Y-158240439D01*
X256246661Y-158245847D01*
X256202577Y-158240439D01*
X256166469Y-158225056D01*
X256136477Y-158199685D01*
X256114452Y-158166677D01*
X256100544Y-158125476D01*
X256095536Y-158073839D01*
X256100546Y-158022141D01*
X256114455Y-157980911D01*
X256136477Y-157947902D01*
X256166469Y-157922531D01*
X256202577Y-157907148D01*
X256246661Y-157901740D01*
X256290746Y-157907148D01*
X256326854Y-157922531D01*
X256356845Y-157947902D01*
X256378814Y-157980904D01*
X256392695Y-158022134D01*
X256397695Y-158073839D01*
G37*
G36*
X257745000Y-156737342D02*
G01*
X257738612Y-156817355D01*
X257720498Y-156885571D01*
X257691540Y-156944075D01*
X257651668Y-156994439D01*
X257602164Y-157035319D01*
X257544649Y-157064902D01*
X257477560Y-157083369D01*
X257398785Y-157089877D01*
X256827898Y-157089877D01*
X256827898Y-157408888D01*
X256590769Y-157408888D01*
X256590769Y-157089877D01*
X256265529Y-157089877D01*
X256265529Y-156825545D01*
X256590769Y-156825545D01*
X256590769Y-156365941D01*
X256827898Y-156365941D01*
X256827898Y-156825545D01*
X257392465Y-156825545D01*
X257439202Y-156818184D01*
X257475355Y-156797243D01*
X257499408Y-156764152D01*
X257507870Y-156718475D01*
X257507870Y-156376382D01*
X257745000Y-156376382D01*
X257745000Y-156737342D01*
G37*
G36*
X257745000Y-156061950D02*
G01*
X256213047Y-156061950D01*
X256213047Y-155799633D01*
X256590769Y-155799633D01*
X256804817Y-155805953D01*
X256736139Y-155784681D01*
X256679487Y-155750561D01*
X256632809Y-155703096D01*
X256598632Y-155645515D01*
X256577332Y-155577157D01*
X256569795Y-155495368D01*
X256577350Y-155412153D01*
X256598961Y-155340489D01*
X256634009Y-155278158D01*
X256683184Y-155223617D01*
X256742366Y-155180405D01*
X256811463Y-155148743D01*
X256892355Y-155128815D01*
X256987450Y-155121768D01*
X257745000Y-155121768D01*
X257745000Y-155384084D01*
X257018866Y-155384084D01*
X256949662Y-155390983D01*
X256895935Y-155409951D01*
X256854185Y-155439772D01*
X256822704Y-155480131D01*
X256803345Y-155529287D01*
X256796482Y-155589798D01*
X256803555Y-155653000D01*
X256823350Y-155703447D01*
X256855284Y-155744037D01*
X256897683Y-155773756D01*
X256952417Y-155792721D01*
X257023079Y-155799633D01*
X257745000Y-155799633D01*
X257745000Y-156061950D01*
G37*
G36*
X257765974Y-154335092D02*
G01*
X257757462Y-154444610D01*
X257733459Y-154536927D01*
X257695350Y-154615083D01*
X257643242Y-154681398D01*
X257578146Y-154735260D01*
X257502194Y-154774302D01*
X257413261Y-154798718D01*
X257308476Y-154807336D01*
X256590769Y-154807336D01*
X256590769Y-154545019D01*
X257306370Y-154545019D01*
X257377205Y-154538264D01*
X257432786Y-154519653D01*
X257476454Y-154490430D01*
X257509426Y-154450301D01*
X257529915Y-154399588D01*
X257537271Y-154335092D01*
X257529994Y-154272050D01*
X257509570Y-154221634D01*
X257476454Y-154180944D01*
X257432700Y-154151091D01*
X257377117Y-154132129D01*
X257306370Y-154125257D01*
X256590769Y-154125257D01*
X256590769Y-153862940D01*
X257308476Y-153862940D01*
X257413126Y-153871678D01*
X257502012Y-153896454D01*
X257578013Y-153936132D01*
X257643242Y-153990984D01*
X257695595Y-154058301D01*
X257733692Y-154136575D01*
X257757555Y-154227915D01*
X257765974Y-154335092D01*
G37*
G36*
X257425842Y-152602997D02*
G01*
X257511260Y-152623383D01*
X257584100Y-152655697D01*
X257646356Y-152699642D01*
X257698702Y-152755593D01*
X257735612Y-152818479D01*
X257758151Y-152889711D01*
X257765974Y-152971393D01*
X257758753Y-153050548D01*
X257738235Y-153117636D01*
X257705157Y-153175000D01*
X257659924Y-153223325D01*
X257603893Y-153260997D01*
X257535164Y-153288298D01*
X257745000Y-153288298D01*
X257745000Y-153544295D01*
X256213047Y-153544295D01*
X256213047Y-153281978D01*
X256536272Y-153281978D01*
X256800696Y-153290313D01*
X256731959Y-153261763D01*
X256675910Y-153223060D01*
X256630703Y-153173900D01*
X256597455Y-153115933D01*
X256583373Y-153070036D01*
X256796482Y-153070036D01*
X256803820Y-153134491D01*
X256824319Y-153185582D01*
X256857390Y-153226382D01*
X256901119Y-153256097D01*
X256957271Y-153275070D01*
X257029398Y-153281978D01*
X257306370Y-153281978D01*
X257378561Y-153275071D01*
X257434775Y-153256096D01*
X257478561Y-153226382D01*
X257511578Y-153185589D01*
X257532050Y-153134499D01*
X257539378Y-153070036D01*
X257532684Y-153005015D01*
X257514162Y-152953944D01*
X257484789Y-152913690D01*
X257444818Y-152884309D01*
X257390397Y-152865198D01*
X257316903Y-152858094D01*
X257018866Y-152858094D01*
X256945372Y-152865200D01*
X256890987Y-152884313D01*
X256851071Y-152913690D01*
X256821698Y-152953944D01*
X256803176Y-153005015D01*
X256796482Y-153070036D01*
X256583373Y-153070036D01*
X256576962Y-153049140D01*
X256569795Y-152971393D01*
X256577671Y-152888576D01*
X256600291Y-152816864D01*
X256637209Y-152754046D01*
X256689412Y-152698634D01*
X256751582Y-152655235D01*
X256824705Y-152623221D01*
X256910857Y-152602966D01*
X257012637Y-152595778D01*
X257325329Y-152595778D01*
X257425842Y-152602997D01*
G37*
G36*
X257765974Y-151817437D02*
G01*
X257759640Y-151874027D01*
X257741706Y-151920508D01*
X257712485Y-151959128D01*
X257673909Y-151988450D01*
X257628079Y-152006336D01*
X257572900Y-152012617D01*
X257517752Y-152006362D01*
X257471555Y-151988495D01*
X257432308Y-151959128D01*
X257402439Y-151920426D01*
X257384163Y-151873946D01*
X257377719Y-151817437D01*
X257384161Y-151760988D01*
X257402435Y-151714537D01*
X257432308Y-151675837D01*
X257471555Y-151646470D01*
X257517752Y-151628603D01*
X257572900Y-151622348D01*
X257628079Y-151628629D01*
X257673909Y-151646515D01*
X257712485Y-151675837D01*
X257741711Y-151714455D01*
X257759643Y-151760907D01*
X257765974Y-151817437D01*
G37*
G36*
X257765974Y-150539741D02*
G01*
X257759374Y-150637817D01*
X257740531Y-150723590D01*
X257710378Y-150798944D01*
X257667737Y-150867516D01*
X257615521Y-150924146D01*
X257553025Y-150970036D01*
X257482811Y-151003194D01*
X257403339Y-151023704D01*
X257312690Y-151030853D01*
X257023079Y-151030853D01*
X256932430Y-151023703D01*
X256852991Y-151003191D01*
X256782835Y-150970036D01*
X256720339Y-150924146D01*
X256668123Y-150867516D01*
X256625482Y-150798944D01*
X256595278Y-150723585D01*
X256576404Y-150637812D01*
X256569795Y-150539741D01*
X256577551Y-150431995D01*
X256599519Y-150339817D01*
X256634451Y-150260640D01*
X256682085Y-150192428D01*
X256742559Y-150135202D01*
X256812337Y-150093516D01*
X256893135Y-150066586D01*
X256987450Y-150055041D01*
X256987450Y-150313145D01*
X256930342Y-150323981D01*
X256884657Y-150346684D01*
X256847957Y-150381289D01*
X256821182Y-150424972D01*
X256804499Y-150477082D01*
X256798589Y-150539741D01*
X256805627Y-150608898D01*
X256825186Y-150663849D01*
X256856291Y-150707719D01*
X256898448Y-150740516D01*
X256952189Y-150761101D01*
X257020972Y-150768536D01*
X257312690Y-150768536D01*
X257381558Y-150761125D01*
X257435735Y-150740554D01*
X257478561Y-150707719D01*
X257510250Y-150663771D01*
X257530128Y-150608820D01*
X257537271Y-150539741D01*
X257531303Y-150475666D01*
X257514593Y-150423310D01*
X257487995Y-150380281D01*
X257451316Y-150346278D01*
X257405602Y-150323886D01*
X257348410Y-150313145D01*
X257348410Y-150055041D01*
X257442725Y-150066586D01*
X257523523Y-150093516D01*
X257593301Y-150135202D01*
X257653775Y-150192428D01*
X257701367Y-150260634D01*
X257736271Y-150339809D01*
X257758223Y-150431989D01*
X257765974Y-150539741D01*
G37*
G36*
X257406729Y-148826015D02*
G01*
X257495950Y-148851110D01*
X257572704Y-148891427D01*
X257639029Y-148947339D01*
X257692172Y-149015746D01*
X257730931Y-149095688D01*
X257755265Y-149189392D01*
X257763867Y-149299781D01*
X257755265Y-149410219D01*
X257730931Y-149503970D01*
X257692171Y-149583957D01*
X257639029Y-149652407D01*
X257572709Y-149708275D01*
X257495958Y-149748565D01*
X257406735Y-149773645D01*
X257302248Y-149782466D01*
X257033612Y-149782466D01*
X256927966Y-149773596D01*
X256838254Y-149748443D01*
X256761555Y-149708147D01*
X256695732Y-149652407D01*
X256643058Y-149584020D01*
X256604603Y-149504057D01*
X256580444Y-149410283D01*
X256571901Y-149299781D01*
X256800696Y-149299781D01*
X256807761Y-149367451D01*
X256827324Y-149420578D01*
X256858398Y-149462447D01*
X256900350Y-149493341D01*
X256954714Y-149512991D01*
X257025185Y-149520150D01*
X257310583Y-149520150D01*
X257381117Y-149512988D01*
X257435508Y-149493337D01*
X257477462Y-149462447D01*
X257508536Y-149420578D01*
X257528099Y-149367451D01*
X257535164Y-149299781D01*
X257528101Y-149232174D01*
X257508540Y-149179074D01*
X257477462Y-149137207D01*
X257435508Y-149106317D01*
X257381117Y-149086666D01*
X257310583Y-149079505D01*
X257025185Y-149079505D01*
X256954714Y-149086664D01*
X256900350Y-149106313D01*
X256858398Y-149137207D01*
X256827319Y-149179074D01*
X256807758Y-149232174D01*
X256800696Y-149299781D01*
X256571901Y-149299781D01*
X256580444Y-149189328D01*
X256604603Y-149095601D01*
X256643057Y-149015682D01*
X256695732Y-148947339D01*
X256761561Y-148891555D01*
X256838262Y-148851233D01*
X256927972Y-148826063D01*
X257033612Y-148817188D01*
X257302248Y-148817188D01*
X257406729Y-148826015D01*
G37*
G36*
X257745000Y-148571907D02*
G01*
X256590769Y-148571907D01*
X256590769Y-148353646D01*
X256758655Y-148353646D01*
X256758655Y-148347418D01*
X256704944Y-148337696D01*
X256660058Y-148318063D01*
X256622276Y-148288616D01*
X256593270Y-148250870D01*
X256575837Y-148207395D01*
X256569795Y-148156450D01*
X256575436Y-148106576D01*
X256591827Y-148062978D01*
X256619162Y-148024193D01*
X256654940Y-147992425D01*
X256698846Y-147967903D01*
X256752427Y-147950737D01*
X256698829Y-147939685D01*
X256655041Y-147919028D01*
X256619162Y-147888913D01*
X256592061Y-147850668D01*
X256575559Y-147806104D01*
X256569795Y-147753449D01*
X256579043Y-147687365D01*
X256606180Y-147630125D01*
X256652684Y-147579335D01*
X256711406Y-147541711D01*
X256781443Y-147518355D01*
X256865725Y-147510092D01*
X257745000Y-147510092D01*
X257745000Y-147740901D01*
X256884593Y-147740901D01*
X256832185Y-147748004D01*
X256795383Y-147767188D01*
X256771313Y-147798187D01*
X256762868Y-147841652D01*
X256770253Y-147882441D01*
X256790819Y-147910468D01*
X256826584Y-147928862D01*
X256884593Y-147936082D01*
X257745000Y-147936082D01*
X257745000Y-148145917D01*
X256884593Y-148145917D01*
X256832002Y-148152503D01*
X256795383Y-148170097D01*
X256771286Y-148199086D01*
X256762868Y-148240348D01*
X256770488Y-148284454D01*
X256791441Y-148314323D01*
X256827258Y-148333606D01*
X256884593Y-148341098D01*
X257745000Y-148341098D01*
X257745000Y-148571907D01*
G37*
G36*
X257975809Y-147285785D02*
G01*
X256003212Y-146551317D01*
X256003212Y-146278558D01*
X257975809Y-147013027D01*
X257975809Y-147285785D01*
G37*
G36*
X257763867Y-145571567D02*
G01*
X257757237Y-145675113D01*
X257738652Y-145762156D01*
X257709537Y-145835354D01*
X257670536Y-145896898D01*
X257619508Y-145949385D01*
X257561432Y-145986219D01*
X257494891Y-146008694D01*
X257417653Y-146016516D01*
X257417653Y-145758413D01*
X257459899Y-145752649D01*
X257493480Y-145736316D01*
X257520510Y-145709137D01*
X257546346Y-145653376D01*
X257556139Y-145571567D01*
X257556139Y-145479243D01*
X257551556Y-145417050D01*
X257539199Y-145369486D01*
X257520510Y-145333430D01*
X257493318Y-145304968D01*
X257459729Y-145288005D01*
X257417653Y-145282048D01*
X257360963Y-145291695D01*
X257324230Y-145317768D01*
X257300052Y-145359556D01*
X257283289Y-145426762D01*
X257245553Y-145714266D01*
X257224204Y-145802496D01*
X257188403Y-145872322D01*
X257138575Y-145927307D01*
X257075996Y-145967706D01*
X257000826Y-145992850D01*
X256909781Y-146001770D01*
X256829533Y-145994334D01*
X256762606Y-145973333D01*
X256706360Y-145939650D01*
X256659004Y-145892685D01*
X256623157Y-145836600D01*
X256595950Y-145767347D01*
X256578291Y-145682201D01*
X256571901Y-145577887D01*
X256571901Y-145481350D01*
X256578087Y-145384386D01*
X256595534Y-145301716D01*
X256623045Y-145231122D01*
X256660103Y-145170765D01*
X256708490Y-145118522D01*
X256762904Y-145081583D01*
X256824485Y-145058441D01*
X256895126Y-145049040D01*
X256895126Y-145309250D01*
X256861117Y-145315574D01*
X256832521Y-145331349D01*
X256808023Y-145357519D01*
X256784323Y-145409009D01*
X256775508Y-145481350D01*
X256775508Y-145577887D01*
X256785112Y-145655281D01*
X256810129Y-145705931D01*
X256835874Y-145730398D01*
X256866458Y-145744934D01*
X256903461Y-145749986D01*
X256950381Y-145741318D01*
X256981130Y-145717472D01*
X257000688Y-145680027D01*
X257012637Y-145621942D01*
X257050373Y-145351290D01*
X257072737Y-145249183D01*
X257110523Y-145170699D01*
X257162663Y-145110956D01*
X257229238Y-145067412D01*
X257311435Y-145040003D01*
X257413440Y-145030172D01*
X257495562Y-145037905D01*
X257564537Y-145059822D01*
X257622979Y-145095129D01*
X257672643Y-145144569D01*
X257710019Y-145203234D01*
X257738525Y-145276411D01*
X257757115Y-145367183D01*
X257763867Y-145479243D01*
X257763867Y-145571567D01*
G37*
G36*
X257745000Y-144732501D02*
G01*
X256213047Y-144732501D01*
X256213047Y-144470184D01*
X256590769Y-144470184D01*
X256804817Y-144476504D01*
X256736139Y-144455232D01*
X256679487Y-144421112D01*
X256632809Y-144373647D01*
X256598632Y-144316066D01*
X256577332Y-144247709D01*
X256569795Y-144165919D01*
X256577350Y-144082705D01*
X256598961Y-144011040D01*
X256634009Y-143948709D01*
X256683184Y-143894168D01*
X256742366Y-143850957D01*
X256811463Y-143819294D01*
X256892355Y-143799367D01*
X256987450Y-143792319D01*
X257745000Y-143792319D01*
X257745000Y-144054636D01*
X257018866Y-144054636D01*
X256949662Y-144061535D01*
X256895935Y-144080502D01*
X256854185Y-144110323D01*
X256822704Y-144150683D01*
X256803345Y-144199838D01*
X256796482Y-144260349D01*
X256803555Y-144323551D01*
X256823350Y-144373999D01*
X256855284Y-144414589D01*
X256897683Y-144444308D01*
X256952417Y-144463273D01*
X257023079Y-144470184D01*
X257745000Y-144470184D01*
X257745000Y-144732501D01*
G37*
G36*
X257406729Y-142531877D02*
G01*
X257495950Y-142556972D01*
X257572704Y-142597289D01*
X257639029Y-142653201D01*
X257692172Y-142721608D01*
X257730931Y-142801549D01*
X257755265Y-142895254D01*
X257763867Y-143005643D01*
X257755265Y-143116080D01*
X257730931Y-143209832D01*
X257692171Y-143289819D01*
X257639029Y-143358269D01*
X257572709Y-143414137D01*
X257495958Y-143454427D01*
X257406735Y-143479507D01*
X257302248Y-143488328D01*
X257033612Y-143488328D01*
X256927966Y-143479458D01*
X256838254Y-143454304D01*
X256761555Y-143414009D01*
X256695732Y-143358269D01*
X256643058Y-143289882D01*
X256604603Y-143209919D01*
X256580444Y-143116145D01*
X256571901Y-143005643D01*
X256800696Y-143005643D01*
X256807761Y-143073313D01*
X256827324Y-143126440D01*
X256858398Y-143168309D01*
X256900350Y-143199203D01*
X256954714Y-143218852D01*
X257025185Y-143226011D01*
X257310583Y-143226011D01*
X257381117Y-143218850D01*
X257435508Y-143199199D01*
X257477462Y-143168309D01*
X257508536Y-143126440D01*
X257528099Y-143073313D01*
X257535164Y-143005643D01*
X257528101Y-142938036D01*
X257508540Y-142884936D01*
X257477462Y-142843069D01*
X257435508Y-142812179D01*
X257381117Y-142792528D01*
X257310583Y-142785367D01*
X257025185Y-142785367D01*
X256954714Y-142792526D01*
X256900350Y-142812175D01*
X256858398Y-142843069D01*
X256827319Y-142884936D01*
X256807758Y-142938036D01*
X256800696Y-143005643D01*
X256571901Y-143005643D01*
X256580444Y-142895190D01*
X256604603Y-142801463D01*
X256643057Y-142721544D01*
X256695732Y-142653201D01*
X256761561Y-142597417D01*
X256838262Y-142557094D01*
X256927972Y-142531925D01*
X257033612Y-142523050D01*
X257302248Y-142523050D01*
X257406729Y-142531877D01*
G37*
G36*
X257232914Y-141977717D02*
G01*
X257312690Y-141977717D01*
X257388681Y-141970090D01*
X257446355Y-141949313D01*
X257490010Y-141916900D01*
X257522152Y-141872782D01*
X257542465Y-141816558D01*
X257549819Y-141744709D01*
X257542302Y-141666804D01*
X257521517Y-141605216D01*
X257498888Y-141571046D01*
X257471562Y-141548938D01*
X257438627Y-141536980D01*
X257438627Y-141276770D01*
X257509658Y-141296816D01*
X257572238Y-141328955D01*
X257627717Y-141373600D01*
X257676856Y-141432109D01*
X257725369Y-141521266D01*
X257755430Y-141624391D01*
X257765974Y-141744709D01*
X257759278Y-141841306D01*
X257740119Y-141926053D01*
X257709371Y-142000798D01*
X257665989Y-142068486D01*
X257612739Y-142124408D01*
X257548811Y-142169692D01*
X257477347Y-142202272D01*
X257396463Y-142222460D01*
X257304263Y-142229501D01*
X257031505Y-142229501D01*
X256939367Y-142222462D01*
X256858512Y-142202275D01*
X256787049Y-142169692D01*
X256723121Y-142124408D01*
X256669871Y-142068486D01*
X256626489Y-142000798D01*
X256595690Y-141926048D01*
X256576501Y-141841301D01*
X256569795Y-141744709D01*
X256771295Y-141744709D01*
X256779454Y-141818850D01*
X256801874Y-141875571D01*
X256837424Y-141919007D01*
X256884755Y-141950368D01*
X256945390Y-141970418D01*
X257023079Y-141977717D01*
X257063012Y-141977717D01*
X257060906Y-141516006D01*
X257020972Y-141516006D01*
X256943302Y-141523338D01*
X256883044Y-141543434D01*
X256836325Y-141574808D01*
X256801221Y-141618002D01*
X256779238Y-141673397D01*
X256771295Y-141744709D01*
X256569795Y-141744709D01*
X256576485Y-141649605D01*
X256595657Y-141565940D01*
X256626489Y-141491918D01*
X256669691Y-141424720D01*
X256722267Y-141369130D01*
X256784942Y-141324031D01*
X256855011Y-141291377D01*
X256933791Y-141271227D01*
X257023079Y-141264222D01*
X257232914Y-141264222D01*
X257232914Y-141977717D01*
G37*
G36*
X257745000Y-140276046D02*
G01*
X257535164Y-140276046D01*
X257603886Y-140303354D01*
X257659918Y-140341055D01*
X257705157Y-140389436D01*
X257738231Y-140446742D01*
X257758751Y-140513797D01*
X257765974Y-140592951D01*
X257758151Y-140674633D01*
X257735612Y-140745865D01*
X257698702Y-140808751D01*
X257646356Y-140864702D01*
X257584100Y-140908647D01*
X257511260Y-140940961D01*
X257425842Y-140961347D01*
X257325329Y-140968566D01*
X257012637Y-140968566D01*
X256910851Y-140961384D01*
X256824697Y-140941145D01*
X256751576Y-140909158D01*
X256689412Y-140865801D01*
X256637206Y-140810346D01*
X256600288Y-140747497D01*
X256577670Y-140675768D01*
X256569795Y-140592951D01*
X256576962Y-140515204D01*
X256583373Y-140494308D01*
X256796482Y-140494308D01*
X256803176Y-140559329D01*
X256821698Y-140610400D01*
X256851071Y-140650654D01*
X256890987Y-140680031D01*
X256945372Y-140699144D01*
X257018866Y-140706250D01*
X257316903Y-140706250D01*
X257390397Y-140699146D01*
X257444818Y-140680035D01*
X257484789Y-140650654D01*
X257514162Y-140610400D01*
X257532684Y-140559329D01*
X257539378Y-140494308D01*
X257532045Y-140429786D01*
X257511571Y-140378702D01*
X257478561Y-140337962D01*
X257434775Y-140308247D01*
X257378561Y-140289273D01*
X257306370Y-140282366D01*
X257029398Y-140282366D01*
X256957271Y-140289273D01*
X256901119Y-140308247D01*
X256857390Y-140337962D01*
X256824327Y-140378709D01*
X256803824Y-140429793D01*
X256796482Y-140494308D01*
X256583373Y-140494308D01*
X256597455Y-140448411D01*
X256630703Y-140390443D01*
X256675908Y-140341276D01*
X256731957Y-140302542D01*
X256800696Y-140273940D01*
X256536272Y-140282366D01*
X256213047Y-140282366D01*
X256213047Y-140020049D01*
X257745000Y-140020049D01*
X257745000Y-140276046D01*
G37*
G36*
X257745000Y-139042406D02*
G01*
X257738035Y-139127386D01*
X257718205Y-139200371D01*
X257686343Y-139263501D01*
X257642234Y-139318370D01*
X257587746Y-139363151D01*
X257525548Y-139395327D01*
X257454143Y-139415258D01*
X257371491Y-139422234D01*
X256450177Y-139422234D01*
X256450177Y-139802062D01*
X256213047Y-139802062D01*
X256213047Y-139159918D01*
X257365171Y-139159918D01*
X257424968Y-139150263D01*
X257469036Y-139123189D01*
X257497743Y-139080971D01*
X257507870Y-139023538D01*
X257507870Y-138685659D01*
X257745000Y-138685659D01*
X257745000Y-139042406D01*
G37*
G36*
X257232914Y-138201234D02*
G01*
X257312690Y-138201234D01*
X257388681Y-138193607D01*
X257446355Y-138172830D01*
X257490010Y-138140417D01*
X257522152Y-138096299D01*
X257542465Y-138040075D01*
X257549819Y-137968226D01*
X257542302Y-137890321D01*
X257521517Y-137828733D01*
X257498888Y-137794563D01*
X257471562Y-137772455D01*
X257438627Y-137760498D01*
X257438627Y-137500287D01*
X257509658Y-137520333D01*
X257572238Y-137552473D01*
X257627717Y-137597117D01*
X257676856Y-137655626D01*
X257725369Y-137744783D01*
X257755430Y-137847908D01*
X257765974Y-137968226D01*
X257759278Y-138064823D01*
X257740119Y-138149571D01*
X257709371Y-138224315D01*
X257665989Y-138292003D01*
X257612739Y-138347925D01*
X257548811Y-138393209D01*
X257477347Y-138425789D01*
X257396463Y-138445978D01*
X257304263Y-138453018D01*
X257031505Y-138453018D01*
X256939367Y-138445979D01*
X256858512Y-138425792D01*
X256787049Y-138393209D01*
X256723121Y-138347925D01*
X256669871Y-138292003D01*
X256626489Y-138224315D01*
X256595690Y-138149565D01*
X256576501Y-138064818D01*
X256569795Y-137968226D01*
X256771295Y-137968226D01*
X256779454Y-138042367D01*
X256801874Y-138099088D01*
X256837424Y-138142524D01*
X256884755Y-138173885D01*
X256945390Y-138193935D01*
X257023079Y-138201234D01*
X257063012Y-138201234D01*
X257060906Y-137739523D01*
X257020972Y-137739523D01*
X256943302Y-137746855D01*
X256883044Y-137766951D01*
X256836325Y-137798325D01*
X256801221Y-137841519D01*
X256779238Y-137896914D01*
X256771295Y-137968226D01*
X256569795Y-137968226D01*
X256576485Y-137873122D01*
X256595657Y-137789457D01*
X256626489Y-137715435D01*
X256669691Y-137648237D01*
X256722267Y-137592647D01*
X256784942Y-137547548D01*
X256855011Y-137514894D01*
X256933791Y-137494744D01*
X257023079Y-137487739D01*
X257232914Y-137487739D01*
X257232914Y-138201234D01*
G37*
G36*
X257745000Y-137137587D02*
G01*
X256590769Y-137137587D01*
X256590769Y-136881498D01*
X256815350Y-136881498D01*
X256743838Y-136860112D01*
X256684740Y-136825625D01*
X256635923Y-136777634D01*
X256600173Y-136719100D01*
X256577771Y-136648439D01*
X256569795Y-136562578D01*
X256577503Y-136475915D01*
X256599347Y-136402800D01*
X256634413Y-136340642D01*
X256683184Y-136287622D01*
X256742037Y-136246360D01*
X256812791Y-136215633D01*
X256897801Y-136196003D01*
X256999998Y-136188978D01*
X257109174Y-136188978D01*
X257109174Y-136451295D01*
X257012637Y-136451295D01*
X256944749Y-136458083D01*
X256892415Y-136476692D01*
X256852078Y-136505883D01*
X256822160Y-136545602D01*
X256803304Y-136596301D01*
X256796482Y-136661222D01*
X256804154Y-136728328D01*
X256825393Y-136780289D01*
X256859405Y-136820682D01*
X256904424Y-136849731D01*
X256962651Y-136868431D01*
X257037825Y-136875270D01*
X257745000Y-136875270D01*
X257745000Y-137137587D01*
G37*
G36*
X257975809Y-135956337D02*
G01*
X256003212Y-135221868D01*
X256003212Y-134949110D01*
X257975809Y-135683579D01*
X257975809Y-135956337D01*
G37*
G36*
X257763867Y-134242118D02*
G01*
X257757237Y-134345664D01*
X257738652Y-134432708D01*
X257709537Y-134505906D01*
X257670536Y-134567450D01*
X257619508Y-134619937D01*
X257561432Y-134656770D01*
X257494891Y-134679245D01*
X257417653Y-134687068D01*
X257417653Y-134428964D01*
X257459899Y-134423201D01*
X257493480Y-134406868D01*
X257520510Y-134379688D01*
X257546346Y-134323928D01*
X257556139Y-134242118D01*
X257556139Y-134149795D01*
X257551556Y-134087601D01*
X257539199Y-134040038D01*
X257520510Y-134003982D01*
X257493318Y-133975519D01*
X257459729Y-133958556D01*
X257417653Y-133952599D01*
X257360963Y-133962246D01*
X257324230Y-133988319D01*
X257300052Y-134030107D01*
X257283289Y-134097313D01*
X257245553Y-134384817D01*
X257224204Y-134473047D01*
X257188403Y-134542874D01*
X257138575Y-134597858D01*
X257075996Y-134638257D01*
X257000826Y-134663401D01*
X256909781Y-134672322D01*
X256829533Y-134664885D01*
X256762606Y-134643884D01*
X256706360Y-134610202D01*
X256659004Y-134563237D01*
X256623157Y-134507152D01*
X256595950Y-134437898D01*
X256578291Y-134352752D01*
X256571901Y-134248438D01*
X256571901Y-134151901D01*
X256578087Y-134054937D01*
X256595534Y-133972268D01*
X256623045Y-133901673D01*
X256660103Y-133841316D01*
X256708490Y-133789074D01*
X256762904Y-133752134D01*
X256824485Y-133728992D01*
X256895126Y-133719591D01*
X256895126Y-133979801D01*
X256861117Y-133986126D01*
X256832521Y-134001900D01*
X256808023Y-134028070D01*
X256784323Y-134079560D01*
X256775508Y-134151901D01*
X256775508Y-134248438D01*
X256785112Y-134325832D01*
X256810129Y-134376482D01*
X256835874Y-134400949D01*
X256866458Y-134415485D01*
X256903461Y-134420538D01*
X256950381Y-134411869D01*
X256981130Y-134388023D01*
X257000688Y-134350578D01*
X257012637Y-134292493D01*
X257050373Y-134021842D01*
X257072737Y-133919734D01*
X257110523Y-133841251D01*
X257162663Y-133781507D01*
X257229238Y-133737963D01*
X257311435Y-133710554D01*
X257413440Y-133700724D01*
X257495562Y-133708456D01*
X257564537Y-133730374D01*
X257622979Y-133765680D01*
X257672643Y-133815121D01*
X257710019Y-133873785D01*
X257738525Y-133946963D01*
X257757115Y-134037734D01*
X257763867Y-134149795D01*
X257763867Y-134242118D01*
G37*
G36*
X257745000Y-133403053D02*
G01*
X256213047Y-133403053D01*
X256213047Y-133140736D01*
X256590769Y-133140736D01*
X256804817Y-133147056D01*
X256736139Y-133125784D01*
X256679487Y-133091664D01*
X256632809Y-133044199D01*
X256598632Y-132986618D01*
X256577332Y-132918260D01*
X256569795Y-132836470D01*
X256577350Y-132753256D01*
X256598961Y-132681591D01*
X256634009Y-132619260D01*
X256683184Y-132564719D01*
X256742366Y-132521508D01*
X256811463Y-132489845D01*
X256892355Y-132469918D01*
X256987450Y-132462870D01*
X257745000Y-132462870D01*
X257745000Y-132725187D01*
X257018866Y-132725187D01*
X256949662Y-132732086D01*
X256895935Y-132751053D01*
X256854185Y-132780874D01*
X256822704Y-132821234D01*
X256803345Y-132870389D01*
X256796482Y-132930901D01*
X256803555Y-132994103D01*
X256823350Y-133044550D01*
X256855284Y-133085140D01*
X256897683Y-133114859D01*
X256952417Y-133133824D01*
X257023079Y-133140736D01*
X257745000Y-133140736D01*
X257745000Y-133403053D01*
G37*
G36*
X257406729Y-131202428D02*
G01*
X257495950Y-131227524D01*
X257572704Y-131267840D01*
X257639029Y-131323752D01*
X257692172Y-131392159D01*
X257730931Y-131472101D01*
X257755265Y-131565805D01*
X257763867Y-131676195D01*
X257755265Y-131786632D01*
X257730931Y-131880383D01*
X257692171Y-131960370D01*
X257639029Y-132028820D01*
X257572709Y-132084689D01*
X257495958Y-132124978D01*
X257406735Y-132150058D01*
X257302248Y-132158879D01*
X257033612Y-132158879D01*
X256927966Y-132150009D01*
X256838254Y-132124856D01*
X256761555Y-132084561D01*
X256695732Y-132028820D01*
X256643058Y-131960433D01*
X256604603Y-131880470D01*
X256580444Y-131786696D01*
X256571901Y-131676195D01*
X256800696Y-131676195D01*
X256807761Y-131743864D01*
X256827324Y-131796992D01*
X256858398Y-131838860D01*
X256900350Y-131869755D01*
X256954714Y-131889404D01*
X257025185Y-131896563D01*
X257310583Y-131896563D01*
X257381117Y-131889402D01*
X257435508Y-131869751D01*
X257477462Y-131838860D01*
X257508536Y-131796992D01*
X257528099Y-131743864D01*
X257535164Y-131676195D01*
X257528101Y-131608587D01*
X257508540Y-131555487D01*
X257477462Y-131513620D01*
X257435508Y-131482730D01*
X257381117Y-131463079D01*
X257310583Y-131455918D01*
X257025185Y-131455918D01*
X256954714Y-131463077D01*
X256900350Y-131482726D01*
X256858398Y-131513620D01*
X256827319Y-131555487D01*
X256807758Y-131608587D01*
X256800696Y-131676195D01*
X256571901Y-131676195D01*
X256580444Y-131565741D01*
X256604603Y-131472014D01*
X256643057Y-131392096D01*
X256695732Y-131323752D01*
X256761561Y-131267969D01*
X256838262Y-131227646D01*
X256927972Y-131202476D01*
X257033612Y-131193601D01*
X257302248Y-131193601D01*
X257406729Y-131202428D01*
G37*
G36*
X257232914Y-130648268D02*
G01*
X257312690Y-130648268D01*
X257388681Y-130640641D01*
X257446355Y-130619865D01*
X257490010Y-130587452D01*
X257522152Y-130543333D01*
X257542465Y-130487109D01*
X257549819Y-130415260D01*
X257542302Y-130337355D01*
X257521517Y-130275767D01*
X257498888Y-130241597D01*
X257471562Y-130219489D01*
X257438627Y-130207532D01*
X257438627Y-129947322D01*
X257509658Y-129967367D01*
X257572238Y-129999507D01*
X257627717Y-130044152D01*
X257676856Y-130102660D01*
X257725369Y-130191817D01*
X257755430Y-130294942D01*
X257765974Y-130415260D01*
X257759278Y-130511857D01*
X257740119Y-130596605D01*
X257709371Y-130671349D01*
X257665989Y-130739037D01*
X257612739Y-130794959D01*
X257548811Y-130840243D01*
X257477347Y-130872823D01*
X257396463Y-130893012D01*
X257304263Y-130900052D01*
X257031505Y-130900052D01*
X256939367Y-130893013D01*
X256858512Y-130872826D01*
X256787049Y-130840243D01*
X256723121Y-130794959D01*
X256669871Y-130739037D01*
X256626489Y-130671349D01*
X256595690Y-130596599D01*
X256576501Y-130511852D01*
X256569795Y-130415260D01*
X256771295Y-130415260D01*
X256779454Y-130489402D01*
X256801874Y-130546123D01*
X256837424Y-130589558D01*
X256884755Y-130620919D01*
X256945390Y-130640970D01*
X257023079Y-130648268D01*
X257063012Y-130648268D01*
X257060906Y-130186557D01*
X257020972Y-130186557D01*
X256943302Y-130193889D01*
X256883044Y-130213985D01*
X256836325Y-130245359D01*
X256801221Y-130288553D01*
X256779238Y-130343948D01*
X256771295Y-130415260D01*
X256569795Y-130415260D01*
X256576485Y-130320156D01*
X256595657Y-130236491D01*
X256626489Y-130162469D01*
X256669691Y-130095271D01*
X256722267Y-130039681D01*
X256784942Y-129994583D01*
X256855011Y-129961928D01*
X256933791Y-129941778D01*
X257023079Y-129934774D01*
X257232914Y-129934774D01*
X257232914Y-130648268D01*
G37*
G36*
X257745000Y-128946598D02*
G01*
X257535164Y-128946598D01*
X257603886Y-128973905D01*
X257659918Y-129011606D01*
X257705157Y-129059987D01*
X257738231Y-129117293D01*
X257758751Y-129184348D01*
X257765974Y-129263503D01*
X257758151Y-129345184D01*
X257735612Y-129416417D01*
X257698702Y-129479302D01*
X257646356Y-129535253D01*
X257584100Y-129579198D01*
X257511260Y-129611512D01*
X257425842Y-129631899D01*
X257325329Y-129639118D01*
X257012637Y-129639118D01*
X256910851Y-129631935D01*
X256824697Y-129611696D01*
X256751576Y-129579710D01*
X256689412Y-129536352D01*
X256637206Y-129480897D01*
X256600288Y-129418048D01*
X256577670Y-129346319D01*
X256569795Y-129263503D01*
X256576962Y-129185755D01*
X256583373Y-129164859D01*
X256796482Y-129164859D01*
X256803176Y-129229880D01*
X256821698Y-129280952D01*
X256851071Y-129321205D01*
X256890987Y-129350582D01*
X256945372Y-129369695D01*
X257018866Y-129376801D01*
X257316903Y-129376801D01*
X257390397Y-129369698D01*
X257444818Y-129350586D01*
X257484789Y-129321205D01*
X257514162Y-129280952D01*
X257532684Y-129229880D01*
X257539378Y-129164859D01*
X257532045Y-129100337D01*
X257511571Y-129049253D01*
X257478561Y-129008513D01*
X257434775Y-128978799D01*
X257378561Y-128959825D01*
X257306370Y-128952917D01*
X257029398Y-128952917D01*
X256957271Y-128959825D01*
X256901119Y-128978799D01*
X256857390Y-129008513D01*
X256824327Y-129049260D01*
X256803824Y-129100344D01*
X256796482Y-129164859D01*
X256583373Y-129164859D01*
X256597455Y-129118962D01*
X256630703Y-129060995D01*
X256675908Y-129011827D01*
X256731957Y-128973093D01*
X256800696Y-128944491D01*
X256536272Y-128952917D01*
X256213047Y-128952917D01*
X256213047Y-128690601D01*
X257745000Y-128690601D01*
X257745000Y-128946598D01*
G37*
G36*
X257745000Y-127712957D02*
G01*
X257738035Y-127797937D01*
X257718205Y-127870922D01*
X257686343Y-127934053D01*
X257642234Y-127988921D01*
X257587746Y-128033702D01*
X257525548Y-128065878D01*
X257454143Y-128085810D01*
X257371491Y-128092786D01*
X256450177Y-128092786D01*
X256450177Y-128472614D01*
X256213047Y-128472614D01*
X256213047Y-127830469D01*
X257365171Y-127830469D01*
X257424968Y-127820814D01*
X257469036Y-127793741D01*
X257497743Y-127751523D01*
X257507870Y-127694090D01*
X257507870Y-127356210D01*
X257745000Y-127356210D01*
X257745000Y-127712957D01*
G37*
G36*
X257232914Y-126871785D02*
G01*
X257312690Y-126871785D01*
X257388681Y-126864158D01*
X257446355Y-126843382D01*
X257490010Y-126810969D01*
X257522152Y-126766850D01*
X257542465Y-126710627D01*
X257549819Y-126638777D01*
X257542302Y-126560872D01*
X257521517Y-126499284D01*
X257498888Y-126465114D01*
X257471562Y-126443006D01*
X257438627Y-126431049D01*
X257438627Y-126170839D01*
X257509658Y-126190884D01*
X257572238Y-126223024D01*
X257627717Y-126267669D01*
X257676856Y-126326177D01*
X257725369Y-126415335D01*
X257755430Y-126518459D01*
X257765974Y-126638777D01*
X257759278Y-126735374D01*
X257740119Y-126820122D01*
X257709371Y-126894866D01*
X257665989Y-126962554D01*
X257612739Y-127018476D01*
X257548811Y-127063760D01*
X257477347Y-127096341D01*
X257396463Y-127116529D01*
X257304263Y-127123569D01*
X257031505Y-127123569D01*
X256939367Y-127116530D01*
X256858512Y-127096344D01*
X256787049Y-127063760D01*
X256723121Y-127018476D01*
X256669871Y-126962554D01*
X256626489Y-126894866D01*
X256595690Y-126820117D01*
X256576501Y-126735369D01*
X256569795Y-126638777D01*
X256771295Y-126638777D01*
X256779454Y-126712919D01*
X256801874Y-126769640D01*
X256837424Y-126813075D01*
X256884755Y-126844436D01*
X256945390Y-126864487D01*
X257023079Y-126871785D01*
X257063012Y-126871785D01*
X257060906Y-126410075D01*
X257020972Y-126410075D01*
X256943302Y-126417406D01*
X256883044Y-126437502D01*
X256836325Y-126468876D01*
X256801221Y-126512070D01*
X256779238Y-126567465D01*
X256771295Y-126638777D01*
X256569795Y-126638777D01*
X256576485Y-126543674D01*
X256595657Y-126460008D01*
X256626489Y-126385986D01*
X256669691Y-126318788D01*
X256722267Y-126263199D01*
X256784942Y-126218100D01*
X256855011Y-126185445D01*
X256933791Y-126165295D01*
X257023079Y-126158291D01*
X257232914Y-126158291D01*
X257232914Y-126871785D01*
G37*
G36*
X257745000Y-125808138D02*
G01*
X256590769Y-125808138D01*
X256590769Y-125552049D01*
X256815350Y-125552049D01*
X256743838Y-125530663D01*
X256684740Y-125496177D01*
X256635923Y-125448185D01*
X256600173Y-125389652D01*
X256577771Y-125318990D01*
X256569795Y-125233129D01*
X256577503Y-125146466D01*
X256599347Y-125073351D01*
X256634413Y-125011194D01*
X256683184Y-124958173D01*
X256742037Y-124916911D01*
X256812791Y-124886185D01*
X256897801Y-124866554D01*
X256999998Y-124859529D01*
X257109174Y-124859529D01*
X257109174Y-125121846D01*
X257012637Y-125121846D01*
X256944749Y-125128634D01*
X256892415Y-125147244D01*
X256852078Y-125176434D01*
X256822160Y-125216153D01*
X256803304Y-125266852D01*
X256796482Y-125331773D01*
X256804154Y-125398880D01*
X256825393Y-125450840D01*
X256859405Y-125491233D01*
X256904424Y-125520282D01*
X256962651Y-125538982D01*
X257037825Y-125545821D01*
X257745000Y-125545821D01*
X257745000Y-125808138D01*
G37*
G36*
X257765974Y-124131655D02*
G01*
X257757761Y-124243566D01*
X257734548Y-124338730D01*
X257697694Y-124419969D01*
X257647455Y-124489501D01*
X257583853Y-124547041D01*
X257510402Y-124588218D01*
X257425153Y-124613723D01*
X257325329Y-124622675D01*
X257325329Y-124360358D01*
X257387001Y-124353080D01*
X257437567Y-124332422D01*
X257479569Y-124298534D01*
X257510712Y-124254045D01*
X257530256Y-124198723D01*
X257537271Y-124129549D01*
X257530209Y-124060473D01*
X257510635Y-124005957D01*
X257479569Y-123962761D01*
X257437580Y-123930363D01*
X257385085Y-123910185D01*
X257319009Y-123902952D01*
X257218259Y-123902952D01*
X257152104Y-123910082D01*
X257099611Y-123929945D01*
X257057700Y-123961754D01*
X257026675Y-124004278D01*
X257007085Y-124058386D01*
X256999998Y-124127442D01*
X256999998Y-124570285D01*
X256213047Y-124570285D01*
X256213047Y-123697239D01*
X256450177Y-123697239D01*
X256450177Y-124322622D01*
X256769188Y-124320516D01*
X256769188Y-124114894D01*
X256777515Y-124001504D01*
X256800793Y-123907461D01*
X256837335Y-123829339D01*
X256886700Y-123764467D01*
X256949113Y-123711861D01*
X257023443Y-123673459D01*
X257112084Y-123649246D01*
X257218259Y-123640635D01*
X257319009Y-123640635D01*
X257421226Y-123649530D01*
X257508072Y-123674790D01*
X257582429Y-123715381D01*
X257646356Y-123771794D01*
X257696866Y-123840341D01*
X257734065Y-123921432D01*
X257757606Y-124017502D01*
X257765974Y-124131655D01*
G37*
G36*
X257745000Y-122692393D02*
G01*
X257440734Y-122692393D01*
X257440734Y-123370167D01*
X257060906Y-123370167D01*
X256213047Y-122803585D01*
X256213047Y-122511867D01*
X257130149Y-123118383D01*
X257209833Y-123118383D01*
X257209833Y-122692393D01*
X256863619Y-122692393D01*
X256863619Y-122427970D01*
X257745000Y-122427970D01*
X257745000Y-122692393D01*
G37*
D10*
G36*
X260745000Y-159494234D02*
G01*
X259590769Y-159886701D01*
X259590769Y-159683094D01*
X260367278Y-159431311D01*
X260500543Y-159391468D01*
X260600194Y-159366281D01*
X260500543Y-159341093D01*
X260367278Y-159305373D01*
X259590769Y-159053589D01*
X259590769Y-158854195D01*
X260745000Y-159246663D01*
X260745000Y-159494234D01*
G37*
G36*
X260745000Y-158552311D02*
G01*
X260572900Y-158552311D01*
X260572900Y-158136762D01*
X259376721Y-158136762D01*
X259687306Y-158552311D01*
X259471151Y-158552311D01*
X259213047Y-158206005D01*
X259213047Y-157947902D01*
X260572900Y-157947902D01*
X260572900Y-157608007D01*
X260745000Y-157608007D01*
X260745000Y-158552311D01*
G37*
G36*
X260136468Y-155929692D02*
G01*
X259968582Y-155929692D01*
X259968582Y-155258147D01*
X260136468Y-155258147D01*
X260136468Y-155929692D01*
G37*
G36*
X261122721Y-153517001D02*
G01*
X260950621Y-153517001D01*
X260950621Y-153256790D01*
X260941901Y-153172851D01*
X260917718Y-153106676D01*
X260879272Y-153054282D01*
X260827453Y-153015137D01*
X260762312Y-152990641D01*
X260679970Y-152981834D01*
X259762868Y-152981834D01*
X259762868Y-153527442D01*
X259590769Y-153527442D01*
X259590769Y-152792973D01*
X260679970Y-152792973D01*
X260780240Y-152801507D01*
X260865843Y-152825773D01*
X260939478Y-152864776D01*
X261003103Y-152918911D01*
X261054116Y-152985100D01*
X261091252Y-153062001D01*
X261114515Y-153151668D01*
X261122721Y-153256790D01*
X261122721Y-153517001D01*
G37*
G36*
X259383040Y-152908469D02*
G01*
X259373523Y-152972190D01*
X259347411Y-153017554D01*
X259306225Y-153047099D01*
X259250874Y-153057397D01*
X259193449Y-153047039D01*
X259151132Y-153017554D01*
X259124181Y-152972094D01*
X259114404Y-152908469D01*
X259124181Y-152844845D01*
X259151132Y-152799385D01*
X259193457Y-152769829D01*
X259250874Y-152759451D01*
X259306217Y-152769769D01*
X259347411Y-152799385D01*
X259373523Y-152844749D01*
X259383040Y-152908469D01*
G37*
G36*
X260745000Y-151567759D02*
G01*
X260535164Y-151567759D01*
X260535164Y-151571973D01*
X260601746Y-151591429D01*
X260657364Y-151626618D01*
X260704058Y-151678951D01*
X260737071Y-151742007D01*
X260758292Y-151820501D01*
X260765974Y-151918187D01*
X260759111Y-152006771D01*
X260739689Y-152082079D01*
X260708744Y-152146422D01*
X260666323Y-152201570D01*
X260613216Y-152247021D01*
X260552991Y-152279467D01*
X260484245Y-152299465D01*
X260405013Y-152306441D01*
X260335048Y-152300800D01*
X260273274Y-152284555D01*
X260218259Y-152258173D01*
X260169114Y-152221963D01*
X260127673Y-152177500D01*
X260093421Y-152123900D01*
X260068740Y-152064977D01*
X260053531Y-151999622D01*
X260048266Y-151926613D01*
X260048266Y-151905639D01*
X260195178Y-151905639D01*
X260201730Y-151964946D01*
X260220355Y-152014218D01*
X260250774Y-152055665D01*
X260291089Y-152087243D01*
X260339626Y-152106555D01*
X260398785Y-152113367D01*
X260460167Y-152105831D01*
X260509977Y-152084472D01*
X260550918Y-152049345D01*
X260580672Y-152003608D01*
X260599636Y-151945627D01*
X260606514Y-151872025D01*
X260598276Y-151781961D01*
X260575414Y-151709778D01*
X260539378Y-151651748D01*
X260489628Y-151606535D01*
X260429809Y-151579376D01*
X260356745Y-151569866D01*
X260195178Y-151569866D01*
X260195178Y-151905639D01*
X260048266Y-151905639D01*
X260048266Y-151569866D01*
X259958049Y-151569866D01*
X259886695Y-151577298D01*
X259832453Y-151597596D01*
X259791263Y-151629454D01*
X259760804Y-151673932D01*
X259740878Y-151734251D01*
X259733468Y-151815330D01*
X259738460Y-151887279D01*
X259752206Y-151945178D01*
X259773401Y-151991643D01*
X259804305Y-152030174D01*
X259840797Y-152053303D01*
X259884593Y-152062992D01*
X259884593Y-152251853D01*
X259819506Y-152240049D01*
X259761043Y-152215477D01*
X259707815Y-152177646D01*
X259659004Y-152124908D01*
X259621526Y-152064981D01*
X259593707Y-151994726D01*
X259576057Y-151912267D01*
X259569795Y-151815330D01*
X259577050Y-151709743D01*
X259597215Y-151622965D01*
X259628599Y-151551697D01*
X259670545Y-151493296D01*
X259724470Y-151445173D01*
X259787919Y-151410415D01*
X259862788Y-151388688D01*
X259951729Y-151381005D01*
X260745000Y-151381005D01*
X260745000Y-151567759D01*
G37*
G36*
X260745000Y-150995132D02*
G01*
X259590769Y-150995132D01*
X259590769Y-150806271D01*
X259811137Y-150806271D01*
X259811137Y-150804165D01*
X259738148Y-150786452D01*
X259679646Y-150754998D01*
X259632809Y-150709734D01*
X259598956Y-150653365D01*
X259577504Y-150583842D01*
X259569795Y-150497793D01*
X259577053Y-150411922D01*
X259597693Y-150338560D01*
X259630859Y-150275417D01*
X259676864Y-150220821D01*
X259733127Y-150177105D01*
X259799141Y-150145165D01*
X259876801Y-150125077D01*
X259968582Y-150117964D01*
X260745000Y-150117964D01*
X260745000Y-150306825D01*
X260002104Y-150306825D01*
X259916401Y-150315089D01*
X259850420Y-150337688D01*
X259799688Y-150372954D01*
X259761292Y-150421057D01*
X259737708Y-150479820D01*
X259729346Y-150552381D01*
X259738072Y-150627531D01*
X259762689Y-150688357D01*
X259802802Y-150738128D01*
X259855642Y-150774582D01*
X259923452Y-150797819D01*
X260010531Y-150806271D01*
X260745000Y-150806271D01*
X260745000Y-150995132D01*
G37*
G36*
X261080772Y-149488642D02*
G01*
X260438627Y-149373237D01*
X260438627Y-149146641D01*
X261080772Y-149293553D01*
X261080772Y-149488642D01*
G37*
G36*
X260745000Y-147231289D02*
G01*
X260570793Y-147231289D01*
X260025185Y-146721310D01*
X259907750Y-146621752D01*
X259815350Y-146563956D01*
X259722294Y-146528813D01*
X259634916Y-146517703D01*
X259553867Y-146526390D01*
X259488194Y-146550797D01*
X259434515Y-146590151D01*
X259393907Y-146642658D01*
X259368859Y-146706918D01*
X259359959Y-146786339D01*
X259369124Y-146868489D01*
X259394895Y-146934840D01*
X259436621Y-146988939D01*
X259491828Y-147029361D01*
X259559529Y-147054459D01*
X259643251Y-147063402D01*
X259643251Y-147252263D01*
X259540808Y-147240849D01*
X259453372Y-147214578D01*
X259378343Y-147174410D01*
X259313797Y-147120097D01*
X259261627Y-147053740D01*
X259223868Y-146977378D01*
X259200339Y-146889094D01*
X259192073Y-146786339D01*
X259200295Y-146681193D01*
X259223580Y-146591735D01*
X259260715Y-146515220D01*
X259311691Y-146449559D01*
X259375232Y-146396039D01*
X259449141Y-146357359D01*
X259535449Y-146333225D01*
X259636931Y-146324720D01*
X259708498Y-146330914D01*
X259785055Y-146350287D01*
X259867832Y-146384529D01*
X259945630Y-146429449D01*
X260035877Y-146496051D01*
X260140590Y-146589052D01*
X260572900Y-147002494D01*
X260572900Y-146305761D01*
X260745000Y-146305761D01*
X260745000Y-147231289D01*
G37*
G36*
X260026033Y-145406636D02*
G01*
X260063012Y-145432074D01*
X260086181Y-145471067D01*
X260094428Y-145523299D01*
X260086178Y-145575609D01*
X260063012Y-145614615D01*
X260026033Y-145640053D01*
X259972704Y-145649236D01*
X259921472Y-145640104D01*
X259885692Y-145614615D01*
X259863228Y-145575685D01*
X259855192Y-145523299D01*
X259863225Y-145470992D01*
X259885692Y-145432074D01*
X259921472Y-145406584D01*
X259972704Y-145397452D01*
X260026033Y-145406636D01*
G37*
G36*
X260404251Y-145068344D02*
G01*
X260483080Y-145087479D01*
X260553025Y-145118374D01*
X260615794Y-145161411D01*
X260667954Y-145214563D01*
X260710378Y-145278842D01*
X260740586Y-145350058D01*
X260759397Y-145430934D01*
X260765974Y-145523299D01*
X260757570Y-145628298D01*
X260733743Y-145717716D01*
X260695665Y-145794314D01*
X260643242Y-145860170D01*
X260578167Y-145913796D01*
X260503139Y-145952482D01*
X260416223Y-145976552D01*
X260314796Y-145985009D01*
X259643251Y-145985009D01*
X259541822Y-145976551D01*
X259454924Y-145952479D01*
X259379927Y-145913793D01*
X259314897Y-145860170D01*
X259262430Y-145794308D01*
X259224325Y-145717708D01*
X259200483Y-145628292D01*
X259192073Y-145523299D01*
X259353640Y-145523299D01*
X259363124Y-145603776D01*
X259390124Y-145670243D01*
X259434515Y-145725898D01*
X259492422Y-145767804D01*
X259561002Y-145793455D01*
X259643251Y-145802468D01*
X260314796Y-145802468D01*
X260397106Y-145793452D01*
X260465715Y-145767800D01*
X260523624Y-145725898D01*
X260567960Y-145670249D01*
X260594931Y-145603783D01*
X260604407Y-145523299D01*
X260594932Y-145442878D01*
X260567961Y-145376473D01*
X260523624Y-145320882D01*
X260465708Y-145278927D01*
X260397099Y-145253246D01*
X260314796Y-145244221D01*
X259643251Y-145244221D01*
X259561009Y-145253243D01*
X259492428Y-145278923D01*
X259434515Y-145320882D01*
X259390123Y-145376480D01*
X259363124Y-145442884D01*
X259353640Y-145523299D01*
X259192073Y-145523299D01*
X259200481Y-145418355D01*
X259224321Y-145328968D01*
X259262426Y-145252381D01*
X259314897Y-145186518D01*
X259379927Y-145132896D01*
X259454924Y-145094209D01*
X259541822Y-145070138D01*
X259643251Y-145061680D01*
X260314796Y-145061680D01*
X260404251Y-145068344D01*
G37*
G36*
X260745000Y-144713633D02*
G01*
X260570793Y-144713633D01*
X260025185Y-144203654D01*
X259907750Y-144104097D01*
X259815350Y-144046301D01*
X259722294Y-144011157D01*
X259634916Y-144000047D01*
X259553867Y-144008735D01*
X259488194Y-144033142D01*
X259434515Y-144072496D01*
X259393907Y-144125002D01*
X259368859Y-144189263D01*
X259359959Y-144268684D01*
X259369124Y-144350834D01*
X259394895Y-144417184D01*
X259436621Y-144471284D01*
X259491828Y-144511705D01*
X259559529Y-144536804D01*
X259643251Y-144545747D01*
X259643251Y-144734608D01*
X259540808Y-144723193D01*
X259453372Y-144696923D01*
X259378343Y-144656754D01*
X259313797Y-144602442D01*
X259261627Y-144536085D01*
X259223868Y-144459722D01*
X259200339Y-144371438D01*
X259192073Y-144268684D01*
X259200295Y-144163538D01*
X259223580Y-144074079D01*
X259260715Y-143997565D01*
X259311691Y-143931904D01*
X259375232Y-143878383D01*
X259449141Y-143839703D01*
X259535449Y-143815570D01*
X259636931Y-143807065D01*
X259708498Y-143813259D01*
X259785055Y-143832631D01*
X259867832Y-143866874D01*
X259945630Y-143911794D01*
X260035877Y-143978396D01*
X260140590Y-144071397D01*
X260572900Y-144484839D01*
X260572900Y-143788106D01*
X260745000Y-143788106D01*
X260745000Y-144713633D01*
G37*
G36*
X260765974Y-143018283D02*
G01*
X260757801Y-143123521D01*
X260734686Y-143212813D01*
X260697886Y-143288948D01*
X260647455Y-143354056D01*
X260584444Y-143407163D01*
X260511210Y-143445529D01*
X260425750Y-143469457D01*
X260325329Y-143477887D01*
X260325329Y-143289026D01*
X260406217Y-143280215D01*
X260471494Y-143255479D01*
X260524631Y-143215570D01*
X260564537Y-143162431D01*
X260589274Y-143097126D01*
X260598087Y-143016176D01*
X260589274Y-142935226D01*
X260564537Y-142869922D01*
X260524631Y-142816782D01*
X260471494Y-142776873D01*
X260406217Y-142752138D01*
X260325329Y-142743326D01*
X260230899Y-142743326D01*
X260149788Y-142751924D01*
X260084485Y-142776000D01*
X260031505Y-142814676D01*
X259991481Y-142866438D01*
X259966809Y-142929687D01*
X259958049Y-143007750D01*
X259958049Y-143425405D01*
X259213047Y-143425405D01*
X259213047Y-142609054D01*
X259385147Y-142609054D01*
X259385147Y-143249092D01*
X259785949Y-143244879D01*
X259785949Y-142997308D01*
X259794134Y-142891742D01*
X259817069Y-142804019D01*
X259853245Y-142730912D01*
X259902453Y-142669962D01*
X259963817Y-142621190D01*
X260037269Y-142585317D01*
X260125238Y-142562576D01*
X260230899Y-142554466D01*
X260325329Y-142554466D01*
X260425680Y-142562958D01*
X260511115Y-142587073D01*
X260584374Y-142625770D01*
X260647455Y-142679396D01*
X260697832Y-142744969D01*
X260734642Y-142821755D01*
X260757785Y-142911919D01*
X260765974Y-143018283D01*
G37*
D12*
X254554819Y-83119047D02*
X254554819Y-82928571D01*
X254554819Y-82928571D02*
X254602438Y-82833333D01*
X254602438Y-82833333D02*
X254697676Y-82738095D01*
X254697676Y-82738095D02*
X254888152Y-82690476D01*
X254888152Y-82690476D02*
X255221485Y-82690476D01*
X255221485Y-82690476D02*
X255411961Y-82738095D01*
X255411961Y-82738095D02*
X255507200Y-82833333D01*
X255507200Y-82833333D02*
X255554819Y-82928571D01*
X255554819Y-82928571D02*
X255554819Y-83119047D01*
X255554819Y-83119047D02*
X255507200Y-83214285D01*
X255507200Y-83214285D02*
X255411961Y-83309523D01*
X255411961Y-83309523D02*
X255221485Y-83357142D01*
X255221485Y-83357142D02*
X254888152Y-83357142D01*
X254888152Y-83357142D02*
X254697676Y-83309523D01*
X254697676Y-83309523D02*
X254602438Y-83214285D01*
X254602438Y-83214285D02*
X254554819Y-83119047D01*
X255554819Y-82261904D02*
X254554819Y-82261904D01*
X254554819Y-82261904D02*
X255554819Y-81690476D01*
X255554819Y-81690476D02*
X254554819Y-81690476D01*
X244554819Y-83452380D02*
X244554819Y-83261904D01*
X244554819Y-83261904D02*
X244602438Y-83166666D01*
X244602438Y-83166666D02*
X244697676Y-83071428D01*
X244697676Y-83071428D02*
X244888152Y-83023809D01*
X244888152Y-83023809D02*
X245221485Y-83023809D01*
X245221485Y-83023809D02*
X245411961Y-83071428D01*
X245411961Y-83071428D02*
X245507200Y-83166666D01*
X245507200Y-83166666D02*
X245554819Y-83261904D01*
X245554819Y-83261904D02*
X245554819Y-83452380D01*
X245554819Y-83452380D02*
X245507200Y-83547618D01*
X245507200Y-83547618D02*
X245411961Y-83642856D01*
X245411961Y-83642856D02*
X245221485Y-83690475D01*
X245221485Y-83690475D02*
X244888152Y-83690475D01*
X244888152Y-83690475D02*
X244697676Y-83642856D01*
X244697676Y-83642856D02*
X244602438Y-83547618D01*
X244602438Y-83547618D02*
X244554819Y-83452380D01*
X245031009Y-82261904D02*
X245031009Y-82595237D01*
X245554819Y-82595237D02*
X244554819Y-82595237D01*
X244554819Y-82595237D02*
X244554819Y-82119047D01*
X245031009Y-81404761D02*
X245031009Y-81738094D01*
X245554819Y-81738094D02*
X244554819Y-81738094D01*
X244554819Y-81738094D02*
X244554819Y-81261904D01*
X269331904Y-112647200D02*
X269236666Y-112694819D01*
X269236666Y-112694819D02*
X269046190Y-112694819D01*
X269046190Y-112694819D02*
X268950952Y-112647200D01*
X268950952Y-112647200D02*
X268903333Y-112599580D01*
X268903333Y-112599580D02*
X268855714Y-112504342D01*
X268855714Y-112504342D02*
X268855714Y-112218628D01*
X268855714Y-112218628D02*
X268903333Y-112123390D01*
X268903333Y-112123390D02*
X268950952Y-112075771D01*
X268950952Y-112075771D02*
X269046190Y-112028152D01*
X269046190Y-112028152D02*
X269236666Y-112028152D01*
X269236666Y-112028152D02*
X269331904Y-112075771D01*
X270189047Y-112028152D02*
X270189047Y-112694819D01*
X269950952Y-111647200D02*
X269712857Y-112361485D01*
X269712857Y-112361485D02*
X270331904Y-112361485D01*
X262959523Y-84754819D02*
X262626190Y-84278628D01*
X262388095Y-84754819D02*
X262388095Y-83754819D01*
X262388095Y-83754819D02*
X262769047Y-83754819D01*
X262769047Y-83754819D02*
X262864285Y-83802438D01*
X262864285Y-83802438D02*
X262911904Y-83850057D01*
X262911904Y-83850057D02*
X262959523Y-83945295D01*
X262959523Y-83945295D02*
X262959523Y-84088152D01*
X262959523Y-84088152D02*
X262911904Y-84183390D01*
X262911904Y-84183390D02*
X262864285Y-84231009D01*
X262864285Y-84231009D02*
X262769047Y-84278628D01*
X262769047Y-84278628D02*
X262388095Y-84278628D01*
X263340476Y-84469104D02*
X263816666Y-84469104D01*
X263245238Y-84754819D02*
X263578571Y-83754819D01*
X263578571Y-83754819D02*
X263911904Y-84754819D01*
X264150000Y-83754819D02*
X264388095Y-84754819D01*
X264388095Y-84754819D02*
X264578571Y-84040533D01*
X264578571Y-84040533D02*
X264769047Y-84754819D01*
X264769047Y-84754819D02*
X265007143Y-83754819D01*
X262316667Y-91374819D02*
X262650000Y-92374819D01*
X262650000Y-92374819D02*
X262983333Y-91374819D01*
X263888095Y-92279580D02*
X263840476Y-92327200D01*
X263840476Y-92327200D02*
X263697619Y-92374819D01*
X263697619Y-92374819D02*
X263602381Y-92374819D01*
X263602381Y-92374819D02*
X263459524Y-92327200D01*
X263459524Y-92327200D02*
X263364286Y-92231961D01*
X263364286Y-92231961D02*
X263316667Y-92136723D01*
X263316667Y-92136723D02*
X263269048Y-91946247D01*
X263269048Y-91946247D02*
X263269048Y-91803390D01*
X263269048Y-91803390D02*
X263316667Y-91612914D01*
X263316667Y-91612914D02*
X263364286Y-91517676D01*
X263364286Y-91517676D02*
X263459524Y-91422438D01*
X263459524Y-91422438D02*
X263602381Y-91374819D01*
X263602381Y-91374819D02*
X263697619Y-91374819D01*
X263697619Y-91374819D02*
X263840476Y-91422438D01*
X263840476Y-91422438D02*
X263888095Y-91470057D01*
X264888095Y-92279580D02*
X264840476Y-92327200D01*
X264840476Y-92327200D02*
X264697619Y-92374819D01*
X264697619Y-92374819D02*
X264602381Y-92374819D01*
X264602381Y-92374819D02*
X264459524Y-92327200D01*
X264459524Y-92327200D02*
X264364286Y-92231961D01*
X264364286Y-92231961D02*
X264316667Y-92136723D01*
X264316667Y-92136723D02*
X264269048Y-91946247D01*
X264269048Y-91946247D02*
X264269048Y-91803390D01*
X264269048Y-91803390D02*
X264316667Y-91612914D01*
X264316667Y-91612914D02*
X264364286Y-91517676D01*
X264364286Y-91517676D02*
X264459524Y-91422438D01*
X264459524Y-91422438D02*
X264602381Y-91374819D01*
X264602381Y-91374819D02*
X264697619Y-91374819D01*
X264697619Y-91374819D02*
X264840476Y-91422438D01*
X264840476Y-91422438D02*
X264888095Y-91470057D01*
X256957141Y-82209819D02*
X256623808Y-81733628D01*
X256385713Y-82209819D02*
X256385713Y-81209819D01*
X256385713Y-81209819D02*
X256766665Y-81209819D01*
X256766665Y-81209819D02*
X256861903Y-81257438D01*
X256861903Y-81257438D02*
X256909522Y-81305057D01*
X256909522Y-81305057D02*
X256957141Y-81400295D01*
X256957141Y-81400295D02*
X256957141Y-81543152D01*
X256957141Y-81543152D02*
X256909522Y-81638390D01*
X256909522Y-81638390D02*
X256861903Y-81686009D01*
X256861903Y-81686009D02*
X256766665Y-81733628D01*
X256766665Y-81733628D02*
X256385713Y-81733628D01*
X258147618Y-82209819D02*
X258147618Y-81209819D01*
X258576189Y-82209819D02*
X258576189Y-81686009D01*
X258576189Y-81686009D02*
X258528570Y-81590771D01*
X258528570Y-81590771D02*
X258433332Y-81543152D01*
X258433332Y-81543152D02*
X258290475Y-81543152D01*
X258290475Y-81543152D02*
X258195237Y-81590771D01*
X258195237Y-81590771D02*
X258147618Y-81638390D01*
X259480951Y-82209819D02*
X259480951Y-81686009D01*
X259480951Y-81686009D02*
X259433332Y-81590771D01*
X259433332Y-81590771D02*
X259338094Y-81543152D01*
X259338094Y-81543152D02*
X259147618Y-81543152D01*
X259147618Y-81543152D02*
X259052380Y-81590771D01*
X259480951Y-82162200D02*
X259385713Y-82209819D01*
X259385713Y-82209819D02*
X259147618Y-82209819D01*
X259147618Y-82209819D02*
X259052380Y-82162200D01*
X259052380Y-82162200D02*
X259004761Y-82066961D01*
X259004761Y-82066961D02*
X259004761Y-81971723D01*
X259004761Y-81971723D02*
X259052380Y-81876485D01*
X259052380Y-81876485D02*
X259147618Y-81828866D01*
X259147618Y-81828866D02*
X259385713Y-81828866D01*
X259385713Y-81828866D02*
X259480951Y-81781247D01*
X259957142Y-81543152D02*
X259957142Y-82209819D01*
X259957142Y-81638390D02*
X260004761Y-81590771D01*
X260004761Y-81590771D02*
X260099999Y-81543152D01*
X260099999Y-81543152D02*
X260242856Y-81543152D01*
X260242856Y-81543152D02*
X260338094Y-81590771D01*
X260338094Y-81590771D02*
X260385713Y-81686009D01*
X260385713Y-81686009D02*
X260385713Y-82209819D01*
X261290475Y-82209819D02*
X261290475Y-81209819D01*
X261290475Y-82162200D02*
X261195237Y-82209819D01*
X261195237Y-82209819D02*
X261004761Y-82209819D01*
X261004761Y-82209819D02*
X260909523Y-82162200D01*
X260909523Y-82162200D02*
X260861904Y-82114580D01*
X260861904Y-82114580D02*
X260814285Y-82019342D01*
X260814285Y-82019342D02*
X260814285Y-81733628D01*
X260814285Y-81733628D02*
X260861904Y-81638390D01*
X260861904Y-81638390D02*
X260909523Y-81590771D01*
X260909523Y-81590771D02*
X261004761Y-81543152D01*
X261004761Y-81543152D02*
X261195237Y-81543152D01*
X261195237Y-81543152D02*
X261290475Y-81590771D01*
X262528571Y-82209819D02*
X262528571Y-81209819D01*
X262528571Y-81590771D02*
X262623809Y-81543152D01*
X262623809Y-81543152D02*
X262814285Y-81543152D01*
X262814285Y-81543152D02*
X262909523Y-81590771D01*
X262909523Y-81590771D02*
X262957142Y-81638390D01*
X262957142Y-81638390D02*
X263004761Y-81733628D01*
X263004761Y-81733628D02*
X263004761Y-82019342D01*
X263004761Y-82019342D02*
X262957142Y-82114580D01*
X262957142Y-82114580D02*
X262909523Y-82162200D01*
X262909523Y-82162200D02*
X262814285Y-82209819D01*
X262814285Y-82209819D02*
X262623809Y-82209819D01*
X262623809Y-82209819D02*
X262528571Y-82162200D01*
X263861904Y-82209819D02*
X263861904Y-81686009D01*
X263861904Y-81686009D02*
X263814285Y-81590771D01*
X263814285Y-81590771D02*
X263719047Y-81543152D01*
X263719047Y-81543152D02*
X263528571Y-81543152D01*
X263528571Y-81543152D02*
X263433333Y-81590771D01*
X263861904Y-82162200D02*
X263766666Y-82209819D01*
X263766666Y-82209819D02*
X263528571Y-82209819D01*
X263528571Y-82209819D02*
X263433333Y-82162200D01*
X263433333Y-82162200D02*
X263385714Y-82066961D01*
X263385714Y-82066961D02*
X263385714Y-81971723D01*
X263385714Y-81971723D02*
X263433333Y-81876485D01*
X263433333Y-81876485D02*
X263528571Y-81828866D01*
X263528571Y-81828866D02*
X263766666Y-81828866D01*
X263766666Y-81828866D02*
X263861904Y-81781247D01*
X264766666Y-82162200D02*
X264671428Y-82209819D01*
X264671428Y-82209819D02*
X264480952Y-82209819D01*
X264480952Y-82209819D02*
X264385714Y-82162200D01*
X264385714Y-82162200D02*
X264338095Y-82114580D01*
X264338095Y-82114580D02*
X264290476Y-82019342D01*
X264290476Y-82019342D02*
X264290476Y-81733628D01*
X264290476Y-81733628D02*
X264338095Y-81638390D01*
X264338095Y-81638390D02*
X264385714Y-81590771D01*
X264385714Y-81590771D02*
X264480952Y-81543152D01*
X264480952Y-81543152D02*
X264671428Y-81543152D01*
X264671428Y-81543152D02*
X264766666Y-81590771D01*
X265195238Y-82209819D02*
X265195238Y-81209819D01*
X265290476Y-81828866D02*
X265576190Y-82209819D01*
X265576190Y-81543152D02*
X265195238Y-81924104D01*
X266719048Y-82162200D02*
X266814286Y-82209819D01*
X266814286Y-82209819D02*
X267004762Y-82209819D01*
X267004762Y-82209819D02*
X267100000Y-82162200D01*
X267100000Y-82162200D02*
X267147619Y-82066961D01*
X267147619Y-82066961D02*
X267147619Y-82019342D01*
X267147619Y-82019342D02*
X267100000Y-81924104D01*
X267100000Y-81924104D02*
X267004762Y-81876485D01*
X267004762Y-81876485D02*
X266861905Y-81876485D01*
X266861905Y-81876485D02*
X266766667Y-81828866D01*
X266766667Y-81828866D02*
X266719048Y-81733628D01*
X266719048Y-81733628D02*
X266719048Y-81686009D01*
X266719048Y-81686009D02*
X266766667Y-81590771D01*
X266766667Y-81590771D02*
X266861905Y-81543152D01*
X266861905Y-81543152D02*
X267004762Y-81543152D01*
X267004762Y-81543152D02*
X267100000Y-81590771D01*
X267576191Y-82209819D02*
X267576191Y-81543152D01*
X267576191Y-81209819D02*
X267528572Y-81257438D01*
X267528572Y-81257438D02*
X267576191Y-81305057D01*
X267576191Y-81305057D02*
X267623810Y-81257438D01*
X267623810Y-81257438D02*
X267576191Y-81209819D01*
X267576191Y-81209819D02*
X267576191Y-81305057D01*
X268480952Y-82209819D02*
X268480952Y-81209819D01*
X268480952Y-82162200D02*
X268385714Y-82209819D01*
X268385714Y-82209819D02*
X268195238Y-82209819D01*
X268195238Y-82209819D02*
X268100000Y-82162200D01*
X268100000Y-82162200D02*
X268052381Y-82114580D01*
X268052381Y-82114580D02*
X268004762Y-82019342D01*
X268004762Y-82019342D02*
X268004762Y-81733628D01*
X268004762Y-81733628D02*
X268052381Y-81638390D01*
X268052381Y-81638390D02*
X268100000Y-81590771D01*
X268100000Y-81590771D02*
X268195238Y-81543152D01*
X268195238Y-81543152D02*
X268385714Y-81543152D01*
X268385714Y-81543152D02*
X268480952Y-81590771D01*
X269338095Y-82162200D02*
X269242857Y-82209819D01*
X269242857Y-82209819D02*
X269052381Y-82209819D01*
X269052381Y-82209819D02*
X268957143Y-82162200D01*
X268957143Y-82162200D02*
X268909524Y-82066961D01*
X268909524Y-82066961D02*
X268909524Y-81686009D01*
X268909524Y-81686009D02*
X268957143Y-81590771D01*
X268957143Y-81590771D02*
X269052381Y-81543152D01*
X269052381Y-81543152D02*
X269242857Y-81543152D01*
X269242857Y-81543152D02*
X269338095Y-81590771D01*
X269338095Y-81590771D02*
X269385714Y-81686009D01*
X269385714Y-81686009D02*
X269385714Y-81781247D01*
X269385714Y-81781247D02*
X268909524Y-81876485D01*
X270861905Y-82590771D02*
X270814286Y-82543152D01*
X270814286Y-82543152D02*
X270719048Y-82400295D01*
X270719048Y-82400295D02*
X270671429Y-82305057D01*
X270671429Y-82305057D02*
X270623810Y-82162200D01*
X270623810Y-82162200D02*
X270576191Y-81924104D01*
X270576191Y-81924104D02*
X270576191Y-81733628D01*
X270576191Y-81733628D02*
X270623810Y-81495533D01*
X270623810Y-81495533D02*
X270671429Y-81352676D01*
X270671429Y-81352676D02*
X270719048Y-81257438D01*
X270719048Y-81257438D02*
X270814286Y-81114580D01*
X270814286Y-81114580D02*
X270861905Y-81066961D01*
X271242858Y-82209819D02*
X271242858Y-81209819D01*
X271242858Y-81209819D02*
X271576191Y-81924104D01*
X271576191Y-81924104D02*
X271909524Y-81209819D01*
X271909524Y-81209819D02*
X271909524Y-82209819D01*
X272766667Y-82209819D02*
X272766667Y-81447914D01*
X272576191Y-81638390D02*
X272766667Y-81447914D01*
X272766667Y-81447914D02*
X272957143Y-81638390D01*
X273528572Y-82590771D02*
X273576191Y-82543152D01*
X273576191Y-82543152D02*
X273671429Y-82400295D01*
X273671429Y-82400295D02*
X273719048Y-82305057D01*
X273719048Y-82305057D02*
X273766667Y-82162200D01*
X273766667Y-82162200D02*
X273814286Y-81924104D01*
X273814286Y-81924104D02*
X273814286Y-81733628D01*
X273814286Y-81733628D02*
X273766667Y-81495533D01*
X273766667Y-81495533D02*
X273719048Y-81352676D01*
X273719048Y-81352676D02*
X273671429Y-81257438D01*
X273671429Y-81257438D02*
X273576191Y-81114580D01*
X273576191Y-81114580D02*
X273528572Y-81066961D01*
X266401905Y-84754819D02*
X266401905Y-83754819D01*
X266401905Y-83754819D02*
X266782857Y-83754819D01*
X266782857Y-83754819D02*
X266878095Y-83802438D01*
X266878095Y-83802438D02*
X266925714Y-83850057D01*
X266925714Y-83850057D02*
X266973333Y-83945295D01*
X266973333Y-83945295D02*
X266973333Y-84088152D01*
X266973333Y-84088152D02*
X266925714Y-84183390D01*
X266925714Y-84183390D02*
X266878095Y-84231009D01*
X266878095Y-84231009D02*
X266782857Y-84278628D01*
X266782857Y-84278628D02*
X266401905Y-84278628D01*
X267925714Y-84754819D02*
X267354286Y-84754819D01*
X267640000Y-84754819D02*
X267640000Y-83754819D01*
X267640000Y-83754819D02*
X267544762Y-83897676D01*
X267544762Y-83897676D02*
X267449524Y-83992914D01*
X267449524Y-83992914D02*
X267354286Y-84040533D01*
X268879524Y-105074819D02*
X268879524Y-104074819D01*
X268879524Y-104074819D02*
X269117619Y-104074819D01*
X269117619Y-104074819D02*
X269260476Y-104122438D01*
X269260476Y-104122438D02*
X269355714Y-104217676D01*
X269355714Y-104217676D02*
X269403333Y-104312914D01*
X269403333Y-104312914D02*
X269450952Y-104503390D01*
X269450952Y-104503390D02*
X269450952Y-104646247D01*
X269450952Y-104646247D02*
X269403333Y-104836723D01*
X269403333Y-104836723D02*
X269355714Y-104931961D01*
X269355714Y-104931961D02*
X269260476Y-105027200D01*
X269260476Y-105027200D02*
X269117619Y-105074819D01*
X269117619Y-105074819D02*
X268879524Y-105074819D01*
X269831905Y-104789104D02*
X270308095Y-104789104D01*
X269736667Y-105074819D02*
X270070000Y-104074819D01*
X270070000Y-104074819D02*
X270403333Y-105074819D01*
X266401905Y-87294819D02*
X266401905Y-86294819D01*
X266401905Y-86294819D02*
X266782857Y-86294819D01*
X266782857Y-86294819D02*
X266878095Y-86342438D01*
X266878095Y-86342438D02*
X266925714Y-86390057D01*
X266925714Y-86390057D02*
X266973333Y-86485295D01*
X266973333Y-86485295D02*
X266973333Y-86628152D01*
X266973333Y-86628152D02*
X266925714Y-86723390D01*
X266925714Y-86723390D02*
X266878095Y-86771009D01*
X266878095Y-86771009D02*
X266782857Y-86818628D01*
X266782857Y-86818628D02*
X266401905Y-86818628D01*
X267592381Y-86294819D02*
X267687619Y-86294819D01*
X267687619Y-86294819D02*
X267782857Y-86342438D01*
X267782857Y-86342438D02*
X267830476Y-86390057D01*
X267830476Y-86390057D02*
X267878095Y-86485295D01*
X267878095Y-86485295D02*
X267925714Y-86675771D01*
X267925714Y-86675771D02*
X267925714Y-86913866D01*
X267925714Y-86913866D02*
X267878095Y-87104342D01*
X267878095Y-87104342D02*
X267830476Y-87199580D01*
X267830476Y-87199580D02*
X267782857Y-87247200D01*
X267782857Y-87247200D02*
X267687619Y-87294819D01*
X267687619Y-87294819D02*
X267592381Y-87294819D01*
X267592381Y-87294819D02*
X267497143Y-87247200D01*
X267497143Y-87247200D02*
X267449524Y-87199580D01*
X267449524Y-87199580D02*
X267401905Y-87104342D01*
X267401905Y-87104342D02*
X267354286Y-86913866D01*
X267354286Y-86913866D02*
X267354286Y-86675771D01*
X267354286Y-86675771D02*
X267401905Y-86485295D01*
X267401905Y-86485295D02*
X267449524Y-86390057D01*
X267449524Y-86390057D02*
X267497143Y-86342438D01*
X267497143Y-86342438D02*
X267592381Y-86294819D01*
X260391904Y-99947200D02*
X260296666Y-99994819D01*
X260296666Y-99994819D02*
X260106190Y-99994819D01*
X260106190Y-99994819D02*
X260010952Y-99947200D01*
X260010952Y-99947200D02*
X259963333Y-99899580D01*
X259963333Y-99899580D02*
X259915714Y-99804342D01*
X259915714Y-99804342D02*
X259915714Y-99518628D01*
X259915714Y-99518628D02*
X259963333Y-99423390D01*
X259963333Y-99423390D02*
X260010952Y-99375771D01*
X260010952Y-99375771D02*
X260106190Y-99328152D01*
X260106190Y-99328152D02*
X260296666Y-99328152D01*
X260296666Y-99328152D02*
X260391904Y-99375771D01*
X261296666Y-98994819D02*
X260820476Y-98994819D01*
X260820476Y-98994819D02*
X260772857Y-99471009D01*
X260772857Y-99471009D02*
X260820476Y-99423390D01*
X260820476Y-99423390D02*
X260915714Y-99375771D01*
X260915714Y-99375771D02*
X261153809Y-99375771D01*
X261153809Y-99375771D02*
X261249047Y-99423390D01*
X261249047Y-99423390D02*
X261296666Y-99471009D01*
X261296666Y-99471009D02*
X261344285Y-99566247D01*
X261344285Y-99566247D02*
X261344285Y-99804342D01*
X261344285Y-99804342D02*
X261296666Y-99899580D01*
X261296666Y-99899580D02*
X261249047Y-99947200D01*
X261249047Y-99947200D02*
X261153809Y-99994819D01*
X261153809Y-99994819D02*
X260915714Y-99994819D01*
X260915714Y-99994819D02*
X260820476Y-99947200D01*
X260820476Y-99947200D02*
X260772857Y-99899580D01*
X263102380Y-89834819D02*
X262769047Y-89358628D01*
X262530952Y-89834819D02*
X262530952Y-88834819D01*
X262530952Y-88834819D02*
X262911904Y-88834819D01*
X262911904Y-88834819D02*
X263007142Y-88882438D01*
X263007142Y-88882438D02*
X263054761Y-88930057D01*
X263054761Y-88930057D02*
X263102380Y-89025295D01*
X263102380Y-89025295D02*
X263102380Y-89168152D01*
X263102380Y-89168152D02*
X263054761Y-89263390D01*
X263054761Y-89263390D02*
X263007142Y-89311009D01*
X263007142Y-89311009D02*
X262911904Y-89358628D01*
X262911904Y-89358628D02*
X262530952Y-89358628D01*
X263483333Y-89787200D02*
X263626190Y-89834819D01*
X263626190Y-89834819D02*
X263864285Y-89834819D01*
X263864285Y-89834819D02*
X263959523Y-89787200D01*
X263959523Y-89787200D02*
X264007142Y-89739580D01*
X264007142Y-89739580D02*
X264054761Y-89644342D01*
X264054761Y-89644342D02*
X264054761Y-89549104D01*
X264054761Y-89549104D02*
X264007142Y-89453866D01*
X264007142Y-89453866D02*
X263959523Y-89406247D01*
X263959523Y-89406247D02*
X263864285Y-89358628D01*
X263864285Y-89358628D02*
X263673809Y-89311009D01*
X263673809Y-89311009D02*
X263578571Y-89263390D01*
X263578571Y-89263390D02*
X263530952Y-89215771D01*
X263530952Y-89215771D02*
X263483333Y-89120533D01*
X263483333Y-89120533D02*
X263483333Y-89025295D01*
X263483333Y-89025295D02*
X263530952Y-88930057D01*
X263530952Y-88930057D02*
X263578571Y-88882438D01*
X263578571Y-88882438D02*
X263673809Y-88834819D01*
X263673809Y-88834819D02*
X263911904Y-88834819D01*
X263911904Y-88834819D02*
X264054761Y-88882438D01*
X264340476Y-88834819D02*
X264911904Y-88834819D01*
X264626190Y-89834819D02*
X264626190Y-88834819D01*
X269022381Y-99994819D02*
X269022381Y-99328152D01*
X269022381Y-99518628D02*
X269070000Y-99423390D01*
X269070000Y-99423390D02*
X269117619Y-99375771D01*
X269117619Y-99375771D02*
X269212857Y-99328152D01*
X269212857Y-99328152D02*
X269308095Y-99328152D01*
X269593810Y-99090057D02*
X269641429Y-99042438D01*
X269641429Y-99042438D02*
X269736667Y-98994819D01*
X269736667Y-98994819D02*
X269974762Y-98994819D01*
X269974762Y-98994819D02*
X270070000Y-99042438D01*
X270070000Y-99042438D02*
X270117619Y-99090057D01*
X270117619Y-99090057D02*
X270165238Y-99185295D01*
X270165238Y-99185295D02*
X270165238Y-99280533D01*
X270165238Y-99280533D02*
X270117619Y-99423390D01*
X270117619Y-99423390D02*
X269546191Y-99994819D01*
X269546191Y-99994819D02*
X270165238Y-99994819D01*
X260391904Y-102487200D02*
X260296666Y-102534819D01*
X260296666Y-102534819D02*
X260106190Y-102534819D01*
X260106190Y-102534819D02*
X260010952Y-102487200D01*
X260010952Y-102487200D02*
X259963333Y-102439580D01*
X259963333Y-102439580D02*
X259915714Y-102344342D01*
X259915714Y-102344342D02*
X259915714Y-102058628D01*
X259915714Y-102058628D02*
X259963333Y-101963390D01*
X259963333Y-101963390D02*
X260010952Y-101915771D01*
X260010952Y-101915771D02*
X260106190Y-101868152D01*
X260106190Y-101868152D02*
X260296666Y-101868152D01*
X260296666Y-101868152D02*
X260391904Y-101915771D01*
X261344285Y-102534819D02*
X260772857Y-102534819D01*
X261058571Y-102534819D02*
X261058571Y-101534819D01*
X261058571Y-101534819D02*
X260963333Y-101677676D01*
X260963333Y-101677676D02*
X260868095Y-101772914D01*
X260868095Y-101772914D02*
X260772857Y-101820533D01*
X269022381Y-94914819D02*
X269022381Y-94248152D01*
X269022381Y-94438628D02*
X269070000Y-94343390D01*
X269070000Y-94343390D02*
X269117619Y-94295771D01*
X269117619Y-94295771D02*
X269212857Y-94248152D01*
X269212857Y-94248152D02*
X269308095Y-94248152D01*
X270070000Y-94248152D02*
X270070000Y-94914819D01*
X269831905Y-93867200D02*
X269593810Y-94581485D01*
X269593810Y-94581485D02*
X270212857Y-94581485D01*
X269022381Y-102534819D02*
X269022381Y-101868152D01*
X269022381Y-102058628D02*
X269070000Y-101963390D01*
X269070000Y-101963390D02*
X269117619Y-101915771D01*
X269117619Y-101915771D02*
X269212857Y-101868152D01*
X269212857Y-101868152D02*
X269308095Y-101868152D01*
X269546191Y-101534819D02*
X270165238Y-101534819D01*
X270165238Y-101534819D02*
X269831905Y-101915771D01*
X269831905Y-101915771D02*
X269974762Y-101915771D01*
X269974762Y-101915771D02*
X270070000Y-101963390D01*
X270070000Y-101963390D02*
X270117619Y-102011009D01*
X270117619Y-102011009D02*
X270165238Y-102106247D01*
X270165238Y-102106247D02*
X270165238Y-102344342D01*
X270165238Y-102344342D02*
X270117619Y-102439580D01*
X270117619Y-102439580D02*
X270070000Y-102487200D01*
X270070000Y-102487200D02*
X269974762Y-102534819D01*
X269974762Y-102534819D02*
X269689048Y-102534819D01*
X269689048Y-102534819D02*
X269593810Y-102487200D01*
X269593810Y-102487200D02*
X269546191Y-102439580D01*
X269474761Y-107519580D02*
X269427142Y-107567200D01*
X269427142Y-107567200D02*
X269284285Y-107614819D01*
X269284285Y-107614819D02*
X269189047Y-107614819D01*
X269189047Y-107614819D02*
X269046190Y-107567200D01*
X269046190Y-107567200D02*
X268950952Y-107471961D01*
X268950952Y-107471961D02*
X268903333Y-107376723D01*
X268903333Y-107376723D02*
X268855714Y-107186247D01*
X268855714Y-107186247D02*
X268855714Y-107043390D01*
X268855714Y-107043390D02*
X268903333Y-106852914D01*
X268903333Y-106852914D02*
X268950952Y-106757676D01*
X268950952Y-106757676D02*
X269046190Y-106662438D01*
X269046190Y-106662438D02*
X269189047Y-106614819D01*
X269189047Y-106614819D02*
X269284285Y-106614819D01*
X269284285Y-106614819D02*
X269427142Y-106662438D01*
X269427142Y-106662438D02*
X269474761Y-106710057D01*
X270379523Y-107614819D02*
X269903333Y-107614819D01*
X269903333Y-107614819D02*
X269903333Y-106614819D01*
X260391904Y-110107200D02*
X260296666Y-110154819D01*
X260296666Y-110154819D02*
X260106190Y-110154819D01*
X260106190Y-110154819D02*
X260010952Y-110107200D01*
X260010952Y-110107200D02*
X259963333Y-110059580D01*
X259963333Y-110059580D02*
X259915714Y-109964342D01*
X259915714Y-109964342D02*
X259915714Y-109678628D01*
X259915714Y-109678628D02*
X259963333Y-109583390D01*
X259963333Y-109583390D02*
X260010952Y-109535771D01*
X260010952Y-109535771D02*
X260106190Y-109488152D01*
X260106190Y-109488152D02*
X260296666Y-109488152D01*
X260296666Y-109488152D02*
X260391904Y-109535771D01*
X260772857Y-109250057D02*
X260820476Y-109202438D01*
X260820476Y-109202438D02*
X260915714Y-109154819D01*
X260915714Y-109154819D02*
X261153809Y-109154819D01*
X261153809Y-109154819D02*
X261249047Y-109202438D01*
X261249047Y-109202438D02*
X261296666Y-109250057D01*
X261296666Y-109250057D02*
X261344285Y-109345295D01*
X261344285Y-109345295D02*
X261344285Y-109440533D01*
X261344285Y-109440533D02*
X261296666Y-109583390D01*
X261296666Y-109583390D02*
X260725238Y-110154819D01*
X260725238Y-110154819D02*
X261344285Y-110154819D01*
X269022381Y-97454819D02*
X269022381Y-96788152D01*
X269022381Y-96978628D02*
X269070000Y-96883390D01*
X269070000Y-96883390D02*
X269117619Y-96835771D01*
X269117619Y-96835771D02*
X269212857Y-96788152D01*
X269212857Y-96788152D02*
X269308095Y-96788152D01*
X270165238Y-97454819D02*
X269593810Y-97454819D01*
X269879524Y-97454819D02*
X269879524Y-96454819D01*
X269879524Y-96454819D02*
X269784286Y-96597676D01*
X269784286Y-96597676D02*
X269689048Y-96692914D01*
X269689048Y-96692914D02*
X269593810Y-96740533D01*
X260463333Y-107519580D02*
X260415714Y-107567200D01*
X260415714Y-107567200D02*
X260272857Y-107614819D01*
X260272857Y-107614819D02*
X260177619Y-107614819D01*
X260177619Y-107614819D02*
X260034762Y-107567200D01*
X260034762Y-107567200D02*
X259939524Y-107471961D01*
X259939524Y-107471961D02*
X259891905Y-107376723D01*
X259891905Y-107376723D02*
X259844286Y-107186247D01*
X259844286Y-107186247D02*
X259844286Y-107043390D01*
X259844286Y-107043390D02*
X259891905Y-106852914D01*
X259891905Y-106852914D02*
X259939524Y-106757676D01*
X259939524Y-106757676D02*
X260034762Y-106662438D01*
X260034762Y-106662438D02*
X260177619Y-106614819D01*
X260177619Y-106614819D02*
X260272857Y-106614819D01*
X260272857Y-106614819D02*
X260415714Y-106662438D01*
X260415714Y-106662438D02*
X260463333Y-106710057D01*
X260844286Y-107567200D02*
X260987143Y-107614819D01*
X260987143Y-107614819D02*
X261225238Y-107614819D01*
X261225238Y-107614819D02*
X261320476Y-107567200D01*
X261320476Y-107567200D02*
X261368095Y-107519580D01*
X261368095Y-107519580D02*
X261415714Y-107424342D01*
X261415714Y-107424342D02*
X261415714Y-107329104D01*
X261415714Y-107329104D02*
X261368095Y-107233866D01*
X261368095Y-107233866D02*
X261320476Y-107186247D01*
X261320476Y-107186247D02*
X261225238Y-107138628D01*
X261225238Y-107138628D02*
X261034762Y-107091009D01*
X261034762Y-107091009D02*
X260939524Y-107043390D01*
X260939524Y-107043390D02*
X260891905Y-106995771D01*
X260891905Y-106995771D02*
X260844286Y-106900533D01*
X260844286Y-106900533D02*
X260844286Y-106805295D01*
X260844286Y-106805295D02*
X260891905Y-106710057D01*
X260891905Y-106710057D02*
X260939524Y-106662438D01*
X260939524Y-106662438D02*
X261034762Y-106614819D01*
X261034762Y-106614819D02*
X261272857Y-106614819D01*
X261272857Y-106614819D02*
X261415714Y-106662438D01*
X260391904Y-105027200D02*
X260296666Y-105074819D01*
X260296666Y-105074819D02*
X260106190Y-105074819D01*
X260106190Y-105074819D02*
X260010952Y-105027200D01*
X260010952Y-105027200D02*
X259963333Y-104979580D01*
X259963333Y-104979580D02*
X259915714Y-104884342D01*
X259915714Y-104884342D02*
X259915714Y-104598628D01*
X259915714Y-104598628D02*
X259963333Y-104503390D01*
X259963333Y-104503390D02*
X260010952Y-104455771D01*
X260010952Y-104455771D02*
X260106190Y-104408152D01*
X260106190Y-104408152D02*
X260296666Y-104408152D01*
X260296666Y-104408152D02*
X260391904Y-104455771D01*
X261010952Y-104074819D02*
X261106190Y-104074819D01*
X261106190Y-104074819D02*
X261201428Y-104122438D01*
X261201428Y-104122438D02*
X261249047Y-104170057D01*
X261249047Y-104170057D02*
X261296666Y-104265295D01*
X261296666Y-104265295D02*
X261344285Y-104455771D01*
X261344285Y-104455771D02*
X261344285Y-104693866D01*
X261344285Y-104693866D02*
X261296666Y-104884342D01*
X261296666Y-104884342D02*
X261249047Y-104979580D01*
X261249047Y-104979580D02*
X261201428Y-105027200D01*
X261201428Y-105027200D02*
X261106190Y-105074819D01*
X261106190Y-105074819D02*
X261010952Y-105074819D01*
X261010952Y-105074819D02*
X260915714Y-105027200D01*
X260915714Y-105027200D02*
X260868095Y-104979580D01*
X260868095Y-104979580D02*
X260820476Y-104884342D01*
X260820476Y-104884342D02*
X260772857Y-104693866D01*
X260772857Y-104693866D02*
X260772857Y-104455771D01*
X260772857Y-104455771D02*
X260820476Y-104265295D01*
X260820476Y-104265295D02*
X260868095Y-104170057D01*
X260868095Y-104170057D02*
X260915714Y-104122438D01*
X260915714Y-104122438D02*
X261010952Y-104074819D01*
X269331904Y-110107200D02*
X269236666Y-110154819D01*
X269236666Y-110154819D02*
X269046190Y-110154819D01*
X269046190Y-110154819D02*
X268950952Y-110107200D01*
X268950952Y-110107200D02*
X268903333Y-110059580D01*
X268903333Y-110059580D02*
X268855714Y-109964342D01*
X268855714Y-109964342D02*
X268855714Y-109678628D01*
X268855714Y-109678628D02*
X268903333Y-109583390D01*
X268903333Y-109583390D02*
X268950952Y-109535771D01*
X268950952Y-109535771D02*
X269046190Y-109488152D01*
X269046190Y-109488152D02*
X269236666Y-109488152D01*
X269236666Y-109488152D02*
X269331904Y-109535771D01*
X269665238Y-109154819D02*
X270284285Y-109154819D01*
X270284285Y-109154819D02*
X269950952Y-109535771D01*
X269950952Y-109535771D02*
X270093809Y-109535771D01*
X270093809Y-109535771D02*
X270189047Y-109583390D01*
X270189047Y-109583390D02*
X270236666Y-109631009D01*
X270236666Y-109631009D02*
X270284285Y-109726247D01*
X270284285Y-109726247D02*
X270284285Y-109964342D01*
X270284285Y-109964342D02*
X270236666Y-110059580D01*
X270236666Y-110059580D02*
X270189047Y-110107200D01*
X270189047Y-110107200D02*
X270093809Y-110154819D01*
X270093809Y-110154819D02*
X269808095Y-110154819D01*
X269808095Y-110154819D02*
X269712857Y-110107200D01*
X269712857Y-110107200D02*
X269665238Y-110059580D01*
X260082381Y-112694819D02*
X260082381Y-112028152D01*
X260082381Y-112218628D02*
X260130000Y-112123390D01*
X260130000Y-112123390D02*
X260177619Y-112075771D01*
X260177619Y-112075771D02*
X260272857Y-112028152D01*
X260272857Y-112028152D02*
X260368095Y-112028152D01*
X260891905Y-111694819D02*
X260987143Y-111694819D01*
X260987143Y-111694819D02*
X261082381Y-111742438D01*
X261082381Y-111742438D02*
X261130000Y-111790057D01*
X261130000Y-111790057D02*
X261177619Y-111885295D01*
X261177619Y-111885295D02*
X261225238Y-112075771D01*
X261225238Y-112075771D02*
X261225238Y-112313866D01*
X261225238Y-112313866D02*
X261177619Y-112504342D01*
X261177619Y-112504342D02*
X261130000Y-112599580D01*
X261130000Y-112599580D02*
X261082381Y-112647200D01*
X261082381Y-112647200D02*
X260987143Y-112694819D01*
X260987143Y-112694819D02*
X260891905Y-112694819D01*
X260891905Y-112694819D02*
X260796667Y-112647200D01*
X260796667Y-112647200D02*
X260749048Y-112599580D01*
X260749048Y-112599580D02*
X260701429Y-112504342D01*
X260701429Y-112504342D02*
X260653810Y-112313866D01*
X260653810Y-112313866D02*
X260653810Y-112075771D01*
X260653810Y-112075771D02*
X260701429Y-111885295D01*
X260701429Y-111885295D02*
X260749048Y-111790057D01*
X260749048Y-111790057D02*
X260796667Y-111742438D01*
X260796667Y-111742438D02*
X260891905Y-111694819D01*
X265788095Y-91422438D02*
X265692857Y-91374819D01*
X265692857Y-91374819D02*
X265550000Y-91374819D01*
X265550000Y-91374819D02*
X265407143Y-91422438D01*
X265407143Y-91422438D02*
X265311905Y-91517676D01*
X265311905Y-91517676D02*
X265264286Y-91612914D01*
X265264286Y-91612914D02*
X265216667Y-91803390D01*
X265216667Y-91803390D02*
X265216667Y-91946247D01*
X265216667Y-91946247D02*
X265264286Y-92136723D01*
X265264286Y-92136723D02*
X265311905Y-92231961D01*
X265311905Y-92231961D02*
X265407143Y-92327200D01*
X265407143Y-92327200D02*
X265550000Y-92374819D01*
X265550000Y-92374819D02*
X265645238Y-92374819D01*
X265645238Y-92374819D02*
X265788095Y-92327200D01*
X265788095Y-92327200D02*
X265835714Y-92279580D01*
X265835714Y-92279580D02*
X265835714Y-91946247D01*
X265835714Y-91946247D02*
X265645238Y-91946247D01*
X266264286Y-92374819D02*
X266264286Y-91374819D01*
X266264286Y-91374819D02*
X266835714Y-92374819D01*
X266835714Y-92374819D02*
X266835714Y-91374819D01*
X267311905Y-92374819D02*
X267311905Y-91374819D01*
X267311905Y-91374819D02*
X267550000Y-91374819D01*
X267550000Y-91374819D02*
X267692857Y-91422438D01*
X267692857Y-91422438D02*
X267788095Y-91517676D01*
X267788095Y-91517676D02*
X267835714Y-91612914D01*
X267835714Y-91612914D02*
X267883333Y-91803390D01*
X267883333Y-91803390D02*
X267883333Y-91946247D01*
X267883333Y-91946247D02*
X267835714Y-92136723D01*
X267835714Y-92136723D02*
X267788095Y-92231961D01*
X267788095Y-92231961D02*
X267692857Y-92327200D01*
X267692857Y-92327200D02*
X267550000Y-92374819D01*
X267550000Y-92374819D02*
X267311905Y-92374819D01*
X265788095Y-88882438D02*
X265692857Y-88834819D01*
X265692857Y-88834819D02*
X265550000Y-88834819D01*
X265550000Y-88834819D02*
X265407143Y-88882438D01*
X265407143Y-88882438D02*
X265311905Y-88977676D01*
X265311905Y-88977676D02*
X265264286Y-89072914D01*
X265264286Y-89072914D02*
X265216667Y-89263390D01*
X265216667Y-89263390D02*
X265216667Y-89406247D01*
X265216667Y-89406247D02*
X265264286Y-89596723D01*
X265264286Y-89596723D02*
X265311905Y-89691961D01*
X265311905Y-89691961D02*
X265407143Y-89787200D01*
X265407143Y-89787200D02*
X265550000Y-89834819D01*
X265550000Y-89834819D02*
X265645238Y-89834819D01*
X265645238Y-89834819D02*
X265788095Y-89787200D01*
X265788095Y-89787200D02*
X265835714Y-89739580D01*
X265835714Y-89739580D02*
X265835714Y-89406247D01*
X265835714Y-89406247D02*
X265645238Y-89406247D01*
X266264286Y-89834819D02*
X266264286Y-88834819D01*
X266264286Y-88834819D02*
X266835714Y-89834819D01*
X266835714Y-89834819D02*
X266835714Y-88834819D01*
X267311905Y-89834819D02*
X267311905Y-88834819D01*
X267311905Y-88834819D02*
X267550000Y-88834819D01*
X267550000Y-88834819D02*
X267692857Y-88882438D01*
X267692857Y-88882438D02*
X267788095Y-88977676D01*
X267788095Y-88977676D02*
X267835714Y-89072914D01*
X267835714Y-89072914D02*
X267883333Y-89263390D01*
X267883333Y-89263390D02*
X267883333Y-89406247D01*
X267883333Y-89406247D02*
X267835714Y-89596723D01*
X267835714Y-89596723D02*
X267788095Y-89691961D01*
X267788095Y-89691961D02*
X267692857Y-89787200D01*
X267692857Y-89787200D02*
X267550000Y-89834819D01*
X267550000Y-89834819D02*
X267311905Y-89834819D01*
X262888095Y-86342438D02*
X262792857Y-86294819D01*
X262792857Y-86294819D02*
X262650000Y-86294819D01*
X262650000Y-86294819D02*
X262507143Y-86342438D01*
X262507143Y-86342438D02*
X262411905Y-86437676D01*
X262411905Y-86437676D02*
X262364286Y-86532914D01*
X262364286Y-86532914D02*
X262316667Y-86723390D01*
X262316667Y-86723390D02*
X262316667Y-86866247D01*
X262316667Y-86866247D02*
X262364286Y-87056723D01*
X262364286Y-87056723D02*
X262411905Y-87151961D01*
X262411905Y-87151961D02*
X262507143Y-87247200D01*
X262507143Y-87247200D02*
X262650000Y-87294819D01*
X262650000Y-87294819D02*
X262745238Y-87294819D01*
X262745238Y-87294819D02*
X262888095Y-87247200D01*
X262888095Y-87247200D02*
X262935714Y-87199580D01*
X262935714Y-87199580D02*
X262935714Y-86866247D01*
X262935714Y-86866247D02*
X262745238Y-86866247D01*
X263364286Y-87294819D02*
X263364286Y-86294819D01*
X263364286Y-86294819D02*
X263935714Y-87294819D01*
X263935714Y-87294819D02*
X263935714Y-86294819D01*
X264411905Y-87294819D02*
X264411905Y-86294819D01*
X264411905Y-86294819D02*
X264650000Y-86294819D01*
X264650000Y-86294819D02*
X264792857Y-86342438D01*
X264792857Y-86342438D02*
X264888095Y-86437676D01*
X264888095Y-86437676D02*
X264935714Y-86532914D01*
X264935714Y-86532914D02*
X264983333Y-86723390D01*
X264983333Y-86723390D02*
X264983333Y-86866247D01*
X264983333Y-86866247D02*
X264935714Y-87056723D01*
X264935714Y-87056723D02*
X264888095Y-87151961D01*
X264888095Y-87151961D02*
X264792857Y-87247200D01*
X264792857Y-87247200D02*
X264650000Y-87294819D01*
X264650000Y-87294819D02*
X264411905Y-87294819D01*
D13*
%TO.C,D26*%
X250635595Y-170828692D02*
X250856105Y-170059683D01*
X250745851Y-170444188D02*
X250265219Y-170306369D01*
X250856105Y-170059683D02*
X251322607Y-170609570D01*
X251322607Y-170609570D02*
X250635595Y-170828692D01*
X251322607Y-170609570D02*
X251171006Y-171138264D01*
X251322607Y-170609570D02*
X251474207Y-170080876D01*
X251707111Y-170719825D02*
X251322607Y-170609570D01*
%TO.C,D21*%
X250450000Y-146600000D02*
X251050000Y-147000000D01*
X250450000Y-147000000D02*
X249950000Y-147000000D01*
X250450000Y-147400000D02*
X250450000Y-146600000D01*
X251050000Y-147000000D02*
X250450000Y-147400000D01*
X251050000Y-147000000D02*
X251050000Y-146450000D01*
X251050000Y-147000000D02*
X251050000Y-147550000D01*
X251450000Y-147000000D02*
X251050000Y-147000000D01*
%TO.C,D7*%
X174450000Y-111600000D02*
X175050000Y-112000000D01*
X174450000Y-112000000D02*
X173950000Y-112000000D01*
X174450000Y-112400000D02*
X174450000Y-111600000D01*
X175050000Y-112000000D02*
X174450000Y-112400000D01*
X175050000Y-112000000D02*
X175050000Y-111450000D01*
X175050000Y-112000000D02*
X175050000Y-112550000D01*
X175450000Y-112000000D02*
X175050000Y-112000000D01*
%TO.C,D27*%
X269560803Y-183788750D02*
X270085650Y-183184982D01*
X269823227Y-183486866D02*
X269445872Y-183158837D01*
X270085650Y-183184982D02*
X270276052Y-183880502D01*
X270276052Y-183880502D02*
X269560803Y-183788750D01*
X270276052Y-183880502D02*
X269915220Y-184295592D01*
X270276052Y-183880502D02*
X270636885Y-183465411D01*
X270577936Y-184142925D02*
X270276052Y-183880502D01*
%TO.C,D19*%
X231450000Y-103600000D02*
X232050000Y-104000000D01*
X231450000Y-104000000D02*
X230950000Y-104000000D01*
X231450000Y-104400000D02*
X231450000Y-103600000D01*
X232050000Y-104000000D02*
X231450000Y-104400000D01*
X232050000Y-104000000D02*
X232050000Y-103450000D01*
X232050000Y-104000000D02*
X232050000Y-104550000D01*
X232450000Y-104000000D02*
X232050000Y-104000000D01*
%TO.C,D1*%
X155450000Y-149600000D02*
X156050000Y-150000000D01*
X155450000Y-150000000D02*
X154950000Y-150000000D01*
X155450000Y-150400000D02*
X155450000Y-149600000D01*
X156050000Y-150000000D02*
X155450000Y-150400000D01*
X156050000Y-150000000D02*
X156050000Y-149450000D01*
X156050000Y-150000000D02*
X156050000Y-150550000D01*
X156450000Y-150000000D02*
X156050000Y-150000000D01*
%TO.C,D8*%
X174450000Y-92600000D02*
X175050000Y-93000000D01*
X174450000Y-93000000D02*
X173950000Y-93000000D01*
X174450000Y-93400000D02*
X174450000Y-92600000D01*
X175050000Y-93000000D02*
X174450000Y-93400000D01*
X175050000Y-93000000D02*
X175050000Y-92450000D01*
X175050000Y-93000000D02*
X175050000Y-93550000D01*
X175450000Y-93000000D02*
X175050000Y-93000000D01*
%TO.C,D23*%
X250450000Y-108600000D02*
X251050000Y-109000000D01*
X250450000Y-109000000D02*
X249950000Y-109000000D01*
X250450000Y-109400000D02*
X250450000Y-108600000D01*
X251050000Y-109000000D02*
X250450000Y-109400000D01*
X251050000Y-109000000D02*
X251050000Y-108450000D01*
X251050000Y-109000000D02*
X251050000Y-109550000D01*
X251450000Y-109000000D02*
X251050000Y-109000000D01*
D14*
%TO.C,PWR1*%
X246650000Y-82085000D02*
X246650000Y-82875000D01*
X248700000Y-83925000D02*
X248500000Y-83925000D01*
X251700000Y-83925000D02*
X250000000Y-83925000D01*
X252950000Y-81075000D02*
X247250000Y-81075000D01*
X253550000Y-82875000D02*
X253550000Y-82085000D01*
D13*
%TO.C,D15*%
X212450000Y-99600000D02*
X213050000Y-100000000D01*
X212450000Y-100000000D02*
X211950000Y-100000000D01*
X212450000Y-100400000D02*
X212450000Y-99600000D01*
X213050000Y-100000000D02*
X212450000Y-100400000D01*
X213050000Y-100000000D02*
X213050000Y-99450000D01*
X213050000Y-100000000D02*
X213050000Y-100550000D01*
X213450000Y-100000000D02*
X213050000Y-100000000D01*
%TO.C,D5*%
X174450000Y-149600000D02*
X175050000Y-150000000D01*
X174450000Y-150000000D02*
X173950000Y-150000000D01*
X174450000Y-150400000D02*
X174450000Y-149600000D01*
X175050000Y-150000000D02*
X174450000Y-150400000D01*
X175050000Y-150000000D02*
X175050000Y-149450000D01*
X175050000Y-150000000D02*
X175050000Y-150550000D01*
X175450000Y-150000000D02*
X175050000Y-150000000D01*
%TO.C,D11*%
X193450000Y-103600000D02*
X194050000Y-104000000D01*
X193450000Y-104000000D02*
X192950000Y-104000000D01*
X193450000Y-104400000D02*
X193450000Y-103600000D01*
X194050000Y-104000000D02*
X193450000Y-104400000D01*
X194050000Y-104000000D02*
X194050000Y-103450000D01*
X194050000Y-104000000D02*
X194050000Y-104550000D01*
X194450000Y-104000000D02*
X194050000Y-104000000D01*
D14*
%TO.C,MCU1*%
X256150000Y-82970000D02*
X256150000Y-113570000D01*
X256150000Y-82970000D02*
X258810000Y-82970000D01*
X256150000Y-113570000D02*
X258810000Y-113570000D01*
X258810000Y-82970000D02*
X258810000Y-113570000D01*
X271390000Y-82970000D02*
X271390000Y-113570000D01*
X271390000Y-82970000D02*
X274050000Y-82970000D01*
X271390000Y-85570000D02*
X274050000Y-85570000D01*
X271390000Y-113570000D02*
X274050000Y-113570000D01*
X274050000Y-82970000D02*
X274050000Y-113570000D01*
D13*
%TO.C,D16*%
X212450000Y-80600000D02*
X213050000Y-81000000D01*
X212450000Y-81000000D02*
X211950000Y-81000000D01*
X212450000Y-81400000D02*
X212450000Y-80600000D01*
X213050000Y-81000000D02*
X212450000Y-81400000D01*
X213050000Y-81000000D02*
X213050000Y-80450000D01*
X213050000Y-81000000D02*
X213050000Y-81550000D01*
X213450000Y-81000000D02*
X213050000Y-81000000D01*
%TO.C,D12*%
X193450000Y-84600000D02*
X194050000Y-85000000D01*
X193450000Y-85000000D02*
X192950000Y-85000000D01*
X193450000Y-85400000D02*
X193450000Y-84600000D01*
X194050000Y-85000000D02*
X193450000Y-85400000D01*
X194050000Y-85000000D02*
X194050000Y-84450000D01*
X194050000Y-85000000D02*
X194050000Y-85550000D01*
X194450000Y-85000000D02*
X194050000Y-85000000D01*
%TO.C,D22*%
X250450000Y-127600000D02*
X251050000Y-128000000D01*
X250450000Y-128000000D02*
X249950000Y-128000000D01*
X250450000Y-128400000D02*
X250450000Y-127600000D01*
X251050000Y-128000000D02*
X250450000Y-128400000D01*
X251050000Y-128000000D02*
X251050000Y-127450000D01*
X251050000Y-128000000D02*
X251050000Y-128550000D01*
X251450000Y-128000000D02*
X251050000Y-128000000D01*
%TO.C,D17*%
X231450000Y-141600000D02*
X232050000Y-142000000D01*
X231450000Y-142000000D02*
X230950000Y-142000000D01*
X231450000Y-142400000D02*
X231450000Y-141600000D01*
X232050000Y-142000000D02*
X231450000Y-142400000D01*
X232050000Y-142000000D02*
X232050000Y-141450000D01*
X232050000Y-142000000D02*
X232050000Y-142550000D01*
X232450000Y-142000000D02*
X232050000Y-142000000D01*
%TO.C,D9*%
X193450000Y-141600000D02*
X194050000Y-142000000D01*
X193450000Y-142000000D02*
X192950000Y-142000000D01*
X193450000Y-142400000D02*
X193450000Y-141600000D01*
X194050000Y-142000000D02*
X193450000Y-142400000D01*
X194050000Y-142000000D02*
X194050000Y-141450000D01*
X194050000Y-142000000D02*
X194050000Y-142550000D01*
X194450000Y-142000000D02*
X194050000Y-142000000D01*
D14*
%TO.C,JST1*%
X256600000Y-114440000D02*
X257600000Y-114440000D01*
X256600000Y-115360000D02*
X256600000Y-114440000D01*
X256600000Y-119560000D02*
X256600000Y-120560000D01*
X256600000Y-120560000D02*
X257600000Y-120560000D01*
X264420000Y-114440000D02*
X263420000Y-114440000D01*
X264420000Y-115360000D02*
X264420000Y-114440000D01*
X264420000Y-119640000D02*
X264420000Y-120560000D01*
X264420000Y-120560000D02*
X263420000Y-120560000D01*
D13*
X264960000Y-116500000D02*
X265960000Y-116500000D01*
X265460000Y-116000000D02*
X265460000Y-117000000D01*
X265460000Y-119000000D02*
X265460000Y-118000000D01*
%TO.C,D14*%
X212450000Y-118600000D02*
X213050000Y-119000000D01*
X212450000Y-119000000D02*
X211950000Y-119000000D01*
X212450000Y-119400000D02*
X212450000Y-118600000D01*
X213050000Y-119000000D02*
X212450000Y-119400000D01*
X213050000Y-119000000D02*
X213050000Y-118450000D01*
X213050000Y-119000000D02*
X213050000Y-119550000D01*
X213450000Y-119000000D02*
X213050000Y-119000000D01*
%TO.C,D24*%
X250450000Y-89600000D02*
X251050000Y-90000000D01*
X250450000Y-90000000D02*
X249950000Y-90000000D01*
X250450000Y-90400000D02*
X250450000Y-89600000D01*
X251050000Y-90000000D02*
X250450000Y-90400000D01*
X251050000Y-90000000D02*
X251050000Y-89450000D01*
X251050000Y-90000000D02*
X251050000Y-90550000D01*
X251450000Y-90000000D02*
X251050000Y-90000000D01*
%TO.C,D6*%
X174450000Y-130600000D02*
X175050000Y-131000000D01*
X174450000Y-131000000D02*
X173950000Y-131000000D01*
X174450000Y-131400000D02*
X174450000Y-130600000D01*
X175050000Y-131000000D02*
X174450000Y-131400000D01*
X175050000Y-131000000D02*
X175050000Y-130450000D01*
X175050000Y-131000000D02*
X175050000Y-131550000D01*
X175450000Y-131000000D02*
X175050000Y-131000000D01*
%TO.C,D20*%
X231450000Y-84600000D02*
X232050000Y-85000000D01*
X231450000Y-85000000D02*
X230950000Y-85000000D01*
X231450000Y-85400000D02*
X231450000Y-84600000D01*
X232050000Y-85000000D02*
X231450000Y-85400000D01*
X232050000Y-85000000D02*
X232050000Y-84450000D01*
X232050000Y-85000000D02*
X232050000Y-85550000D01*
X232450000Y-85000000D02*
X232050000Y-85000000D01*
%TO.C,RST1*%
X237750000Y-81500000D02*
X237750000Y-81250000D01*
X237750000Y-84500000D02*
X237750000Y-84750000D01*
X238000000Y-81250000D02*
X237750000Y-81250000D01*
X238000000Y-84750000D02*
X237750000Y-84750000D01*
X242200000Y-81250000D02*
X242450000Y-81250000D01*
X242200000Y-84750000D02*
X242450000Y-84750000D01*
X242450000Y-81500000D02*
X242450000Y-81250000D01*
X242450000Y-84500000D02*
X242450000Y-84750000D01*
%TO.C,D4*%
X155450000Y-92600000D02*
X156050000Y-93000000D01*
X155450000Y-93000000D02*
X154950000Y-93000000D01*
X155450000Y-93400000D02*
X155450000Y-92600000D01*
X156050000Y-93000000D02*
X155450000Y-93400000D01*
X156050000Y-93000000D02*
X156050000Y-92450000D01*
X156050000Y-93000000D02*
X156050000Y-93550000D01*
X156450000Y-93000000D02*
X156050000Y-93000000D01*
%TO.C,D25*%
X230317828Y-165392644D02*
X230442976Y-164602493D01*
X230380402Y-164997568D02*
X229886558Y-164919351D01*
X230442976Y-164602493D02*
X230973015Y-165091429D01*
X230973015Y-165091429D02*
X230317828Y-165392644D01*
X230973015Y-165091429D02*
X230886976Y-165634658D01*
X230973015Y-165091429D02*
X231059054Y-164548200D01*
X231368090Y-165154003D02*
X230973015Y-165091429D01*
%TO.C,D2*%
X155450000Y-130600000D02*
X156050000Y-131000000D01*
X155450000Y-131000000D02*
X154950000Y-131000000D01*
X155450000Y-131400000D02*
X155450000Y-130600000D01*
X156050000Y-131000000D02*
X155450000Y-131400000D01*
X156050000Y-131000000D02*
X156050000Y-130450000D01*
X156050000Y-131000000D02*
X156050000Y-131550000D01*
X156450000Y-131000000D02*
X156050000Y-131000000D01*
%TO.C,D3*%
X155450000Y-111600000D02*
X156050000Y-112000000D01*
X155450000Y-112000000D02*
X154950000Y-112000000D01*
X155450000Y-112400000D02*
X155450000Y-111600000D01*
X156050000Y-112000000D02*
X155450000Y-112400000D01*
X156050000Y-112000000D02*
X156050000Y-111450000D01*
X156050000Y-112000000D02*
X156050000Y-112550000D01*
X156450000Y-112000000D02*
X156050000Y-112000000D01*
%TO.C,D10*%
X193450000Y-122600000D02*
X194050000Y-123000000D01*
X193450000Y-123000000D02*
X192950000Y-123000000D01*
X193450000Y-123400000D02*
X193450000Y-122600000D01*
X194050000Y-123000000D02*
X193450000Y-123400000D01*
X194050000Y-123000000D02*
X194050000Y-122450000D01*
X194050000Y-123000000D02*
X194050000Y-123550000D01*
X194450000Y-123000000D02*
X194050000Y-123000000D01*
%TO.C,D13*%
X212450000Y-137600000D02*
X213050000Y-138000000D01*
X212450000Y-138000000D02*
X211950000Y-138000000D01*
X212450000Y-138400000D02*
X212450000Y-137600000D01*
X213050000Y-138000000D02*
X212450000Y-138400000D01*
X213050000Y-138000000D02*
X213050000Y-137450000D01*
X213050000Y-138000000D02*
X213050000Y-138550000D01*
X213450000Y-138000000D02*
X213050000Y-138000000D01*
%TO.C,D18*%
X231450000Y-122600000D02*
X232050000Y-123000000D01*
X231450000Y-123000000D02*
X230950000Y-123000000D01*
X231450000Y-123400000D02*
X231450000Y-122600000D01*
X232050000Y-123000000D02*
X231450000Y-123400000D01*
X232050000Y-123000000D02*
X232050000Y-122450000D01*
X232050000Y-123000000D02*
X232050000Y-123550000D01*
X232450000Y-123000000D02*
X232050000Y-123000000D01*
D12*
%TO.C,S19*%
X224000000Y-108200000D02*
X224500000Y-107700000D01*
X224000000Y-111700000D02*
X224500000Y-112200000D01*
X224500000Y-107700000D02*
X226800000Y-107700000D01*
X224500000Y-112200000D02*
X227500000Y-112200000D01*
X227500000Y-112200000D02*
X228000000Y-111700000D01*
X228000000Y-110780000D02*
X228000000Y-111700000D01*
X228500000Y-105500000D02*
X233000000Y-105500000D01*
X228500000Y-106200000D02*
X228500000Y-105500000D01*
X233000000Y-105500000D02*
X233000000Y-106000000D01*
X233000000Y-109600000D02*
X233000000Y-110200000D01*
X233000000Y-110200000D02*
X228520000Y-110200000D01*
X228000000Y-110780000D02*
G75*
G02*
X228520000Y-110200000I549999J30001D01*
G01*
X228500000Y-106220000D02*
G75*
G02*
X226800000Y-107700000I-1589999J109999D01*
G01*
%TO.C,S6*%
X167000000Y-135200000D02*
X167500000Y-134700000D01*
X167000000Y-138700000D02*
X167500000Y-139200000D01*
X167500000Y-134700000D02*
X169800000Y-134700000D01*
X167500000Y-139200000D02*
X170500000Y-139200000D01*
X170500000Y-139200000D02*
X171000000Y-138700000D01*
X171000000Y-137780000D02*
X171000000Y-138700000D01*
X171500000Y-132500000D02*
X176000000Y-132500000D01*
X171500000Y-133200000D02*
X171500000Y-132500000D01*
X176000000Y-132500000D02*
X176000000Y-133000000D01*
X176000000Y-136600000D02*
X176000000Y-137200000D01*
X176000000Y-137200000D02*
X171520000Y-137200000D01*
X171000000Y-137780000D02*
G75*
G02*
X171520000Y-137200000I549999J30001D01*
G01*
X171500000Y-133220000D02*
G75*
G02*
X169800000Y-134700000I-1589999J109999D01*
G01*
%TO.C,S24*%
X243000000Y-94200000D02*
X243500000Y-93700000D01*
X243000000Y-97700000D02*
X243500000Y-98200000D01*
X243500000Y-93700000D02*
X245800000Y-93700000D01*
X243500000Y-98200000D02*
X246500000Y-98200000D01*
X246500000Y-98200000D02*
X247000000Y-97700000D01*
X247000000Y-96780000D02*
X247000000Y-97700000D01*
X247500000Y-91500000D02*
X252000000Y-91500000D01*
X247500000Y-92200000D02*
X247500000Y-91500000D01*
X252000000Y-91500000D02*
X252000000Y-92000000D01*
X252000000Y-95600000D02*
X252000000Y-96200000D01*
X252000000Y-96200000D02*
X247520000Y-96200000D01*
X247000000Y-96780000D02*
G75*
G02*
X247520000Y-96200000I549999J30001D01*
G01*
X247500000Y-92220000D02*
G75*
G02*
X245800000Y-93700000I-1589999J109999D01*
G01*
%TO.C,S8*%
X167000000Y-97200000D02*
X167500000Y-96700000D01*
X167000000Y-100700000D02*
X167500000Y-101200000D01*
X167500000Y-96700000D02*
X169800000Y-96700000D01*
X167500000Y-101200000D02*
X170500000Y-101200000D01*
X170500000Y-101200000D02*
X171000000Y-100700000D01*
X171000000Y-99780000D02*
X171000000Y-100700000D01*
X171500000Y-94500000D02*
X176000000Y-94500000D01*
X171500000Y-95200000D02*
X171500000Y-94500000D01*
X176000000Y-94500000D02*
X176000000Y-95000000D01*
X176000000Y-98600000D02*
X176000000Y-99200000D01*
X176000000Y-99200000D02*
X171520000Y-99200000D01*
X171000000Y-99780000D02*
G75*
G02*
X171520000Y-99200000I549999J30001D01*
G01*
X171500000Y-95220000D02*
G75*
G02*
X169800000Y-96700000I-1589999J109999D01*
G01*
%TO.C,S7*%
X167000000Y-116200000D02*
X167500000Y-115700000D01*
X167000000Y-119700000D02*
X167500000Y-120200000D01*
X167500000Y-115700000D02*
X169800000Y-115700000D01*
X167500000Y-120200000D02*
X170500000Y-120200000D01*
X170500000Y-120200000D02*
X171000000Y-119700000D01*
X171000000Y-118780000D02*
X171000000Y-119700000D01*
X171500000Y-113500000D02*
X176000000Y-113500000D01*
X171500000Y-114200000D02*
X171500000Y-113500000D01*
X176000000Y-113500000D02*
X176000000Y-114000000D01*
X176000000Y-117600000D02*
X176000000Y-118200000D01*
X176000000Y-118200000D02*
X171520000Y-118200000D01*
X171000000Y-118780000D02*
G75*
G02*
X171520000Y-118200000I549999J30001D01*
G01*
X171500000Y-114220000D02*
G75*
G02*
X169800000Y-115700000I-1589999J109999D01*
G01*
%TO.C,S4*%
X148000000Y-97200000D02*
X148500000Y-96700000D01*
X148000000Y-100700000D02*
X148500000Y-101200000D01*
X148500000Y-96700000D02*
X150800000Y-96700000D01*
X148500000Y-101200000D02*
X151500000Y-101200000D01*
X151500000Y-101200000D02*
X152000000Y-100700000D01*
X152000000Y-99780000D02*
X152000000Y-100700000D01*
X152500000Y-94500000D02*
X157000000Y-94500000D01*
X152500000Y-95200000D02*
X152500000Y-94500000D01*
X157000000Y-94500000D02*
X157000000Y-95000000D01*
X157000000Y-98600000D02*
X157000000Y-99200000D01*
X157000000Y-99200000D02*
X152520000Y-99200000D01*
X152000000Y-99780000D02*
G75*
G02*
X152520000Y-99200000I549999J30001D01*
G01*
X152500000Y-95220000D02*
G75*
G02*
X150800000Y-96700000I-1589999J109999D01*
G01*
%TO.C,S25*%
X221817578Y-171437331D02*
X222233205Y-172009393D01*
X222233205Y-172009393D02*
X225196270Y-172478696D01*
X222365099Y-167980422D02*
X222937160Y-167564795D01*
X222937160Y-167564795D02*
X225208843Y-167924594D01*
X225196270Y-172478696D02*
X225768331Y-172063069D01*
X225912251Y-171154396D02*
X225768331Y-172063069D01*
X227122565Y-166709001D02*
X227232069Y-166017619D01*
X227232069Y-166017619D02*
X231676667Y-166721574D01*
X230941425Y-171363709D02*
X226516581Y-170662883D01*
X231035285Y-170771096D02*
X230941425Y-171363709D01*
X231676667Y-166721574D02*
X231598449Y-167215418D01*
X225912251Y-171154396D02*
G75*
G02*
X226516581Y-170662882I547921J-56407D01*
G01*
X227119436Y-166728754D02*
G75*
G02*
X225208843Y-167924595I-1553216J357375D01*
G01*
%TO.C,S5*%
X167000000Y-154200000D02*
X167500000Y-153700000D01*
X167000000Y-157700000D02*
X167500000Y-158200000D01*
X167500000Y-153700000D02*
X169800000Y-153700000D01*
X167500000Y-158200000D02*
X170500000Y-158200000D01*
X170500000Y-158200000D02*
X171000000Y-157700000D01*
X171000000Y-156780000D02*
X171000000Y-157700000D01*
X171500000Y-151500000D02*
X176000000Y-151500000D01*
X171500000Y-152200000D02*
X171500000Y-151500000D01*
X176000000Y-151500000D02*
X176000000Y-152000000D01*
X176000000Y-155600000D02*
X176000000Y-156200000D01*
X176000000Y-156200000D02*
X171520000Y-156200000D01*
X171000000Y-156780000D02*
G75*
G02*
X171520000Y-156200000I549999J30001D01*
G01*
X171500000Y-152220000D02*
G75*
G02*
X169800000Y-153700000I-1589999J109999D01*
G01*
%TO.C,S14*%
X205000000Y-123200000D02*
X205500000Y-122700000D01*
X205000000Y-126700000D02*
X205500000Y-127200000D01*
X205500000Y-122700000D02*
X207800000Y-122700000D01*
X205500000Y-127200000D02*
X208500000Y-127200000D01*
X208500000Y-127200000D02*
X209000000Y-126700000D01*
X209000000Y-125780000D02*
X209000000Y-126700000D01*
X209500000Y-120500000D02*
X214000000Y-120500000D01*
X209500000Y-121200000D02*
X209500000Y-120500000D01*
X214000000Y-120500000D02*
X214000000Y-121000000D01*
X214000000Y-124600000D02*
X214000000Y-125200000D01*
X214000000Y-125200000D02*
X209520000Y-125200000D01*
X209000000Y-125780000D02*
G75*
G02*
X209520000Y-125200000I549999J30001D01*
G01*
X209500000Y-121220000D02*
G75*
G02*
X207800000Y-122700000I-1589999J109999D01*
G01*
%TO.C,S23*%
X243000000Y-113200000D02*
X243500000Y-112700000D01*
X243000000Y-116700000D02*
X243500000Y-117200000D01*
X243500000Y-112700000D02*
X245800000Y-112700000D01*
X243500000Y-117200000D02*
X246500000Y-117200000D01*
X246500000Y-117200000D02*
X247000000Y-116700000D01*
X247000000Y-115780000D02*
X247000000Y-116700000D01*
X247500000Y-110500000D02*
X252000000Y-110500000D01*
X247500000Y-111200000D02*
X247500000Y-110500000D01*
X252000000Y-110500000D02*
X252000000Y-111000000D01*
X252000000Y-114600000D02*
X252000000Y-115200000D01*
X252000000Y-115200000D02*
X247520000Y-115200000D01*
X247000000Y-115780000D02*
G75*
G02*
X247520000Y-115200000I549999J30001D01*
G01*
X247500000Y-111220000D02*
G75*
G02*
X245800000Y-112700000I-1589999J109999D01*
G01*
%TO.C,S20*%
X224000000Y-89200000D02*
X224500000Y-88700000D01*
X224000000Y-92700000D02*
X224500000Y-93200000D01*
X224500000Y-88700000D02*
X226800000Y-88700000D01*
X224500000Y-93200000D02*
X227500000Y-93200000D01*
X227500000Y-93200000D02*
X228000000Y-92700000D01*
X228000000Y-91780000D02*
X228000000Y-92700000D01*
X228500000Y-86500000D02*
X233000000Y-86500000D01*
X228500000Y-87200000D02*
X228500000Y-86500000D01*
X233000000Y-86500000D02*
X233000000Y-87000000D01*
X233000000Y-90600000D02*
X233000000Y-91200000D01*
X233000000Y-91200000D02*
X228520000Y-91200000D01*
X228000000Y-91780000D02*
G75*
G02*
X228520000Y-91200000I549999J30001D01*
G01*
X228500000Y-87220000D02*
G75*
G02*
X226800000Y-88700000I-1589999J109999D01*
G01*
%TO.C,S16*%
X205000000Y-85200000D02*
X205500000Y-84700000D01*
X205000000Y-88700000D02*
X205500000Y-89200000D01*
X205500000Y-84700000D02*
X207800000Y-84700000D01*
X205500000Y-89200000D02*
X208500000Y-89200000D01*
X208500000Y-89200000D02*
X209000000Y-88700000D01*
X209000000Y-87780000D02*
X209000000Y-88700000D01*
X209500000Y-82500000D02*
X214000000Y-82500000D01*
X209500000Y-83200000D02*
X209500000Y-82500000D01*
X214000000Y-82500000D02*
X214000000Y-83000000D01*
X214000000Y-86600000D02*
X214000000Y-87200000D01*
X214000000Y-87200000D02*
X209520000Y-87200000D01*
X209000000Y-87780000D02*
G75*
G02*
X209520000Y-87200000I549999J30001D01*
G01*
X209500000Y-83220000D02*
G75*
G02*
X207800000Y-84700000I-1589999J109999D01*
G01*
%TO.C,S1*%
X148000000Y-154200000D02*
X148500000Y-153700000D01*
X148000000Y-157700000D02*
X148500000Y-158200000D01*
X148500000Y-153700000D02*
X150800000Y-153700000D01*
X148500000Y-158200000D02*
X151500000Y-158200000D01*
X151500000Y-158200000D02*
X152000000Y-157700000D01*
X152000000Y-156780000D02*
X152000000Y-157700000D01*
X152500000Y-151500000D02*
X157000000Y-151500000D01*
X152500000Y-152200000D02*
X152500000Y-151500000D01*
X157000000Y-151500000D02*
X157000000Y-152000000D01*
X157000000Y-155600000D02*
X157000000Y-156200000D01*
X157000000Y-156200000D02*
X152520000Y-156200000D01*
X152000000Y-156780000D02*
G75*
G02*
X152520000Y-156200000I549999J30001D01*
G01*
X152500000Y-152220000D02*
G75*
G02*
X150800000Y-153700000I-1589999J109999D01*
G01*
%TO.C,S15*%
X205000000Y-104200000D02*
X205500000Y-103700000D01*
X205000000Y-107700000D02*
X205500000Y-108200000D01*
X205500000Y-103700000D02*
X207800000Y-103700000D01*
X205500000Y-108200000D02*
X208500000Y-108200000D01*
X208500000Y-108200000D02*
X209000000Y-107700000D01*
X209000000Y-106780000D02*
X209000000Y-107700000D01*
X209500000Y-101500000D02*
X214000000Y-101500000D01*
X209500000Y-102200000D02*
X209500000Y-101500000D01*
X214000000Y-101500000D02*
X214000000Y-102000000D01*
X214000000Y-105600000D02*
X214000000Y-106200000D01*
X214000000Y-106200000D02*
X209520000Y-106200000D01*
X209000000Y-106780000D02*
G75*
G02*
X209520000Y-106200000I549999J30001D01*
G01*
X209500000Y-102220000D02*
G75*
G02*
X207800000Y-103700000I-1589999J109999D01*
G01*
%TO.C,S2*%
X148000000Y-135200000D02*
X148500000Y-134700000D01*
X148000000Y-138700000D02*
X148500000Y-139200000D01*
X148500000Y-134700000D02*
X150800000Y-134700000D01*
X148500000Y-139200000D02*
X151500000Y-139200000D01*
X151500000Y-139200000D02*
X152000000Y-138700000D01*
X152000000Y-137780000D02*
X152000000Y-138700000D01*
X152500000Y-132500000D02*
X157000000Y-132500000D01*
X152500000Y-133200000D02*
X152500000Y-132500000D01*
X157000000Y-132500000D02*
X157000000Y-133000000D01*
X157000000Y-136600000D02*
X157000000Y-137200000D01*
X157000000Y-137200000D02*
X152520000Y-137200000D01*
X152000000Y-137780000D02*
G75*
G02*
X152520000Y-137200000I549999J30001D01*
G01*
X152500000Y-133220000D02*
G75*
G02*
X150800000Y-134700000I-1589999J109999D01*
G01*
%TO.C,S18*%
X224000000Y-127200000D02*
X224500000Y-126700000D01*
X224000000Y-130700000D02*
X224500000Y-131200000D01*
X224500000Y-126700000D02*
X226800000Y-126700000D01*
X224500000Y-131200000D02*
X227500000Y-131200000D01*
X227500000Y-131200000D02*
X228000000Y-130700000D01*
X228000000Y-129780000D02*
X228000000Y-130700000D01*
X228500000Y-124500000D02*
X233000000Y-124500000D01*
X228500000Y-125200000D02*
X228500000Y-124500000D01*
X233000000Y-124500000D02*
X233000000Y-125000000D01*
X233000000Y-128600000D02*
X233000000Y-129200000D01*
X233000000Y-129200000D02*
X228520000Y-129200000D01*
X228000000Y-129780000D02*
G75*
G02*
X228520000Y-129200000I549999J30001D01*
G01*
X228500000Y-125220000D02*
G75*
G02*
X226800000Y-126700000I-1589999J109999D01*
G01*
%TO.C,S17*%
X224000000Y-146200000D02*
X224500000Y-145700000D01*
X224000000Y-149700000D02*
X224500000Y-150200000D01*
X224500000Y-145700000D02*
X226800000Y-145700000D01*
X224500000Y-150200000D02*
X227500000Y-150200000D01*
X227500000Y-150200000D02*
X228000000Y-149700000D01*
X228000000Y-148780000D02*
X228000000Y-149700000D01*
X228500000Y-143500000D02*
X233000000Y-143500000D01*
X228500000Y-144200000D02*
X228500000Y-143500000D01*
X233000000Y-143500000D02*
X233000000Y-144000000D01*
X233000000Y-147600000D02*
X233000000Y-148200000D01*
X233000000Y-148200000D02*
X228520000Y-148200000D01*
X228000000Y-148780000D02*
G75*
G02*
X228520000Y-148200000I549999J30001D01*
G01*
X228500000Y-144220000D02*
G75*
G02*
X226800000Y-145700000I-1589999J109999D01*
G01*
%TO.C,S11*%
X186000000Y-108200000D02*
X186500000Y-107700000D01*
X186000000Y-111700000D02*
X186500000Y-112200000D01*
X186500000Y-107700000D02*
X188800000Y-107700000D01*
X186500000Y-112200000D02*
X189500000Y-112200000D01*
X189500000Y-112200000D02*
X190000000Y-111700000D01*
X190000000Y-110780000D02*
X190000000Y-111700000D01*
X190500000Y-105500000D02*
X195000000Y-105500000D01*
X190500000Y-106200000D02*
X190500000Y-105500000D01*
X195000000Y-105500000D02*
X195000000Y-106000000D01*
X195000000Y-109600000D02*
X195000000Y-110200000D01*
X195000000Y-110200000D02*
X190520000Y-110200000D01*
X190000000Y-110780000D02*
G75*
G02*
X190520000Y-110200000I549999J30001D01*
G01*
X190500000Y-106220000D02*
G75*
G02*
X188800000Y-107700000I-1589999J109999D01*
G01*
%TO.C,S21*%
X243000000Y-151200000D02*
X243500000Y-150700000D01*
X243000000Y-154700000D02*
X243500000Y-155200000D01*
X243500000Y-150700000D02*
X245800000Y-150700000D01*
X243500000Y-155200000D02*
X246500000Y-155200000D01*
X246500000Y-155200000D02*
X247000000Y-154700000D01*
X247000000Y-153780000D02*
X247000000Y-154700000D01*
X247500000Y-148500000D02*
X252000000Y-148500000D01*
X247500000Y-149200000D02*
X247500000Y-148500000D01*
X252000000Y-148500000D02*
X252000000Y-149000000D01*
X252000000Y-152600000D02*
X252000000Y-153200000D01*
X252000000Y-153200000D02*
X247520000Y-153200000D01*
X247000000Y-153780000D02*
G75*
G02*
X247520000Y-153200000I549999J30001D01*
G01*
X247500000Y-149220000D02*
G75*
G02*
X245800000Y-150700000I-1589999J109999D01*
G01*
%TO.C,S12*%
X186000000Y-89200000D02*
X186500000Y-88700000D01*
X186000000Y-92700000D02*
X186500000Y-93200000D01*
X186500000Y-88700000D02*
X188800000Y-88700000D01*
X186500000Y-93200000D02*
X189500000Y-93200000D01*
X189500000Y-93200000D02*
X190000000Y-92700000D01*
X190000000Y-91780000D02*
X190000000Y-92700000D01*
X190500000Y-86500000D02*
X195000000Y-86500000D01*
X190500000Y-87200000D02*
X190500000Y-86500000D01*
X195000000Y-86500000D02*
X195000000Y-87000000D01*
X195000000Y-90600000D02*
X195000000Y-91200000D01*
X195000000Y-91200000D02*
X190520000Y-91200000D01*
X190000000Y-91780000D02*
G75*
G02*
X190520000Y-91200000I549999J30001D01*
G01*
X190500000Y-87220000D02*
G75*
G02*
X188800000Y-88700000I-1589999J109999D01*
G01*
%TO.C,S9*%
X186000000Y-146200000D02*
X186500000Y-145700000D01*
X186000000Y-149700000D02*
X186500000Y-150200000D01*
X186500000Y-145700000D02*
X188800000Y-145700000D01*
X186500000Y-150200000D02*
X189500000Y-150200000D01*
X189500000Y-150200000D02*
X190000000Y-149700000D01*
X190000000Y-148780000D02*
X190000000Y-149700000D01*
X190500000Y-143500000D02*
X195000000Y-143500000D01*
X190500000Y-144200000D02*
X190500000Y-143500000D01*
X195000000Y-143500000D02*
X195000000Y-144000000D01*
X195000000Y-147600000D02*
X195000000Y-148200000D01*
X195000000Y-148200000D02*
X190520000Y-148200000D01*
X190000000Y-148780000D02*
G75*
G02*
X190520000Y-148200000I549999J30001D01*
G01*
X190500000Y-144220000D02*
G75*
G02*
X188800000Y-145700000I-1589999J109999D01*
G01*
%TO.C,S3*%
X148000000Y-116200000D02*
X148500000Y-115700000D01*
X148000000Y-119700000D02*
X148500000Y-120200000D01*
X148500000Y-115700000D02*
X150800000Y-115700000D01*
X148500000Y-120200000D02*
X151500000Y-120200000D01*
X151500000Y-120200000D02*
X152000000Y-119700000D01*
X152000000Y-118780000D02*
X152000000Y-119700000D01*
X152500000Y-113500000D02*
X157000000Y-113500000D01*
X152500000Y-114200000D02*
X152500000Y-113500000D01*
X157000000Y-113500000D02*
X157000000Y-114000000D01*
X157000000Y-117600000D02*
X157000000Y-118200000D01*
X157000000Y-118200000D02*
X152520000Y-118200000D01*
X152000000Y-118780000D02*
G75*
G02*
X152520000Y-118200000I549999J30001D01*
G01*
X152500000Y-114220000D02*
G75*
G02*
X150800000Y-115700000I-1589999J109999D01*
G01*
%TO.C,S13*%
X205000000Y-142200000D02*
X205500000Y-141700000D01*
X205000000Y-145700000D02*
X205500000Y-146200000D01*
X205500000Y-141700000D02*
X207800000Y-141700000D01*
X205500000Y-146200000D02*
X208500000Y-146200000D01*
X208500000Y-146200000D02*
X209000000Y-145700000D01*
X209000000Y-144780000D02*
X209000000Y-145700000D01*
X209500000Y-139500000D02*
X214000000Y-139500000D01*
X209500000Y-140200000D02*
X209500000Y-139500000D01*
X214000000Y-139500000D02*
X214000000Y-140000000D01*
X214000000Y-143600000D02*
X214000000Y-144200000D01*
X214000000Y-144200000D02*
X209520000Y-144200000D01*
X209000000Y-144780000D02*
G75*
G02*
X209520000Y-144200000I549999J30001D01*
G01*
X209500000Y-140220000D02*
G75*
G02*
X207800000Y-141700000I-1589999J109999D01*
G01*
%TO.C,S22*%
X243000000Y-132200000D02*
X243500000Y-131700000D01*
X243000000Y-135700000D02*
X243500000Y-136200000D01*
X243500000Y-131700000D02*
X245800000Y-131700000D01*
X243500000Y-136200000D02*
X246500000Y-136200000D01*
X246500000Y-136200000D02*
X247000000Y-135700000D01*
X247000000Y-134780000D02*
X247000000Y-135700000D01*
X247500000Y-129500000D02*
X252000000Y-129500000D01*
X247500000Y-130200000D02*
X247500000Y-129500000D01*
X252000000Y-129500000D02*
X252000000Y-130000000D01*
X252000000Y-133600000D02*
X252000000Y-134200000D01*
X252000000Y-134200000D02*
X247520000Y-134200000D01*
X247000000Y-134780000D02*
G75*
G02*
X247520000Y-134200000I549999J30001D01*
G01*
X247500000Y-130220000D02*
G75*
G02*
X245800000Y-131700000I-1589999J109999D01*
G01*
%TO.C,S27*%
X259148985Y-184410491D02*
X259198311Y-185115875D01*
X259198311Y-185115875D02*
X261462439Y-187084052D01*
X261445192Y-181769007D02*
X262150576Y-181719682D01*
X261462439Y-187084052D02*
X262167824Y-187034727D01*
X262150576Y-181719682D02*
X263886408Y-183228618D01*
X262771398Y-186340394D02*
X262167824Y-187034727D01*
X266153503Y-183211854D02*
X266612744Y-182683557D01*
X266612744Y-182683557D02*
X270008938Y-185635823D01*
X266925460Y-189182958D02*
X263544361Y-186243813D01*
X267319095Y-188730132D02*
X266925460Y-189182958D01*
X270008938Y-185635823D02*
X269680908Y-186013177D01*
X262771398Y-186340394D02*
G75*
G02*
X263544361Y-186243813I434772J-338190D01*
G01*
X266140382Y-183226948D02*
G75*
G02*
X263886408Y-183228618I-1127822J1126153D01*
G01*
%TO.C,S26*%
X241462042Y-175792404D02*
X241804854Y-176410854D01*
X241804854Y-176410854D02*
X244688639Y-177237766D01*
X242426773Y-172427988D02*
X243045222Y-172085176D01*
X243045222Y-172085176D02*
X245256124Y-172719142D01*
X244688639Y-177237766D02*
X245307089Y-176894954D01*
X245560675Y-176010593D02*
X245307089Y-176894954D01*
X247303725Y-171745833D02*
X247496671Y-171072950D01*
X247496671Y-171072950D02*
X251822349Y-172313318D01*
X250526853Y-176831248D02*
X246220401Y-175596393D01*
X250692236Y-176254491D02*
X250526853Y-176831248D01*
X251822349Y-172313318D02*
X251684530Y-172793949D01*
X245560675Y-176010593D02*
G75*
G02*
X246220401Y-175596393I536962J-122761D01*
G01*
X247298212Y-171765058D02*
G75*
G02*
X245256124Y-172719141I-1498085J544001D01*
G01*
%TO.C,S10*%
X186000000Y-127200000D02*
X186500000Y-126700000D01*
X186000000Y-130700000D02*
X186500000Y-131200000D01*
X186500000Y-126700000D02*
X188800000Y-126700000D01*
X186500000Y-131200000D02*
X189500000Y-131200000D01*
X189500000Y-131200000D02*
X190000000Y-130700000D01*
X190000000Y-129780000D02*
X190000000Y-130700000D01*
X190500000Y-124500000D02*
X195000000Y-124500000D01*
X190500000Y-125200000D02*
X190500000Y-124500000D01*
X195000000Y-124500000D02*
X195000000Y-125000000D01*
X195000000Y-128600000D02*
X195000000Y-129200000D01*
X195000000Y-129200000D02*
X190520000Y-129200000D01*
X190000000Y-129780000D02*
G75*
G02*
X190520000Y-129200000I549999J30001D01*
G01*
X190500000Y-125220000D02*
G75*
G02*
X188800000Y-126700000I-1589999J109999D01*
G01*
%TD*%
M02*
