%TF.GenerationSoftware,KiCad,Pcbnew,9.0.6*%
%TF.CreationDate,2026-01-10T00:21:16+01:00*%
%TF.ProjectId,shoedler54,73686f65-646c-4657-9235-342e6b696361,v1.0.0*%
%TF.SameCoordinates,Original*%
%TF.FileFunction,Paste,Bot*%
%TF.FilePolarity,Positive*%
%FSLAX46Y46*%
G04 Gerber Fmt 4.6, Leading zero omitted, Abs format (unit mm)*
G04 Created by KiCad (PCBNEW 9.0.6) date 2026-01-10 00:21:16*
%MOMM*%
%LPD*%
G01*
G04 APERTURE LIST*
G04 Aperture macros list*
%AMRotRect*
0 Rectangle, with rotation*
0 The origin of the aperture is its center*
0 $1 length*
0 $2 width*
0 $3 Rotation angle, in degrees counterclockwise*
0 Add horizontal line*
21,1,$1,$2,0,0,$3*%
%AMOutline5P*
0 Free polygon, 5 corners , with rotation*
0 The origin of the aperture is its center*
0 number of corners: always 5*
0 $1 to $10 corner X, Y*
0 $11 Rotation angle, in degrees counterclockwise*
0 create outline with 5 corners*
4,1,5,$1,$2,$3,$4,$5,$6,$7,$8,$9,$10,$1,$2,$11*%
%AMOutline6P*
0 Free polygon, 6 corners , with rotation*
0 The origin of the aperture is its center*
0 number of corners: always 6*
0 $1 to $12 corner X, Y*
0 $13 Rotation angle, in degrees counterclockwise*
0 create outline with 6 corners*
4,1,6,$1,$2,$3,$4,$5,$6,$7,$8,$9,$10,$11,$12,$1,$2,$13*%
%AMOutline7P*
0 Free polygon, 7 corners , with rotation*
0 The origin of the aperture is its center*
0 number of corners: always 7*
0 $1 to $14 corner X, Y*
0 $15 Rotation angle, in degrees counterclockwise*
0 create outline with 7 corners*
4,1,7,$1,$2,$3,$4,$5,$6,$7,$8,$9,$10,$11,$12,$13,$14,$1,$2,$15*%
%AMOutline8P*
0 Free polygon, 8 corners , with rotation*
0 The origin of the aperture is its center*
0 number of corners: always 8*
0 $1 to $16 corner X, Y*
0 $17 Rotation angle, in degrees counterclockwise*
0 create outline with 8 corners*
4,1,8,$1,$2,$3,$4,$5,$6,$7,$8,$9,$10,$11,$12,$13,$14,$15,$16,$1,$2,$17*%
%AMFreePoly0*
4,1,6,0.250000,0.000000,-0.250000,-0.625000,-0.500000,-0.625000,-0.500000,0.625000,-0.250000,0.625000,0.250000,0.000000,0.250000,0.000000,$1*%
%AMFreePoly1*
4,1,6,0.500000,-0.625000,-0.650000,-0.625000,-0.150000,0.000000,-0.650000,0.625000,0.500000,0.625000,0.500000,-0.625000,0.500000,-0.625000,$1*%
%AMFreePoly2*
4,1,6,0.600000,-1.000000,0.000000,-0.400000,-0.600000,-1.000000,-0.600000,0.250000,0.600000,0.250000,0.600000,-1.000000,0.600000,-1.000000,$1*%
%AMFreePoly3*
4,1,6,0.600000,-0.200000,0.600000,-0.400000,-0.600000,-0.400000,-0.600000,-0.200000,0.000000,0.400000,0.600000,-0.200000,0.600000,-0.200000,$1*%
G04 Aperture macros list end*
%ADD10RotRect,0.900000X1.200000X164.000000*%
%ADD11R,0.900000X1.200000*%
%ADD12RotRect,0.900000X1.200000X139.000000*%
%ADD13R,1.000000X0.800000*%
%ADD14R,0.700000X1.500000*%
%ADD15FreePoly0,180.000000*%
%ADD16FreePoly0,0.000000*%
%ADD17FreePoly1,0.000000*%
%ADD18FreePoly1,180.000000*%
%ADD19FreePoly2,270.000000*%
%ADD20FreePoly3,270.000000*%
%ADD21R,1.550000X1.000000*%
%ADD22RotRect,0.900000X1.200000X171.000000*%
%ADD23Outline5P,-1.300000X1.300000X1.300000X1.300000X1.300000X-1.300000X-0.117000X-1.300000X-1.300000X-0.117000X180.000000*%
%ADD24R,2.600000X2.600000*%
%ADD25Outline5P,-1.300000X1.300000X1.300000X1.300000X1.300000X-1.300000X-0.117000X-1.300000X-1.300000X-0.117000X171.000000*%
%ADD26RotRect,2.600000X2.600000X171.000000*%
%ADD27Outline5P,-1.300000X1.300000X1.300000X1.300000X1.300000X-1.300000X-0.117000X-1.300000X-1.300000X-0.117000X139.000000*%
%ADD28RotRect,2.600000X2.600000X139.000000*%
%ADD29Outline5P,-1.300000X1.300000X1.300000X1.300000X1.300000X-1.300000X-0.117000X-1.300000X-1.300000X-0.117000X164.000000*%
%ADD30RotRect,2.600000X2.600000X164.000000*%
G04 APERTURE END LIST*
D10*
%TO.C,D26*%
X252572247Y-170967899D03*
X249400083Y-170058295D03*
%TD*%
D11*
%TO.C,D21*%
X252350000Y-147000000D03*
X249050000Y-147000000D03*
%TD*%
%TO.C,D7*%
X176350000Y-112000000D03*
X173050000Y-112000000D03*
%TD*%
D12*
%TO.C,D27*%
X271257175Y-184733378D03*
X268766633Y-182568384D03*
%TD*%
D11*
%TO.C,D19*%
X233350000Y-104000000D03*
X230050000Y-104000000D03*
%TD*%
%TO.C,D1*%
X157350000Y-150000000D03*
X154050000Y-150000000D03*
%TD*%
%TO.C,D8*%
X176350000Y-93000000D03*
X173050000Y-93000000D03*
%TD*%
%TO.C,D23*%
X252350000Y-109000000D03*
X249050000Y-109000000D03*
%TD*%
D13*
%TO.C,PWR1*%
X246450000Y-83585000D03*
X253750000Y-83585000D03*
X246450000Y-81375000D03*
X253750000Y-81375000D03*
D14*
X247850000Y-84235000D03*
X250850000Y-84235000D03*
X252350000Y-84235000D03*
%TD*%
D11*
%TO.C,D15*%
X214350000Y-100000000D03*
X211050000Y-100000000D03*
%TD*%
%TO.C,D5*%
X176350000Y-150000000D03*
X173050000Y-150000000D03*
%TD*%
%TO.C,D11*%
X195350000Y-104000000D03*
X192050000Y-104000000D03*
%TD*%
D15*
%TO.C,MCU1*%
X270600000Y-84300000D03*
X270600000Y-86840000D03*
X270600000Y-89380000D03*
X270600000Y-91920000D03*
D16*
X259600000Y-91920000D03*
X259600000Y-89380000D03*
X259600000Y-86840000D03*
X259600000Y-84300000D03*
D17*
X260325000Y-84300000D03*
X260325000Y-86840000D03*
X260325000Y-89380000D03*
X260325000Y-91920000D03*
D18*
X269875000Y-91920000D03*
X269875000Y-89380000D03*
X269875000Y-86840000D03*
X269875000Y-84300000D03*
%TD*%
D11*
%TO.C,D16*%
X214350000Y-81000000D03*
X211050000Y-81000000D03*
%TD*%
%TO.C,D12*%
X195350000Y-85000000D03*
X192050000Y-85000000D03*
%TD*%
%TO.C,D22*%
X252350000Y-128000000D03*
X249050000Y-128000000D03*
%TD*%
%TO.C,D17*%
X233350000Y-142000000D03*
X230050000Y-142000000D03*
%TD*%
%TO.C,D9*%
X195350000Y-142000000D03*
X192050000Y-142000000D03*
%TD*%
D19*
%TO.C,JST1*%
X260876000Y-116500000D03*
X260876000Y-118500000D03*
D20*
X259860000Y-118500000D03*
X259860000Y-116500000D03*
%TD*%
D11*
%TO.C,D14*%
X214350000Y-119000000D03*
X211050000Y-119000000D03*
%TD*%
%TO.C,D24*%
X252350000Y-90000000D03*
X249050000Y-90000000D03*
%TD*%
%TO.C,D6*%
X176350000Y-131000000D03*
X173050000Y-131000000D03*
%TD*%
%TO.C,D20*%
X233350000Y-85000000D03*
X230050000Y-85000000D03*
%TD*%
D21*
%TO.C,RST1*%
X237475000Y-82150000D03*
X237475000Y-83850000D03*
X242725000Y-82150000D03*
X242725000Y-83850000D03*
%TD*%
D11*
%TO.C,D4*%
X157350000Y-93000000D03*
X154050000Y-93000000D03*
%TD*%
D22*
%TO.C,D25*%
X232257010Y-165294794D03*
X228997638Y-164778560D03*
%TD*%
D11*
%TO.C,D2*%
X157350000Y-131000000D03*
X154050000Y-131000000D03*
%TD*%
%TO.C,D3*%
X157350000Y-112000000D03*
X154050000Y-112000000D03*
%TD*%
%TO.C,D10*%
X195350000Y-123000000D03*
X192050000Y-123000000D03*
%TD*%
%TO.C,D13*%
X214350000Y-138000000D03*
X211050000Y-138000000D03*
%TD*%
%TO.C,D18*%
X233350000Y-123000000D03*
X230050000Y-123000000D03*
%TD*%
D23*
%TO.C,S19*%
X229275000Y-109950000D03*
D24*
X217725000Y-107750000D03*
%TD*%
D23*
%TO.C,S6*%
X172275000Y-136950000D03*
D24*
X160725000Y-134750000D03*
%TD*%
D23*
%TO.C,S24*%
X248275000Y-95950000D03*
D24*
X236725000Y-93750000D03*
%TD*%
D23*
%TO.C,S8*%
X172275000Y-98950000D03*
D24*
X160725000Y-96750000D03*
%TD*%
D23*
%TO.C,S7*%
X172275000Y-117950000D03*
D24*
X160725000Y-115750000D03*
%TD*%
D23*
%TO.C,S4*%
X153275000Y-98950000D03*
D24*
X141725000Y-96750000D03*
%TD*%
D25*
%TO.C,S25*%
X227301394Y-170534068D03*
D26*
X216237750Y-166554336D03*
%TD*%
D23*
%TO.C,S5*%
X172275000Y-155950000D03*
D24*
X160725000Y-153750000D03*
%TD*%
D23*
%TO.C,S14*%
X210275000Y-124950000D03*
D24*
X198725000Y-122750000D03*
%TD*%
D23*
%TO.C,S23*%
X248275000Y-114950000D03*
D24*
X236725000Y-112750000D03*
%TD*%
D23*
%TO.C,S20*%
X229275000Y-90950000D03*
D24*
X217725000Y-88750000D03*
%TD*%
D23*
%TO.C,S16*%
X210275000Y-86950000D03*
D24*
X198725000Y-84750000D03*
%TD*%
D23*
%TO.C,S1*%
X153275000Y-155950000D03*
D24*
X141725000Y-153750000D03*
%TD*%
D23*
%TO.C,S15*%
X210275000Y-105950000D03*
D24*
X198725000Y-103750000D03*
%TD*%
D23*
%TO.C,S2*%
X153275000Y-136950000D03*
D24*
X141725000Y-134750000D03*
%TD*%
D23*
%TO.C,S18*%
X229275000Y-128950000D03*
D24*
X217725000Y-126750000D03*
%TD*%
D23*
%TO.C,S17*%
X229275000Y-147950000D03*
D24*
X217725000Y-145750000D03*
%TD*%
D23*
%TO.C,S11*%
X191275000Y-109950000D03*
D24*
X179725000Y-107750000D03*
%TD*%
D23*
%TO.C,S21*%
X248275000Y-152950000D03*
D24*
X236725000Y-150750000D03*
%TD*%
D23*
%TO.C,S12*%
X191275000Y-90950000D03*
D24*
X179725000Y-88750000D03*
%TD*%
D23*
%TO.C,S9*%
X191275000Y-147950000D03*
D24*
X179725000Y-145750000D03*
%TD*%
D23*
%TO.C,S3*%
X153275000Y-117950000D03*
D24*
X141725000Y-115750000D03*
%TD*%
D23*
%TO.C,S13*%
X210275000Y-143950000D03*
D24*
X198725000Y-141750000D03*
%TD*%
D23*
%TO.C,S22*%
X248275000Y-133950000D03*
D24*
X236725000Y-131750000D03*
%TD*%
D27*
%TO.C,S27*%
X264278182Y-186550460D03*
D28*
X257004616Y-177312617D03*
%TD*%
D29*
%TO.C,S26*%
X247015063Y-175564183D03*
D30*
X236518892Y-170265796D03*
%TD*%
D23*
%TO.C,S10*%
X191275000Y-128950000D03*
D24*
X179725000Y-126750000D03*
%TD*%
M02*
