M48
; DRILL file {KiCad 9.0.6} date 2026-01-10T00:21:13+0100
; FORMAT={-:-/ absolute / metric / decimal}
; #@! TF.CreationDate,2026-01-10T00:21:13+01:00
; #@! TF.GenerationSoftware,Kicad,Pcbnew,9.0.6
; #@! TF.FileFunction,Plated,1,2,PTH
FMAT,2
METRIC
; #@! TA.AperFunction,Plated,PTH,ViaDrill
T1C0.300
; #@! TA.AperFunction,Plated,PTH,ComponentDrill
T2C0.400
; #@! TA.AperFunction,Plated,PTH,ComponentDrill
T3C0.750
; #@! TA.AperFunction,Plated,PTH,ComponentDrill
T4C1.000
%
G90
G05
T1
X150.0Y-96.075
X150.0Y-96.875
X150.0Y-115.075
X150.0Y-115.875
X150.0Y-134.075
X150.0Y-134.875
X150.0Y-153.075
X150.0Y-153.875
X153.0Y-113.0
X153.0Y-132.0
X153.025Y-94.025
X153.025Y-151.025
X157.35Y-148.646
X157.5Y-110.5
X157.5Y-129.5
X158.425Y-91.925
X169.0Y-96.075
X169.0Y-96.875
X169.0Y-115.075
X169.0Y-115.875
X169.0Y-134.075
X169.0Y-134.875
X169.0Y-153.075
X169.0Y-153.875
X172.0Y-132.0
X172.025Y-94.025
X172.025Y-113.025
X172.025Y-151.025
X175.0Y-91.5
X175.175Y-110.825
X175.175Y-148.825
X176.5Y-129.5
X176.5Y-142.0
X178.0Y-141.5
X188.0Y-88.075
X188.0Y-88.875
X188.0Y-107.075
X188.0Y-107.875
X188.0Y-126.075
X188.0Y-126.875
X188.0Y-145.075
X188.0Y-145.875
X191.0Y-86.0
X191.0Y-105.0
X191.0Y-124.0
X191.0Y-143.0
X194.127Y-102.777
X194.175Y-83.825
X194.175Y-121.825
X194.211Y-140.854
X195.5Y-137.0
X195.5Y-138.0
X197.0Y-136.0
X197.0Y-137.0
X207.0Y-84.075
X207.0Y-84.875
X207.0Y-103.075
X207.0Y-103.875
X207.0Y-122.075
X207.0Y-122.875
X207.0Y-141.075
X207.0Y-141.875
X210.0Y-101.0
X210.0Y-120.0
X210.025Y-82.025
X210.025Y-139.025
X212.5Y-133.5
X212.5Y-134.5
X212.5Y-135.5
X213.175Y-98.825
X213.175Y-117.825
X213.217Y-79.867
X214.5Y-133.5
X214.5Y-134.5
X214.5Y-135.5
X214.5Y-136.5
X224.391Y-167.972
X224.516Y-167.182
X226.0Y-88.075
X226.0Y-88.875
X226.0Y-107.075
X226.0Y-107.875
X226.0Y-126.075
X226.0Y-126.875
X226.0Y-145.075
X226.0Y-145.875
X227.888Y-165.888
X229.0Y-143.0
X229.025Y-86.025
X229.025Y-105.025
X229.025Y-124.025
X232.0Y-121.5
X232.175Y-83.825
X232.425Y-141.075
X233.5Y-136.0
X233.5Y-137.0
X233.5Y-138.0
X233.5Y-139.0
X233.5Y-165.295
X234.5Y-104.0
X235.0Y-136.0
X235.0Y-137.0
X235.0Y-138.0
X235.0Y-139.0
X242.0Y-140.0
X244.045Y-83.438
X244.325Y-85.175
X244.439Y-172.667
X244.659Y-171.898
X245.0Y-93.075
X245.0Y-93.875
X245.0Y-112.075
X245.0Y-112.875
X245.0Y-131.075
X245.0Y-131.875
X245.0Y-150.075
X245.0Y-150.875
X248.0Y-148.0
X248.025Y-91.025
X248.025Y-110.025
X248.112Y-128.945
X248.479Y-170.979
X250.0Y-82.5
X251.0Y-147.0
X251.175Y-107.825
X251.175Y-126.825
X252.35Y-91.5
X252.5Y-142.0
X252.5Y-143.0
X252.5Y-144.0
X252.5Y-145.0
X253.5Y-84.5
X253.968Y-170.968
X254.5Y-85.451
X255.5Y-84.5
X255.5Y-115.0
X259.0Y-117.5
X260.5Y-119.802
X262.509Y-116.991
X263.168Y-182.836
X263.693Y-182.232
X264.175Y-132.825
X266.5Y-143.0
X267.5Y-145.0
X267.5Y-182.836
X268.0Y-104.5
X268.0Y-108.5
X268.5Y-144.0
X269.5Y-100.5
X269.5Y-108.5
X270.5Y-142.0
X271.257Y-183.08
X271.5Y-141.0
T2
X261.7Y-84.3
X261.7Y-86.84
X261.7Y-89.38
X261.7Y-91.92
X268.5Y-84.3
X268.5Y-86.84
X268.5Y-89.38
X268.5Y-91.92
T3
X258.06Y-116.5
X258.06Y-118.5
T4
X257.48Y-84.3
X257.48Y-86.84
X257.48Y-89.38
X257.48Y-91.92
X257.48Y-94.46
X257.48Y-97.0
X257.48Y-99.54
X257.48Y-102.08
X257.48Y-104.62
X257.48Y-107.16
X257.48Y-109.7
X257.48Y-112.24
X272.72Y-84.3
X272.72Y-86.84
X272.72Y-89.38
X272.72Y-91.92
X272.72Y-94.46
X272.72Y-97.0
X272.72Y-99.54
X272.72Y-102.08
X272.72Y-104.62
X272.72Y-107.16
X272.72Y-109.7
X272.72Y-112.24
M30
