M48
; DRILL file {KiCad 9.0.6} date 2026-01-10T00:21:13+0100
; FORMAT={-:-/ absolute / metric / decimal}
; #@! TF.CreationDate,2026-01-10T00:21:13+01:00
; #@! TF.GenerationSoftware,Kicad,Pcbnew,9.0.6
; #@! TF.FileFunction,NonPlated,1,2,NPTH
FMAT,2
METRIC
; #@! TA.AperFunction,NonPlated,NPTH,ComponentDrill
T1C0.750
; #@! TA.AperFunction,NonPlated,NPTH,ComponentDrill
T2C0.900
; #@! TA.AperFunction,NonPlated,NPTH,ComponentDrill
T3C2.200
; #@! TA.AperFunction,NonPlated,NPTH,ComponentDrill
T4C3.000
; #@! TA.AperFunction,NonPlated,NPTH,ComponentDrill
T5C5.000
%
G90
G05
T1
X240.1Y-81.625
X240.1Y-84.375
T2
X248.6Y-82.475
X251.6Y-82.475
T3
X159.5Y-102.5
X159.5Y-140.5
X216.5Y-131.0
X235.5Y-99.5
X259.164Y-167.726
T4
X145.0Y-96.75
X145.0Y-115.75
X145.0Y-134.75
X145.0Y-153.75
X150.0Y-98.95
X150.0Y-117.95
X150.0Y-136.95
X150.0Y-155.95
X155.0Y-96.75
X155.0Y-115.75
X155.0Y-134.75
X155.0Y-153.75
X164.0Y-96.75
X164.0Y-115.75
X164.0Y-134.75
X164.0Y-153.75
X169.0Y-98.95
X169.0Y-117.95
X169.0Y-136.95
X169.0Y-155.95
X174.0Y-96.75
X174.0Y-115.75
X174.0Y-134.75
X174.0Y-153.75
X183.0Y-88.75
X183.0Y-107.75
X183.0Y-126.75
X183.0Y-145.75
X188.0Y-90.95
X188.0Y-109.95
X188.0Y-128.95
X188.0Y-147.95
X193.0Y-88.75
X193.0Y-107.75
X193.0Y-126.75
X193.0Y-145.75
X202.0Y-84.75
X202.0Y-103.75
X202.0Y-122.75
X202.0Y-141.75
X207.0Y-86.95
X207.0Y-105.95
X207.0Y-124.95
X207.0Y-143.95
X212.0Y-84.75
X212.0Y-103.75
X212.0Y-122.75
X212.0Y-141.75
X219.472Y-167.067
X221.0Y-88.75
X221.0Y-107.75
X221.0Y-126.75
X221.0Y-145.75
X224.067Y-170.022
X226.0Y-90.95
X226.0Y-109.95
X226.0Y-128.95
X226.0Y-147.95
X229.349Y-168.631
X231.0Y-88.75
X231.0Y-107.75
X231.0Y-126.75
X231.0Y-145.75
X239.667Y-171.169
X240.0Y-93.75
X240.0Y-112.75
X240.0Y-131.75
X240.0Y-150.75
X243.867Y-174.661
X245.0Y-95.95
X245.0Y-114.95
X245.0Y-133.95
X245.0Y-152.95
X249.28Y-173.925
X250.0Y-93.75
X250.0Y-112.75
X250.0Y-131.75
X250.0Y-150.75
X259.476Y-179.461
X261.807Y-184.402
X267.023Y-186.022
T5
X150.0Y-93.0
X150.0Y-112.0
X150.0Y-131.0
X150.0Y-150.0
X169.0Y-93.0
X169.0Y-112.0
X169.0Y-131.0
X169.0Y-150.0
X188.0Y-85.0
X188.0Y-104.0
X188.0Y-123.0
X188.0Y-142.0
X207.0Y-81.0
X207.0Y-100.0
X207.0Y-119.0
X207.0Y-138.0
X224.998Y-164.145
X226.0Y-85.0
X226.0Y-104.0
X226.0Y-123.0
X226.0Y-142.0
X245.0Y-90.0
X245.0Y-109.0
X245.0Y-128.0
X245.0Y-147.0
X245.507Y-168.942
X265.71Y-179.911
M30
