%TF.GenerationSoftware,KiCad,Pcbnew,9.0.6*%
%TF.CreationDate,2026-01-10T00:21:17+01:00*%
%TF.ProjectId,shoedler54,73686f65-646c-4657-9235-342e6b696361,v1.0.0*%
%TF.SameCoordinates,Original*%
%TF.FileFunction,Soldermask,Top*%
%TF.FilePolarity,Negative*%
%FSLAX46Y46*%
G04 Gerber Fmt 4.6, Leading zero omitted, Abs format (unit mm)*
G04 Created by KiCad (PCBNEW 9.0.6) date 2026-01-10 00:21:17*
%MOMM*%
%LPD*%
G01*
G04 APERTURE LIST*
G04 Aperture macros list*
%AMRoundRect*
0 Rectangle with rounded corners*
0 $1 Rounding radius*
0 $2 $3 $4 $5 $6 $7 $8 $9 X,Y pos of 4 corners*
0 Add a 4 corners polygon primitive as box body*
4,1,4,$2,$3,$4,$5,$6,$7,$8,$9,$2,$3,0*
0 Add four circle primitives for the rounded corners*
1,1,$1+$1,$2,$3*
1,1,$1+$1,$4,$5*
1,1,$1+$1,$6,$7*
1,1,$1+$1,$8,$9*
0 Add four rect primitives between the rounded corners*
20,1,$1+$1,$2,$3,$4,$5,0*
20,1,$1+$1,$4,$5,$6,$7,0*
20,1,$1+$1,$6,$7,$8,$9,0*
20,1,$1+$1,$8,$9,$2,$3,0*%
%AMFreePoly0*
4,1,16,-0.214645,0.660355,-0.210957,0.656235,0.289043,0.031235,0.299694,-0.005522,0.289043,-0.031235,-0.210957,-0.656235,-0.244478,-0.674694,-0.250000,-0.675000,-0.500000,-0.675000,-0.535355,-0.660355,-0.550000,-0.625000,-0.550000,0.625000,-0.535355,0.660355,-0.500000,0.675000,-0.250000,0.675000,-0.214645,0.660355,-0.214645,0.660355,$1*%
%AMFreePoly1*
4,1,16,0.535355,0.660355,0.550000,0.625000,0.550000,-0.625000,0.535355,-0.660355,0.500000,-0.675000,-0.650000,-0.675000,-0.685355,-0.660355,-0.700000,-0.625000,-0.689043,-0.593765,-0.214031,0.000000,-0.689043,0.593765,-0.699694,0.630522,-0.681235,0.664043,-0.650000,0.675000,0.500000,0.675000,0.535355,0.660355,0.535355,0.660355,$1*%
%AMFreePoly2*
4,1,16,0.635355,0.285355,0.650000,0.250000,0.650000,-1.000000,0.635355,-1.035355,0.600000,-1.050000,0.564645,-1.035355,0.000000,-0.470710,-0.564645,-1.035355,-0.600000,-1.050000,-0.635355,-1.035355,-0.650000,-1.000000,-0.650000,0.250000,-0.635355,0.285355,-0.600000,0.300000,0.600000,0.300000,0.635355,0.285355,0.635355,0.285355,$1*%
%AMFreePoly3*
4,1,14,0.035355,0.435355,0.635355,-0.164645,0.650000,-0.200000,0.650000,-0.400000,0.635355,-0.435355,0.600000,-0.450000,-0.600000,-0.450000,-0.635355,-0.435355,-0.650000,-0.400000,-0.650000,-0.200000,-0.635355,-0.164645,-0.035355,0.435355,0.000000,0.450000,0.035355,0.435355,0.035355,0.435355,$1*%
%AMFreePoly4*
4,1,14,1.335355,1.335355,1.350000,1.300000,1.350000,-0.117000,1.335355,-0.152355,0.152355,-1.335355,0.117000,-1.350000,-1.300000,-1.350000,-1.335355,-1.335355,-1.350000,-1.300000,-1.350000,1.300000,-1.335355,1.335355,-1.300000,1.350000,1.300000,1.350000,1.335355,1.335355,1.335355,1.335355,$1*%
G04 Aperture macros list end*
%ADD10RoundRect,0.050000X0.597950X0.452720X-0.267185X0.700794X-0.597950X-0.452720X0.267185X-0.700794X0*%
%ADD11RoundRect,0.050000X0.450000X0.600000X-0.450000X0.600000X-0.450000X-0.600000X0.450000X-0.600000X0*%
%ADD12RoundRect,0.050000X0.733255X0.157599X0.054016X0.748052X-0.733255X-0.157599X-0.054016X-0.748052X0*%
%ADD13RoundRect,0.050000X0.500000X0.400000X-0.500000X0.400000X-0.500000X-0.400000X0.500000X-0.400000X0*%
%ADD14C,1.000000*%
%ADD15RoundRect,0.050000X0.350000X0.750000X-0.350000X0.750000X-0.350000X-0.750000X0.350000X-0.750000X0*%
%ADD16FreePoly0,180.000000*%
%ADD17C,1.800000*%
%ADD18FreePoly0,0.000000*%
%ADD19C,0.900000*%
%ADD20FreePoly1,180.000000*%
%ADD21FreePoly1,0.000000*%
%ADD22C,4.700000*%
%ADD23FreePoly2,270.000000*%
%ADD24O,1.850000X1.300000*%
%ADD25FreePoly3,270.000000*%
%ADD26C,0.850000*%
%ADD27RoundRect,0.050000X0.775000X0.500000X-0.775000X0.500000X-0.775000X-0.500000X0.775000X-0.500000X0*%
%ADD28RoundRect,0.050000X0.538320X0.522217X-0.350599X0.663009X-0.538320X-0.522217X0.350599X-0.663009X0*%
%ADD29C,3.100000*%
%ADD30C,5.100000*%
%ADD31FreePoly4,180.000000*%
%ADD32RoundRect,0.050000X1.300000X1.300000X-1.300000X1.300000X-1.300000X-1.300000X1.300000X-1.300000X0*%
%ADD33FreePoly4,171.000000*%
%ADD34RoundRect,0.050000X1.487360X1.080630X-1.080630X1.487360X-1.487360X-1.080630X1.080630X-1.487360X0*%
%ADD35FreePoly4,139.000000*%
%ADD36RoundRect,0.050000X1.833999X0.128246X-0.128246X1.833999X-1.833999X-0.128246X0.128246X-1.833999X0*%
%ADD37FreePoly4,164.000000*%
%ADD38RoundRect,0.050000X1.607969X0.891312X-0.891312X1.607969X-1.607969X-0.891312X0.891312X-1.607969X0*%
G04 APERTURE END LIST*
D10*
%TO.C,D26*%
X252572247Y-170967899D03*
X249400083Y-170058295D03*
%TD*%
D11*
%TO.C,D21*%
X252350000Y-147000000D03*
X249050000Y-147000000D03*
%TD*%
%TO.C,D7*%
X176350000Y-112000000D03*
X173050000Y-112000000D03*
%TD*%
D12*
%TO.C,D27*%
X271257175Y-184733378D03*
X268766633Y-182568384D03*
%TD*%
D11*
%TO.C,D19*%
X233350000Y-104000000D03*
X230050000Y-104000000D03*
%TD*%
%TO.C,D1*%
X157350000Y-150000000D03*
X154050000Y-150000000D03*
%TD*%
%TO.C,D8*%
X176350000Y-93000000D03*
X173050000Y-93000000D03*
%TD*%
%TO.C,D23*%
X252350000Y-109000000D03*
X249050000Y-109000000D03*
%TD*%
D13*
%TO.C,PWR1*%
X246450000Y-83585000D03*
X253750000Y-83585000D03*
D14*
X248600000Y-82475000D03*
X251600000Y-82475000D03*
D13*
X246450000Y-81375000D03*
X253750000Y-81375000D03*
D15*
X252350000Y-84235000D03*
X249350000Y-84235000D03*
X247850000Y-84235000D03*
%TD*%
D11*
%TO.C,D15*%
X214350000Y-100000000D03*
X211050000Y-100000000D03*
%TD*%
%TO.C,D5*%
X176350000Y-150000000D03*
X173050000Y-150000000D03*
%TD*%
%TO.C,D11*%
X195350000Y-104000000D03*
X192050000Y-104000000D03*
%TD*%
D16*
%TO.C,MCU1*%
X270600000Y-84300000D03*
D17*
X272720000Y-84300000D03*
D16*
X270600000Y-86840000D03*
D17*
X272720000Y-86840000D03*
D16*
X270600000Y-89380000D03*
D17*
X272720000Y-89380000D03*
D16*
X270600000Y-91920000D03*
D17*
X272720000Y-91920000D03*
X272720000Y-94460000D03*
X272720000Y-97000000D03*
X272720000Y-99540000D03*
X272720000Y-102080000D03*
X272720000Y-104620000D03*
X272720000Y-107160000D03*
X272720000Y-109700000D03*
X272720000Y-112240000D03*
X257480000Y-112240000D03*
X257480000Y-109700000D03*
X257480000Y-107160000D03*
X257480000Y-104620000D03*
X257480000Y-102080000D03*
X257480000Y-99540000D03*
X257480000Y-97000000D03*
X257480000Y-94460000D03*
X257480000Y-91920000D03*
D18*
X259600000Y-91920000D03*
D17*
X257480000Y-89380000D03*
D18*
X259600000Y-89380000D03*
D17*
X257480000Y-86840000D03*
D18*
X259600000Y-86840000D03*
D17*
X257480000Y-84300000D03*
D18*
X259600000Y-84300000D03*
D19*
X268500000Y-84300000D03*
D20*
X269875000Y-84300000D03*
D19*
X268500000Y-86840000D03*
D20*
X269875000Y-86840000D03*
D19*
X268500000Y-89380000D03*
D20*
X269875000Y-89380000D03*
D19*
X268500000Y-91920000D03*
D20*
X269875000Y-91920000D03*
D21*
X260325000Y-91920000D03*
D19*
X261700000Y-91920000D03*
D21*
X260325000Y-89380000D03*
D19*
X261700000Y-89380000D03*
D21*
X260325000Y-86840000D03*
D19*
X261700000Y-86840000D03*
D21*
X260325000Y-84300000D03*
D19*
X261700000Y-84300000D03*
%TD*%
D11*
%TO.C,D16*%
X214350000Y-81000000D03*
X211050000Y-81000000D03*
%TD*%
%TO.C,D12*%
X195350000Y-85000000D03*
X192050000Y-85000000D03*
%TD*%
D22*
%TO.C,MH1*%
X159500000Y-102500000D03*
%TD*%
%TO.C,MH5*%
X216500000Y-131000000D03*
%TD*%
D11*
%TO.C,D22*%
X252350000Y-128000000D03*
X249050000Y-128000000D03*
%TD*%
D22*
%TO.C,MH4*%
X259163733Y-167726197D03*
%TD*%
%TO.C,MH3*%
X159500000Y-140500000D03*
%TD*%
D11*
%TO.C,D17*%
X233350000Y-142000000D03*
X230050000Y-142000000D03*
%TD*%
%TO.C,D9*%
X195350000Y-142000000D03*
X192050000Y-142000000D03*
%TD*%
D23*
%TO.C,JST1*%
X260876000Y-118500000D03*
X260876000Y-116500000D03*
D24*
X258060000Y-118500000D03*
X258060000Y-116500000D03*
D25*
X259860000Y-118500000D03*
X259860000Y-116500000D03*
%TD*%
D11*
%TO.C,D14*%
X214350000Y-119000000D03*
X211050000Y-119000000D03*
%TD*%
%TO.C,D24*%
X252350000Y-90000000D03*
X249050000Y-90000000D03*
%TD*%
%TO.C,D6*%
X176350000Y-131000000D03*
X173050000Y-131000000D03*
%TD*%
%TO.C,D20*%
X233350000Y-85000000D03*
X230050000Y-85000000D03*
%TD*%
D26*
%TO.C,RST1*%
X240100000Y-81625000D03*
X240100000Y-84375000D03*
D27*
X242725000Y-82150000D03*
X242725000Y-83850000D03*
X237475000Y-82150000D03*
X237475000Y-83850000D03*
%TD*%
D11*
%TO.C,D4*%
X157350000Y-93000000D03*
X154050000Y-93000000D03*
%TD*%
D22*
%TO.C,MH2*%
X235500000Y-99500000D03*
%TD*%
D28*
%TO.C,D25*%
X232257010Y-165294794D03*
X228997638Y-164778560D03*
%TD*%
D11*
%TO.C,D2*%
X157350000Y-131000000D03*
X154050000Y-131000000D03*
%TD*%
%TO.C,D3*%
X157350000Y-112000000D03*
X154050000Y-112000000D03*
%TD*%
%TO.C,D10*%
X195350000Y-123000000D03*
X192050000Y-123000000D03*
%TD*%
%TO.C,D13*%
X214350000Y-138000000D03*
X211050000Y-138000000D03*
%TD*%
%TO.C,D18*%
X233350000Y-123000000D03*
X230050000Y-123000000D03*
%TD*%
D29*
%TO.C,S19*%
X231000000Y-107750000D03*
X226000000Y-109950000D03*
D30*
X226000000Y-104000000D03*
D29*
X221000000Y-107750000D03*
D31*
X222725000Y-109950000D03*
D32*
X234275000Y-107750000D03*
%TD*%
D29*
%TO.C,S6*%
X174000000Y-134750000D03*
X169000000Y-136950000D03*
D30*
X169000000Y-131000000D03*
D29*
X164000000Y-134750000D03*
D31*
X165725000Y-136950000D03*
D32*
X177275000Y-134750000D03*
%TD*%
D29*
%TO.C,S24*%
X250000000Y-93750000D03*
X245000000Y-95950000D03*
D30*
X245000000Y-90000000D03*
D29*
X240000000Y-93750000D03*
D31*
X241725000Y-95950000D03*
D32*
X253275000Y-93750000D03*
%TD*%
D29*
%TO.C,S8*%
X174000000Y-96750000D03*
X169000000Y-98950000D03*
D30*
X169000000Y-93000000D03*
D29*
X164000000Y-96750000D03*
D31*
X165725000Y-98950000D03*
D32*
X177275000Y-96750000D03*
%TD*%
D29*
%TO.C,S7*%
X174000000Y-115750000D03*
X169000000Y-117950000D03*
D30*
X169000000Y-112000000D03*
D29*
X164000000Y-115750000D03*
D31*
X165725000Y-117950000D03*
D32*
X177275000Y-115750000D03*
%TD*%
D29*
%TO.C,S4*%
X155000000Y-96750000D03*
X150000000Y-98950000D03*
D30*
X150000000Y-93000000D03*
D29*
X145000000Y-96750000D03*
D31*
X146725000Y-98950000D03*
D32*
X158275000Y-96750000D03*
%TD*%
D29*
%TO.C,S25*%
X229349312Y-168631004D03*
X224066715Y-170021746D03*
D30*
X224997500Y-164145000D03*
D29*
X219472429Y-167066659D03*
D33*
X220832036Y-169509423D03*
D34*
X232583992Y-169143325D03*
%TD*%
D29*
%TO.C,S5*%
X174000000Y-153750000D03*
X169000000Y-155950000D03*
D30*
X169000000Y-150000000D03*
D29*
X164000000Y-153750000D03*
D31*
X165725000Y-155950000D03*
D32*
X177275000Y-153750000D03*
%TD*%
D29*
%TO.C,S14*%
X212000000Y-122750000D03*
X207000000Y-124950000D03*
D30*
X207000000Y-119000000D03*
D29*
X202000000Y-122750000D03*
D31*
X203725000Y-124950000D03*
D32*
X215275000Y-122750000D03*
%TD*%
D29*
%TO.C,S23*%
X250000000Y-112750000D03*
X245000000Y-114950000D03*
D30*
X245000000Y-109000000D03*
D29*
X240000000Y-112750000D03*
D31*
X241725000Y-114950000D03*
D32*
X253275000Y-112750000D03*
%TD*%
D29*
%TO.C,S20*%
X231000000Y-88750000D03*
X226000000Y-90950000D03*
D30*
X226000000Y-85000000D03*
D29*
X221000000Y-88750000D03*
D31*
X222725000Y-90950000D03*
D32*
X234275000Y-88750000D03*
%TD*%
D29*
%TO.C,S16*%
X212000000Y-84750000D03*
X207000000Y-86950000D03*
D30*
X207000000Y-81000000D03*
D29*
X202000000Y-84750000D03*
D31*
X203725000Y-86950000D03*
D32*
X215275000Y-84750000D03*
%TD*%
D29*
%TO.C,S1*%
X155000000Y-153750000D03*
X150000000Y-155950000D03*
D30*
X150000000Y-150000000D03*
D29*
X145000000Y-153750000D03*
D31*
X146725000Y-155950000D03*
D32*
X158275000Y-153750000D03*
%TD*%
D29*
%TO.C,S15*%
X212000000Y-103750000D03*
X207000000Y-105950000D03*
D30*
X207000000Y-100000000D03*
D29*
X202000000Y-103750000D03*
D31*
X203725000Y-105950000D03*
D32*
X215275000Y-103750000D03*
%TD*%
D29*
%TO.C,S2*%
X155000000Y-134750000D03*
X150000000Y-136950000D03*
D30*
X150000000Y-131000000D03*
D29*
X145000000Y-134750000D03*
D31*
X146725000Y-136950000D03*
D32*
X158275000Y-134750000D03*
%TD*%
D29*
%TO.C,S18*%
X231000000Y-126750000D03*
X226000000Y-128950000D03*
D30*
X226000000Y-123000000D03*
D29*
X221000000Y-126750000D03*
D31*
X222725000Y-128950000D03*
D32*
X234275000Y-126750000D03*
%TD*%
D29*
%TO.C,S17*%
X231000000Y-145750000D03*
X226000000Y-147950000D03*
D30*
X226000000Y-142000000D03*
D29*
X221000000Y-145750000D03*
D31*
X222725000Y-147950000D03*
D32*
X234275000Y-145750000D03*
%TD*%
D29*
%TO.C,S11*%
X193000000Y-107750000D03*
X188000000Y-109950000D03*
D30*
X188000000Y-104000000D03*
D29*
X183000000Y-107750000D03*
D31*
X184725000Y-109950000D03*
D32*
X196275000Y-107750000D03*
%TD*%
D29*
%TO.C,S21*%
X250000000Y-150750000D03*
X245000000Y-152950000D03*
D30*
X245000000Y-147000000D03*
D29*
X240000000Y-150750000D03*
D31*
X241725000Y-152950000D03*
D32*
X253275000Y-150750000D03*
%TD*%
D29*
%TO.C,S12*%
X193000000Y-88750000D03*
X188000000Y-90950000D03*
D30*
X188000000Y-85000000D03*
D29*
X183000000Y-88750000D03*
D31*
X184725000Y-90950000D03*
D32*
X196275000Y-88750000D03*
%TD*%
D29*
%TO.C,S9*%
X193000000Y-145750000D03*
X188000000Y-147950000D03*
D30*
X188000000Y-142000000D03*
D29*
X183000000Y-145750000D03*
D31*
X184725000Y-147950000D03*
D32*
X196275000Y-145750000D03*
%TD*%
D29*
%TO.C,S3*%
X155000000Y-115750000D03*
X150000000Y-117950000D03*
D30*
X150000000Y-112000000D03*
D29*
X145000000Y-115750000D03*
D31*
X146725000Y-117950000D03*
D32*
X158275000Y-115750000D03*
%TD*%
D29*
%TO.C,S13*%
X212000000Y-141750000D03*
X207000000Y-143950000D03*
D30*
X207000000Y-138000000D03*
D29*
X202000000Y-141750000D03*
D31*
X203725000Y-143950000D03*
D32*
X215275000Y-141750000D03*
%TD*%
D29*
%TO.C,S22*%
X250000000Y-131750000D03*
X245000000Y-133950000D03*
D30*
X245000000Y-128000000D03*
D29*
X240000000Y-131750000D03*
D31*
X241725000Y-133950000D03*
D32*
X253275000Y-131750000D03*
%TD*%
D29*
%TO.C,S27*%
X267023386Y-186021801D03*
X261806508Y-184401867D03*
D30*
X265710059Y-179911345D03*
D29*
X259476290Y-179461211D03*
D35*
X259334834Y-182253274D03*
D36*
X269495059Y-188170394D03*
%TD*%
D29*
%TO.C,S26*%
X249279641Y-173924882D03*
X243866931Y-174661471D03*
D30*
X245506973Y-168941964D03*
D29*
X239667024Y-171168510D03*
D37*
X240718799Y-173758759D03*
D38*
X252427772Y-174827594D03*
%TD*%
D29*
%TO.C,S10*%
X193000000Y-126750000D03*
X188000000Y-128950000D03*
D30*
X188000000Y-123000000D03*
D29*
X183000000Y-126750000D03*
D31*
X184725000Y-128950000D03*
D32*
X196275000Y-126750000D03*
%TD*%
M02*
