%TF.GenerationSoftware,KiCad,Pcbnew,9.0.6*%
%TF.CreationDate,2026-01-10T00:21:16+01:00*%
%TF.ProjectId,shoedler54,73686f65-646c-4657-9235-342e6b696361,v1.0.0*%
%TF.SameCoordinates,Original*%
%TF.FileFunction,Copper,L1,Top*%
%TF.FilePolarity,Positive*%
%FSLAX46Y46*%
G04 Gerber Fmt 4.6, Leading zero omitted, Abs format (unit mm)*
G04 Created by KiCad (PCBNEW 9.0.6) date 2026-01-10 00:21:16*
%MOMM*%
%LPD*%
G01*
G04 APERTURE LIST*
G04 Aperture macros list*
%AMRotRect*
0 Rectangle, with rotation*
0 The origin of the aperture is its center*
0 $1 length*
0 $2 width*
0 $3 Rotation angle, in degrees counterclockwise*
0 Add horizontal line*
21,1,$1,$2,0,0,$3*%
%AMOutline5P*
0 Free polygon, 5 corners , with rotation*
0 The origin of the aperture is its center*
0 number of corners: always 5*
0 $1 to $10 corner X, Y*
0 $11 Rotation angle, in degrees counterclockwise*
0 create outline with 5 corners*
4,1,5,$1,$2,$3,$4,$5,$6,$7,$8,$9,$10,$1,$2,$11*%
%AMOutline6P*
0 Free polygon, 6 corners , with rotation*
0 The origin of the aperture is its center*
0 number of corners: always 6*
0 $1 to $12 corner X, Y*
0 $13 Rotation angle, in degrees counterclockwise*
0 create outline with 6 corners*
4,1,6,$1,$2,$3,$4,$5,$6,$7,$8,$9,$10,$11,$12,$1,$2,$13*%
%AMOutline7P*
0 Free polygon, 7 corners , with rotation*
0 The origin of the aperture is its center*
0 number of corners: always 7*
0 $1 to $14 corner X, Y*
0 $15 Rotation angle, in degrees counterclockwise*
0 create outline with 7 corners*
4,1,7,$1,$2,$3,$4,$5,$6,$7,$8,$9,$10,$11,$12,$13,$14,$1,$2,$15*%
%AMOutline8P*
0 Free polygon, 8 corners , with rotation*
0 The origin of the aperture is its center*
0 number of corners: always 8*
0 $1 to $16 corner X, Y*
0 $17 Rotation angle, in degrees counterclockwise*
0 create outline with 8 corners*
4,1,8,$1,$2,$3,$4,$5,$6,$7,$8,$9,$10,$11,$12,$13,$14,$15,$16,$1,$2,$17*%
%AMFreePoly0*
4,1,6,0.250000,0.000000,-0.250000,-0.625000,-0.500000,-0.625000,-0.500000,0.625000,-0.250000,0.625000,0.250000,0.000000,0.250000,0.000000,$1*%
%AMFreePoly1*
4,1,6,0.500000,-0.625000,-0.650000,-0.625000,-0.150000,0.000000,-0.650000,0.625000,0.500000,0.625000,0.500000,-0.625000,0.500000,-0.625000,$1*%
%AMFreePoly2*
4,1,6,0.600000,-1.000000,0.000000,-0.400000,-0.600000,-1.000000,-0.600000,0.250000,0.600000,0.250000,0.600000,-1.000000,0.600000,-1.000000,$1*%
%AMFreePoly3*
4,1,6,0.600000,-0.200000,0.600000,-0.400000,-0.600000,-0.400000,-0.600000,-0.200000,0.000000,0.400000,0.600000,-0.200000,0.600000,-0.200000,$1*%
G04 Aperture macros list end*
%TA.AperFunction,SMDPad,CuDef*%
%ADD10RotRect,0.900000X1.200000X164.000000*%
%TD*%
%TA.AperFunction,SMDPad,CuDef*%
%ADD11R,0.900000X1.200000*%
%TD*%
%TA.AperFunction,SMDPad,CuDef*%
%ADD12RotRect,0.900000X1.200000X139.000000*%
%TD*%
%TA.AperFunction,SMDPad,CuDef*%
%ADD13R,1.000000X0.800000*%
%TD*%
%TA.AperFunction,SMDPad,CuDef*%
%ADD14R,0.700000X1.500000*%
%TD*%
%TA.AperFunction,SMDPad,CuDef*%
%ADD15FreePoly0,180.000000*%
%TD*%
%TA.AperFunction,ComponentPad*%
%ADD16C,1.700000*%
%TD*%
%TA.AperFunction,SMDPad,CuDef*%
%ADD17FreePoly0,0.000000*%
%TD*%
%TA.AperFunction,ComponentPad*%
%ADD18C,0.800000*%
%TD*%
%TA.AperFunction,SMDPad,CuDef*%
%ADD19FreePoly1,180.000000*%
%TD*%
%TA.AperFunction,SMDPad,CuDef*%
%ADD20FreePoly1,0.000000*%
%TD*%
%TA.AperFunction,WasherPad*%
%ADD21C,4.600000*%
%TD*%
%TA.AperFunction,SMDPad,CuDef*%
%ADD22FreePoly2,270.000000*%
%TD*%
%TA.AperFunction,ComponentPad*%
%ADD23O,1.750000X1.200000*%
%TD*%
%TA.AperFunction,SMDPad,CuDef*%
%ADD24FreePoly3,270.000000*%
%TD*%
%TA.AperFunction,SMDPad,CuDef*%
%ADD25R,1.550000X1.000000*%
%TD*%
%TA.AperFunction,SMDPad,CuDef*%
%ADD26RotRect,0.900000X1.200000X171.000000*%
%TD*%
%TA.AperFunction,SMDPad,CuDef*%
%ADD27Outline5P,-1.300000X1.300000X1.300000X1.300000X1.300000X-0.117000X0.117000X-1.300000X-1.300000X-1.300000X180.000000*%
%TD*%
%TA.AperFunction,SMDPad,CuDef*%
%ADD28R,2.600000X2.600000*%
%TD*%
%TA.AperFunction,SMDPad,CuDef*%
%ADD29Outline5P,-1.300000X1.300000X1.300000X1.300000X1.300000X-0.117000X0.117000X-1.300000X-1.300000X-1.300000X171.000000*%
%TD*%
%TA.AperFunction,SMDPad,CuDef*%
%ADD30RotRect,2.600000X2.600000X171.000000*%
%TD*%
%TA.AperFunction,SMDPad,CuDef*%
%ADD31Outline5P,-1.300000X1.300000X1.300000X1.300000X1.300000X-0.117000X0.117000X-1.300000X-1.300000X-1.300000X139.000000*%
%TD*%
%TA.AperFunction,SMDPad,CuDef*%
%ADD32RotRect,2.600000X2.600000X139.000000*%
%TD*%
%TA.AperFunction,SMDPad,CuDef*%
%ADD33Outline5P,-1.300000X1.300000X1.300000X1.300000X1.300000X-0.117000X0.117000X-1.300000X-1.300000X-1.300000X164.000000*%
%TD*%
%TA.AperFunction,SMDPad,CuDef*%
%ADD34RotRect,2.600000X2.600000X164.000000*%
%TD*%
%TA.AperFunction,ViaPad*%
%ADD35C,0.600000*%
%TD*%
%TA.AperFunction,Conductor*%
%ADD36C,0.200000*%
%TD*%
%TA.AperFunction,Conductor*%
%ADD37C,0.250000*%
%TD*%
G04 APERTURE END LIST*
D10*
%TO.P,D26,1*%
%TO.N,r0*%
X252572247Y-170967899D03*
%TO.P,D26,2*%
%TO.N,c4_r0*%
X249400083Y-170058295D03*
%TD*%
D11*
%TO.P,D21,1*%
%TO.N,r1*%
X252350000Y-147000000D03*
%TO.P,D21,2*%
%TO.N,c5_r1*%
X249050000Y-147000000D03*
%TD*%
%TO.P,D7,1*%
%TO.N,r3*%
X176350000Y-112000000D03*
%TO.P,D7,2*%
%TO.N,c1_r3*%
X173050000Y-112000000D03*
%TD*%
D12*
%TO.P,D27,1*%
%TO.N,r0*%
X271257175Y-184733378D03*
%TO.P,D27,2*%
%TO.N,c5_r0*%
X268766633Y-182568384D03*
%TD*%
D11*
%TO.P,D19,1*%
%TO.N,r3*%
X233350000Y-104000000D03*
%TO.P,D19,2*%
%TO.N,c4_r3*%
X230050000Y-104000000D03*
%TD*%
%TO.P,D1,1*%
%TO.N,r1*%
X157350000Y-150000000D03*
%TO.P,D1,2*%
%TO.N,c0_r1*%
X154050000Y-150000000D03*
%TD*%
%TO.P,D8,1*%
%TO.N,r4*%
X176350000Y-93000000D03*
%TO.P,D8,2*%
%TO.N,c1_r4*%
X173050000Y-93000000D03*
%TD*%
%TO.P,D23,1*%
%TO.N,r3*%
X252350000Y-109000000D03*
%TO.P,D23,2*%
%TO.N,c5_r3*%
X249050000Y-109000000D03*
%TD*%
D13*
%TO.P,PWR1,*%
%TO.N,*%
X246450000Y-83585000D03*
X253750000Y-83585000D03*
X246450000Y-81375000D03*
X253750000Y-81375000D03*
D14*
%TO.P,PWR1,1*%
%TO.N,BAT_P*%
X252350000Y-84235000D03*
%TO.P,PWR1,2*%
%TO.N,RAW*%
X249350000Y-84235000D03*
%TO.P,PWR1,3*%
%TO.N,N/C*%
X247850000Y-84235000D03*
%TD*%
D11*
%TO.P,D15,1*%
%TO.N,r3*%
X214350000Y-100000000D03*
%TO.P,D15,2*%
%TO.N,c3_r3*%
X211050000Y-100000000D03*
%TD*%
%TO.P,D5,1*%
%TO.N,r1*%
X176350000Y-150000000D03*
%TO.P,D5,2*%
%TO.N,c1_r1*%
X173050000Y-150000000D03*
%TD*%
%TO.P,D11,1*%
%TO.N,r3*%
X195350000Y-104000000D03*
%TO.P,D11,2*%
%TO.N,c2_r3*%
X192050000Y-104000000D03*
%TD*%
D15*
%TO.P,MCU1,1*%
%TO.N,MCU1_1*%
X270600000Y-84300000D03*
D16*
X272720000Y-84300000D03*
D15*
%TO.P,MCU1,2*%
%TO.N,MCU1_2*%
X270600000Y-86840000D03*
D16*
X272720000Y-86840000D03*
D15*
%TO.P,MCU1,3*%
%TO.N,MCU1_3*%
X270600000Y-89380000D03*
D16*
X272720000Y-89380000D03*
D15*
%TO.P,MCU1,4*%
%TO.N,MCU1_4*%
X270600000Y-91920000D03*
D16*
X272720000Y-91920000D03*
%TO.P,MCU1,5*%
%TO.N,r4*%
X272720000Y-94460000D03*
%TO.P,MCU1,6*%
%TO.N,r1*%
X272720000Y-97000000D03*
%TO.P,MCU1,7*%
%TO.N,r2*%
X272720000Y-99540000D03*
%TO.P,MCU1,8*%
%TO.N,r3*%
X272720000Y-102080000D03*
%TO.P,MCU1,9*%
%TO.N,DA*%
X272720000Y-104620000D03*
%TO.P,MCU1,10*%
%TO.N,CL*%
X272720000Y-107160000D03*
%TO.P,MCU1,11*%
%TO.N,c3*%
X272720000Y-109700000D03*
%TO.P,MCU1,12*%
%TO.N,c4*%
X272720000Y-112240000D03*
%TO.P,MCU1,13*%
%TO.N,r0*%
X257480000Y-112240000D03*
%TO.P,MCU1,14*%
%TO.N,c2*%
X257480000Y-109700000D03*
%TO.P,MCU1,15*%
%TO.N,CS*%
X257480000Y-107160000D03*
%TO.P,MCU1,16*%
%TO.N,c0*%
X257480000Y-104620000D03*
%TO.P,MCU1,17*%
%TO.N,c1*%
X257480000Y-102080000D03*
%TO.P,MCU1,18*%
%TO.N,c5*%
X257480000Y-99540000D03*
%TO.P,MCU1,19*%
%TO.N,P20*%
X257480000Y-97000000D03*
%TO.P,MCU1,20*%
%TO.N,P21*%
X257480000Y-94460000D03*
%TO.P,MCU1,21*%
%TO.N,MCU1_21*%
X257480000Y-91920000D03*
D17*
X259600000Y-91920000D03*
D16*
%TO.P,MCU1,22*%
%TO.N,MCU1_22*%
X257480000Y-89380000D03*
D17*
X259600000Y-89380000D03*
D16*
%TO.P,MCU1,23*%
%TO.N,MCU1_23*%
X257480000Y-86840000D03*
D17*
X259600000Y-86840000D03*
D16*
%TO.P,MCU1,24*%
%TO.N,MCU1_24*%
X257480000Y-84300000D03*
D17*
X259600000Y-84300000D03*
D18*
%TO.P,MCU1,101*%
%TO.N,P1*%
X268500000Y-84300000D03*
D19*
X269875000Y-84300000D03*
D18*
%TO.P,MCU1,102*%
%TO.N,P0*%
X268500000Y-86840000D03*
D19*
X269875000Y-86840000D03*
D18*
%TO.P,MCU1,103*%
%TO.N,GND*%
X268500000Y-89380000D03*
D19*
X269875000Y-89380000D03*
D18*
%TO.P,MCU1,104*%
X268500000Y-91920000D03*
D19*
X269875000Y-91920000D03*
D20*
%TO.P,MCU1,121*%
%TO.N,VCC*%
X260325000Y-91920000D03*
D18*
X261700000Y-91920000D03*
D20*
%TO.P,MCU1,122*%
%TO.N,RST*%
X260325000Y-89380000D03*
D18*
X261700000Y-89380000D03*
D20*
%TO.P,MCU1,123*%
%TO.N,GND*%
X260325000Y-86840000D03*
D18*
X261700000Y-86840000D03*
D20*
%TO.P,MCU1,124*%
%TO.N,RAW*%
X260325000Y-84300000D03*
D18*
X261700000Y-84300000D03*
%TD*%
D11*
%TO.P,D16,1*%
%TO.N,r4*%
X214350000Y-81000000D03*
%TO.P,D16,2*%
%TO.N,c3_r4*%
X211050000Y-81000000D03*
%TD*%
%TO.P,D12,1*%
%TO.N,r4*%
X195350000Y-85000000D03*
%TO.P,D12,2*%
%TO.N,c2_r4*%
X192050000Y-85000000D03*
%TD*%
D21*
%TO.P,MH1,*%
%TO.N,*%
X159500000Y-102500000D03*
%TD*%
%TO.P,MH5,*%
%TO.N,*%
X216500000Y-131000000D03*
%TD*%
D11*
%TO.P,D22,1*%
%TO.N,r2*%
X252350000Y-128000000D03*
%TO.P,D22,2*%
%TO.N,c5_r2*%
X249050000Y-128000000D03*
%TD*%
D21*
%TO.P,MH4,*%
%TO.N,*%
X259163733Y-167726197D03*
%TD*%
%TO.P,MH3,*%
%TO.N,*%
X159500000Y-140500000D03*
%TD*%
D11*
%TO.P,D17,1*%
%TO.N,r1*%
X233350000Y-142000000D03*
%TO.P,D17,2*%
%TO.N,c4_r1*%
X230050000Y-142000000D03*
%TD*%
%TO.P,D9,1*%
%TO.N,r1*%
X195350000Y-142000000D03*
%TO.P,D9,2*%
%TO.N,c2_r1*%
X192050000Y-142000000D03*
%TD*%
D22*
%TO.P,JST1,1*%
%TO.N,BAT_P*%
X260876000Y-118500000D03*
%TO.P,JST1,2*%
%TO.N,GND*%
X260876000Y-116500000D03*
D23*
%TO.P,JST1,11*%
%TO.N,JST1_1*%
X258060000Y-118500000D03*
%TO.P,JST1,12*%
%TO.N,JST1_2*%
X258060000Y-116500000D03*
D24*
%TO.P,JST1,21*%
%TO.N,JST1_1*%
X259860000Y-118500000D03*
%TO.P,JST1,22*%
%TO.N,JST1_2*%
X259860000Y-116500000D03*
%TD*%
D11*
%TO.P,D14,1*%
%TO.N,r2*%
X214350000Y-119000000D03*
%TO.P,D14,2*%
%TO.N,c3_r2*%
X211050000Y-119000000D03*
%TD*%
%TO.P,D24,1*%
%TO.N,r4*%
X252350000Y-90000000D03*
%TO.P,D24,2*%
%TO.N,c5_r4*%
X249050000Y-90000000D03*
%TD*%
%TO.P,D6,1*%
%TO.N,r2*%
X176350000Y-131000000D03*
%TO.P,D6,2*%
%TO.N,c1_r2*%
X173050000Y-131000000D03*
%TD*%
%TO.P,D20,1*%
%TO.N,r4*%
X233350000Y-85000000D03*
%TO.P,D20,2*%
%TO.N,c4_r4*%
X230050000Y-85000000D03*
%TD*%
D25*
%TO.P,RST1,1*%
%TO.N,GND*%
X242725000Y-82150000D03*
%TO.P,RST1,2*%
%TO.N,RST*%
X242725000Y-83850000D03*
%TO.P,RST1,3*%
%TO.N,GND*%
X237475000Y-82150000D03*
%TO.P,RST1,4*%
%TO.N,RST*%
X237475000Y-83850000D03*
%TD*%
D11*
%TO.P,D4,1*%
%TO.N,r4*%
X157350000Y-93000000D03*
%TO.P,D4,2*%
%TO.N,c0_r4*%
X154050000Y-93000000D03*
%TD*%
D21*
%TO.P,MH2,*%
%TO.N,*%
X235500000Y-99500000D03*
%TD*%
D26*
%TO.P,D25,1*%
%TO.N,r0*%
X232257010Y-165294794D03*
%TO.P,D25,2*%
%TO.N,c3_r0*%
X228997638Y-164778560D03*
%TD*%
D11*
%TO.P,D2,1*%
%TO.N,r2*%
X157350000Y-131000000D03*
%TO.P,D2,2*%
%TO.N,c0_r2*%
X154050000Y-131000000D03*
%TD*%
%TO.P,D3,1*%
%TO.N,r3*%
X157350000Y-112000000D03*
%TO.P,D3,2*%
%TO.N,c0_r3*%
X154050000Y-112000000D03*
%TD*%
%TO.P,D10,1*%
%TO.N,r2*%
X195350000Y-123000000D03*
%TO.P,D10,2*%
%TO.N,c2_r2*%
X192050000Y-123000000D03*
%TD*%
%TO.P,D13,1*%
%TO.N,r1*%
X214350000Y-138000000D03*
%TO.P,D13,2*%
%TO.N,c3_r1*%
X211050000Y-138000000D03*
%TD*%
%TO.P,D18,1*%
%TO.N,r2*%
X233350000Y-123000000D03*
%TO.P,D18,2*%
%TO.N,c4_r2*%
X230050000Y-123000000D03*
%TD*%
D27*
%TO.P,S19,1*%
%TO.N,c4_r3*%
X222725000Y-109950000D03*
D28*
%TO.P,S19,2*%
%TO.N,c4*%
X234275000Y-107750000D03*
%TD*%
D27*
%TO.P,S6,1*%
%TO.N,c1_r2*%
X165725000Y-136950000D03*
D28*
%TO.P,S6,2*%
%TO.N,c1*%
X177275000Y-134750000D03*
%TD*%
D27*
%TO.P,S24,1*%
%TO.N,c5_r4*%
X241725000Y-95950000D03*
D28*
%TO.P,S24,2*%
%TO.N,c5*%
X253275000Y-93750000D03*
%TD*%
D27*
%TO.P,S8,1*%
%TO.N,c1_r4*%
X165725000Y-98950000D03*
D28*
%TO.P,S8,2*%
%TO.N,c1*%
X177275000Y-96750000D03*
%TD*%
D27*
%TO.P,S7,1*%
%TO.N,c1_r3*%
X165725000Y-117950000D03*
D28*
%TO.P,S7,2*%
%TO.N,c1*%
X177275000Y-115750000D03*
%TD*%
D27*
%TO.P,S4,1*%
%TO.N,c0_r4*%
X146725000Y-98950000D03*
D28*
%TO.P,S4,2*%
%TO.N,c0*%
X158275000Y-96750000D03*
%TD*%
D29*
%TO.P,S25,1*%
%TO.N,c3_r0*%
X220832036Y-169509423D03*
D30*
%TO.P,S25,2*%
%TO.N,c3*%
X232583992Y-169143325D03*
%TD*%
D27*
%TO.P,S5,1*%
%TO.N,c1_r1*%
X165725000Y-155950000D03*
D28*
%TO.P,S5,2*%
%TO.N,c1*%
X177275000Y-153750000D03*
%TD*%
D27*
%TO.P,S14,1*%
%TO.N,c3_r2*%
X203725000Y-124950000D03*
D28*
%TO.P,S14,2*%
%TO.N,c3*%
X215275000Y-122750000D03*
%TD*%
D27*
%TO.P,S23,1*%
%TO.N,c5_r3*%
X241725000Y-114950000D03*
D28*
%TO.P,S23,2*%
%TO.N,c5*%
X253275000Y-112750000D03*
%TD*%
D27*
%TO.P,S20,1*%
%TO.N,c4_r4*%
X222725000Y-90950000D03*
D28*
%TO.P,S20,2*%
%TO.N,c4*%
X234275000Y-88750000D03*
%TD*%
D27*
%TO.P,S16,1*%
%TO.N,c3_r4*%
X203725000Y-86950000D03*
D28*
%TO.P,S16,2*%
%TO.N,c3*%
X215275000Y-84750000D03*
%TD*%
D27*
%TO.P,S1,1*%
%TO.N,c0_r1*%
X146725000Y-155950000D03*
D28*
%TO.P,S1,2*%
%TO.N,c0*%
X158275000Y-153750000D03*
%TD*%
D27*
%TO.P,S15,1*%
%TO.N,c3_r3*%
X203725000Y-105950000D03*
D28*
%TO.P,S15,2*%
%TO.N,c3*%
X215275000Y-103750000D03*
%TD*%
D27*
%TO.P,S2,1*%
%TO.N,c0_r2*%
X146725000Y-136950000D03*
D28*
%TO.P,S2,2*%
%TO.N,c0*%
X158275000Y-134750000D03*
%TD*%
D27*
%TO.P,S18,1*%
%TO.N,c4_r2*%
X222725000Y-128950000D03*
D28*
%TO.P,S18,2*%
%TO.N,c4*%
X234275000Y-126750000D03*
%TD*%
D27*
%TO.P,S17,1*%
%TO.N,c4_r1*%
X222725000Y-147950000D03*
D28*
%TO.P,S17,2*%
%TO.N,c4*%
X234275000Y-145750000D03*
%TD*%
D27*
%TO.P,S11,1*%
%TO.N,c2_r3*%
X184725000Y-109950000D03*
D28*
%TO.P,S11,2*%
%TO.N,c2*%
X196275000Y-107750000D03*
%TD*%
D27*
%TO.P,S21,1*%
%TO.N,c5_r1*%
X241725000Y-152950000D03*
D28*
%TO.P,S21,2*%
%TO.N,c5*%
X253275000Y-150750000D03*
%TD*%
D27*
%TO.P,S12,1*%
%TO.N,c2_r4*%
X184725000Y-90950000D03*
D28*
%TO.P,S12,2*%
%TO.N,c2*%
X196275000Y-88750000D03*
%TD*%
D27*
%TO.P,S9,1*%
%TO.N,c2_r1*%
X184725000Y-147950000D03*
D28*
%TO.P,S9,2*%
%TO.N,c2*%
X196275000Y-145750000D03*
%TD*%
D27*
%TO.P,S3,1*%
%TO.N,c0_r3*%
X146725000Y-117950000D03*
D28*
%TO.P,S3,2*%
%TO.N,c0*%
X158275000Y-115750000D03*
%TD*%
D27*
%TO.P,S13,1*%
%TO.N,c3_r1*%
X203725000Y-143950000D03*
D28*
%TO.P,S13,2*%
%TO.N,c3*%
X215275000Y-141750000D03*
%TD*%
D27*
%TO.P,S22,1*%
%TO.N,c5_r2*%
X241725000Y-133950000D03*
D28*
%TO.P,S22,2*%
%TO.N,c5*%
X253275000Y-131750000D03*
%TD*%
D31*
%TO.P,S27,1*%
%TO.N,c5_r0*%
X259334834Y-182253274D03*
D32*
%TO.P,S27,2*%
%TO.N,c5*%
X269495059Y-188170394D03*
%TD*%
D33*
%TO.P,S26,1*%
%TO.N,c4_r0*%
X240718799Y-173758759D03*
D34*
%TO.P,S26,2*%
%TO.N,c4*%
X252427772Y-174827594D03*
%TD*%
D27*
%TO.P,S10,1*%
%TO.N,c2_r2*%
X184725000Y-128950000D03*
D28*
%TO.P,S10,2*%
%TO.N,c2*%
X196275000Y-126750000D03*
%TD*%
D35*
%TO.N,GND*%
X260500000Y-119802000D03*
%TO.N,BAT_P*%
X259000000Y-117500000D03*
X253500000Y-84500000D03*
%TO.N,GND*%
X244044869Y-83437757D03*
%TO.N,RST*%
X244325000Y-85175000D03*
%TO.N,r3*%
X234500000Y-104000000D03*
%TO.N,c4_r3*%
X229025000Y-105025000D03*
%TO.N,RAW*%
X250000000Y-82500000D03*
%TO.N,r4*%
X252350000Y-91500000D03*
%TO.N,c5_r4*%
X248025000Y-91025000D03*
%TO.N,r4*%
X232175000Y-83825000D03*
%TO.N,c4_r4*%
X229025000Y-86025000D03*
%TO.N,r4*%
X213216826Y-79866826D03*
%TO.N,c3_r4*%
X210025000Y-82025000D03*
%TO.N,r4*%
X194175000Y-83825000D03*
%TO.N,c2_r4*%
X191000000Y-86000000D03*
%TO.N,r4*%
X175000000Y-91500000D03*
%TO.N,c1_r4*%
X172025000Y-94025000D03*
%TO.N,r4*%
X158425000Y-91925000D03*
%TO.N,c0_r4*%
X153025000Y-94025000D03*
%TO.N,r3*%
X157500000Y-110500000D03*
%TO.N,c0_r3*%
X153000000Y-113000000D03*
%TO.N,r3*%
X175175000Y-110825000D03*
%TO.N,c1_r3*%
X172025000Y-113025000D03*
%TO.N,r3*%
X194127111Y-102777111D03*
%TO.N,c2_r3*%
X191000000Y-105000000D03*
%TO.N,r3*%
X213175000Y-98825000D03*
%TO.N,c3_r3*%
X210000000Y-101000000D03*
%TO.N,r3*%
X251175000Y-107825000D03*
%TO.N,c5_r3*%
X248025000Y-110025000D03*
%TO.N,r2*%
X251175000Y-126825000D03*
%TO.N,c5_r2*%
X248112089Y-128945193D03*
%TO.N,r2*%
X232000000Y-121500000D03*
%TO.N,c4_r2*%
X229025000Y-124025000D03*
%TO.N,r2*%
X213175000Y-117825000D03*
%TO.N,c3_r2*%
X210000000Y-120000000D03*
%TO.N,r2*%
X194175000Y-121825000D03*
%TO.N,c2_r2*%
X191000000Y-124000000D03*
%TO.N,r2*%
X176500000Y-129500000D03*
%TO.N,c1_r2*%
X172000000Y-132000000D03*
%TO.N,r2*%
X157500000Y-129500000D03*
%TO.N,c0_r2*%
X153000000Y-132000000D03*
%TO.N,c0_r1*%
X153025000Y-151025000D03*
%TO.N,r1*%
X157350000Y-148645862D03*
X175175000Y-148825000D03*
%TO.N,c1_r1*%
X172025000Y-151025000D03*
%TO.N,r0*%
X271257175Y-183080363D03*
%TO.N,c5_r0*%
X267500000Y-182835844D03*
%TO.N,c4_r0*%
X248479189Y-170979189D03*
%TO.N,r0*%
X253967899Y-170967899D03*
%TO.N,c3_r0*%
X227888099Y-165888099D03*
%TO.N,r0*%
X233500000Y-165294794D03*
%TO.N,c2_r1*%
X191000000Y-143000000D03*
%TO.N,r1*%
X194211098Y-140854309D03*
X232425000Y-141075000D03*
%TO.N,c4_r1*%
X229000000Y-143000000D03*
%TO.N,r1*%
X251000000Y-147000000D03*
%TO.N,c5_r1*%
X248000000Y-148000000D03*
%TO.N,r1*%
X214500000Y-136500000D03*
%TO.N,c3_r1*%
X210025000Y-139025000D03*
%TO.N,GND*%
X254500000Y-85451000D03*
%TO.N,BAT_P*%
X255500000Y-115000000D03*
X255500000Y-84500000D03*
%TO.N,r1*%
X269500000Y-100500000D03*
X269500000Y-108500000D03*
%TO.N,r2*%
X268000000Y-104500000D03*
X268000000Y-108500000D03*
%TO.N,r0*%
X262508665Y-116991335D03*
X264174972Y-132825028D03*
%TO.N,c0_r1*%
X150000000Y-153875000D03*
%TO.N,c0*%
X214500000Y-135500000D03*
X212500000Y-135500000D03*
X195500000Y-138000000D03*
X267500000Y-145000000D03*
X150000000Y-134075000D03*
X176500000Y-142000000D03*
X252500000Y-145000000D03*
X197000000Y-137000000D03*
X150000000Y-153075000D03*
X235000000Y-139000000D03*
X233500000Y-139000000D03*
X178000000Y-141500000D03*
X150000000Y-96075000D03*
X150000000Y-115075000D03*
%TO.N,c0_r2*%
X150000000Y-134875000D03*
%TO.N,c0_r3*%
X150000000Y-115875000D03*
%TO.N,c0_r4*%
X150000000Y-96875000D03*
%TO.N,c1_r1*%
X169000000Y-153875000D03*
%TO.N,c1*%
X212500000Y-134500000D03*
X195500000Y-137000000D03*
X197000000Y-136000000D03*
X252500000Y-144000000D03*
X233500000Y-138000000D03*
X214500000Y-134500000D03*
X268500000Y-144000000D03*
X169000000Y-96075000D03*
X235000000Y-138000000D03*
X169000000Y-134075000D03*
X169000000Y-115075000D03*
X169000000Y-153075000D03*
%TO.N,c1_r2*%
X169000000Y-134875000D03*
%TO.N,c1_r3*%
X169000000Y-115875000D03*
%TO.N,c1_r4*%
X169000000Y-96875000D03*
%TO.N,c2_r1*%
X188000000Y-145875000D03*
%TO.N,c2*%
X266500000Y-143000000D03*
X212500000Y-133500000D03*
X188000000Y-107075000D03*
X188000000Y-126075000D03*
X188000000Y-88075000D03*
X233500000Y-137000000D03*
X235000000Y-137000000D03*
X188000000Y-145075000D03*
X214500000Y-133500000D03*
X252500000Y-143000000D03*
%TO.N,c2_r2*%
X188000000Y-126875000D03*
%TO.N,c2_r3*%
X188000000Y-107875000D03*
%TO.N,c2_r4*%
X188000000Y-88875000D03*
%TO.N,c3_r1*%
X207000000Y-141875000D03*
%TO.N,c3*%
X224516464Y-167182142D03*
X233500000Y-136000000D03*
X235000000Y-136000000D03*
X207000000Y-122075000D03*
X207000000Y-84075000D03*
X207000000Y-141075000D03*
X270500000Y-142000000D03*
X207000000Y-103075000D03*
X252500000Y-142000000D03*
%TO.N,c3_r2*%
X207000000Y-122875000D03*
%TO.N,c3_r3*%
X207000000Y-103875000D03*
%TO.N,c3_r4*%
X207000000Y-84875000D03*
%TO.N,c4_r1*%
X226000000Y-145875000D03*
%TO.N,c4*%
X271500000Y-141000000D03*
X244659388Y-171897844D03*
X226000000Y-107075000D03*
X226000000Y-145075000D03*
X226000000Y-126075000D03*
X242000000Y-140000000D03*
X226000000Y-88075000D03*
%TO.N,c4_r2*%
X226000000Y-126875000D03*
%TO.N,c4_r3*%
X226000000Y-107875000D03*
%TO.N,c4_r4*%
X226000000Y-88875000D03*
%TO.N,c5_r1*%
X245000000Y-150875000D03*
%TO.N,c5*%
X245000000Y-112075000D03*
X245000000Y-93075000D03*
X245000000Y-150075000D03*
X263692678Y-182232077D03*
X245000000Y-131075000D03*
%TO.N,c5_r2*%
X245000000Y-131875000D03*
%TO.N,c5_r3*%
X245000000Y-112875000D03*
%TO.N,c5_r4*%
X245000000Y-93875000D03*
%TO.N,c3_r0*%
X224391316Y-167972292D03*
%TO.N,c4_r0*%
X244438878Y-172666853D03*
%TO.N,c5_r0*%
X263167830Y-182835844D03*
%TD*%
D36*
%TO.N,c1*%
X180775000Y-137500000D02*
X192500000Y-137500000D01*
%TO.N,c3*%
X213500000Y-127500000D02*
X213500000Y-124525000D01*
X217500000Y-127500000D02*
X226000000Y-136000000D01*
X213500000Y-127500000D02*
X217500000Y-127500000D01*
%TO.N,GND*%
X260500000Y-119802000D02*
X260715330Y-119802000D01*
%TO.N,BAT_P*%
X259876000Y-117500000D02*
X259000000Y-117500000D01*
X260876000Y-118500000D02*
X259876000Y-117500000D01*
%TO.N,RST*%
X237475000Y-83850000D02*
X237676000Y-83649000D01*
X237676000Y-83649000D02*
X242524000Y-83649000D01*
X242524000Y-83649000D02*
X242725000Y-83850000D01*
%TO.N,GND*%
X237475000Y-82150000D02*
X237676000Y-82351000D01*
X237676000Y-82351000D02*
X242524000Y-82351000D01*
X242524000Y-82351000D02*
X242725000Y-82150000D01*
%TO.N,BAT_P*%
X252556860Y-84441860D02*
X253341312Y-84441860D01*
X252350000Y-84235000D02*
X252556860Y-84441860D01*
%TO.N,GND*%
X242757112Y-82150000D02*
X244044869Y-83437757D01*
X242725000Y-82150000D02*
X242757112Y-82150000D01*
%TO.N,RST*%
X243027291Y-83850000D02*
X244319835Y-85142544D01*
X242725000Y-83850000D02*
X243027291Y-83850000D01*
%TO.N,r3*%
X234500000Y-104000000D02*
X234584505Y-104000000D01*
X233350000Y-104000000D02*
X234500000Y-104000000D01*
%TO.N,c4_r3*%
X230050000Y-104000000D02*
X230035876Y-104000000D01*
X230035876Y-104000000D02*
X229090799Y-104945076D01*
%TO.N,RAW*%
X249350000Y-83150000D02*
X250000000Y-82500000D01*
X249350000Y-84235000D02*
X249350000Y-83150000D01*
%TO.N,r4*%
X252350000Y-91425240D02*
X252354581Y-91429821D01*
X252350000Y-90000000D02*
X252350000Y-91425240D01*
%TO.N,c5_r4*%
X248025000Y-91025000D02*
X248000000Y-91050000D01*
X248000000Y-91050000D02*
X248000000Y-91000000D01*
X249050000Y-90000000D02*
X248025000Y-91025000D01*
%TO.N,r4*%
X233350000Y-84977566D02*
X232245553Y-83873119D01*
X233350000Y-85000000D02*
X233350000Y-84977566D01*
%TO.N,c4_r4*%
X230000000Y-85000000D02*
X229000000Y-86000000D01*
X230050000Y-85000000D02*
X230000000Y-85000000D01*
%TO.N,r4*%
X214350000Y-81000000D02*
X213216826Y-79866826D01*
%TO.N,c3_r4*%
X211000000Y-81000000D02*
X210000000Y-82000000D01*
X211050000Y-81000000D02*
X211000000Y-81000000D01*
%TO.N,r4*%
X195350000Y-84983294D02*
X194259556Y-83892850D01*
X195350000Y-85000000D02*
X195350000Y-84983294D01*
%TO.N,c2_r4*%
X192000000Y-85000000D02*
X191000000Y-86000000D01*
X192050000Y-85000000D02*
X192000000Y-85000000D01*
%TO.N,r4*%
X176350000Y-92973747D02*
X175077803Y-91701550D01*
X176350000Y-93000000D02*
X176350000Y-92973747D01*
%TO.N,c1_r4*%
X172025000Y-94025000D02*
X172000000Y-94050000D01*
X172000000Y-94050000D02*
X172000000Y-94000000D01*
X173050000Y-93000000D02*
X172025000Y-94025000D01*
%TO.N,r4*%
X157353407Y-93000000D02*
X158499098Y-91854309D01*
X157350000Y-93000000D02*
X157353407Y-93000000D01*
%TO.N,c0_r4*%
X154000000Y-93000000D02*
X153000000Y-94000000D01*
X154050000Y-93000000D02*
X154000000Y-93000000D01*
%TO.N,r3*%
X157350000Y-110558059D02*
X157360692Y-110547367D01*
X157350000Y-112000000D02*
X157350000Y-110558059D01*
%TO.N,c0_r3*%
X154000000Y-112000000D02*
X153000000Y-113000000D01*
X154050000Y-112000000D02*
X154000000Y-112000000D01*
%TO.N,r3*%
X176350000Y-112000000D02*
X176350000Y-111962860D01*
X176350000Y-111962860D02*
X175294630Y-110907490D01*
%TO.N,c1_r3*%
X173000000Y-112000000D02*
X172000000Y-113000000D01*
%TO.N,r3*%
X194127111Y-102777111D02*
X194127111Y-102771464D01*
X195350000Y-104000000D02*
X194127111Y-102777111D01*
%TO.N,c2_r3*%
X192000000Y-104000000D02*
X191000000Y-105000000D01*
X192050000Y-104000000D02*
X192000000Y-104000000D01*
%TO.N,r3*%
X214341597Y-100000000D02*
X213234096Y-98892499D01*
X214350000Y-100000000D02*
X214341597Y-100000000D01*
%TO.N,c3_r3*%
X211050000Y-100000000D02*
X210000000Y-101050000D01*
%TO.N,r3*%
X252350000Y-108982240D02*
X251145690Y-107777930D01*
X252350000Y-109000000D02*
X252350000Y-108982240D01*
%TO.N,c5_r3*%
X249000000Y-109000000D02*
X248000000Y-110000000D01*
X249050000Y-109000000D02*
X249000000Y-109000000D01*
%TO.N,r2*%
X252350000Y-127989307D02*
X251291381Y-126930688D01*
X252350000Y-128000000D02*
X252350000Y-127989307D01*
%TO.N,c5_r2*%
X249050000Y-128000000D02*
X249050000Y-128007283D01*
X249050000Y-128007283D02*
X248112089Y-128945193D01*
%TO.N,r2*%
X233350000Y-122976578D02*
X232002479Y-121629057D01*
X233350000Y-123000000D02*
X233350000Y-122976578D01*
%TO.N,c4_r2*%
X230000000Y-123000000D02*
X229000000Y-124000000D01*
X230050000Y-123000000D02*
X230000000Y-123000000D01*
%TO.N,r2*%
X214350000Y-118982239D02*
X213246123Y-117878362D01*
X214350000Y-119000000D02*
X214350000Y-118982239D01*
%TO.N,c3_r2*%
X211000000Y-119000000D02*
X210000000Y-120000000D01*
X211050000Y-119000000D02*
X211000000Y-119000000D01*
%TO.N,r2*%
X195350000Y-122983294D02*
X194236927Y-121870221D01*
X195350000Y-123000000D02*
X195350000Y-122983294D01*
%TO.N,c2_r2*%
X191000000Y-124050000D02*
X191000000Y-124000000D01*
X192050000Y-123000000D02*
X191000000Y-124050000D01*
%TO.N,r2*%
X176350000Y-131000000D02*
X176350000Y-129532254D01*
%TO.N,c1_r2*%
X172000000Y-132050000D02*
X172000000Y-132000000D01*
X173050000Y-131000000D02*
X172000000Y-132050000D01*
%TO.N,r2*%
X157350000Y-131000000D02*
X157350000Y-129650000D01*
%TO.N,c0_r2*%
X154000000Y-131000000D02*
X153000000Y-132000000D01*
X154050000Y-131000000D02*
X154000000Y-131000000D01*
%TO.N,c0_r1*%
X154000000Y-150000000D02*
X153000000Y-151000000D01*
X154050000Y-150000000D02*
X154000000Y-150000000D01*
%TO.N,r1*%
X157350000Y-150000000D02*
X157350000Y-148645862D01*
X175175000Y-148825000D02*
X176350000Y-150000000D01*
X175245553Y-148895553D02*
X175245553Y-148877223D01*
%TO.N,c1_r1*%
X173000000Y-150000000D02*
X172000000Y-151000000D01*
%TO.N,r0*%
X271257175Y-184733378D02*
X271257175Y-183080363D01*
%TO.N,c5_r0*%
X267752409Y-182568384D02*
X267495896Y-182824897D01*
X268766633Y-182568384D02*
X267752409Y-182568384D01*
%TO.N,c4_r0*%
X249400083Y-170058295D02*
X248479189Y-170979189D01*
%TO.N,r0*%
X252572247Y-170967899D02*
X253967899Y-170967899D01*
%TO.N,c3_r0*%
X228997638Y-164781692D02*
X227908042Y-165871288D01*
X228997638Y-164778560D02*
X228997638Y-164781692D01*
%TO.N,r0*%
X233500000Y-165294794D02*
X233657837Y-165294794D01*
X232257010Y-165294794D02*
X233500000Y-165294794D01*
%TO.N,c2_r1*%
X192000000Y-142000000D02*
X191000000Y-143000000D01*
X192050000Y-142000000D02*
X192000000Y-142000000D01*
%TO.N,r1*%
X195350000Y-141993211D02*
X194211098Y-140854309D01*
X195350000Y-142000000D02*
X195350000Y-141993211D01*
X232425000Y-141075000D02*
X232350000Y-141000000D01*
X233350000Y-142000000D02*
X232425000Y-141075000D01*
%TO.N,c4_r1*%
X230000000Y-142000000D02*
X229000000Y-143000000D01*
X230050000Y-142000000D02*
X230000000Y-142000000D01*
%TO.N,r1*%
X252350000Y-147000000D02*
X251000000Y-147000000D01*
%TO.N,c5_r1*%
X248000000Y-148000000D02*
X248050000Y-148000000D01*
X248050000Y-148000000D02*
X249050000Y-147000000D01*
%TO.N,r1*%
X214350000Y-138000000D02*
X214350000Y-136650000D01*
%TO.N,c3_r1*%
X210025000Y-139025000D02*
X210000000Y-139050000D01*
X211050000Y-138000000D02*
X210025000Y-139025000D01*
D37*
%TO.N,GND*%
X264500000Y-89380000D02*
X268500000Y-89380000D01*
X254500000Y-84614702D02*
X254500000Y-85451000D01*
X264500000Y-89380000D02*
X264500000Y-86073280D01*
X255990702Y-83124000D02*
X254500000Y-84614702D01*
X264500000Y-86073280D02*
X261550720Y-83124000D01*
X261550720Y-83124000D02*
X255990702Y-83124000D01*
X268500000Y-91920000D02*
X265266720Y-91920000D01*
X265266720Y-91920000D02*
X262726720Y-89380000D01*
X260325000Y-86840000D02*
X260325000Y-86978280D01*
X260325000Y-86978280D02*
X262726720Y-89380000D01*
X262726720Y-89380000D02*
X264500000Y-89380000D01*
D36*
X254500000Y-85451000D02*
X254876000Y-85827000D01*
X254876000Y-85827000D02*
X254876000Y-117432306D01*
X260715330Y-119802000D02*
X261500000Y-119017330D01*
X261500000Y-119017330D02*
X261500000Y-117124000D01*
X261500000Y-117124000D02*
X260876000Y-116500000D01*
X254876000Y-117432306D02*
X257245694Y-119802000D01*
X257245694Y-119802000D02*
X260500000Y-119802000D01*
%TO.N,BAT_P*%
X260876000Y-118500000D02*
X259975000Y-119401000D01*
X259975000Y-119401000D02*
X257411794Y-119401000D01*
X257411794Y-119401000D02*
X255500000Y-117489206D01*
X255500000Y-117489206D02*
X255500000Y-115000000D01*
X255500000Y-84500000D02*
X255500000Y-115000000D01*
%TO.N,r1*%
X269500000Y-101000000D02*
X269500000Y-100500000D01*
X269500000Y-108500000D02*
X269500000Y-101000000D01*
%TO.N,r2*%
X268000000Y-108500000D02*
X268000000Y-104500000D01*
%TO.N,r0*%
X264174972Y-132825028D02*
X264174972Y-118657642D01*
X264174972Y-118657642D02*
X262508665Y-116991335D01*
X257757330Y-112240000D02*
X257480000Y-112240000D01*
%TO.N,c0_r1*%
X148800000Y-153875000D02*
X150000000Y-153875000D01*
X146725000Y-155950000D02*
X148800000Y-153875000D01*
%TO.N,c0*%
X156899000Y-98126000D02*
X156899000Y-103577370D01*
X197000000Y-137000000D02*
X198851000Y-135149000D01*
X212149000Y-135149000D02*
X212500000Y-135500000D01*
X158275000Y-115750000D02*
X156421000Y-113896000D01*
X150975000Y-96075000D02*
X150000000Y-96075000D01*
X156421000Y-151896000D02*
X152154000Y-151896000D01*
X267500000Y-114640000D02*
X267500000Y-145000000D01*
X242500000Y-139000000D02*
X248500000Y-145000000D01*
X267430000Y-114570000D02*
X267500000Y-114640000D01*
X156899000Y-136126000D02*
X156899000Y-141577370D01*
X248500000Y-145000000D02*
X252500000Y-145000000D01*
X156421000Y-132896000D02*
X152154000Y-132896000D01*
X235000000Y-139000000D02*
X242500000Y-139000000D01*
X158275000Y-145500000D02*
X173000000Y-145500000D01*
X178000000Y-141500000D02*
X181500000Y-138000000D01*
X218000000Y-139000000D02*
X233500000Y-139000000D01*
X158275000Y-134750000D02*
X156899000Y-136126000D01*
X150975000Y-115075000D02*
X150000000Y-115075000D01*
X158275000Y-96750000D02*
X156899000Y-98126000D01*
X152154000Y-94896000D02*
X150975000Y-96075000D01*
X158275000Y-134750000D02*
X156421000Y-132896000D01*
X182500000Y-138000000D02*
X183500000Y-138000000D01*
X152154000Y-151896000D02*
X150975000Y-153075000D01*
X156421000Y-94896000D02*
X152154000Y-94896000D01*
X158275000Y-153750000D02*
X156421000Y-151896000D01*
X198851000Y-135149000D02*
X212149000Y-135149000D01*
X173000000Y-145500000D02*
X176500000Y-142000000D01*
X181500000Y-138000000D02*
X182500000Y-138000000D01*
X158275000Y-145500000D02*
X158275000Y-153750000D01*
X183500000Y-138000000D02*
X195500000Y-138000000D01*
X158275000Y-96750000D02*
X156421000Y-94896000D01*
X156899000Y-103577370D02*
X158275000Y-104953370D01*
X152154000Y-113896000D02*
X150975000Y-115075000D01*
X152154000Y-132896000D02*
X150975000Y-134075000D01*
X150975000Y-153075000D02*
X150000000Y-153075000D01*
X158275000Y-142953370D02*
X158275000Y-145500000D01*
X156899000Y-141577370D02*
X158275000Y-142953370D01*
X158275000Y-115750000D02*
X158275000Y-134750000D01*
X214500000Y-135500000D02*
X218000000Y-139000000D01*
X267430000Y-114570000D02*
X257480000Y-104620000D01*
X150975000Y-134075000D02*
X150000000Y-134075000D01*
X156421000Y-113896000D02*
X152154000Y-113896000D01*
X158275000Y-104953370D02*
X158275000Y-115750000D01*
D37*
%TO.N,GND*%
X269875000Y-89380000D02*
X268500000Y-89380000D01*
X269875000Y-91920000D02*
X268500000Y-91920000D01*
X260325000Y-86840000D02*
X261700000Y-86840000D01*
D36*
%TO.N,c0_r2*%
X146725000Y-136950000D02*
X148800000Y-134875000D01*
X148800000Y-134875000D02*
X150000000Y-134875000D01*
%TO.N,c0_r3*%
X146725000Y-117950000D02*
X148800000Y-115875000D01*
X148800000Y-115875000D02*
X150000000Y-115875000D01*
%TO.N,c0_r4*%
X148800000Y-96875000D02*
X150000000Y-96875000D01*
X146725000Y-98950000D02*
X148800000Y-96875000D01*
%TO.N,c1_r1*%
X167800000Y-153875000D02*
X169000000Y-153875000D01*
X165725000Y-155950000D02*
X167800000Y-153875000D01*
%TO.N,c1*%
X177275000Y-134750000D02*
X175421000Y-132896000D01*
X177275000Y-141000000D02*
X180775000Y-137500000D01*
X195000000Y-137500000D02*
X195500000Y-137000000D01*
X177275000Y-96750000D02*
X175421000Y-94896000D01*
X175421000Y-132896000D02*
X171154000Y-132896000D01*
X192500000Y-137500000D02*
X195000000Y-137500000D01*
X177275000Y-153750000D02*
X175421000Y-151896000D01*
X214500000Y-134500000D02*
X218000000Y-138000000D01*
X169975000Y-134075000D02*
X169000000Y-134075000D01*
X242500000Y-138000000D02*
X248500000Y-144000000D01*
X198500000Y-134500000D02*
X212500000Y-134500000D01*
X169975000Y-115075000D02*
X169000000Y-115075000D01*
X169975000Y-153075000D02*
X169000000Y-153075000D01*
X218000000Y-138000000D02*
X233500000Y-138000000D01*
X177275000Y-115750000D02*
X177275000Y-96750000D01*
X235000000Y-138000000D02*
X242500000Y-138000000D01*
X169975000Y-96075000D02*
X169000000Y-96075000D01*
X248500000Y-144000000D02*
X252500000Y-144000000D01*
X171154000Y-151896000D02*
X169975000Y-153075000D01*
X197000000Y-136000000D02*
X198500000Y-134500000D01*
X175421000Y-94896000D02*
X171154000Y-94896000D01*
X177275000Y-134750000D02*
X177275000Y-141000000D01*
X175421000Y-151896000D02*
X171154000Y-151896000D01*
X175421000Y-113896000D02*
X171154000Y-113896000D01*
X177275000Y-134750000D02*
X177275000Y-115750000D01*
X171154000Y-132896000D02*
X169975000Y-134075000D01*
X268500000Y-113100000D02*
X268500000Y-144000000D01*
X171154000Y-94896000D02*
X169975000Y-96075000D01*
X177275000Y-141000000D02*
X177275000Y-153750000D01*
X257480000Y-102080000D02*
X268500000Y-113100000D01*
X177275000Y-115750000D02*
X175421000Y-113896000D01*
X171154000Y-113896000D02*
X169975000Y-115075000D01*
%TO.N,c1_r2*%
X165725000Y-136950000D02*
X167800000Y-134875000D01*
X167800000Y-134875000D02*
X169000000Y-134875000D01*
%TO.N,c1_r3*%
X167800000Y-115875000D02*
X169000000Y-115875000D01*
X165725000Y-117950000D02*
X167800000Y-115875000D01*
%TO.N,c1_r4*%
X165725000Y-98950000D02*
X167800000Y-96875000D01*
X167800000Y-96875000D02*
X169000000Y-96875000D01*
%TO.N,c2_r1*%
X186800000Y-145875000D02*
X188000000Y-145875000D01*
X184725000Y-147950000D02*
X186800000Y-145875000D01*
%TO.N,c2*%
X196275000Y-126750000D02*
X196275000Y-135000000D01*
X188975000Y-145075000D02*
X188000000Y-145075000D01*
X196275000Y-126750000D02*
X196275000Y-107750000D01*
X194421000Y-105896000D02*
X190154000Y-105896000D01*
X196275000Y-135000000D02*
X196275000Y-145750000D01*
X196275000Y-145750000D02*
X194421000Y-143896000D01*
X243000000Y-137000000D02*
X249000000Y-143000000D01*
X266500000Y-118720000D02*
X257480000Y-109700000D01*
X194421000Y-86896000D02*
X190154000Y-86896000D01*
X214500000Y-133500000D02*
X218000000Y-137000000D01*
X197775000Y-133500000D02*
X212500000Y-133500000D01*
X190154000Y-86896000D02*
X188975000Y-88075000D01*
X196275000Y-126750000D02*
X194421000Y-124896000D01*
X188975000Y-107075000D02*
X188000000Y-107075000D01*
X190154000Y-143896000D02*
X188975000Y-145075000D01*
X194421000Y-124896000D02*
X190154000Y-124896000D01*
X218000000Y-137000000D02*
X233500000Y-137000000D01*
X196275000Y-107750000D02*
X196275000Y-88750000D01*
X196275000Y-88750000D02*
X194421000Y-86896000D01*
X188975000Y-126075000D02*
X188000000Y-126075000D01*
X190154000Y-124896000D02*
X188975000Y-126075000D01*
X188975000Y-88075000D02*
X188000000Y-88075000D01*
X194421000Y-143896000D02*
X190154000Y-143896000D01*
X249000000Y-143000000D02*
X252500000Y-143000000D01*
X190154000Y-105896000D02*
X188975000Y-107075000D01*
X196275000Y-135000000D02*
X197775000Y-133500000D01*
X266500000Y-143000000D02*
X266500000Y-118720000D01*
X196275000Y-107750000D02*
X194421000Y-105896000D01*
X235000000Y-137000000D02*
X243000000Y-137000000D01*
%TO.N,c2_r2*%
X186800000Y-126875000D02*
X188000000Y-126875000D01*
X184725000Y-128950000D02*
X186800000Y-126875000D01*
%TO.N,c2_r3*%
X186800000Y-107875000D02*
X188000000Y-107875000D01*
X184725000Y-109950000D02*
X186800000Y-107875000D01*
%TO.N,c2_r4*%
X186800000Y-88875000D02*
X188000000Y-88875000D01*
X184725000Y-90950000D02*
X186800000Y-88875000D01*
%TO.N,c3_r1*%
X205800000Y-141875000D02*
X207000000Y-141875000D01*
X203725000Y-143950000D02*
X205800000Y-141875000D01*
%TO.N,c3*%
X225479460Y-167334665D02*
X224516464Y-167182142D01*
X235000000Y-136000000D02*
X243500000Y-136000000D01*
X209154000Y-120896000D02*
X207975000Y-122075000D01*
X213500000Y-132500000D02*
X213500000Y-127500000D01*
X249500000Y-142000000D02*
X252500000Y-142000000D01*
X272720000Y-109700000D02*
X270500000Y-111920000D01*
X209154000Y-101896000D02*
X207975000Y-103075000D01*
X243500000Y-136000000D02*
X249500000Y-142000000D01*
X215275000Y-143525678D02*
X215275000Y-141750000D01*
X213421000Y-139896000D02*
X209154000Y-139896000D01*
X232583992Y-169143327D02*
X231042847Y-167022123D01*
X231417690Y-167977024D02*
X231417690Y-159668368D01*
X213421000Y-120896000D02*
X209154000Y-120896000D01*
X215275000Y-103750000D02*
X215275000Y-84750000D01*
X215275000Y-141750000D02*
X213500000Y-139975000D01*
X232583992Y-169143326D02*
X231417690Y-167977024D01*
X215275000Y-122750000D02*
X213421000Y-120896000D01*
X215275000Y-141750000D02*
X213421000Y-139896000D01*
X215275000Y-122750000D02*
X215275000Y-103750000D01*
X231042847Y-167022123D02*
X226828381Y-166354617D01*
X213421000Y-101896000D02*
X209154000Y-101896000D01*
X209154000Y-82896000D02*
X207975000Y-84075000D01*
X226828381Y-166354617D02*
X225479460Y-167334665D01*
X213421000Y-82896000D02*
X209154000Y-82896000D01*
X207975000Y-103075000D02*
X207000000Y-103075000D01*
X270500000Y-111920000D02*
X270500000Y-142000000D01*
X215275000Y-84750000D02*
X213421000Y-82896000D01*
X207975000Y-84075000D02*
X207000000Y-84075000D01*
X213500000Y-139975000D02*
X213500000Y-132500000D01*
X209154000Y-139896000D02*
X207975000Y-141075000D01*
X226000000Y-136000000D02*
X233500000Y-136000000D01*
X207975000Y-122075000D02*
X207000000Y-122075000D01*
X231417690Y-159668368D02*
X215275000Y-143525678D01*
X207975000Y-141075000D02*
X207000000Y-141075000D01*
X215275000Y-103750000D02*
X213421000Y-101896000D01*
X213500000Y-124525000D02*
X215275000Y-122750000D01*
%TO.N,c3_r2*%
X205800000Y-122875000D02*
X207000000Y-122875000D01*
X203725000Y-124950000D02*
X205800000Y-122875000D01*
%TO.N,c3_r3*%
X203725000Y-105950000D02*
X205800000Y-103875000D01*
X205800000Y-103875000D02*
X207000000Y-103875000D01*
%TO.N,c3_r4*%
X205800000Y-84875000D02*
X207000000Y-84875000D01*
X203725000Y-86950000D02*
X205800000Y-84875000D01*
%TO.N,c4_r1*%
X224800000Y-145875000D02*
X226000000Y-145875000D01*
X222725000Y-147950000D02*
X224800000Y-145875000D01*
%TO.N,c4*%
X226975000Y-107075000D02*
X226000000Y-107075000D01*
X234275000Y-145750000D02*
X232421000Y-143896000D01*
X232421000Y-124896000D02*
X228154000Y-124896000D01*
X234275000Y-126750000D02*
X232421000Y-124896000D01*
X271500000Y-113460000D02*
X271500000Y-141000000D01*
X228154000Y-143896000D02*
X226975000Y-145075000D01*
X252427774Y-174827594D02*
X251156626Y-172534383D01*
X226975000Y-145075000D02*
X226000000Y-145075000D01*
X234275000Y-148525678D02*
X234275000Y-145750000D01*
X234275000Y-88750000D02*
X232421000Y-86896000D01*
X245596618Y-172166590D02*
X244659388Y-171897844D01*
X228154000Y-86896000D02*
X226975000Y-88075000D01*
X232421000Y-105896000D02*
X228154000Y-105896000D01*
X232421000Y-86896000D02*
X228154000Y-86896000D01*
X232500000Y-105975000D02*
X234275000Y-107750000D01*
X234275000Y-140000000D02*
X242000000Y-140000000D01*
X234275000Y-145750000D02*
X234275000Y-140000000D01*
X251130641Y-165381319D02*
X234275000Y-148525678D01*
X252427773Y-174827594D02*
X251130641Y-173530462D01*
X228154000Y-105896000D02*
X226975000Y-107075000D01*
X234275000Y-88750000D02*
X232500000Y-90525000D01*
X234275000Y-107750000D02*
X232421000Y-105896000D01*
X251156626Y-172534383D02*
X247054922Y-171358239D01*
X232500000Y-90525000D02*
X232500000Y-105975000D01*
X272720000Y-112240000D02*
X271500000Y-113460000D01*
X234275000Y-135000000D02*
X234275000Y-126750000D01*
X232421000Y-143896000D02*
X228154000Y-143896000D01*
X234275000Y-140000000D02*
X234275000Y-135000000D01*
X228154000Y-124896000D02*
X226975000Y-126075000D01*
X226975000Y-88075000D02*
X226000000Y-88075000D01*
X226975000Y-126075000D02*
X226000000Y-126075000D01*
X251130641Y-173530462D02*
X251130641Y-165381319D01*
X247054922Y-171358239D02*
X245596618Y-172166590D01*
X234275000Y-107750000D02*
X234275000Y-126750000D01*
%TO.N,c4_r2*%
X222725000Y-128950000D02*
X224800000Y-126875000D01*
X224800000Y-126875000D02*
X226000000Y-126875000D01*
%TO.N,c4_r3*%
X222725000Y-109950000D02*
X224800000Y-107875000D01*
X224800000Y-107875000D02*
X226000000Y-107875000D01*
%TO.N,c4_r4*%
X222725000Y-90950000D02*
X224800000Y-88875000D01*
X224800000Y-88875000D02*
X226000000Y-88875000D01*
%TO.N,c5_r1*%
X243800000Y-150875000D02*
X245000000Y-150875000D01*
X241725000Y-152950000D02*
X243800000Y-150875000D01*
%TO.N,c5*%
X257480000Y-99540000D02*
X269500000Y-111560000D01*
X253275000Y-112750000D02*
X251421000Y-110896000D01*
X253275000Y-103745000D02*
X253275000Y-112750000D01*
X269312162Y-185554829D02*
X266091816Y-182755425D01*
X272291430Y-169766430D02*
X272291430Y-185374023D01*
X251421000Y-110896000D02*
X247154000Y-110896000D01*
X247154000Y-91896000D02*
X245975000Y-93075000D01*
X245975000Y-131075000D02*
X245000000Y-131075000D01*
X247154000Y-148896000D02*
X245975000Y-150075000D01*
X245975000Y-112075000D02*
X245000000Y-112075000D01*
X253275000Y-131750000D02*
X253275000Y-150750000D01*
X251421000Y-129896000D02*
X247154000Y-129896000D01*
X269500000Y-148000000D02*
X266750000Y-150750000D01*
X247154000Y-110896000D02*
X245975000Y-112075000D01*
X253275000Y-112750000D02*
X253275000Y-131750000D01*
X247154000Y-129896000D02*
X245975000Y-131075000D01*
X251421000Y-148896000D02*
X247154000Y-148896000D01*
X253275000Y-93750000D02*
X253275000Y-103745000D01*
X272291430Y-185374023D02*
X269495059Y-188170394D01*
X245975000Y-93075000D02*
X245000000Y-93075000D01*
X266091816Y-182755425D02*
X264428520Y-182871734D01*
X269495060Y-188170394D02*
X269312162Y-185554829D01*
X253275000Y-150750000D02*
X269262500Y-166737500D01*
X264428520Y-182871734D02*
X263692678Y-182232077D01*
X253275000Y-131750000D02*
X251421000Y-129896000D01*
X253275000Y-150750000D02*
X251421000Y-148896000D01*
X245975000Y-150075000D02*
X245000000Y-150075000D01*
X253275000Y-93750000D02*
X251421000Y-91896000D01*
X269500000Y-111560000D02*
X269500000Y-148000000D01*
X251421000Y-91896000D02*
X247154000Y-91896000D01*
X269262500Y-166737500D02*
X272291430Y-169766430D01*
X266750000Y-150750000D02*
X253275000Y-150750000D01*
%TO.N,c5_r2*%
X241725000Y-133950000D02*
X243800000Y-131875000D01*
X243800000Y-131875000D02*
X245000000Y-131875000D01*
%TO.N,c5_r3*%
X241725000Y-114950000D02*
X243800000Y-112875000D01*
X243800000Y-112875000D02*
X245000000Y-112875000D01*
%TO.N,c5_r4*%
X243800000Y-93875000D02*
X245000000Y-93875000D01*
X241725000Y-95950000D02*
X243800000Y-93875000D01*
%TO.N,c3_r0*%
X223206090Y-167784571D02*
X224391316Y-167972292D01*
X220832036Y-169509423D02*
X223206090Y-167784571D01*
%TO.N,c4_r0*%
X240718799Y-173758759D02*
X243285364Y-172336088D01*
X243285364Y-172336088D02*
X244438878Y-172666853D01*
%TO.N,c5_r0*%
X262262179Y-182048573D02*
X263167830Y-182835844D01*
X259334834Y-182253273D02*
X262262179Y-182048573D01*
D37*
%TO.N,RAW*%
X260325000Y-84300000D02*
X261700000Y-84300000D01*
%TO.N,RST*%
X260325000Y-89380000D02*
X261700000Y-89380000D01*
%TO.N,VCC*%
X260325000Y-91920000D02*
X261700000Y-91920000D01*
%TO.N,P1*%
X269875000Y-84300000D02*
X268500000Y-84300000D01*
%TO.N,P0*%
X269875000Y-86840000D02*
X268500000Y-86840000D01*
%TO.N,MCU1_24*%
X257480000Y-84300000D02*
X259600000Y-84300000D01*
%TO.N,MCU1_1*%
X270600000Y-84300000D02*
X272720000Y-84300000D01*
%TO.N,MCU1_23*%
X257480000Y-86840000D02*
X259600000Y-86840000D01*
%TO.N,MCU1_2*%
X270600000Y-86840000D02*
X272720000Y-86840000D01*
%TO.N,MCU1_22*%
X257480000Y-89380000D02*
X259600000Y-89380000D01*
%TO.N,MCU1_3*%
X270600000Y-89380000D02*
X272720000Y-89380000D01*
%TO.N,MCU1_21*%
X257480000Y-91920000D02*
X259600000Y-91920000D01*
%TO.N,MCU1_4*%
X270600000Y-91920000D02*
X272720000Y-91920000D01*
%TO.N,JST1_1*%
X259860000Y-118500000D02*
X258060000Y-118500000D01*
%TO.N,JST1_2*%
X259860000Y-116500000D02*
X258060000Y-116500000D01*
%TD*%
M02*
