%TF.GenerationSoftware,KiCad,Pcbnew,9.0.6*%
%TF.CreationDate,2026-01-10T00:21:17+01:00*%
%TF.ProjectId,shoedler54,73686f65-646c-4657-9235-342e6b696361,v1.0.0*%
%TF.SameCoordinates,Original*%
%TF.FileFunction,Legend,Bot*%
%TF.FilePolarity,Positive*%
%FSLAX46Y46*%
G04 Gerber Fmt 4.6, Leading zero omitted, Abs format (unit mm)*
G04 Created by KiCad (PCBNEW 9.0.6) date 2026-01-10 00:21:17*
%MOMM*%
%LPD*%
G01*
G04 APERTURE LIST*
%ADD10C,0.150000*%
%ADD11C,0.100000*%
%ADD12C,0.120000*%
G04 APERTURE END LIST*
D10*
X244554819Y-81547619D02*
X244554819Y-81738095D01*
X244554819Y-81738095D02*
X244602438Y-81833333D01*
X244602438Y-81833333D02*
X244697676Y-81928571D01*
X244697676Y-81928571D02*
X244888152Y-81976190D01*
X244888152Y-81976190D02*
X245221485Y-81976190D01*
X245221485Y-81976190D02*
X245411961Y-81928571D01*
X245411961Y-81928571D02*
X245507200Y-81833333D01*
X245507200Y-81833333D02*
X245554819Y-81738095D01*
X245554819Y-81738095D02*
X245554819Y-81547619D01*
X245554819Y-81547619D02*
X245507200Y-81452381D01*
X245507200Y-81452381D02*
X245411961Y-81357143D01*
X245411961Y-81357143D02*
X245221485Y-81309524D01*
X245221485Y-81309524D02*
X244888152Y-81309524D01*
X244888152Y-81309524D02*
X244697676Y-81357143D01*
X244697676Y-81357143D02*
X244602438Y-81452381D01*
X244602438Y-81452381D02*
X244554819Y-81547619D01*
X245031009Y-82738095D02*
X245031009Y-82404762D01*
X245554819Y-82404762D02*
X244554819Y-82404762D01*
X244554819Y-82404762D02*
X244554819Y-82880952D01*
X245031009Y-83595238D02*
X245031009Y-83261905D01*
X245554819Y-83261905D02*
X244554819Y-83261905D01*
X244554819Y-83261905D02*
X244554819Y-83738095D01*
X254554819Y-81880952D02*
X254554819Y-82071428D01*
X254554819Y-82071428D02*
X254602438Y-82166666D01*
X254602438Y-82166666D02*
X254697676Y-82261904D01*
X254697676Y-82261904D02*
X254888152Y-82309523D01*
X254888152Y-82309523D02*
X255221485Y-82309523D01*
X255221485Y-82309523D02*
X255411961Y-82261904D01*
X255411961Y-82261904D02*
X255507200Y-82166666D01*
X255507200Y-82166666D02*
X255554819Y-82071428D01*
X255554819Y-82071428D02*
X255554819Y-81880952D01*
X255554819Y-81880952D02*
X255507200Y-81785714D01*
X255507200Y-81785714D02*
X255411961Y-81690476D01*
X255411961Y-81690476D02*
X255221485Y-81642857D01*
X255221485Y-81642857D02*
X254888152Y-81642857D01*
X254888152Y-81642857D02*
X254697676Y-81690476D01*
X254697676Y-81690476D02*
X254602438Y-81785714D01*
X254602438Y-81785714D02*
X254554819Y-81880952D01*
X255554819Y-82738095D02*
X254554819Y-82738095D01*
X254554819Y-82738095D02*
X255554819Y-83309523D01*
X255554819Y-83309523D02*
X254554819Y-83309523D01*
X269808095Y-105027200D02*
X269903333Y-105074819D01*
X269903333Y-105074819D02*
X270093809Y-105074819D01*
X270093809Y-105074819D02*
X270189047Y-105027200D01*
X270189047Y-105027200D02*
X270236666Y-104979580D01*
X270236666Y-104979580D02*
X270284285Y-104884342D01*
X270284285Y-104884342D02*
X270284285Y-104598628D01*
X270284285Y-104598628D02*
X270236666Y-104503390D01*
X270236666Y-104503390D02*
X270189047Y-104455771D01*
X270189047Y-104455771D02*
X270093809Y-104408152D01*
X270093809Y-104408152D02*
X269903333Y-104408152D01*
X269903333Y-104408152D02*
X269808095Y-104455771D01*
X269189047Y-104074819D02*
X269093809Y-104074819D01*
X269093809Y-104074819D02*
X268998571Y-104122438D01*
X268998571Y-104122438D02*
X268950952Y-104170057D01*
X268950952Y-104170057D02*
X268903333Y-104265295D01*
X268903333Y-104265295D02*
X268855714Y-104455771D01*
X268855714Y-104455771D02*
X268855714Y-104693866D01*
X268855714Y-104693866D02*
X268903333Y-104884342D01*
X268903333Y-104884342D02*
X268950952Y-104979580D01*
X268950952Y-104979580D02*
X268998571Y-105027200D01*
X268998571Y-105027200D02*
X269093809Y-105074819D01*
X269093809Y-105074819D02*
X269189047Y-105074819D01*
X269189047Y-105074819D02*
X269284285Y-105027200D01*
X269284285Y-105027200D02*
X269331904Y-104979580D01*
X269331904Y-104979580D02*
X269379523Y-104884342D01*
X269379523Y-104884342D02*
X269427142Y-104693866D01*
X269427142Y-104693866D02*
X269427142Y-104455771D01*
X269427142Y-104455771D02*
X269379523Y-104265295D01*
X269379523Y-104265295D02*
X269331904Y-104170057D01*
X269331904Y-104170057D02*
X269284285Y-104122438D01*
X269284285Y-104122438D02*
X269189047Y-104074819D01*
X260868095Y-110107200D02*
X260963333Y-110154819D01*
X260963333Y-110154819D02*
X261153809Y-110154819D01*
X261153809Y-110154819D02*
X261249047Y-110107200D01*
X261249047Y-110107200D02*
X261296666Y-110059580D01*
X261296666Y-110059580D02*
X261344285Y-109964342D01*
X261344285Y-109964342D02*
X261344285Y-109678628D01*
X261344285Y-109678628D02*
X261296666Y-109583390D01*
X261296666Y-109583390D02*
X261249047Y-109535771D01*
X261249047Y-109535771D02*
X261153809Y-109488152D01*
X261153809Y-109488152D02*
X260963333Y-109488152D01*
X260963333Y-109488152D02*
X260868095Y-109535771D01*
X260534761Y-109154819D02*
X259915714Y-109154819D01*
X259915714Y-109154819D02*
X260249047Y-109535771D01*
X260249047Y-109535771D02*
X260106190Y-109535771D01*
X260106190Y-109535771D02*
X260010952Y-109583390D01*
X260010952Y-109583390D02*
X259963333Y-109631009D01*
X259963333Y-109631009D02*
X259915714Y-109726247D01*
X259915714Y-109726247D02*
X259915714Y-109964342D01*
X259915714Y-109964342D02*
X259963333Y-110059580D01*
X259963333Y-110059580D02*
X260010952Y-110107200D01*
X260010952Y-110107200D02*
X260106190Y-110154819D01*
X260106190Y-110154819D02*
X260391904Y-110154819D01*
X260391904Y-110154819D02*
X260487142Y-110107200D01*
X260487142Y-110107200D02*
X260534761Y-110059580D01*
X261177618Y-102534819D02*
X261177618Y-101868152D01*
X261177618Y-102058628D02*
X261129999Y-101963390D01*
X261129999Y-101963390D02*
X261082380Y-101915771D01*
X261082380Y-101915771D02*
X260987142Y-101868152D01*
X260987142Y-101868152D02*
X260891904Y-101868152D01*
X260653808Y-101534819D02*
X260034761Y-101534819D01*
X260034761Y-101534819D02*
X260368094Y-101915771D01*
X260368094Y-101915771D02*
X260225237Y-101915771D01*
X260225237Y-101915771D02*
X260129999Y-101963390D01*
X260129999Y-101963390D02*
X260082380Y-102011009D01*
X260082380Y-102011009D02*
X260034761Y-102106247D01*
X260034761Y-102106247D02*
X260034761Y-102344342D01*
X260034761Y-102344342D02*
X260082380Y-102439580D01*
X260082380Y-102439580D02*
X260129999Y-102487200D01*
X260129999Y-102487200D02*
X260225237Y-102534819D01*
X260225237Y-102534819D02*
X260510951Y-102534819D01*
X260510951Y-102534819D02*
X260606189Y-102487200D01*
X260606189Y-102487200D02*
X260653808Y-102439580D01*
X263798094Y-87294819D02*
X263798094Y-86294819D01*
X263798094Y-86294819D02*
X263417142Y-86294819D01*
X263417142Y-86294819D02*
X263321904Y-86342438D01*
X263321904Y-86342438D02*
X263274285Y-86390057D01*
X263274285Y-86390057D02*
X263226666Y-86485295D01*
X263226666Y-86485295D02*
X263226666Y-86628152D01*
X263226666Y-86628152D02*
X263274285Y-86723390D01*
X263274285Y-86723390D02*
X263321904Y-86771009D01*
X263321904Y-86771009D02*
X263417142Y-86818628D01*
X263417142Y-86818628D02*
X263798094Y-86818628D01*
X262607618Y-86294819D02*
X262512380Y-86294819D01*
X262512380Y-86294819D02*
X262417142Y-86342438D01*
X262417142Y-86342438D02*
X262369523Y-86390057D01*
X262369523Y-86390057D02*
X262321904Y-86485295D01*
X262321904Y-86485295D02*
X262274285Y-86675771D01*
X262274285Y-86675771D02*
X262274285Y-86913866D01*
X262274285Y-86913866D02*
X262321904Y-87104342D01*
X262321904Y-87104342D02*
X262369523Y-87199580D01*
X262369523Y-87199580D02*
X262417142Y-87247200D01*
X262417142Y-87247200D02*
X262512380Y-87294819D01*
X262512380Y-87294819D02*
X262607618Y-87294819D01*
X262607618Y-87294819D02*
X262702856Y-87247200D01*
X262702856Y-87247200D02*
X262750475Y-87199580D01*
X262750475Y-87199580D02*
X262798094Y-87104342D01*
X262798094Y-87104342D02*
X262845713Y-86913866D01*
X262845713Y-86913866D02*
X262845713Y-86675771D01*
X262845713Y-86675771D02*
X262798094Y-86485295D01*
X262798094Y-86485295D02*
X262750475Y-86390057D01*
X262750475Y-86390057D02*
X262702856Y-86342438D01*
X262702856Y-86342438D02*
X262607618Y-86294819D01*
X269736666Y-107519580D02*
X269784285Y-107567200D01*
X269784285Y-107567200D02*
X269927142Y-107614819D01*
X269927142Y-107614819D02*
X270022380Y-107614819D01*
X270022380Y-107614819D02*
X270165237Y-107567200D01*
X270165237Y-107567200D02*
X270260475Y-107471961D01*
X270260475Y-107471961D02*
X270308094Y-107376723D01*
X270308094Y-107376723D02*
X270355713Y-107186247D01*
X270355713Y-107186247D02*
X270355713Y-107043390D01*
X270355713Y-107043390D02*
X270308094Y-106852914D01*
X270308094Y-106852914D02*
X270260475Y-106757676D01*
X270260475Y-106757676D02*
X270165237Y-106662438D01*
X270165237Y-106662438D02*
X270022380Y-106614819D01*
X270022380Y-106614819D02*
X269927142Y-106614819D01*
X269927142Y-106614819D02*
X269784285Y-106662438D01*
X269784285Y-106662438D02*
X269736666Y-106710057D01*
X269355713Y-107567200D02*
X269212856Y-107614819D01*
X269212856Y-107614819D02*
X268974761Y-107614819D01*
X268974761Y-107614819D02*
X268879523Y-107567200D01*
X268879523Y-107567200D02*
X268831904Y-107519580D01*
X268831904Y-107519580D02*
X268784285Y-107424342D01*
X268784285Y-107424342D02*
X268784285Y-107329104D01*
X268784285Y-107329104D02*
X268831904Y-107233866D01*
X268831904Y-107233866D02*
X268879523Y-107186247D01*
X268879523Y-107186247D02*
X268974761Y-107138628D01*
X268974761Y-107138628D02*
X269165237Y-107091009D01*
X269165237Y-107091009D02*
X269260475Y-107043390D01*
X269260475Y-107043390D02*
X269308094Y-106995771D01*
X269308094Y-106995771D02*
X269355713Y-106900533D01*
X269355713Y-106900533D02*
X269355713Y-106805295D01*
X269355713Y-106805295D02*
X269308094Y-106710057D01*
X269308094Y-106710057D02*
X269260475Y-106662438D01*
X269260475Y-106662438D02*
X269165237Y-106614819D01*
X269165237Y-106614819D02*
X268927142Y-106614819D01*
X268927142Y-106614819D02*
X268784285Y-106662438D01*
X267097619Y-89834819D02*
X267430952Y-89358628D01*
X267669047Y-89834819D02*
X267669047Y-88834819D01*
X267669047Y-88834819D02*
X267288095Y-88834819D01*
X267288095Y-88834819D02*
X267192857Y-88882438D01*
X267192857Y-88882438D02*
X267145238Y-88930057D01*
X267145238Y-88930057D02*
X267097619Y-89025295D01*
X267097619Y-89025295D02*
X267097619Y-89168152D01*
X267097619Y-89168152D02*
X267145238Y-89263390D01*
X267145238Y-89263390D02*
X267192857Y-89311009D01*
X267192857Y-89311009D02*
X267288095Y-89358628D01*
X267288095Y-89358628D02*
X267669047Y-89358628D01*
X266716666Y-89787200D02*
X266573809Y-89834819D01*
X266573809Y-89834819D02*
X266335714Y-89834819D01*
X266335714Y-89834819D02*
X266240476Y-89787200D01*
X266240476Y-89787200D02*
X266192857Y-89739580D01*
X266192857Y-89739580D02*
X266145238Y-89644342D01*
X266145238Y-89644342D02*
X266145238Y-89549104D01*
X266145238Y-89549104D02*
X266192857Y-89453866D01*
X266192857Y-89453866D02*
X266240476Y-89406247D01*
X266240476Y-89406247D02*
X266335714Y-89358628D01*
X266335714Y-89358628D02*
X266526190Y-89311009D01*
X266526190Y-89311009D02*
X266621428Y-89263390D01*
X266621428Y-89263390D02*
X266669047Y-89215771D01*
X266669047Y-89215771D02*
X266716666Y-89120533D01*
X266716666Y-89120533D02*
X266716666Y-89025295D01*
X266716666Y-89025295D02*
X266669047Y-88930057D01*
X266669047Y-88930057D02*
X266621428Y-88882438D01*
X266621428Y-88882438D02*
X266526190Y-88834819D01*
X266526190Y-88834819D02*
X266288095Y-88834819D01*
X266288095Y-88834819D02*
X266145238Y-88882438D01*
X265859523Y-88834819D02*
X265288095Y-88834819D01*
X265573809Y-89834819D02*
X265573809Y-88834819D01*
X269808095Y-110107200D02*
X269903333Y-110154819D01*
X269903333Y-110154819D02*
X270093809Y-110154819D01*
X270093809Y-110154819D02*
X270189047Y-110107200D01*
X270189047Y-110107200D02*
X270236666Y-110059580D01*
X270236666Y-110059580D02*
X270284285Y-109964342D01*
X270284285Y-109964342D02*
X270284285Y-109678628D01*
X270284285Y-109678628D02*
X270236666Y-109583390D01*
X270236666Y-109583390D02*
X270189047Y-109535771D01*
X270189047Y-109535771D02*
X270093809Y-109488152D01*
X270093809Y-109488152D02*
X269903333Y-109488152D01*
X269903333Y-109488152D02*
X269808095Y-109535771D01*
X269427142Y-109250057D02*
X269379523Y-109202438D01*
X269379523Y-109202438D02*
X269284285Y-109154819D01*
X269284285Y-109154819D02*
X269046190Y-109154819D01*
X269046190Y-109154819D02*
X268950952Y-109202438D01*
X268950952Y-109202438D02*
X268903333Y-109250057D01*
X268903333Y-109250057D02*
X268855714Y-109345295D01*
X268855714Y-109345295D02*
X268855714Y-109440533D01*
X268855714Y-109440533D02*
X268903333Y-109583390D01*
X268903333Y-109583390D02*
X269474761Y-110154819D01*
X269474761Y-110154819D02*
X268855714Y-110154819D01*
X263798094Y-84754819D02*
X263798094Y-83754819D01*
X263798094Y-83754819D02*
X263417142Y-83754819D01*
X263417142Y-83754819D02*
X263321904Y-83802438D01*
X263321904Y-83802438D02*
X263274285Y-83850057D01*
X263274285Y-83850057D02*
X263226666Y-83945295D01*
X263226666Y-83945295D02*
X263226666Y-84088152D01*
X263226666Y-84088152D02*
X263274285Y-84183390D01*
X263274285Y-84183390D02*
X263321904Y-84231009D01*
X263321904Y-84231009D02*
X263417142Y-84278628D01*
X263417142Y-84278628D02*
X263798094Y-84278628D01*
X262274285Y-84754819D02*
X262845713Y-84754819D01*
X262559999Y-84754819D02*
X262559999Y-83754819D01*
X262559999Y-83754819D02*
X262655237Y-83897676D01*
X262655237Y-83897676D02*
X262750475Y-83992914D01*
X262750475Y-83992914D02*
X262845713Y-84040533D01*
X261177618Y-97454819D02*
X261177618Y-96788152D01*
X261177618Y-96978628D02*
X261129999Y-96883390D01*
X261129999Y-96883390D02*
X261082380Y-96835771D01*
X261082380Y-96835771D02*
X260987142Y-96788152D01*
X260987142Y-96788152D02*
X260891904Y-96788152D01*
X260034761Y-97454819D02*
X260606189Y-97454819D01*
X260320475Y-97454819D02*
X260320475Y-96454819D01*
X260320475Y-96454819D02*
X260415713Y-96597676D01*
X260415713Y-96597676D02*
X260510951Y-96692914D01*
X260510951Y-96692914D02*
X260606189Y-96740533D01*
X273242858Y-82209819D02*
X273719048Y-82209819D01*
X273719048Y-82209819D02*
X273719048Y-81209819D01*
X272147619Y-82209819D02*
X272147619Y-81209819D01*
X271719048Y-82209819D02*
X271719048Y-81686009D01*
X271719048Y-81686009D02*
X271766667Y-81590771D01*
X271766667Y-81590771D02*
X271861905Y-81543152D01*
X271861905Y-81543152D02*
X272004762Y-81543152D01*
X272004762Y-81543152D02*
X272100000Y-81590771D01*
X272100000Y-81590771D02*
X272147619Y-81638390D01*
X270814286Y-82209819D02*
X270814286Y-81686009D01*
X270814286Y-81686009D02*
X270861905Y-81590771D01*
X270861905Y-81590771D02*
X270957143Y-81543152D01*
X270957143Y-81543152D02*
X271147619Y-81543152D01*
X271147619Y-81543152D02*
X271242857Y-81590771D01*
X270814286Y-82162200D02*
X270909524Y-82209819D01*
X270909524Y-82209819D02*
X271147619Y-82209819D01*
X271147619Y-82209819D02*
X271242857Y-82162200D01*
X271242857Y-82162200D02*
X271290476Y-82066961D01*
X271290476Y-82066961D02*
X271290476Y-81971723D01*
X271290476Y-81971723D02*
X271242857Y-81876485D01*
X271242857Y-81876485D02*
X271147619Y-81828866D01*
X271147619Y-81828866D02*
X270909524Y-81828866D01*
X270909524Y-81828866D02*
X270814286Y-81781247D01*
X270338095Y-81543152D02*
X270338095Y-82209819D01*
X270338095Y-81638390D02*
X270290476Y-81590771D01*
X270290476Y-81590771D02*
X270195238Y-81543152D01*
X270195238Y-81543152D02*
X270052381Y-81543152D01*
X270052381Y-81543152D02*
X269957143Y-81590771D01*
X269957143Y-81590771D02*
X269909524Y-81686009D01*
X269909524Y-81686009D02*
X269909524Y-82209819D01*
X269004762Y-82209819D02*
X269004762Y-81209819D01*
X269004762Y-82162200D02*
X269100000Y-82209819D01*
X269100000Y-82209819D02*
X269290476Y-82209819D01*
X269290476Y-82209819D02*
X269385714Y-82162200D01*
X269385714Y-82162200D02*
X269433333Y-82114580D01*
X269433333Y-82114580D02*
X269480952Y-82019342D01*
X269480952Y-82019342D02*
X269480952Y-81733628D01*
X269480952Y-81733628D02*
X269433333Y-81638390D01*
X269433333Y-81638390D02*
X269385714Y-81590771D01*
X269385714Y-81590771D02*
X269290476Y-81543152D01*
X269290476Y-81543152D02*
X269100000Y-81543152D01*
X269100000Y-81543152D02*
X269004762Y-81590771D01*
X267766666Y-82209819D02*
X267766666Y-81209819D01*
X267766666Y-81590771D02*
X267671428Y-81543152D01*
X267671428Y-81543152D02*
X267480952Y-81543152D01*
X267480952Y-81543152D02*
X267385714Y-81590771D01*
X267385714Y-81590771D02*
X267338095Y-81638390D01*
X267338095Y-81638390D02*
X267290476Y-81733628D01*
X267290476Y-81733628D02*
X267290476Y-82019342D01*
X267290476Y-82019342D02*
X267338095Y-82114580D01*
X267338095Y-82114580D02*
X267385714Y-82162200D01*
X267385714Y-82162200D02*
X267480952Y-82209819D01*
X267480952Y-82209819D02*
X267671428Y-82209819D01*
X267671428Y-82209819D02*
X267766666Y-82162200D01*
X266433333Y-82209819D02*
X266433333Y-81686009D01*
X266433333Y-81686009D02*
X266480952Y-81590771D01*
X266480952Y-81590771D02*
X266576190Y-81543152D01*
X266576190Y-81543152D02*
X266766666Y-81543152D01*
X266766666Y-81543152D02*
X266861904Y-81590771D01*
X266433333Y-82162200D02*
X266528571Y-82209819D01*
X266528571Y-82209819D02*
X266766666Y-82209819D01*
X266766666Y-82209819D02*
X266861904Y-82162200D01*
X266861904Y-82162200D02*
X266909523Y-82066961D01*
X266909523Y-82066961D02*
X266909523Y-81971723D01*
X266909523Y-81971723D02*
X266861904Y-81876485D01*
X266861904Y-81876485D02*
X266766666Y-81828866D01*
X266766666Y-81828866D02*
X266528571Y-81828866D01*
X266528571Y-81828866D02*
X266433333Y-81781247D01*
X265528571Y-82162200D02*
X265623809Y-82209819D01*
X265623809Y-82209819D02*
X265814285Y-82209819D01*
X265814285Y-82209819D02*
X265909523Y-82162200D01*
X265909523Y-82162200D02*
X265957142Y-82114580D01*
X265957142Y-82114580D02*
X266004761Y-82019342D01*
X266004761Y-82019342D02*
X266004761Y-81733628D01*
X266004761Y-81733628D02*
X265957142Y-81638390D01*
X265957142Y-81638390D02*
X265909523Y-81590771D01*
X265909523Y-81590771D02*
X265814285Y-81543152D01*
X265814285Y-81543152D02*
X265623809Y-81543152D01*
X265623809Y-81543152D02*
X265528571Y-81590771D01*
X265099999Y-82209819D02*
X265099999Y-81209819D01*
X265004761Y-81828866D02*
X264719047Y-82209819D01*
X264719047Y-81543152D02*
X265099999Y-81924104D01*
X263576189Y-82162200D02*
X263480951Y-82209819D01*
X263480951Y-82209819D02*
X263290475Y-82209819D01*
X263290475Y-82209819D02*
X263195237Y-82162200D01*
X263195237Y-82162200D02*
X263147618Y-82066961D01*
X263147618Y-82066961D02*
X263147618Y-82019342D01*
X263147618Y-82019342D02*
X263195237Y-81924104D01*
X263195237Y-81924104D02*
X263290475Y-81876485D01*
X263290475Y-81876485D02*
X263433332Y-81876485D01*
X263433332Y-81876485D02*
X263528570Y-81828866D01*
X263528570Y-81828866D02*
X263576189Y-81733628D01*
X263576189Y-81733628D02*
X263576189Y-81686009D01*
X263576189Y-81686009D02*
X263528570Y-81590771D01*
X263528570Y-81590771D02*
X263433332Y-81543152D01*
X263433332Y-81543152D02*
X263290475Y-81543152D01*
X263290475Y-81543152D02*
X263195237Y-81590771D01*
X262719046Y-82209819D02*
X262719046Y-81543152D01*
X262719046Y-81209819D02*
X262766665Y-81257438D01*
X262766665Y-81257438D02*
X262719046Y-81305057D01*
X262719046Y-81305057D02*
X262671427Y-81257438D01*
X262671427Y-81257438D02*
X262719046Y-81209819D01*
X262719046Y-81209819D02*
X262719046Y-81305057D01*
X261814285Y-82209819D02*
X261814285Y-81209819D01*
X261814285Y-82162200D02*
X261909523Y-82209819D01*
X261909523Y-82209819D02*
X262099999Y-82209819D01*
X262099999Y-82209819D02*
X262195237Y-82162200D01*
X262195237Y-82162200D02*
X262242856Y-82114580D01*
X262242856Y-82114580D02*
X262290475Y-82019342D01*
X262290475Y-82019342D02*
X262290475Y-81733628D01*
X262290475Y-81733628D02*
X262242856Y-81638390D01*
X262242856Y-81638390D02*
X262195237Y-81590771D01*
X262195237Y-81590771D02*
X262099999Y-81543152D01*
X262099999Y-81543152D02*
X261909523Y-81543152D01*
X261909523Y-81543152D02*
X261814285Y-81590771D01*
X260957142Y-82162200D02*
X261052380Y-82209819D01*
X261052380Y-82209819D02*
X261242856Y-82209819D01*
X261242856Y-82209819D02*
X261338094Y-82162200D01*
X261338094Y-82162200D02*
X261385713Y-82066961D01*
X261385713Y-82066961D02*
X261385713Y-81686009D01*
X261385713Y-81686009D02*
X261338094Y-81590771D01*
X261338094Y-81590771D02*
X261242856Y-81543152D01*
X261242856Y-81543152D02*
X261052380Y-81543152D01*
X261052380Y-81543152D02*
X260957142Y-81590771D01*
X260957142Y-81590771D02*
X260909523Y-81686009D01*
X260909523Y-81686009D02*
X260909523Y-81781247D01*
X260909523Y-81781247D02*
X261385713Y-81876485D01*
X259433332Y-82590771D02*
X259480951Y-82543152D01*
X259480951Y-82543152D02*
X259576189Y-82400295D01*
X259576189Y-82400295D02*
X259623808Y-82305057D01*
X259623808Y-82305057D02*
X259671427Y-82162200D01*
X259671427Y-82162200D02*
X259719046Y-81924104D01*
X259719046Y-81924104D02*
X259719046Y-81733628D01*
X259719046Y-81733628D02*
X259671427Y-81495533D01*
X259671427Y-81495533D02*
X259623808Y-81352676D01*
X259623808Y-81352676D02*
X259576189Y-81257438D01*
X259576189Y-81257438D02*
X259480951Y-81114580D01*
X259480951Y-81114580D02*
X259433332Y-81066961D01*
X259052379Y-82209819D02*
X259052379Y-81209819D01*
X259052379Y-81209819D02*
X258719046Y-81924104D01*
X258719046Y-81924104D02*
X258385713Y-81209819D01*
X258385713Y-81209819D02*
X258385713Y-82209819D01*
X257528570Y-82209819D02*
X257528570Y-81447914D01*
X257719046Y-81638390D02*
X257528570Y-81447914D01*
X257528570Y-81447914D02*
X257338094Y-81638390D01*
X256766665Y-82590771D02*
X256719046Y-82543152D01*
X256719046Y-82543152D02*
X256623808Y-82400295D01*
X256623808Y-82400295D02*
X256576189Y-82305057D01*
X256576189Y-82305057D02*
X256528570Y-82162200D01*
X256528570Y-82162200D02*
X256480951Y-81924104D01*
X256480951Y-81924104D02*
X256480951Y-81733628D01*
X256480951Y-81733628D02*
X256528570Y-81495533D01*
X256528570Y-81495533D02*
X256576189Y-81352676D01*
X256576189Y-81352676D02*
X256623808Y-81257438D01*
X256623808Y-81257438D02*
X256719046Y-81114580D01*
X256719046Y-81114580D02*
X256766665Y-81066961D01*
X267240476Y-84754819D02*
X267573809Y-84278628D01*
X267811904Y-84754819D02*
X267811904Y-83754819D01*
X267811904Y-83754819D02*
X267430952Y-83754819D01*
X267430952Y-83754819D02*
X267335714Y-83802438D01*
X267335714Y-83802438D02*
X267288095Y-83850057D01*
X267288095Y-83850057D02*
X267240476Y-83945295D01*
X267240476Y-83945295D02*
X267240476Y-84088152D01*
X267240476Y-84088152D02*
X267288095Y-84183390D01*
X267288095Y-84183390D02*
X267335714Y-84231009D01*
X267335714Y-84231009D02*
X267430952Y-84278628D01*
X267430952Y-84278628D02*
X267811904Y-84278628D01*
X266859523Y-84469104D02*
X266383333Y-84469104D01*
X266954761Y-84754819D02*
X266621428Y-83754819D01*
X266621428Y-83754819D02*
X266288095Y-84754819D01*
X266049999Y-83754819D02*
X265811904Y-84754819D01*
X265811904Y-84754819D02*
X265621428Y-84040533D01*
X265621428Y-84040533D02*
X265430952Y-84754819D01*
X265430952Y-84754819D02*
X265192857Y-83754819D01*
X267311904Y-86342438D02*
X267407142Y-86294819D01*
X267407142Y-86294819D02*
X267549999Y-86294819D01*
X267549999Y-86294819D02*
X267692856Y-86342438D01*
X267692856Y-86342438D02*
X267788094Y-86437676D01*
X267788094Y-86437676D02*
X267835713Y-86532914D01*
X267835713Y-86532914D02*
X267883332Y-86723390D01*
X267883332Y-86723390D02*
X267883332Y-86866247D01*
X267883332Y-86866247D02*
X267835713Y-87056723D01*
X267835713Y-87056723D02*
X267788094Y-87151961D01*
X267788094Y-87151961D02*
X267692856Y-87247200D01*
X267692856Y-87247200D02*
X267549999Y-87294819D01*
X267549999Y-87294819D02*
X267454761Y-87294819D01*
X267454761Y-87294819D02*
X267311904Y-87247200D01*
X267311904Y-87247200D02*
X267264285Y-87199580D01*
X267264285Y-87199580D02*
X267264285Y-86866247D01*
X267264285Y-86866247D02*
X267454761Y-86866247D01*
X266835713Y-87294819D02*
X266835713Y-86294819D01*
X266835713Y-86294819D02*
X266264285Y-87294819D01*
X266264285Y-87294819D02*
X266264285Y-86294819D01*
X265788094Y-87294819D02*
X265788094Y-86294819D01*
X265788094Y-86294819D02*
X265549999Y-86294819D01*
X265549999Y-86294819D02*
X265407142Y-86342438D01*
X265407142Y-86342438D02*
X265311904Y-86437676D01*
X265311904Y-86437676D02*
X265264285Y-86532914D01*
X265264285Y-86532914D02*
X265216666Y-86723390D01*
X265216666Y-86723390D02*
X265216666Y-86866247D01*
X265216666Y-86866247D02*
X265264285Y-87056723D01*
X265264285Y-87056723D02*
X265311904Y-87151961D01*
X265311904Y-87151961D02*
X265407142Y-87247200D01*
X265407142Y-87247200D02*
X265549999Y-87294819D01*
X265549999Y-87294819D02*
X265788094Y-87294819D01*
X261320475Y-105074819D02*
X261320475Y-104074819D01*
X261320475Y-104074819D02*
X261082380Y-104074819D01*
X261082380Y-104074819D02*
X260939523Y-104122438D01*
X260939523Y-104122438D02*
X260844285Y-104217676D01*
X260844285Y-104217676D02*
X260796666Y-104312914D01*
X260796666Y-104312914D02*
X260749047Y-104503390D01*
X260749047Y-104503390D02*
X260749047Y-104646247D01*
X260749047Y-104646247D02*
X260796666Y-104836723D01*
X260796666Y-104836723D02*
X260844285Y-104931961D01*
X260844285Y-104931961D02*
X260939523Y-105027200D01*
X260939523Y-105027200D02*
X261082380Y-105074819D01*
X261082380Y-105074819D02*
X261320475Y-105074819D01*
X260368094Y-104789104D02*
X259891904Y-104789104D01*
X260463332Y-105074819D02*
X260129999Y-104074819D01*
X260129999Y-104074819D02*
X259796666Y-105074819D01*
X261177618Y-94914819D02*
X261177618Y-94248152D01*
X261177618Y-94438628D02*
X261129999Y-94343390D01*
X261129999Y-94343390D02*
X261082380Y-94295771D01*
X261082380Y-94295771D02*
X260987142Y-94248152D01*
X260987142Y-94248152D02*
X260891904Y-94248152D01*
X260129999Y-94248152D02*
X260129999Y-94914819D01*
X260368094Y-93867200D02*
X260606189Y-94581485D01*
X260606189Y-94581485D02*
X259987142Y-94581485D01*
X260725238Y-107519580D02*
X260772857Y-107567200D01*
X260772857Y-107567200D02*
X260915714Y-107614819D01*
X260915714Y-107614819D02*
X261010952Y-107614819D01*
X261010952Y-107614819D02*
X261153809Y-107567200D01*
X261153809Y-107567200D02*
X261249047Y-107471961D01*
X261249047Y-107471961D02*
X261296666Y-107376723D01*
X261296666Y-107376723D02*
X261344285Y-107186247D01*
X261344285Y-107186247D02*
X261344285Y-107043390D01*
X261344285Y-107043390D02*
X261296666Y-106852914D01*
X261296666Y-106852914D02*
X261249047Y-106757676D01*
X261249047Y-106757676D02*
X261153809Y-106662438D01*
X261153809Y-106662438D02*
X261010952Y-106614819D01*
X261010952Y-106614819D02*
X260915714Y-106614819D01*
X260915714Y-106614819D02*
X260772857Y-106662438D01*
X260772857Y-106662438D02*
X260725238Y-106710057D01*
X259820476Y-107614819D02*
X260296666Y-107614819D01*
X260296666Y-107614819D02*
X260296666Y-106614819D01*
X260868095Y-112647200D02*
X260963333Y-112694819D01*
X260963333Y-112694819D02*
X261153809Y-112694819D01*
X261153809Y-112694819D02*
X261249047Y-112647200D01*
X261249047Y-112647200D02*
X261296666Y-112599580D01*
X261296666Y-112599580D02*
X261344285Y-112504342D01*
X261344285Y-112504342D02*
X261344285Y-112218628D01*
X261344285Y-112218628D02*
X261296666Y-112123390D01*
X261296666Y-112123390D02*
X261249047Y-112075771D01*
X261249047Y-112075771D02*
X261153809Y-112028152D01*
X261153809Y-112028152D02*
X260963333Y-112028152D01*
X260963333Y-112028152D02*
X260868095Y-112075771D01*
X260010952Y-112028152D02*
X260010952Y-112694819D01*
X260249047Y-111647200D02*
X260487142Y-112361485D01*
X260487142Y-112361485D02*
X259868095Y-112361485D01*
X269808095Y-99947200D02*
X269903333Y-99994819D01*
X269903333Y-99994819D02*
X270093809Y-99994819D01*
X270093809Y-99994819D02*
X270189047Y-99947200D01*
X270189047Y-99947200D02*
X270236666Y-99899580D01*
X270236666Y-99899580D02*
X270284285Y-99804342D01*
X270284285Y-99804342D02*
X270284285Y-99518628D01*
X270284285Y-99518628D02*
X270236666Y-99423390D01*
X270236666Y-99423390D02*
X270189047Y-99375771D01*
X270189047Y-99375771D02*
X270093809Y-99328152D01*
X270093809Y-99328152D02*
X269903333Y-99328152D01*
X269903333Y-99328152D02*
X269808095Y-99375771D01*
X268903333Y-98994819D02*
X269379523Y-98994819D01*
X269379523Y-98994819D02*
X269427142Y-99471009D01*
X269427142Y-99471009D02*
X269379523Y-99423390D01*
X269379523Y-99423390D02*
X269284285Y-99375771D01*
X269284285Y-99375771D02*
X269046190Y-99375771D01*
X269046190Y-99375771D02*
X268950952Y-99423390D01*
X268950952Y-99423390D02*
X268903333Y-99471009D01*
X268903333Y-99471009D02*
X268855714Y-99566247D01*
X268855714Y-99566247D02*
X268855714Y-99804342D01*
X268855714Y-99804342D02*
X268903333Y-99899580D01*
X268903333Y-99899580D02*
X268950952Y-99947200D01*
X268950952Y-99947200D02*
X269046190Y-99994819D01*
X269046190Y-99994819D02*
X269284285Y-99994819D01*
X269284285Y-99994819D02*
X269379523Y-99947200D01*
X269379523Y-99947200D02*
X269427142Y-99899580D01*
X264411904Y-91422438D02*
X264507142Y-91374819D01*
X264507142Y-91374819D02*
X264649999Y-91374819D01*
X264649999Y-91374819D02*
X264792856Y-91422438D01*
X264792856Y-91422438D02*
X264888094Y-91517676D01*
X264888094Y-91517676D02*
X264935713Y-91612914D01*
X264935713Y-91612914D02*
X264983332Y-91803390D01*
X264983332Y-91803390D02*
X264983332Y-91946247D01*
X264983332Y-91946247D02*
X264935713Y-92136723D01*
X264935713Y-92136723D02*
X264888094Y-92231961D01*
X264888094Y-92231961D02*
X264792856Y-92327200D01*
X264792856Y-92327200D02*
X264649999Y-92374819D01*
X264649999Y-92374819D02*
X264554761Y-92374819D01*
X264554761Y-92374819D02*
X264411904Y-92327200D01*
X264411904Y-92327200D02*
X264364285Y-92279580D01*
X264364285Y-92279580D02*
X264364285Y-91946247D01*
X264364285Y-91946247D02*
X264554761Y-91946247D01*
X263935713Y-92374819D02*
X263935713Y-91374819D01*
X263935713Y-91374819D02*
X263364285Y-92374819D01*
X263364285Y-92374819D02*
X263364285Y-91374819D01*
X262888094Y-92374819D02*
X262888094Y-91374819D01*
X262888094Y-91374819D02*
X262649999Y-91374819D01*
X262649999Y-91374819D02*
X262507142Y-91422438D01*
X262507142Y-91422438D02*
X262411904Y-91517676D01*
X262411904Y-91517676D02*
X262364285Y-91612914D01*
X262364285Y-91612914D02*
X262316666Y-91803390D01*
X262316666Y-91803390D02*
X262316666Y-91946247D01*
X262316666Y-91946247D02*
X262364285Y-92136723D01*
X262364285Y-92136723D02*
X262411904Y-92231961D01*
X262411904Y-92231961D02*
X262507142Y-92327200D01*
X262507142Y-92327200D02*
X262649999Y-92374819D01*
X262649999Y-92374819D02*
X262888094Y-92374819D01*
X270117618Y-112694819D02*
X270117618Y-112028152D01*
X270117618Y-112218628D02*
X270069999Y-112123390D01*
X270069999Y-112123390D02*
X270022380Y-112075771D01*
X270022380Y-112075771D02*
X269927142Y-112028152D01*
X269927142Y-112028152D02*
X269831904Y-112028152D01*
X269308094Y-111694819D02*
X269212856Y-111694819D01*
X269212856Y-111694819D02*
X269117618Y-111742438D01*
X269117618Y-111742438D02*
X269069999Y-111790057D01*
X269069999Y-111790057D02*
X269022380Y-111885295D01*
X269022380Y-111885295D02*
X268974761Y-112075771D01*
X268974761Y-112075771D02*
X268974761Y-112313866D01*
X268974761Y-112313866D02*
X269022380Y-112504342D01*
X269022380Y-112504342D02*
X269069999Y-112599580D01*
X269069999Y-112599580D02*
X269117618Y-112647200D01*
X269117618Y-112647200D02*
X269212856Y-112694819D01*
X269212856Y-112694819D02*
X269308094Y-112694819D01*
X269308094Y-112694819D02*
X269403332Y-112647200D01*
X269403332Y-112647200D02*
X269450951Y-112599580D01*
X269450951Y-112599580D02*
X269498570Y-112504342D01*
X269498570Y-112504342D02*
X269546189Y-112313866D01*
X269546189Y-112313866D02*
X269546189Y-112075771D01*
X269546189Y-112075771D02*
X269498570Y-111885295D01*
X269498570Y-111885295D02*
X269450951Y-111790057D01*
X269450951Y-111790057D02*
X269403332Y-111742438D01*
X269403332Y-111742438D02*
X269308094Y-111694819D01*
X269808095Y-102487200D02*
X269903333Y-102534819D01*
X269903333Y-102534819D02*
X270093809Y-102534819D01*
X270093809Y-102534819D02*
X270189047Y-102487200D01*
X270189047Y-102487200D02*
X270236666Y-102439580D01*
X270236666Y-102439580D02*
X270284285Y-102344342D01*
X270284285Y-102344342D02*
X270284285Y-102058628D01*
X270284285Y-102058628D02*
X270236666Y-101963390D01*
X270236666Y-101963390D02*
X270189047Y-101915771D01*
X270189047Y-101915771D02*
X270093809Y-101868152D01*
X270093809Y-101868152D02*
X269903333Y-101868152D01*
X269903333Y-101868152D02*
X269808095Y-101915771D01*
X268855714Y-102534819D02*
X269427142Y-102534819D01*
X269141428Y-102534819D02*
X269141428Y-101534819D01*
X269141428Y-101534819D02*
X269236666Y-101677676D01*
X269236666Y-101677676D02*
X269331904Y-101772914D01*
X269331904Y-101772914D02*
X269427142Y-101820533D01*
X261177618Y-99994819D02*
X261177618Y-99328152D01*
X261177618Y-99518628D02*
X261129999Y-99423390D01*
X261129999Y-99423390D02*
X261082380Y-99375771D01*
X261082380Y-99375771D02*
X260987142Y-99328152D01*
X260987142Y-99328152D02*
X260891904Y-99328152D01*
X260606189Y-99090057D02*
X260558570Y-99042438D01*
X260558570Y-99042438D02*
X260463332Y-98994819D01*
X260463332Y-98994819D02*
X260225237Y-98994819D01*
X260225237Y-98994819D02*
X260129999Y-99042438D01*
X260129999Y-99042438D02*
X260082380Y-99090057D01*
X260082380Y-99090057D02*
X260034761Y-99185295D01*
X260034761Y-99185295D02*
X260034761Y-99280533D01*
X260034761Y-99280533D02*
X260082380Y-99423390D01*
X260082380Y-99423390D02*
X260653808Y-99994819D01*
X260653808Y-99994819D02*
X260034761Y-99994819D01*
X267883332Y-91374819D02*
X267549999Y-92374819D01*
X267549999Y-92374819D02*
X267216666Y-91374819D01*
X266311904Y-92279580D02*
X266359523Y-92327200D01*
X266359523Y-92327200D02*
X266502380Y-92374819D01*
X266502380Y-92374819D02*
X266597618Y-92374819D01*
X266597618Y-92374819D02*
X266740475Y-92327200D01*
X266740475Y-92327200D02*
X266835713Y-92231961D01*
X266835713Y-92231961D02*
X266883332Y-92136723D01*
X266883332Y-92136723D02*
X266930951Y-91946247D01*
X266930951Y-91946247D02*
X266930951Y-91803390D01*
X266930951Y-91803390D02*
X266883332Y-91612914D01*
X266883332Y-91612914D02*
X266835713Y-91517676D01*
X266835713Y-91517676D02*
X266740475Y-91422438D01*
X266740475Y-91422438D02*
X266597618Y-91374819D01*
X266597618Y-91374819D02*
X266502380Y-91374819D01*
X266502380Y-91374819D02*
X266359523Y-91422438D01*
X266359523Y-91422438D02*
X266311904Y-91470057D01*
X265311904Y-92279580D02*
X265359523Y-92327200D01*
X265359523Y-92327200D02*
X265502380Y-92374819D01*
X265502380Y-92374819D02*
X265597618Y-92374819D01*
X265597618Y-92374819D02*
X265740475Y-92327200D01*
X265740475Y-92327200D02*
X265835713Y-92231961D01*
X265835713Y-92231961D02*
X265883332Y-92136723D01*
X265883332Y-92136723D02*
X265930951Y-91946247D01*
X265930951Y-91946247D02*
X265930951Y-91803390D01*
X265930951Y-91803390D02*
X265883332Y-91612914D01*
X265883332Y-91612914D02*
X265835713Y-91517676D01*
X265835713Y-91517676D02*
X265740475Y-91422438D01*
X265740475Y-91422438D02*
X265597618Y-91374819D01*
X265597618Y-91374819D02*
X265502380Y-91374819D01*
X265502380Y-91374819D02*
X265359523Y-91422438D01*
X265359523Y-91422438D02*
X265311904Y-91470057D01*
X264411904Y-88882438D02*
X264507142Y-88834819D01*
X264507142Y-88834819D02*
X264649999Y-88834819D01*
X264649999Y-88834819D02*
X264792856Y-88882438D01*
X264792856Y-88882438D02*
X264888094Y-88977676D01*
X264888094Y-88977676D02*
X264935713Y-89072914D01*
X264935713Y-89072914D02*
X264983332Y-89263390D01*
X264983332Y-89263390D02*
X264983332Y-89406247D01*
X264983332Y-89406247D02*
X264935713Y-89596723D01*
X264935713Y-89596723D02*
X264888094Y-89691961D01*
X264888094Y-89691961D02*
X264792856Y-89787200D01*
X264792856Y-89787200D02*
X264649999Y-89834819D01*
X264649999Y-89834819D02*
X264554761Y-89834819D01*
X264554761Y-89834819D02*
X264411904Y-89787200D01*
X264411904Y-89787200D02*
X264364285Y-89739580D01*
X264364285Y-89739580D02*
X264364285Y-89406247D01*
X264364285Y-89406247D02*
X264554761Y-89406247D01*
X263935713Y-89834819D02*
X263935713Y-88834819D01*
X263935713Y-88834819D02*
X263364285Y-89834819D01*
X263364285Y-89834819D02*
X263364285Y-88834819D01*
X262888094Y-89834819D02*
X262888094Y-88834819D01*
X262888094Y-88834819D02*
X262649999Y-88834819D01*
X262649999Y-88834819D02*
X262507142Y-88882438D01*
X262507142Y-88882438D02*
X262411904Y-88977676D01*
X262411904Y-88977676D02*
X262364285Y-89072914D01*
X262364285Y-89072914D02*
X262316666Y-89263390D01*
X262316666Y-89263390D02*
X262316666Y-89406247D01*
X262316666Y-89406247D02*
X262364285Y-89596723D01*
X262364285Y-89596723D02*
X262411904Y-89691961D01*
X262411904Y-89691961D02*
X262507142Y-89787200D01*
X262507142Y-89787200D02*
X262649999Y-89834819D01*
X262649999Y-89834819D02*
X262888094Y-89834819D01*
D11*
%TO.C,D26*%
X250635595Y-170828692D02*
X250856105Y-170059683D01*
X250745851Y-170444188D02*
X250265219Y-170306369D01*
X250856105Y-170059683D02*
X251322607Y-170609570D01*
X251322607Y-170609570D02*
X250635595Y-170828692D01*
X251322607Y-170609570D02*
X251171006Y-171138264D01*
X251322607Y-170609570D02*
X251474207Y-170080876D01*
X251707111Y-170719825D02*
X251322607Y-170609570D01*
%TO.C,D21*%
X250450000Y-146600000D02*
X251050000Y-147000000D01*
X250450000Y-147000000D02*
X249950000Y-147000000D01*
X250450000Y-147400000D02*
X250450000Y-146600000D01*
X251050000Y-147000000D02*
X250450000Y-147400000D01*
X251050000Y-147000000D02*
X251050000Y-146450000D01*
X251050000Y-147000000D02*
X251050000Y-147550000D01*
X251450000Y-147000000D02*
X251050000Y-147000000D01*
%TO.C,D7*%
X174450000Y-111600000D02*
X175050000Y-112000000D01*
X174450000Y-112000000D02*
X173950000Y-112000000D01*
X174450000Y-112400000D02*
X174450000Y-111600000D01*
X175050000Y-112000000D02*
X174450000Y-112400000D01*
X175050000Y-112000000D02*
X175050000Y-111450000D01*
X175050000Y-112000000D02*
X175050000Y-112550000D01*
X175450000Y-112000000D02*
X175050000Y-112000000D01*
%TO.C,D27*%
X269560803Y-183788750D02*
X270085650Y-183184982D01*
X269823227Y-183486866D02*
X269445872Y-183158837D01*
X270085650Y-183184982D02*
X270276052Y-183880502D01*
X270276052Y-183880502D02*
X269560803Y-183788750D01*
X270276052Y-183880502D02*
X269915220Y-184295592D01*
X270276052Y-183880502D02*
X270636885Y-183465411D01*
X270577936Y-184142925D02*
X270276052Y-183880502D01*
%TO.C,D19*%
X231450000Y-103600000D02*
X232050000Y-104000000D01*
X231450000Y-104000000D02*
X230950000Y-104000000D01*
X231450000Y-104400000D02*
X231450000Y-103600000D01*
X232050000Y-104000000D02*
X231450000Y-104400000D01*
X232050000Y-104000000D02*
X232050000Y-103450000D01*
X232050000Y-104000000D02*
X232050000Y-104550000D01*
X232450000Y-104000000D02*
X232050000Y-104000000D01*
%TO.C,D1*%
X155450000Y-149600000D02*
X156050000Y-150000000D01*
X155450000Y-150000000D02*
X154950000Y-150000000D01*
X155450000Y-150400000D02*
X155450000Y-149600000D01*
X156050000Y-150000000D02*
X155450000Y-150400000D01*
X156050000Y-150000000D02*
X156050000Y-149450000D01*
X156050000Y-150000000D02*
X156050000Y-150550000D01*
X156450000Y-150000000D02*
X156050000Y-150000000D01*
%TO.C,D8*%
X174450000Y-92600000D02*
X175050000Y-93000000D01*
X174450000Y-93000000D02*
X173950000Y-93000000D01*
X174450000Y-93400000D02*
X174450000Y-92600000D01*
X175050000Y-93000000D02*
X174450000Y-93400000D01*
X175050000Y-93000000D02*
X175050000Y-92450000D01*
X175050000Y-93000000D02*
X175050000Y-93550000D01*
X175450000Y-93000000D02*
X175050000Y-93000000D01*
%TO.C,D23*%
X250450000Y-108600000D02*
X251050000Y-109000000D01*
X250450000Y-109000000D02*
X249950000Y-109000000D01*
X250450000Y-109400000D02*
X250450000Y-108600000D01*
X251050000Y-109000000D02*
X250450000Y-109400000D01*
X251050000Y-109000000D02*
X251050000Y-108450000D01*
X251050000Y-109000000D02*
X251050000Y-109550000D01*
X251450000Y-109000000D02*
X251050000Y-109000000D01*
D12*
%TO.C,PWR1*%
X246650000Y-82875000D02*
X246650000Y-82085000D01*
X247250000Y-81075000D02*
X252950000Y-81075000D01*
X248500000Y-83925000D02*
X250200000Y-83925000D01*
X251500000Y-83925000D02*
X251700000Y-83925000D01*
X253550000Y-82085000D02*
X253550000Y-82875000D01*
D11*
%TO.C,D15*%
X212450000Y-99600000D02*
X213050000Y-100000000D01*
X212450000Y-100000000D02*
X211950000Y-100000000D01*
X212450000Y-100400000D02*
X212450000Y-99600000D01*
X213050000Y-100000000D02*
X212450000Y-100400000D01*
X213050000Y-100000000D02*
X213050000Y-99450000D01*
X213050000Y-100000000D02*
X213050000Y-100550000D01*
X213450000Y-100000000D02*
X213050000Y-100000000D01*
%TO.C,D5*%
X174450000Y-149600000D02*
X175050000Y-150000000D01*
X174450000Y-150000000D02*
X173950000Y-150000000D01*
X174450000Y-150400000D02*
X174450000Y-149600000D01*
X175050000Y-150000000D02*
X174450000Y-150400000D01*
X175050000Y-150000000D02*
X175050000Y-149450000D01*
X175050000Y-150000000D02*
X175050000Y-150550000D01*
X175450000Y-150000000D02*
X175050000Y-150000000D01*
%TO.C,D11*%
X193450000Y-103600000D02*
X194050000Y-104000000D01*
X193450000Y-104000000D02*
X192950000Y-104000000D01*
X193450000Y-104400000D02*
X193450000Y-103600000D01*
X194050000Y-104000000D02*
X193450000Y-104400000D01*
X194050000Y-104000000D02*
X194050000Y-103450000D01*
X194050000Y-104000000D02*
X194050000Y-104550000D01*
X194450000Y-104000000D02*
X194050000Y-104000000D01*
D12*
%TO.C,MCU1*%
X256150000Y-82970000D02*
X256150000Y-113570000D01*
X256150000Y-85570000D02*
X258810000Y-85570000D01*
X258810000Y-82970000D02*
X256150000Y-82970000D01*
X258810000Y-82970000D02*
X258810000Y-113570000D01*
X258810000Y-113570000D02*
X256150000Y-113570000D01*
X271390000Y-82970000D02*
X271390000Y-113570000D01*
X274050000Y-82970000D02*
X271390000Y-82970000D01*
X274050000Y-82970000D02*
X274050000Y-113570000D01*
X274050000Y-113570000D02*
X271390000Y-113570000D01*
D11*
%TO.C,D16*%
X212450000Y-80600000D02*
X213050000Y-81000000D01*
X212450000Y-81000000D02*
X211950000Y-81000000D01*
X212450000Y-81400000D02*
X212450000Y-80600000D01*
X213050000Y-81000000D02*
X212450000Y-81400000D01*
X213050000Y-81000000D02*
X213050000Y-80450000D01*
X213050000Y-81000000D02*
X213050000Y-81550000D01*
X213450000Y-81000000D02*
X213050000Y-81000000D01*
%TO.C,D12*%
X193450000Y-84600000D02*
X194050000Y-85000000D01*
X193450000Y-85000000D02*
X192950000Y-85000000D01*
X193450000Y-85400000D02*
X193450000Y-84600000D01*
X194050000Y-85000000D02*
X193450000Y-85400000D01*
X194050000Y-85000000D02*
X194050000Y-84450000D01*
X194050000Y-85000000D02*
X194050000Y-85550000D01*
X194450000Y-85000000D02*
X194050000Y-85000000D01*
%TO.C,D22*%
X250450000Y-127600000D02*
X251050000Y-128000000D01*
X250450000Y-128000000D02*
X249950000Y-128000000D01*
X250450000Y-128400000D02*
X250450000Y-127600000D01*
X251050000Y-128000000D02*
X250450000Y-128400000D01*
X251050000Y-128000000D02*
X251050000Y-127450000D01*
X251050000Y-128000000D02*
X251050000Y-128550000D01*
X251450000Y-128000000D02*
X251050000Y-128000000D01*
%TO.C,D17*%
X231450000Y-141600000D02*
X232050000Y-142000000D01*
X231450000Y-142000000D02*
X230950000Y-142000000D01*
X231450000Y-142400000D02*
X231450000Y-141600000D01*
X232050000Y-142000000D02*
X231450000Y-142400000D01*
X232050000Y-142000000D02*
X232050000Y-141450000D01*
X232050000Y-142000000D02*
X232050000Y-142550000D01*
X232450000Y-142000000D02*
X232050000Y-142000000D01*
%TO.C,D9*%
X193450000Y-141600000D02*
X194050000Y-142000000D01*
X193450000Y-142000000D02*
X192950000Y-142000000D01*
X193450000Y-142400000D02*
X193450000Y-141600000D01*
X194050000Y-142000000D02*
X193450000Y-142400000D01*
X194050000Y-142000000D02*
X194050000Y-141450000D01*
X194050000Y-142000000D02*
X194050000Y-142550000D01*
X194450000Y-142000000D02*
X194050000Y-142000000D01*
D12*
%TO.C,JST1*%
X256600000Y-114440000D02*
X257600000Y-114440000D01*
X256600000Y-115360000D02*
X256600000Y-114440000D01*
X256600000Y-119560000D02*
X256600000Y-120560000D01*
X256600000Y-120560000D02*
X257600000Y-120560000D01*
X264420000Y-114440000D02*
X263420000Y-114440000D01*
X264420000Y-115360000D02*
X264420000Y-114440000D01*
X264420000Y-119640000D02*
X264420000Y-120560000D01*
X264420000Y-120560000D02*
X263420000Y-120560000D01*
D11*
X264960000Y-118500000D02*
X265960000Y-118500000D01*
X265460000Y-116000000D02*
X265460000Y-117000000D01*
X265460000Y-119000000D02*
X265460000Y-118000000D01*
%TO.C,D14*%
X212450000Y-118600000D02*
X213050000Y-119000000D01*
X212450000Y-119000000D02*
X211950000Y-119000000D01*
X212450000Y-119400000D02*
X212450000Y-118600000D01*
X213050000Y-119000000D02*
X212450000Y-119400000D01*
X213050000Y-119000000D02*
X213050000Y-118450000D01*
X213050000Y-119000000D02*
X213050000Y-119550000D01*
X213450000Y-119000000D02*
X213050000Y-119000000D01*
%TO.C,D24*%
X250450000Y-89600000D02*
X251050000Y-90000000D01*
X250450000Y-90000000D02*
X249950000Y-90000000D01*
X250450000Y-90400000D02*
X250450000Y-89600000D01*
X251050000Y-90000000D02*
X250450000Y-90400000D01*
X251050000Y-90000000D02*
X251050000Y-89450000D01*
X251050000Y-90000000D02*
X251050000Y-90550000D01*
X251450000Y-90000000D02*
X251050000Y-90000000D01*
%TO.C,D6*%
X174450000Y-130600000D02*
X175050000Y-131000000D01*
X174450000Y-131000000D02*
X173950000Y-131000000D01*
X174450000Y-131400000D02*
X174450000Y-130600000D01*
X175050000Y-131000000D02*
X174450000Y-131400000D01*
X175050000Y-131000000D02*
X175050000Y-130450000D01*
X175050000Y-131000000D02*
X175050000Y-131550000D01*
X175450000Y-131000000D02*
X175050000Y-131000000D01*
%TO.C,D20*%
X231450000Y-84600000D02*
X232050000Y-85000000D01*
X231450000Y-85000000D02*
X230950000Y-85000000D01*
X231450000Y-85400000D02*
X231450000Y-84600000D01*
X232050000Y-85000000D02*
X231450000Y-85400000D01*
X232050000Y-85000000D02*
X232050000Y-84450000D01*
X232050000Y-85000000D02*
X232050000Y-85550000D01*
X232450000Y-85000000D02*
X232050000Y-85000000D01*
%TO.C,RST1*%
X237750000Y-81500000D02*
X237750000Y-81250000D01*
X237750000Y-84500000D02*
X237750000Y-84750000D01*
X238000000Y-81250000D02*
X237750000Y-81250000D01*
X238000000Y-84750000D02*
X237750000Y-84750000D01*
X242200000Y-81250000D02*
X242450000Y-81250000D01*
X242200000Y-84750000D02*
X242450000Y-84750000D01*
X242450000Y-81500000D02*
X242450000Y-81250000D01*
X242450000Y-84500000D02*
X242450000Y-84750000D01*
%TO.C,D4*%
X155450000Y-92600000D02*
X156050000Y-93000000D01*
X155450000Y-93000000D02*
X154950000Y-93000000D01*
X155450000Y-93400000D02*
X155450000Y-92600000D01*
X156050000Y-93000000D02*
X155450000Y-93400000D01*
X156050000Y-93000000D02*
X156050000Y-92450000D01*
X156050000Y-93000000D02*
X156050000Y-93550000D01*
X156450000Y-93000000D02*
X156050000Y-93000000D01*
%TO.C,D25*%
X230317828Y-165392644D02*
X230442976Y-164602493D01*
X230380402Y-164997568D02*
X229886558Y-164919351D01*
X230442976Y-164602493D02*
X230973015Y-165091429D01*
X230973015Y-165091429D02*
X230317828Y-165392644D01*
X230973015Y-165091429D02*
X230886976Y-165634658D01*
X230973015Y-165091429D02*
X231059054Y-164548200D01*
X231368090Y-165154003D02*
X230973015Y-165091429D01*
%TO.C,D2*%
X155450000Y-130600000D02*
X156050000Y-131000000D01*
X155450000Y-131000000D02*
X154950000Y-131000000D01*
X155450000Y-131400000D02*
X155450000Y-130600000D01*
X156050000Y-131000000D02*
X155450000Y-131400000D01*
X156050000Y-131000000D02*
X156050000Y-130450000D01*
X156050000Y-131000000D02*
X156050000Y-131550000D01*
X156450000Y-131000000D02*
X156050000Y-131000000D01*
%TO.C,D3*%
X155450000Y-111600000D02*
X156050000Y-112000000D01*
X155450000Y-112000000D02*
X154950000Y-112000000D01*
X155450000Y-112400000D02*
X155450000Y-111600000D01*
X156050000Y-112000000D02*
X155450000Y-112400000D01*
X156050000Y-112000000D02*
X156050000Y-111450000D01*
X156050000Y-112000000D02*
X156050000Y-112550000D01*
X156450000Y-112000000D02*
X156050000Y-112000000D01*
%TO.C,D10*%
X193450000Y-122600000D02*
X194050000Y-123000000D01*
X193450000Y-123000000D02*
X192950000Y-123000000D01*
X193450000Y-123400000D02*
X193450000Y-122600000D01*
X194050000Y-123000000D02*
X193450000Y-123400000D01*
X194050000Y-123000000D02*
X194050000Y-122450000D01*
X194050000Y-123000000D02*
X194050000Y-123550000D01*
X194450000Y-123000000D02*
X194050000Y-123000000D01*
%TO.C,D13*%
X212450000Y-137600000D02*
X213050000Y-138000000D01*
X212450000Y-138000000D02*
X211950000Y-138000000D01*
X212450000Y-138400000D02*
X212450000Y-137600000D01*
X213050000Y-138000000D02*
X212450000Y-138400000D01*
X213050000Y-138000000D02*
X213050000Y-137450000D01*
X213050000Y-138000000D02*
X213050000Y-138550000D01*
X213450000Y-138000000D02*
X213050000Y-138000000D01*
%TO.C,D18*%
X231450000Y-122600000D02*
X232050000Y-123000000D01*
X231450000Y-123000000D02*
X230950000Y-123000000D01*
X231450000Y-123400000D02*
X231450000Y-122600000D01*
X232050000Y-123000000D02*
X231450000Y-123400000D01*
X232050000Y-123000000D02*
X232050000Y-122450000D01*
X232050000Y-123000000D02*
X232050000Y-123550000D01*
X232450000Y-123000000D02*
X232050000Y-123000000D01*
D10*
%TO.C,S19*%
X219000000Y-105500000D02*
X223500000Y-105500000D01*
X219000000Y-106000000D02*
X219000000Y-105500000D01*
X219000000Y-110200000D02*
X219000000Y-109600000D01*
X223480000Y-110200000D02*
X219000000Y-110200000D01*
X223500000Y-105500000D02*
X223500000Y-106200000D01*
X224000000Y-111700000D02*
X224000000Y-110780000D01*
X224000000Y-111700000D02*
X224500000Y-112200000D01*
X224500000Y-112200000D02*
X227500000Y-112200000D01*
X225200000Y-107700000D02*
X227500000Y-107700000D01*
X227500000Y-107700000D02*
X228000000Y-108200000D01*
X227500000Y-112200000D02*
X228000000Y-111700000D01*
X223480000Y-110200000D02*
G75*
G02*
X224000000Y-110780000I-30000J-550000D01*
G01*
X225200000Y-107700000D02*
G75*
G02*
X223500000Y-106220000I-110000J1590000D01*
G01*
%TO.C,S6*%
X162000000Y-132500000D02*
X166500000Y-132500000D01*
X162000000Y-133000000D02*
X162000000Y-132500000D01*
X162000000Y-137200000D02*
X162000000Y-136600000D01*
X166480000Y-137200000D02*
X162000000Y-137200000D01*
X166500000Y-132500000D02*
X166500000Y-133200000D01*
X167000000Y-138700000D02*
X167000000Y-137780000D01*
X167000000Y-138700000D02*
X167500000Y-139200000D01*
X167500000Y-139200000D02*
X170500000Y-139200000D01*
X168200000Y-134700000D02*
X170500000Y-134700000D01*
X170500000Y-134700000D02*
X171000000Y-135200000D01*
X170500000Y-139200000D02*
X171000000Y-138700000D01*
X166480000Y-137200000D02*
G75*
G02*
X167000000Y-137780000I-30000J-550000D01*
G01*
X168200000Y-134700000D02*
G75*
G02*
X166500000Y-133220000I-110000J1590000D01*
G01*
%TO.C,S24*%
X238000000Y-91500000D02*
X242500000Y-91500000D01*
X238000000Y-92000000D02*
X238000000Y-91500000D01*
X238000000Y-96200000D02*
X238000000Y-95600000D01*
X242480000Y-96200000D02*
X238000000Y-96200000D01*
X242500000Y-91500000D02*
X242500000Y-92200000D01*
X243000000Y-97700000D02*
X243000000Y-96780000D01*
X243000000Y-97700000D02*
X243500000Y-98200000D01*
X243500000Y-98200000D02*
X246500000Y-98200000D01*
X244200000Y-93700000D02*
X246500000Y-93700000D01*
X246500000Y-93700000D02*
X247000000Y-94200000D01*
X246500000Y-98200000D02*
X247000000Y-97700000D01*
X242480000Y-96200000D02*
G75*
G02*
X243000000Y-96780000I-30000J-550000D01*
G01*
X244200000Y-93700000D02*
G75*
G02*
X242500000Y-92220000I-110000J1590000D01*
G01*
%TO.C,S8*%
X162000000Y-94500000D02*
X166500000Y-94500000D01*
X162000000Y-95000000D02*
X162000000Y-94500000D01*
X162000000Y-99200000D02*
X162000000Y-98600000D01*
X166480000Y-99200000D02*
X162000000Y-99200000D01*
X166500000Y-94500000D02*
X166500000Y-95200000D01*
X167000000Y-100700000D02*
X167000000Y-99780000D01*
X167000000Y-100700000D02*
X167500000Y-101200000D01*
X167500000Y-101200000D02*
X170500000Y-101200000D01*
X168200000Y-96700000D02*
X170500000Y-96700000D01*
X170500000Y-96700000D02*
X171000000Y-97200000D01*
X170500000Y-101200000D02*
X171000000Y-100700000D01*
X166480000Y-99200000D02*
G75*
G02*
X167000000Y-99780000I-30000J-550000D01*
G01*
X168200000Y-96700000D02*
G75*
G02*
X166500000Y-95220000I-110000J1590000D01*
G01*
%TO.C,S7*%
X162000000Y-113500000D02*
X166500000Y-113500000D01*
X162000000Y-114000000D02*
X162000000Y-113500000D01*
X162000000Y-118200000D02*
X162000000Y-117600000D01*
X166480000Y-118200000D02*
X162000000Y-118200000D01*
X166500000Y-113500000D02*
X166500000Y-114200000D01*
X167000000Y-119700000D02*
X167000000Y-118780000D01*
X167000000Y-119700000D02*
X167500000Y-120200000D01*
X167500000Y-120200000D02*
X170500000Y-120200000D01*
X168200000Y-115700000D02*
X170500000Y-115700000D01*
X170500000Y-115700000D02*
X171000000Y-116200000D01*
X170500000Y-120200000D02*
X171000000Y-119700000D01*
X166480000Y-118200000D02*
G75*
G02*
X167000000Y-118780000I-30000J-550000D01*
G01*
X168200000Y-115700000D02*
G75*
G02*
X166500000Y-114220000I-110000J1590000D01*
G01*
%TO.C,S4*%
X143000000Y-94500000D02*
X147500000Y-94500000D01*
X143000000Y-95000000D02*
X143000000Y-94500000D01*
X143000000Y-99200000D02*
X143000000Y-98600000D01*
X147480000Y-99200000D02*
X143000000Y-99200000D01*
X147500000Y-94500000D02*
X147500000Y-95200000D01*
X148000000Y-100700000D02*
X148000000Y-99780000D01*
X148000000Y-100700000D02*
X148500000Y-101200000D01*
X148500000Y-101200000D02*
X151500000Y-101200000D01*
X149200000Y-96700000D02*
X151500000Y-96700000D01*
X151500000Y-96700000D02*
X152000000Y-97200000D01*
X151500000Y-101200000D02*
X152000000Y-100700000D01*
X147480000Y-99200000D02*
G75*
G02*
X148000000Y-99780000I-30000J-550000D01*
G01*
X149200000Y-96700000D02*
G75*
G02*
X147500000Y-95220000I-110000J1590000D01*
G01*
%TO.C,S25*%
X217113788Y-169173626D02*
X217207649Y-168581012D01*
X217770813Y-165025335D02*
X217849030Y-164531491D01*
X217849030Y-164531491D02*
X222293627Y-165235446D01*
X221538632Y-169874453D02*
X217113788Y-169173626D01*
X221817578Y-171437331D02*
X221961498Y-170528658D01*
X221817578Y-171437331D02*
X222233205Y-172009393D01*
X222233205Y-172009393D02*
X225196270Y-172478696D01*
X222293627Y-165235446D02*
X222184123Y-165926828D01*
X223628542Y-167674299D02*
X225900225Y-168034099D01*
X225196270Y-172478696D02*
X225768331Y-172063069D01*
X225900225Y-168034099D02*
X226315852Y-168606160D01*
X221538632Y-169874453D02*
G75*
G02*
X221961497Y-170528658I-115670J-538535D01*
G01*
X223628542Y-167674299D02*
G75*
G02*
X222180995Y-165946582I140085J1587632D01*
G01*
%TO.C,S5*%
X162000000Y-151500000D02*
X166500000Y-151500000D01*
X162000000Y-152000000D02*
X162000000Y-151500000D01*
X162000000Y-156200000D02*
X162000000Y-155600000D01*
X166480000Y-156200000D02*
X162000000Y-156200000D01*
X166500000Y-151500000D02*
X166500000Y-152200000D01*
X167000000Y-157700000D02*
X167000000Y-156780000D01*
X167000000Y-157700000D02*
X167500000Y-158200000D01*
X167500000Y-158200000D02*
X170500000Y-158200000D01*
X168200000Y-153700000D02*
X170500000Y-153700000D01*
X170500000Y-153700000D02*
X171000000Y-154200000D01*
X170500000Y-158200000D02*
X171000000Y-157700000D01*
X166480000Y-156200000D02*
G75*
G02*
X167000000Y-156780000I-30000J-550000D01*
G01*
X168200000Y-153700000D02*
G75*
G02*
X166500000Y-152220000I-110000J1590000D01*
G01*
%TO.C,S14*%
X200000000Y-120500000D02*
X204500000Y-120500000D01*
X200000000Y-121000000D02*
X200000000Y-120500000D01*
X200000000Y-125200000D02*
X200000000Y-124600000D01*
X204480000Y-125200000D02*
X200000000Y-125200000D01*
X204500000Y-120500000D02*
X204500000Y-121200000D01*
X205000000Y-126700000D02*
X205000000Y-125780000D01*
X205000000Y-126700000D02*
X205500000Y-127200000D01*
X205500000Y-127200000D02*
X208500000Y-127200000D01*
X206200000Y-122700000D02*
X208500000Y-122700000D01*
X208500000Y-122700000D02*
X209000000Y-123200000D01*
X208500000Y-127200000D02*
X209000000Y-126700000D01*
X204480000Y-125200000D02*
G75*
G02*
X205000000Y-125780000I-30000J-550000D01*
G01*
X206200000Y-122700000D02*
G75*
G02*
X204500000Y-121220000I-110000J1590000D01*
G01*
%TO.C,S23*%
X238000000Y-110500000D02*
X242500000Y-110500000D01*
X238000000Y-111000000D02*
X238000000Y-110500000D01*
X238000000Y-115200000D02*
X238000000Y-114600000D01*
X242480000Y-115200000D02*
X238000000Y-115200000D01*
X242500000Y-110500000D02*
X242500000Y-111200000D01*
X243000000Y-116700000D02*
X243000000Y-115780000D01*
X243000000Y-116700000D02*
X243500000Y-117200000D01*
X243500000Y-117200000D02*
X246500000Y-117200000D01*
X244200000Y-112700000D02*
X246500000Y-112700000D01*
X246500000Y-112700000D02*
X247000000Y-113200000D01*
X246500000Y-117200000D02*
X247000000Y-116700000D01*
X242480000Y-115200000D02*
G75*
G02*
X243000000Y-115780000I-30000J-550000D01*
G01*
X244200000Y-112700000D02*
G75*
G02*
X242500000Y-111220000I-110000J1590000D01*
G01*
%TO.C,S20*%
X219000000Y-86500000D02*
X223500000Y-86500000D01*
X219000000Y-87000000D02*
X219000000Y-86500000D01*
X219000000Y-91200000D02*
X219000000Y-90600000D01*
X223480000Y-91200000D02*
X219000000Y-91200000D01*
X223500000Y-86500000D02*
X223500000Y-87200000D01*
X224000000Y-92700000D02*
X224000000Y-91780000D01*
X224000000Y-92700000D02*
X224500000Y-93200000D01*
X224500000Y-93200000D02*
X227500000Y-93200000D01*
X225200000Y-88700000D02*
X227500000Y-88700000D01*
X227500000Y-88700000D02*
X228000000Y-89200000D01*
X227500000Y-93200000D02*
X228000000Y-92700000D01*
X223480000Y-91200000D02*
G75*
G02*
X224000000Y-91780000I-30000J-550000D01*
G01*
X225200000Y-88700000D02*
G75*
G02*
X223500000Y-87220000I-110000J1590000D01*
G01*
%TO.C,S16*%
X200000000Y-82500000D02*
X204500000Y-82500000D01*
X200000000Y-83000000D02*
X200000000Y-82500000D01*
X200000000Y-87200000D02*
X200000000Y-86600000D01*
X204480000Y-87200000D02*
X200000000Y-87200000D01*
X204500000Y-82500000D02*
X204500000Y-83200000D01*
X205000000Y-88700000D02*
X205000000Y-87780000D01*
X205000000Y-88700000D02*
X205500000Y-89200000D01*
X205500000Y-89200000D02*
X208500000Y-89200000D01*
X206200000Y-84700000D02*
X208500000Y-84700000D01*
X208500000Y-84700000D02*
X209000000Y-85200000D01*
X208500000Y-89200000D02*
X209000000Y-88700000D01*
X204480000Y-87200000D02*
G75*
G02*
X205000000Y-87780000I-30000J-550000D01*
G01*
X206200000Y-84700000D02*
G75*
G02*
X204500000Y-83220000I-110000J1590000D01*
G01*
%TO.C,S1*%
X143000000Y-151500000D02*
X147500000Y-151500000D01*
X143000000Y-152000000D02*
X143000000Y-151500000D01*
X143000000Y-156200000D02*
X143000000Y-155600000D01*
X147480000Y-156200000D02*
X143000000Y-156200000D01*
X147500000Y-151500000D02*
X147500000Y-152200000D01*
X148000000Y-157700000D02*
X148000000Y-156780000D01*
X148000000Y-157700000D02*
X148500000Y-158200000D01*
X148500000Y-158200000D02*
X151500000Y-158200000D01*
X149200000Y-153700000D02*
X151500000Y-153700000D01*
X151500000Y-153700000D02*
X152000000Y-154200000D01*
X151500000Y-158200000D02*
X152000000Y-157700000D01*
X147480000Y-156200000D02*
G75*
G02*
X148000000Y-156780000I-30000J-550000D01*
G01*
X149200000Y-153700000D02*
G75*
G02*
X147500000Y-152220000I-110000J1590000D01*
G01*
%TO.C,S15*%
X200000000Y-101500000D02*
X204500000Y-101500000D01*
X200000000Y-102000000D02*
X200000000Y-101500000D01*
X200000000Y-106200000D02*
X200000000Y-105600000D01*
X204480000Y-106200000D02*
X200000000Y-106200000D01*
X204500000Y-101500000D02*
X204500000Y-102200000D01*
X205000000Y-107700000D02*
X205000000Y-106780000D01*
X205000000Y-107700000D02*
X205500000Y-108200000D01*
X205500000Y-108200000D02*
X208500000Y-108200000D01*
X206200000Y-103700000D02*
X208500000Y-103700000D01*
X208500000Y-103700000D02*
X209000000Y-104200000D01*
X208500000Y-108200000D02*
X209000000Y-107700000D01*
X204480000Y-106200000D02*
G75*
G02*
X205000000Y-106780000I-30000J-550000D01*
G01*
X206200000Y-103700000D02*
G75*
G02*
X204500000Y-102220000I-110000J1590000D01*
G01*
%TO.C,S2*%
X143000000Y-132500000D02*
X147500000Y-132500000D01*
X143000000Y-133000000D02*
X143000000Y-132500000D01*
X143000000Y-137200000D02*
X143000000Y-136600000D01*
X147480000Y-137200000D02*
X143000000Y-137200000D01*
X147500000Y-132500000D02*
X147500000Y-133200000D01*
X148000000Y-138700000D02*
X148000000Y-137780000D01*
X148000000Y-138700000D02*
X148500000Y-139200000D01*
X148500000Y-139200000D02*
X151500000Y-139200000D01*
X149200000Y-134700000D02*
X151500000Y-134700000D01*
X151500000Y-134700000D02*
X152000000Y-135200000D01*
X151500000Y-139200000D02*
X152000000Y-138700000D01*
X147480000Y-137200000D02*
G75*
G02*
X148000000Y-137780000I-30000J-550000D01*
G01*
X149200000Y-134700000D02*
G75*
G02*
X147500000Y-133220000I-110000J1590000D01*
G01*
%TO.C,S18*%
X219000000Y-124500000D02*
X223500000Y-124500000D01*
X219000000Y-125000000D02*
X219000000Y-124500000D01*
X219000000Y-129200000D02*
X219000000Y-128600000D01*
X223480000Y-129200000D02*
X219000000Y-129200000D01*
X223500000Y-124500000D02*
X223500000Y-125200000D01*
X224000000Y-130700000D02*
X224000000Y-129780000D01*
X224000000Y-130700000D02*
X224500000Y-131200000D01*
X224500000Y-131200000D02*
X227500000Y-131200000D01*
X225200000Y-126700000D02*
X227500000Y-126700000D01*
X227500000Y-126700000D02*
X228000000Y-127200000D01*
X227500000Y-131200000D02*
X228000000Y-130700000D01*
X223480000Y-129200000D02*
G75*
G02*
X224000000Y-129780000I-30000J-550000D01*
G01*
X225200000Y-126700000D02*
G75*
G02*
X223500000Y-125220000I-110000J1590000D01*
G01*
%TO.C,S17*%
X219000000Y-143500000D02*
X223500000Y-143500000D01*
X219000000Y-144000000D02*
X219000000Y-143500000D01*
X219000000Y-148200000D02*
X219000000Y-147600000D01*
X223480000Y-148200000D02*
X219000000Y-148200000D01*
X223500000Y-143500000D02*
X223500000Y-144200000D01*
X224000000Y-149700000D02*
X224000000Y-148780000D01*
X224000000Y-149700000D02*
X224500000Y-150200000D01*
X224500000Y-150200000D02*
X227500000Y-150200000D01*
X225200000Y-145700000D02*
X227500000Y-145700000D01*
X227500000Y-145700000D02*
X228000000Y-146200000D01*
X227500000Y-150200000D02*
X228000000Y-149700000D01*
X223480000Y-148200000D02*
G75*
G02*
X224000000Y-148780000I-30000J-550000D01*
G01*
X225200000Y-145700000D02*
G75*
G02*
X223500000Y-144220000I-110000J1590000D01*
G01*
%TO.C,S11*%
X181000000Y-105500000D02*
X185500000Y-105500000D01*
X181000000Y-106000000D02*
X181000000Y-105500000D01*
X181000000Y-110200000D02*
X181000000Y-109600000D01*
X185480000Y-110200000D02*
X181000000Y-110200000D01*
X185500000Y-105500000D02*
X185500000Y-106200000D01*
X186000000Y-111700000D02*
X186000000Y-110780000D01*
X186000000Y-111700000D02*
X186500000Y-112200000D01*
X186500000Y-112200000D02*
X189500000Y-112200000D01*
X187200000Y-107700000D02*
X189500000Y-107700000D01*
X189500000Y-107700000D02*
X190000000Y-108200000D01*
X189500000Y-112200000D02*
X190000000Y-111700000D01*
X185480000Y-110200000D02*
G75*
G02*
X186000000Y-110780000I-30000J-550000D01*
G01*
X187200000Y-107700000D02*
G75*
G02*
X185500000Y-106220000I-110000J1590000D01*
G01*
%TO.C,S21*%
X238000000Y-148500000D02*
X242500000Y-148500000D01*
X238000000Y-149000000D02*
X238000000Y-148500000D01*
X238000000Y-153200000D02*
X238000000Y-152600000D01*
X242480000Y-153200000D02*
X238000000Y-153200000D01*
X242500000Y-148500000D02*
X242500000Y-149200000D01*
X243000000Y-154700000D02*
X243000000Y-153780000D01*
X243000000Y-154700000D02*
X243500000Y-155200000D01*
X243500000Y-155200000D02*
X246500000Y-155200000D01*
X244200000Y-150700000D02*
X246500000Y-150700000D01*
X246500000Y-150700000D02*
X247000000Y-151200000D01*
X246500000Y-155200000D02*
X247000000Y-154700000D01*
X242480000Y-153200000D02*
G75*
G02*
X243000000Y-153780000I-30000J-550000D01*
G01*
X244200000Y-150700000D02*
G75*
G02*
X242500000Y-149220000I-110000J1590000D01*
G01*
%TO.C,S12*%
X181000000Y-86500000D02*
X185500000Y-86500000D01*
X181000000Y-87000000D02*
X181000000Y-86500000D01*
X181000000Y-91200000D02*
X181000000Y-90600000D01*
X185480000Y-91200000D02*
X181000000Y-91200000D01*
X185500000Y-86500000D02*
X185500000Y-87200000D01*
X186000000Y-92700000D02*
X186000000Y-91780000D01*
X186000000Y-92700000D02*
X186500000Y-93200000D01*
X186500000Y-93200000D02*
X189500000Y-93200000D01*
X187200000Y-88700000D02*
X189500000Y-88700000D01*
X189500000Y-88700000D02*
X190000000Y-89200000D01*
X189500000Y-93200000D02*
X190000000Y-92700000D01*
X185480000Y-91200000D02*
G75*
G02*
X186000000Y-91780000I-30000J-550000D01*
G01*
X187200000Y-88700000D02*
G75*
G02*
X185500000Y-87220000I-110000J1590000D01*
G01*
%TO.C,S9*%
X181000000Y-143500000D02*
X185500000Y-143500000D01*
X181000000Y-144000000D02*
X181000000Y-143500000D01*
X181000000Y-148200000D02*
X181000000Y-147600000D01*
X185480000Y-148200000D02*
X181000000Y-148200000D01*
X185500000Y-143500000D02*
X185500000Y-144200000D01*
X186000000Y-149700000D02*
X186000000Y-148780000D01*
X186000000Y-149700000D02*
X186500000Y-150200000D01*
X186500000Y-150200000D02*
X189500000Y-150200000D01*
X187200000Y-145700000D02*
X189500000Y-145700000D01*
X189500000Y-145700000D02*
X190000000Y-146200000D01*
X189500000Y-150200000D02*
X190000000Y-149700000D01*
X185480000Y-148200000D02*
G75*
G02*
X186000000Y-148780000I-30000J-550000D01*
G01*
X187200000Y-145700000D02*
G75*
G02*
X185500000Y-144220000I-110000J1590000D01*
G01*
%TO.C,S3*%
X143000000Y-113500000D02*
X147500000Y-113500000D01*
X143000000Y-114000000D02*
X143000000Y-113500000D01*
X143000000Y-118200000D02*
X143000000Y-117600000D01*
X147480000Y-118200000D02*
X143000000Y-118200000D01*
X147500000Y-113500000D02*
X147500000Y-114200000D01*
X148000000Y-119700000D02*
X148000000Y-118780000D01*
X148000000Y-119700000D02*
X148500000Y-120200000D01*
X148500000Y-120200000D02*
X151500000Y-120200000D01*
X149200000Y-115700000D02*
X151500000Y-115700000D01*
X151500000Y-115700000D02*
X152000000Y-116200000D01*
X151500000Y-120200000D02*
X152000000Y-119700000D01*
X147480000Y-118200000D02*
G75*
G02*
X148000000Y-118780000I-30000J-550000D01*
G01*
X149200000Y-115700000D02*
G75*
G02*
X147500000Y-114220000I-110000J1590000D01*
G01*
%TO.C,S13*%
X200000000Y-139500000D02*
X204500000Y-139500000D01*
X200000000Y-140000000D02*
X200000000Y-139500000D01*
X200000000Y-144200000D02*
X200000000Y-143600000D01*
X204480000Y-144200000D02*
X200000000Y-144200000D01*
X204500000Y-139500000D02*
X204500000Y-140200000D01*
X205000000Y-145700000D02*
X205000000Y-144780000D01*
X205000000Y-145700000D02*
X205500000Y-146200000D01*
X205500000Y-146200000D02*
X208500000Y-146200000D01*
X206200000Y-141700000D02*
X208500000Y-141700000D01*
X208500000Y-141700000D02*
X209000000Y-142200000D01*
X208500000Y-146200000D02*
X209000000Y-145700000D01*
X204480000Y-144200000D02*
G75*
G02*
X205000000Y-144780000I-30000J-550000D01*
G01*
X206200000Y-141700000D02*
G75*
G02*
X204500000Y-140220000I-110000J1590000D01*
G01*
%TO.C,S22*%
X238000000Y-129500000D02*
X242500000Y-129500000D01*
X238000000Y-130000000D02*
X238000000Y-129500000D01*
X238000000Y-134200000D02*
X238000000Y-133600000D01*
X242480000Y-134200000D02*
X238000000Y-134200000D01*
X242500000Y-129500000D02*
X242500000Y-130200000D01*
X243000000Y-135700000D02*
X243000000Y-134780000D01*
X243000000Y-135700000D02*
X243500000Y-136200000D01*
X243500000Y-136200000D02*
X246500000Y-136200000D01*
X244200000Y-131700000D02*
X246500000Y-131700000D01*
X246500000Y-131700000D02*
X247000000Y-132200000D01*
X246500000Y-136200000D02*
X247000000Y-135700000D01*
X242480000Y-134200000D02*
G75*
G02*
X243000000Y-134780000I-30000J-550000D01*
G01*
X244200000Y-131700000D02*
G75*
G02*
X242500000Y-130220000I-110000J1590000D01*
G01*
%TO.C,S27*%
X256359526Y-179998131D02*
X256753161Y-179545305D01*
X259114974Y-176828351D02*
X259443003Y-176450996D01*
X259148985Y-184410491D02*
X259198311Y-185115875D01*
X259148985Y-184410491D02*
X259752560Y-183716158D01*
X259198311Y-185115875D02*
X261462439Y-187084052D01*
X259443003Y-176450996D02*
X262839197Y-179403262D01*
X259740625Y-182937276D02*
X256359526Y-179998131D01*
X261462439Y-187084052D02*
X262167824Y-187034727D01*
X262678873Y-182178923D02*
X264414705Y-183687859D01*
X262839197Y-179403262D02*
X262379955Y-179931559D01*
X264414705Y-183687859D02*
X264464030Y-184393243D01*
X259740625Y-182937276D02*
G75*
G02*
X259752559Y-183716158I-383474J-395408D01*
G01*
X262678873Y-182178923D02*
G75*
G02*
X262366834Y-179946653I960116J1272155D01*
G01*
%TO.C,S26*%
X237069190Y-172972325D02*
X237234572Y-172395568D01*
X238226866Y-168935026D02*
X238364685Y-168454395D01*
X238364685Y-168454395D02*
X242690363Y-169694763D01*
X241375642Y-174207180D02*
X237069190Y-172972325D01*
X241462042Y-175792404D02*
X241715628Y-174908044D01*
X241462042Y-175792404D02*
X241804854Y-176410854D01*
X241804854Y-176410854D02*
X244688639Y-177237766D01*
X242690363Y-169694763D02*
X242497417Y-170367646D01*
X243718104Y-172278122D02*
X245929007Y-172912088D01*
X244688639Y-177237766D02*
X245307089Y-176894954D01*
X245929007Y-172912088D02*
X246271819Y-173530538D01*
X241375642Y-174207180D02*
G75*
G02*
X241715629Y-174908044I-180438J-520425D01*
G01*
X243718104Y-172278122D02*
G75*
G02*
X242491904Y-170386872I332526J1558726D01*
G01*
%TO.C,S10*%
X181000000Y-124500000D02*
X185500000Y-124500000D01*
X181000000Y-125000000D02*
X181000000Y-124500000D01*
X181000000Y-129200000D02*
X181000000Y-128600000D01*
X185480000Y-129200000D02*
X181000000Y-129200000D01*
X185500000Y-124500000D02*
X185500000Y-125200000D01*
X186000000Y-130700000D02*
X186000000Y-129780000D01*
X186000000Y-130700000D02*
X186500000Y-131200000D01*
X186500000Y-131200000D02*
X189500000Y-131200000D01*
X187200000Y-126700000D02*
X189500000Y-126700000D01*
X189500000Y-126700000D02*
X190000000Y-127200000D01*
X189500000Y-131200000D02*
X190000000Y-130700000D01*
X185480000Y-129200000D02*
G75*
G02*
X186000000Y-129780000I-30000J-550000D01*
G01*
X187200000Y-126700000D02*
G75*
G02*
X185500000Y-125220000I-110000J1590000D01*
G01*
%TD*%
M02*
